<svg width="100" height="100" viewBox="0 0 100 100" fill="none" xmlns="http://www.w3.org/2000/svg">
<path d="M83.3307 45.5021C87.9141 39.7111 88.7474 31.8518 86.2474 25.2334L89.5807 21.9242C91.1278 20.3883 91.997 18.3052 91.997 16.1332C91.997 13.9611 91.1278 11.878 89.5807 10.3421C88.0336 8.80621 85.9353 7.94336 83.7474 7.94336C81.5595 7.94336 79.4612 8.80621 77.9141 10.3421L74.5807 13.6513C71.1954 12.4587 67.5693 12.0992 64.0133 12.6035C60.4573 13.1079 57.0776 14.461 54.1641 16.5468" stroke="#2176FF" stroke-width="9.05797" stroke-linecap="round" stroke-linejoin="round"/>
<path d="M47.0765 15.3055C47.8554 14.5476 48.9025 14.123 49.9932 14.123C51.0838 14.123 52.131 14.5476 52.9098 15.3055L84.5765 46.7427C85.3399 47.5159 85.7676 48.5555 85.7676 49.6382C85.7676 50.721 85.3399 51.7605 84.5765 52.5338L77.9098 59.1521C77.131 59.91 76.0838 60.3346 74.9932 60.3346C73.9025 60.3346 72.8554 59.91 72.0765 59.1521L40.4098 27.7149C39.6464 26.9417 39.2188 25.9021 39.2188 24.8194C39.2188 23.7366 39.6464 22.6971 40.4098 21.9238L47.0765 15.3055Z" stroke="#2176FF" stroke-width="9.05797" stroke-linecap="round" stroke-linejoin="round"/>
<path d="M41.6589 28.9561L11.2422 59.1523C7.49219 62.8751 7.49219 69.4935 11.2422 73.2163L26.2422 88.1076C29.9922 91.8305 36.6589 91.8305 40.4089 88.1076L70.8255 57.9114M16.6589 53.7749L24.9922 62.0478M29.1589 41.3655L37.4922 49.6384" stroke="#2176FF" stroke-width="9.05797" stroke-linecap="round" stroke-linejoin="round"/>
</svg>
