<svg width="100" height="100" viewBox="0 0 100 100" fill="none" xmlns="http://www.w3.org/2000/svg">
<path d="M16.6693 41.667H8.33594C8.33594 18.6545 8.33594 4.16699 50.0026 4.16699C91.6693 4.16699 91.6693 18.6545 91.6693 41.667H83.3359M83.3359 33.3337C83.3359 37.9378 68.4109 41.667 50.0026 41.667C31.5943 41.667 16.6693 37.9378 16.6693 33.3337M83.3359 33.3337C83.3359 28.7295 68.4109 25.0003 50.0026 25.0003C31.5943 25.0003 16.6693 28.7295 16.6693 33.3337M83.3359 33.3337V83.3337C83.3359 90.2378 68.4109 95.8337 50.0026 95.8337C31.5943 95.8337 16.6693 90.2378 16.6693 83.3337V33.3337M83.3359 33.3337C83.3359 45.8337 75.0026 41.667 75.0026 50.0003V56.2503C75.0026 57.9079 74.3441 59.4976 73.172 60.6697C71.9999 61.8418 70.4102 62.5003 68.7526 62.5003C67.095 62.5003 65.5053 61.8418 64.3332 60.6697C63.1611 59.4976 62.5026 57.9079 62.5026 56.2503V54.167C62.5026 53.0619 62.0636 52.0021 61.2822 51.2207C60.5008 50.4393 59.441 50.0003 58.3359 50.0003C57.2309 50.0003 56.1711 50.4393 55.3897 51.2207C54.6083 52.0021 54.1693 53.0619 54.1693 54.167V70.8337C54.1693 73.5963 53.0718 76.2458 51.1183 78.1994C49.1648 80.1529 46.5153 81.2503 43.7526 81.2503C40.9899 81.2503 38.3404 80.1529 36.3869 78.1994C34.4334 76.2458 33.3359 73.5963 33.3359 70.8337V54.167C33.3359 53.0619 32.897 52.0021 32.1156 51.2207C31.3341 50.4393 30.2743 50.0003 29.1693 50.0003C22.9193 50.0003 16.6693 45.8337 16.6693 33.3337" stroke="#2176FF" stroke-width="8.33333"/>
</svg>
