<svg width="100" height="100" viewBox="0 0 100 100" fill="none" xmlns="http://www.w3.org/2000/svg">
<path d="M74.2531 59.3792C77.8323 67.8583 82.6115 73.8208 73.9031 84.3792H53.8281M96.1865 32.9833C96.1865 36.9428 94.6136 40.7401 91.8138 43.5398C89.0141 46.3396 85.2168 47.9125 81.2573 47.9125C77.2978 47.9125 73.5005 46.3396 70.7008 43.5398C67.901 40.7401 66.3281 36.9428 66.3281 32.9833C66.3281 21.7875 81.2573 3.125 81.2573 3.125C81.2573 3.125 96.1865 21.7875 96.1865 32.9833ZM28.8281 41.875C15.0198 41.875 3.82812 37.4 3.82812 31.875V86.875C3.82812 92.4 15.0198 96.875 28.8281 96.875C42.6365 96.875 53.8281 92.4 53.8281 86.875V31.875C53.8281 37.4 42.6323 41.875 28.8281 41.875Z" stroke="#2176FF" stroke-width="6.25" stroke-linecap="round" stroke-linejoin="round"/>
<path d="M28.8281 21.875C42.6365 21.875 53.8281 26.3542 53.8281 31.875C53.8281 37.3958 42.6365 41.875 28.8281 41.875C15.0198 41.875 3.82812 37.3958 3.82812 31.875C3.82812 26.3542 15.0198 21.875 28.8281 21.875ZM28.8281 21.875H55.7865M26.3281 31.875H31.3281" stroke="#2176FF" stroke-width="6.25" stroke-linecap="round" stroke-linejoin="round"/>
</svg>
