<svg width="100" height="100" viewBox="0 0 100 100" fill="none" xmlns="http://www.w3.org/2000/svg">
<path d="M70.3125 71.875C67.5312 71.875 64.8124 71.0503 62.4998 69.5051C60.1872 67.9598 58.3848 65.7636 57.3205 63.194C56.2561 60.6244 55.9776 57.7969 56.5202 55.069C57.0628 52.3412 58.4021 49.8355 60.3688 47.8688C62.3355 45.9021 64.8412 44.5628 67.569 44.0202C70.2969 43.4776 73.1244 43.7561 75.694 44.8205C78.2636 45.8848 80.4598 47.6872 82.005 49.9998C83.5503 52.3124 84.375 55.0312 84.375 57.8125C84.3709 61.5408 82.888 65.1153 80.2516 67.7516C77.6153 70.388 74.0408 71.8709 70.3125 71.875ZM70.3125 50C68.7673 50 67.2569 50.4582 65.9721 51.3167C64.6874 52.1751 63.686 53.3952 63.0947 54.8228C62.5034 56.2503 62.3487 57.8212 62.6501 59.3367C62.9516 60.8521 63.6956 62.2442 64.7882 63.3368C65.8808 64.4294 67.2729 65.1734 68.7884 65.4749C70.3038 65.7763 71.8747 65.6216 73.3022 65.0303C74.7298 64.439 75.9499 63.4377 76.8084 62.1529C77.6668 60.8681 78.125 59.3577 78.125 57.8125C78.1225 55.7413 77.2986 53.7556 75.834 52.291C74.3694 50.8264 72.3837 50.0025 70.3125 50Z" fill="#2176FF"/>
<path d="M87.5 25H81.25V9.375H59.375V25H53.125C51.4674 25 49.8777 25.6585 48.7056 26.8306C47.5335 28.0027 46.875 29.5924 46.875 31.25V87.5C46.875 89.1576 47.5335 90.7473 48.7056 91.9194C49.8777 93.0915 51.4674 93.75 53.125 93.75H87.5C89.1568 93.7475 90.7451 93.0882 91.9167 91.9167C93.0882 90.7451 93.7475 89.1568 93.75 87.5V31.25C93.75 29.5924 93.0915 28.0027 91.9194 26.8306C90.7473 25.6585 89.1576 25 87.5 25ZM65.625 15.625H75V25H65.625V15.625ZM53.125 87.5V31.25H87.5L87.5063 87.5H53.125ZM6.25 43.75H15.625V53.125H6.25V43.75ZM21.875 28.125H31.25V37.5H21.875V28.125ZM6.25 28.125H15.625V37.5H6.25V28.125ZM37.5 12.5H46.875V21.875H37.5V12.5ZM21.875 12.5H31.25V21.875H21.875V12.5ZM6.25 12.5H15.625V21.875H6.25V12.5Z" fill="#2176FF"/>
</svg>
