<svg width="102" height="99" viewBox="0 0 102 99" fill="none" xmlns="http://www.w3.org/2000/svg">
<path d="M25.9989 14.8559V32.176M61.7132 11.3919L97.4275 4.46387M61.7132 25.248L97.4275 32.176M18.856 14.8559H33.1417M40.2846 32.176H11.7132C9.81877 32.176 8.00195 32.9059 6.66241 34.2052C5.32286 35.5044 4.57031 37.2666 4.57031 39.104V87.6003C4.57031 89.4377 5.32286 91.1999 6.66241 92.4991C8.00195 93.7984 9.81877 94.5283 11.7132 94.5283H40.2846C42.179 94.5283 43.9958 93.7984 45.3354 92.4991C46.6749 91.1999 47.4275 89.4377 47.4275 87.6003V39.104C47.4275 37.2666 46.6749 35.5044 45.3354 34.2052C43.9958 32.9059 42.179 32.176 40.2846 32.176Z" stroke="#2176FF" stroke-width="8.05585" stroke-linecap="round" stroke-linejoin="round"/>
</svg>
