<svg width="100" height="100" viewBox="0 0 100 100" fill="none" xmlns="http://www.w3.org/2000/svg">
<path d="M41.6641 52.0833C40.559 52.0833 39.4992 52.5223 38.7178 53.3037C37.9364 54.0851 37.4974 55.1449 37.4974 56.25V85.4167H62.4974V56.25C62.4974 55.1449 62.0584 54.0851 61.277 53.3037C60.4956 52.5223 59.4358 52.0833 58.3307 52.0833H41.6641ZM45.8307 31.25V10.4167C45.8307 9.3116 46.2697 8.25179 47.0511 7.47039C47.8325 6.68899 48.8923 6.25 49.9974 6.25C51.1025 6.25 52.1623 6.68899 52.9437 7.47039C53.7251 8.25179 54.1641 9.3116 54.1641 10.4167V31.25H58.3307C59.4358 31.25 60.4956 31.689 61.277 32.4704C62.0584 33.2518 62.4974 34.3116 62.4974 35.4167V44.4583C67.3516 46.1792 70.8307 50.8083 70.8307 56.25V85.4167C70.8307 87.6268 69.9528 89.7464 68.39 91.3092C66.8272 92.872 64.7075 93.75 62.4974 93.75H37.4974C35.2873 93.75 33.1676 92.872 31.6048 91.3092C30.042 89.7464 29.1641 87.6268 29.1641 85.4167V56.25C29.1641 50.8083 32.6432 46.1792 37.4974 44.4583V35.4167C37.4974 34.3116 37.9364 33.2518 38.7178 32.4704C39.4992 31.689 40.559 31.25 41.6641 31.25H45.8307ZM45.8307 39.5833V43.75H54.1641V39.5833H45.8307Z" fill="#2176FF"/>
</svg>
