<svg width="100" height="100" viewBox="0 0 100 100" fill="none" xmlns="http://www.w3.org/2000/svg">
<path d="M68.75 43.75C64.3572 43.7517 60.0436 44.9196 56.25 47.1344V28.125C56.25 22.3234 53.9453 16.7594 49.843 12.657C45.7406 8.55468 40.1766 6.25 34.375 6.25C28.5734 6.25 23.0094 8.55468 18.907 12.657C14.8047 16.7594 12.5 22.3234 12.5 28.125V71.875C12.4989 76.3334 13.8603 80.6857 16.4018 84.3487C18.9434 88.0117 22.5436 90.8106 26.7203 92.3703C30.897 93.93 35.4505 94.1761 39.771 93.0755C44.0914 91.975 47.9723 89.5803 50.8937 86.2125C53.7756 89.1597 57.3418 91.3483 61.2746 92.5833C65.2073 93.8183 69.3844 94.0613 73.4338 93.2906C77.4832 92.52 81.2791 90.7597 84.4833 88.1665C87.6875 85.5732 90.2005 82.2277 91.7984 78.4279C93.3963 74.6282 94.0294 70.4921 93.6414 66.3884C93.2534 62.2846 91.8563 58.3405 89.5746 54.9075C87.2929 51.4745 84.1975 48.6593 80.564 46.7125C76.9306 44.7658 72.8721 43.7481 68.75 43.75ZM68.75 50C73.1769 50.0076 77.4586 51.58 80.8382 54.4393C84.2179 57.2985 86.4779 61.2605 87.2188 65.625H50.2812C51.0221 61.2605 53.2821 57.2985 56.6618 54.4393C60.0414 51.58 64.3231 50.0076 68.75 50ZM18.75 28.125C18.75 23.981 20.3962 20.0067 23.3265 17.0765C26.2567 14.1462 30.231 12.5 34.375 12.5C38.519 12.5 42.4933 14.1462 45.4235 17.0765C48.3538 20.0067 50 23.981 50 28.125V46.875H18.75V28.125ZM34.375 87.5C30.2325 87.495 26.2611 85.8472 23.3319 82.9181C20.4028 79.9889 18.755 76.0175 18.75 71.875V53.125H49.2656C46.1298 57.0126 44.2369 61.7542 43.8334 66.7326C43.4298 71.711 44.5343 76.6956 47.0031 81.0375C45.5591 83.0364 43.6617 84.6645 41.4665 85.7878C39.2713 86.9113 36.8409 87.498 34.375 87.5ZM68.75 87.5C64.3231 87.4924 60.0414 85.92 56.6618 83.0607C53.2821 80.2015 51.0221 76.2395 50.2812 71.875H87.2188C86.4779 76.2395 84.2179 80.2015 80.8382 83.0607C77.4586 85.92 73.1769 87.4924 68.75 87.5Z" fill="#2176FF"/>
</svg>
