<svg width="100" height="100" viewBox="0 0 100 100" fill="none" xmlns="http://www.w3.org/2000/svg">
<path d="M91.6693 75C91.6693 79.4203 89.9133 83.6595 86.7877 86.7851C83.6621 89.9107 79.4229 91.6667 75.0026 91.6667H58.3359C53.9157 91.6667 49.6764 89.9107 46.5508 86.7851C43.4252 83.6595 41.6693 79.4203 41.6693 75V66.6667H91.6693V75ZM16.6693 12.5H58.3359C60.5461 12.5 62.6657 13.378 64.2285 14.9408C65.7913 16.5036 66.6693 18.6232 66.6693 20.8333V58.3333H33.3359V79.1667H16.6693C14.4591 79.1667 12.3395 78.2887 10.7767 76.7259C9.21391 75.1631 8.33594 73.0435 8.33594 70.8333V20.8333C8.33594 18.6232 9.21391 16.5036 10.7767 14.9408C12.3395 13.378 14.4591 12.5 16.6693 12.5ZM16.6693 25V33.3333H25.0026V25H16.6693ZM58.3359 33.3333V25H33.3359V33.3333H58.3359ZM16.6693 41.6667V50H25.0026V41.6667H16.6693ZM33.3359 41.6667V50H58.3359V41.6667H33.3359ZM16.6693 58.3333V66.6667H25.0026V58.3333H16.6693Z" fill="#2176FF"/>
</svg>
