<svg width="100" height="100" viewBox="0 0 100 100" fill="none" xmlns="http://www.w3.org/2000/svg">
<path d="M43.75 28.125C46.2223 28.125 48.639 27.3919 50.6946 26.0184C52.7502 24.6449 54.3524 22.6926 55.2985 20.4085C56.2446 18.1245 56.4921 15.6111 56.0098 13.1864C55.5275 10.7616 54.337 8.53433 52.5888 6.78617C50.8407 5.03801 48.6134 3.8475 46.1886 3.36519C43.7639 2.88287 41.2505 3.13042 38.9665 4.07651C36.6824 5.02261 34.7301 6.62476 33.3566 8.68038C31.9831 10.736 31.25 13.1527 31.25 15.625C31.2536 18.9391 32.5717 22.1164 34.9152 24.4598C37.2586 26.8033 40.4359 28.1214 43.75 28.125ZM43.75 9.37501C44.9861 9.37501 46.1945 9.74156 47.2223 10.4283C48.2501 11.1151 49.0512 12.0912 49.5242 13.2332C49.9973 14.3753 50.1211 15.6319 49.8799 16.8443C49.6388 18.0567 49.0435 19.1703 48.1694 20.0444C47.2953 20.9185 46.1817 21.5138 44.9693 21.7549C43.7569 21.9961 42.5003 21.8723 41.3582 21.3993C40.2162 20.9262 39.2401 20.1251 38.5533 19.0973C37.8666 18.0695 37.5 16.8611 37.5 15.625C37.5019 13.968 38.1609 12.3793 39.3326 11.2076C40.5043 10.0359 42.093 9.37687 43.75 9.37501ZM69.1326 49.0957C66.1988 45.7949 62.2844 43.6936 56.9041 42.5516L52.0607 31.25H34.7896L29.6875 66.9654V78.125H40.625V96.875H59.375V78.125H75V68.75C75 59.9664 73.0809 53.5375 69.1326 49.0957ZM68.75 71.875H53.125V90.625H46.875V71.875H35.9375V67.4096L40.2104 37.5H47.9393L52.4883 48.1141L54.1736 48.3949C58.9588 49.1924 62.227 50.7346 64.4611 53.2481C67.3471 56.4947 68.75 61.5654 68.75 68.75V71.875Z" fill="#2176FF"/>
</svg>
