<svg width="12" height="12" viewBox="0 0 12 12" fill="none" xmlns="http://www.w3.org/2000/svg">
<path d="M11.0625 7.6875H10.5V6.1875C10.4998 6.03837 10.4405 5.89539 10.3351 5.78994C10.2296 5.68448 10.0866 5.62517 9.9375 5.625H6.375V4.125H7.125C7.27413 4.12483 7.4171 4.06551 7.52256 3.96006C7.62801 3.8546 7.68733 3.71163 7.6875 3.5625V1.875C7.68733 1.72587 7.62801 1.5829 7.52256 1.47744C7.4171 1.37199 7.27413 1.31267 7.125 1.3125H4.875C4.72587 1.31267 4.5829 1.37199 4.47744 1.47744C4.37199 1.5829 4.31267 1.72587 4.3125 1.875V3.5625C4.31267 3.71163 4.37199 3.8546 4.47744 3.96006C4.5829 4.06551 4.72587 4.12483 4.875 4.125H5.625V5.625H2.0625C1.91337 5.62517 1.77039 5.68448 1.66494 5.78994C1.55948 5.89539 1.50017 6.03837 1.5 6.1875V7.6875H0.9375C0.788369 7.68767 0.645396 7.74699 0.539944 7.85244C0.434493 7.9579 0.375174 8.10087 0.375 8.25V9.9375C0.375174 10.0866 0.434493 10.2296 0.539944 10.3351C0.645396 10.4405 0.788369 10.4998 0.9375 10.5H2.8125C2.96163 10.4998 3.1046 10.4405 3.21006 10.3351C3.31551 10.2296 3.37483 10.0866 3.375 9.9375V8.25C3.37483 8.10087 3.31551 7.9579 3.21006 7.85244C3.1046 7.74699 2.96163 7.68767 2.8125 7.6875H2.25V6.375H5.625V7.6875H5.0625C4.91337 7.68767 4.7704 7.74699 4.66494 7.85244C4.55949 7.9579 4.50017 8.10087 4.5 8.25V9.9375C4.50017 10.0866 4.55949 10.2296 4.66494 10.3351C4.7704 10.4405 4.91337 10.4998 5.0625 10.5H6.9375C7.08663 10.4998 7.2296 10.4405 7.33506 10.3351C7.44051 10.2296 7.49983 10.0866 7.5 9.9375V8.25C7.49983 8.10087 7.44051 7.9579 7.33506 7.85244C7.2296 7.74699 7.08663 7.68767 6.9375 7.6875H6.375V6.375H9.75V7.6875H9.1875C9.03837 7.68767 8.8954 7.74699 8.78994 7.85244C8.68449 7.9579 8.62517 8.10087 8.625 8.25V9.9375C8.62517 10.0866 8.68449 10.2296 8.78994 10.3351C8.8954 10.4405 9.03837 10.4998 9.1875 10.5H11.0625C11.2116 10.4998 11.3546 10.4405 11.4601 10.3351C11.5655 10.2296 11.6248 10.0866 11.625 9.9375V8.25C11.6248 8.10087 11.5655 7.9579 11.4601 7.85244C11.3546 7.74699 11.2116 7.68767 11.0625 7.6875ZM5.0625 2.0625H6.9375V3.375H5.0625V2.0625ZM2.625 8.4375V9.75H1.125V8.4375H2.625ZM6.75 8.4375V9.75H5.25V8.4375H6.75ZM10.875 9.75H9.375V8.4375H10.875V9.75Z" fill="#2176FF"/>
</svg>
