<svg width="59" height="59" viewBox="0 0 59 59" fill="none" xmlns="http://www.w3.org/2000/svg">
<path d="M29.4974 4.91797C15.9274 4.91797 4.91406 15.9313 4.91406 29.5013C4.91406 43.0713 15.9274 54.0846 29.4974 54.0846C43.0674 54.0846 54.0807 43.0713 54.0807 29.5013C54.0807 15.9313 43.0674 4.91797 29.4974 4.91797ZM40.9041 21.6346C40.5353 25.5188 38.9374 34.9588 38.1261 39.3101C37.782 41.1538 37.0936 41.7684 36.4545 41.8421C35.0286 41.9651 33.947 40.908 32.5703 39.9984C30.407 38.5726 29.1778 37.6876 27.0882 36.3109C24.6545 34.713 26.2278 33.828 27.6291 32.4021C27.9978 32.0334 34.2911 26.3055 34.4141 25.7892C34.4311 25.711 34.4289 25.6299 34.4074 25.5527C34.386 25.4756 34.3461 25.4049 34.2911 25.3467C34.1436 25.2238 33.947 25.273 33.7749 25.2976C33.5536 25.3467 30.112 27.633 23.4007 32.1563C22.4174 32.8201 21.5324 33.1642 20.7457 33.1396C19.8607 33.1151 18.1891 32.648 16.9353 32.2301C15.3866 31.7384 14.182 31.468 14.2803 30.6076C14.3295 30.1651 14.9441 29.7226 16.0995 29.2555C23.2778 26.1334 28.047 24.0684 30.4316 23.0851C37.2657 20.2334 38.667 19.7417 39.6012 19.7417C39.7978 19.7417 40.2649 19.7909 40.5599 20.0367C40.8057 20.2334 40.8795 20.5038 40.9041 20.7005C40.8795 20.848 40.9286 21.2905 40.9041 21.6346Z" fill="#434343"/>
</svg>
