<svg width="59" height="59" viewBox="0 0 59 59" fill="none" xmlns="http://www.w3.org/2000/svg">
<path fill-rule="evenodd" clip-rule="evenodd" d="M29.4974 4.91797C15.92 4.91797 4.91406 15.9239 4.91406 29.5013C4.91406 34.1476 6.20469 38.4988 8.44915 42.206L6.25631 49.6596C6.13041 50.0876 6.12212 50.5416 6.23233 50.9738C6.34254 51.4061 6.56716 51.8007 6.8826 52.1161C7.19803 52.4315 7.59262 52.6562 8.02488 52.7664C8.45714 52.8766 8.91111 52.8683 9.33906 52.7424L16.7927 50.5496C20.6246 52.8676 25.0189 54.0903 29.4974 54.0846C43.0748 54.0846 54.0807 43.0787 54.0807 29.5013C54.0807 15.9239 43.0748 4.91797 29.4974 4.91797ZM23.9366 35.0645C28.9099 40.0353 33.6569 40.6916 35.3335 40.7531C37.8828 40.8465 40.3657 38.8995 41.3318 36.6403C41.4528 36.359 41.4965 36.0506 41.4584 35.7468C41.4204 35.443 41.302 35.1549 41.1155 34.9121C39.7683 33.1913 37.9467 31.9547 36.1669 30.7256C35.7954 30.468 35.3386 30.3646 34.8925 30.437C34.4464 30.5095 34.0457 30.7521 33.7749 31.114L32.2999 33.3633C32.222 33.4838 32.1011 33.5701 31.9619 33.6048C31.8227 33.6395 31.6755 33.62 31.5501 33.5502C30.5496 32.9774 29.0918 32.0039 28.0445 30.9566C26.9973 29.9094 26.0828 28.518 25.569 27.5813C25.5068 27.462 25.4893 27.3244 25.5195 27.1933C25.5496 27.0622 25.6256 26.9461 25.7337 26.866L28.0052 25.1796C28.3303 24.8983 28.5402 24.507 28.5946 24.0806C28.6491 23.6541 28.5442 23.2226 28.3002 22.8687C27.1989 21.2561 25.9156 19.2058 24.0546 17.8463C23.814 17.6734 23.5327 17.5656 23.2381 17.5333C22.9435 17.501 22.6456 17.5453 22.3731 17.662C20.1115 18.6306 18.1546 21.1135 18.2481 23.6677C18.3095 25.3443 18.9659 30.0913 23.9366 35.0645Z" fill="#434343"/>
</svg>
