<svg width="100" height="100" viewBox="0 0 100 100" fill="none" xmlns="http://www.w3.org/2000/svg">
<path d="M86.2605 18.5819L86.3543 18.6131C87.2605 18.9569 87.7293 19.9569 87.3855 20.8631L86.1668 24.1131C85.823 25.0194 84.823 25.5194 83.9168 25.1756C83.5235 25.0493 83.183 24.7966 82.948 24.4569C82.8027 24.2609 82.6349 24.0826 82.448 23.9256C82.198 23.7381 81.823 23.7381 81.6043 23.9881C81.3855 24.2381 81.3855 24.5506 81.573 24.8006C81.698 24.9881 81.8855 25.1444 82.073 25.3006L82.198 25.3944C82.4793 25.6131 82.698 25.8944 82.8543 26.2069L82.8855 26.3006C83.2918 27.1756 82.8855 28.2069 82.0105 28.6131L78.823 30.0506C78.5529 30.175 78.2551 30.2271 77.9587 30.2019C77.6624 30.1767 77.3777 30.075 77.1324 29.9069C76.5898 33.046 75.1855 35.9726 73.0761 38.36L78.4386 43.7225C80.2372 45.5216 81.2476 47.9614 81.2476 50.5053C81.2476 53.0492 80.2372 55.489 78.4386 57.2881L41.6324 94.0944C39.8334 95.892 37.3943 96.9017 34.8511 96.9017C32.308 96.9017 29.8689 95.892 28.0699 94.0944L15.3074 81.335C13.5098 79.536 12.5 77.0969 12.5 74.5537C12.5 72.0106 13.5098 69.5714 15.3074 67.7725L52.1136 30.96C53.9126 29.1624 56.3517 28.1526 58.8949 28.1526C61.4381 28.1526 63.8772 29.1624 65.6761 30.96L70.8636 36.1444C72.3118 34.4588 73.3399 32.454 73.8636 30.2944C73.519 30.3828 73.1554 30.362 72.823 30.235L69.5418 29.0162C69.3263 28.9362 69.1287 28.8146 68.9603 28.6582C68.7918 28.5018 68.6559 28.3138 68.5601 28.1048C68.4643 27.8959 68.4107 27.6701 68.4022 27.4405C68.3937 27.2108 68.4305 26.9817 68.5105 26.7662C68.6355 26.3912 68.8855 26.0787 69.2293 25.8287C69.4168 25.7037 69.573 25.5475 69.7293 25.36C69.9168 25.11 69.9168 24.735 69.6668 24.5162C69.5573 24.415 69.4153 24.3561 69.2663 24.3504C69.1173 24.3447 68.9712 24.3924 68.8543 24.485C68.6668 24.61 68.5105 24.7975 68.3543 24.985L68.2605 25.11C68.0418 25.3912 67.7605 25.61 67.448 25.7662L67.3543 25.7975C66.9315 25.9876 66.4506 26.0023 66.017 25.8383C65.5835 25.6742 65.2327 25.3449 65.0418 24.9225L63.6043 21.735C63.4141 21.3122 63.3994 20.8313 63.5635 20.3978C63.7275 19.9642 64.0569 19.6135 64.4793 19.4225C64.8543 19.2662 65.2605 19.2037 65.6668 19.2662C65.9168 19.3287 66.1355 19.3287 66.3855 19.2975C66.7293 19.2662 66.948 18.985 66.948 18.6725C66.948 18.36 66.7293 18.11 66.4168 18.0787C66.178 18.0511 65.9368 18.0511 65.698 18.0787L65.573 18.11C65.2293 18.1725 64.8543 18.1412 64.5418 18.0162L64.448 17.985C64.2326 17.905 64.035 17.7833 63.8665 17.6269C63.6981 17.4705 63.5621 17.2825 63.4664 17.0736C63.3706 16.8646 63.3169 16.6389 63.3084 16.4092C63.2999 16.1795 63.3367 15.9504 63.4168 15.735L64.6355 12.4537C64.9793 11.5475 65.9793 11.0787 66.8855 11.4225C67.2605 11.5475 67.573 11.7975 67.823 12.1412C67.9793 12.36 68.1355 12.5162 68.323 12.6725C68.573 12.86 68.948 12.86 69.1668 12.61C69.3855 12.36 69.3855 12.0475 69.198 11.7975C69.0559 11.608 68.8875 11.4396 68.698 11.2975L68.573 11.2037C68.2959 10.9857 68.0716 10.708 67.9168 10.3912L67.8855 10.2975C67.6954 9.87474 67.6807 9.39381 67.8447 8.96026C68.0088 8.52671 68.3381 8.17596 68.7605 7.98498L71.948 6.54748C72.823 6.14123 73.8543 6.54748 74.2605 7.42248C74.4168 7.79748 74.4793 8.20373 74.4168 8.60998C74.3543 8.85998 74.3543 9.07873 74.3855 9.32873C74.4168 9.67248 74.698 9.89123 75.0105 9.89123C75.323 9.89123 75.573 9.67248 75.6043 9.35998C75.6355 9.10998 75.6355 8.89123 75.6043 8.64123L75.573 8.51623C75.5068 8.1705 75.5393 7.81312 75.6668 7.48498L75.698 7.39123C76.0418 6.48498 77.0418 6.01623 77.948 6.35998L81.2293 7.57873C82.1355 7.92248 82.6043 8.92248 82.2605 9.82873C82.1355 10.2037 81.8855 10.5162 81.5418 10.7662C81.3543 10.8912 81.198 11.0475 81.0418 11.235C80.8543 11.485 80.8543 11.86 81.1043 12.0787C81.3543 12.2975 81.6668 12.2975 81.9168 12.11C82.1043 11.985 82.2605 11.7975 82.4168 11.61L82.5105 11.485C82.7293 11.2037 83.0105 10.985 83.323 10.8287L83.4168 10.7975C84.2918 10.3912 85.323 10.7975 85.7293 11.6725L87.1668 14.8287C87.573 15.7037 87.198 16.7662 86.323 17.1725C85.948 17.3287 85.5418 17.3912 85.1355 17.3287C84.9002 17.272 84.6561 17.2614 84.4168 17.2975C84.073 17.3287 83.8543 17.61 83.8543 17.9225C83.8543 18.235 84.073 18.485 84.3855 18.5162C84.6355 18.5475 84.8543 18.5475 85.1043 18.5162L85.2293 18.485C85.573 18.4225 85.948 18.4569 86.2605 18.5819ZM61.2605 35.3819C60.6335 34.755 59.7831 34.4028 58.8965 34.4028C58.0098 34.4028 57.1594 34.755 56.5324 35.3819L19.7261 72.1881C19.1002 72.815 18.7487 73.6647 18.7487 74.5506C18.7487 75.4365 19.1002 76.2862 19.7261 76.9131L32.4855 89.6725C33.1126 90.2994 33.9629 90.6515 34.8496 90.6515C35.7362 90.6515 36.5866 90.2994 37.2136 89.6725L74.0199 52.8662C74.6458 52.2393 74.9974 51.3896 74.9974 50.5037C74.9974 49.6178 74.6458 48.7682 74.0199 48.1412L61.2605 35.3819Z" fill="#2176FF"/>
</svg>
