<svg width="100" height="100" viewBox="0 0 100 100" fill="none" xmlns="http://www.w3.org/2000/svg">
<path d="M3.125 46.875V70.3125H70.3125V46.875H3.125ZM64.0625 64.0625H9.375V53.125H64.0625V64.0625ZM75 46.875H81.25V70.3125H75V46.875ZM85.9375 46.875H92.1875V70.3125H85.9375V46.875ZM75.2789 33.8477C74.5296 32.7173 74.1686 31.3738 74.2503 30.0201C74.3321 28.6664 74.8522 27.3761 75.732 26.3441C77.5508 24.2289 78.6064 21.564 78.7296 18.7771C78.8528 15.9901 78.0365 13.2425 76.4115 10.975L75.269 9.375H68.125L67.7695 9.62891L71.3256 14.6074C72.1363 15.7389 72.5436 17.1099 72.4821 18.5005C72.4207 19.8911 71.894 21.2208 70.9865 22.2764C69.2235 24.3447 68.1814 26.9305 68.0175 29.6434C67.8537 32.3562 68.5771 35.0486 70.0785 37.3141L71.2441 39.0625H78.7559L75.2789 33.8477ZM89.3414 33.8477C88.5921 32.7173 88.2311 31.3738 88.3128 30.0201C88.3946 28.6664 88.9147 27.3761 89.7945 26.3441C91.6133 24.2289 92.6689 21.564 92.7921 18.7771C92.9153 15.9901 92.099 13.2425 90.474 10.975L89.3315 9.375H82.1875L81.832 9.62891L85.3881 14.6074C86.1988 15.7389 86.6061 17.1099 86.5446 18.5005C86.4832 19.8911 85.9565 21.2208 85.049 22.2764C83.286 24.3447 82.2439 26.9305 82.08 29.6434C81.9162 32.3562 82.6396 35.0486 84.141 37.3141L85.3066 39.0625H92.8184L89.3414 33.8477Z" fill="#2176FF"/>
</svg>
