<svg width="100" height="100" viewBox="0 0 100 100" fill="none" xmlns="http://www.w3.org/2000/svg">
<path d="M81.25 12.5H18.75C17.0924 12.5 15.5027 13.1585 14.3306 14.3306C13.1585 15.5027 12.5 17.0924 12.5 18.75V81.25C12.5 82.9076 13.1585 84.4973 14.3306 85.6694C15.5027 86.8415 17.0924 87.5 18.75 87.5H81.25C82.9076 87.5 84.4973 86.8415 85.6694 85.6694C86.8415 84.4973 87.5 82.9076 87.5 81.25V18.75C87.5 17.0924 86.8415 15.5027 85.6694 14.3306C84.4973 13.1585 82.9076 12.5 81.25 12.5ZM68.75 43.75V81.25H53.125V43.75H68.75ZM46.875 81.25H31.25V43.75H46.875V81.25ZM81.25 81.25H75V40.625C75 39.7962 74.6708 39.0013 74.0847 38.4153C73.4987 37.8292 72.7038 37.5 71.875 37.5H28.125C27.2962 37.5 26.5013 37.8292 25.9153 38.4153C25.3292 39.0013 25 39.7962 25 40.625V81.25H18.75V18.75H81.25V81.25ZM59.375 28.125C59.375 28.9538 59.0458 29.7487 58.4597 30.3347C57.8737 30.9208 57.0788 31.25 56.25 31.25H43.75C42.9212 31.25 42.1263 30.9208 41.5403 30.3347C40.9542 29.7487 40.625 28.9538 40.625 28.125C40.625 27.2962 40.9542 26.5013 41.5403 25.9153C42.1263 25.3292 42.9212 25 43.75 25H56.25C57.0788 25 57.8737 25.3292 58.4597 25.9153C59.0458 26.5013 59.375 27.2962 59.375 28.125Z" fill="#2176FF"/>
</svg>
