<svg width="100" height="100" viewBox="0 0 100 100" fill="none" xmlns="http://www.w3.org/2000/svg">
<path d="M90.2204 50.9861C89.8298 50.0564 88.9099 49.4568 87.9411 49.1326L51.3825 34.5857C50.4814 34.3048 49.5161 34.3048 48.6149 34.5857L12.0915 49.1404C11.1149 49.4451 10.1716 50.0721 9.78486 51.0018C9.39814 51.9315 9.21064 52.8318 9.58955 53.9471L18.6774 77.2186C18.7933 77.5047 18.997 77.7466 19.2592 77.9095C19.5214 78.0724 19.8286 78.1478 20.1364 78.1248C25.3493 77.7967 29.9626 75.1502 33.4919 71.7772C33.7693 71.5165 34.1357 71.3714 34.5163 71.3714C34.897 71.3714 35.2633 71.5165 35.5407 71.7772C39.3142 75.3904 44.3356 78.1248 49.9997 78.1248C55.6638 78.1248 60.656 75.3904 64.4294 71.7693C64.7071 71.5086 65.0738 71.3634 65.4548 71.3634C65.8358 71.3634 66.2024 71.5086 66.4802 71.7693C70.0095 75.1443 74.6228 77.7967 79.8356 78.1248C80.1425 78.1481 80.4489 78.0735 80.7107 77.9117C80.9725 77.7499 81.1762 77.5093 81.2927 77.2244L90.4138 53.951C90.8005 53.0174 90.6071 51.9178 90.2204 50.9861Z" stroke="#2176FF" stroke-width="6.25" stroke-miterlimit="10"/>
<path d="M81.2463 92.41C81.2462 92.1702 81.1816 91.9349 81.0592 91.7287C80.9369 91.5226 80.7613 91.3531 80.551 91.2381C75.2619 88.3963 70.4396 84.0467 68.3185 81.8631C68.0034 81.5327 67.5829 81.3224 67.1294 81.2686C66.676 81.2147 66.2179 81.3207 65.8342 81.5682C56.0041 87.9002 44.0353 87.9041 34.2033 81.578C33.8162 81.328 33.3537 81.2216 32.8962 81.2772C32.4388 81.3329 32.0153 81.5471 31.6994 81.8826C29.5959 84.0858 24.8263 88.3865 19.506 91.2088C19.295 91.3157 19.1145 91.4745 18.9816 91.6703C18.8487 91.866 18.7677 92.0923 18.7463 92.328C18.7304 92.5287 18.7609 92.7304 18.8354 92.9176C18.9099 93.1047 19.0263 93.2722 19.1758 93.4071C19.3253 93.5421 19.5038 93.6409 19.6975 93.6959C19.8913 93.7509 20.095 93.7607 20.2931 93.7244C24.3654 92.908 28.301 91.0526 32.051 89.0701C32.2915 88.9435 32.5589 88.8763 32.8308 88.8743C33.1026 88.8722 33.371 88.9354 33.6135 89.0584C38.692 91.6425 44.3094 92.9898 50.0075 92.9905C55.7057 92.9912 61.3234 91.6452 66.4025 89.0623C66.6477 88.9381 66.9191 88.8743 67.194 88.8763C67.4689 88.8784 67.7393 88.9462 67.9826 89.0741C71.7131 91.0272 75.6427 92.9002 79.7013 93.7225C79.8925 93.7581 80.0892 93.7508 80.2771 93.7011C80.4651 93.6514 80.6397 93.5606 80.7883 93.4352C80.9369 93.3098 81.0557 93.1529 81.1363 92.976C81.2168 92.799 81.2571 92.6064 81.2541 92.4119L81.2463 92.41Z" fill="#2176FF"/>
<path d="M62.5 18.75V14.0625C62.4964 12.8204 62.0014 11.6302 61.1231 10.7519C60.2448 9.87363 59.0546 9.37861 57.8125 9.375H42.1875C40.9454 9.37861 39.7552 9.87363 38.8769 10.7519C37.9986 11.6302 37.5036 12.8204 37.5 14.0625V18.75M81.25 45.5078V28.125C81.2428 25.6408 80.2528 23.2604 78.4962 21.5038C76.7396 19.7473 74.3592 18.7572 71.875 18.75H28.125C25.6408 18.7572 23.2604 19.7473 21.5038 21.5038C19.7473 23.2604 18.7572 25.6408 18.75 28.125V46.0938M50 35.8594V77.4316" stroke="#2176FF" stroke-width="6.25" stroke-linecap="round" stroke-linejoin="round"/>
</svg>
