<svg width="100" height="100" viewBox="0 0 100 100" fill="none" xmlns="http://www.w3.org/2000/svg">
<path d="M12.5 71.6664C12.5 70.5552 12.8653 69.6177 13.5958 68.8538C14.3264 68.09 15.2111 67.708 16.25 67.708C16.8056 67.708 17.3444 67.7955 17.8667 67.9705C18.3889 68.1455 18.8917 68.4052 19.375 68.7497C20.2778 69.3052 21.1806 69.7914 22.0833 70.208C22.9861 70.6247 23.9583 70.833 25 70.833C27.2917 70.833 29.2542 70.0177 30.8875 68.3872C32.5208 66.7566 33.3361 64.7941 33.3333 62.4997C33.3306 60.2052 32.5153 58.2441 30.8875 56.6163C29.2597 54.9886 27.2972 54.1719 25 54.1663C23.9583 54.1663 22.9514 54.34 21.9792 54.6872C21.0069 55.0344 20.1389 55.5552 19.375 56.2497C18.9583 56.5969 18.4722 56.858 17.9167 57.033C17.3611 57.208 16.8056 57.2941 16.25 57.2913C15.2083 57.2913 14.3236 56.9094 13.5958 56.1455C12.8681 55.3816 12.5028 54.4441 12.5 53.333V37.4997C12.5 36.3191 12.9 35.3302 13.7 34.533C14.5 33.7358 15.4889 33.3358 16.6667 33.333H32.2917C31.9444 32.2913 31.6847 31.2497 31.5125 30.208C31.3403 29.1663 31.2528 28.1247 31.25 27.083C31.25 21.8747 33.0736 17.4483 36.7208 13.8038C40.3681 10.1594 44.7944 8.33579 50 8.33301C55.2056 8.33023 59.6333 10.1538 63.2833 13.8038C66.9333 17.4538 68.7556 21.8802 68.75 27.083C68.75 28.1247 68.6639 29.1663 68.4917 30.208C68.3194 31.2497 68.0583 32.2913 67.7083 33.333H83.3333C84.5139 33.333 85.5042 33.733 86.3042 34.533C87.1042 35.333 87.5028 36.3219 87.5 37.4997V53.333C87.5 54.5136 87.1 55.5038 86.3 56.3038C85.5 57.1038 84.5111 57.5025 83.3333 57.4997C82.7778 57.4997 82.2917 57.3775 81.875 57.133C81.4583 56.8886 81.0417 56.5941 80.625 56.2497C79.8611 55.5552 78.9931 55.0344 78.0208 54.6872C77.0486 54.34 76.0417 54.1663 75 54.1663C72.7083 54.1663 70.7458 54.983 69.1125 56.6163C67.4792 58.2497 66.6639 60.2108 66.6667 62.4997C66.6694 64.7886 67.4861 66.7511 69.1167 68.3872C70.7472 70.0233 72.7083 70.8386 75 70.833C76.0417 70.833 77.0486 70.6594 78.0208 70.3122C78.9931 69.965 79.8611 69.4441 80.625 68.7497C80.9722 68.4025 81.3722 68.1066 81.825 67.8622C82.2778 67.6177 82.7806 67.4969 83.3333 67.4997C84.5139 67.4997 85.5042 67.8997 86.3042 68.6997C87.1042 69.4997 87.5028 70.4886 87.5 71.6664V87.4997C87.5 88.6802 87.1 89.6705 86.3 90.4705C85.5 91.2705 84.5111 91.6691 83.3333 91.6664H16.6667C15.4861 91.6664 14.4972 91.2663 13.7 90.4663C12.9028 89.6663 12.5028 88.6775 12.5 87.4997V71.6664ZM20.8333 83.333H79.1667V78.5414C78.4722 78.7497 77.7944 78.9066 77.1333 79.0122C76.4722 79.1177 75.7611 79.1691 75 79.1663C70.4167 79.1663 66.4931 77.5344 63.2292 74.2705C59.9653 71.0066 58.3333 67.083 58.3333 62.4997C58.3333 57.9163 59.9653 53.9927 63.2292 50.7288C66.4931 47.465 70.4167 45.833 75 45.833C75.7639 45.833 76.4764 45.8858 77.1375 45.9913C77.7986 46.0969 78.475 46.2525 79.1667 46.458V41.6663H60.2083C59.0278 41.6663 58.0389 41.2844 57.2417 40.5205C56.4444 39.7566 56.0444 38.8191 56.0417 37.708C56.0417 37.1525 56.1292 36.5788 56.3042 35.9872C56.4792 35.3955 56.8083 34.9275 57.2917 34.583C58.4722 33.7497 59.2889 32.6552 59.7417 31.2997C60.1944 29.9441 60.4194 28.5386 60.4167 27.083C60.4167 24.1663 59.4097 21.7011 57.3958 19.6872C55.3819 17.6733 52.9167 16.6663 50 16.6663C47.0833 16.6663 44.6181 17.6733 42.6042 19.6872C40.5903 21.7011 39.5833 24.1663 39.5833 27.083C39.5833 28.5413 39.8097 29.9483 40.2625 31.3038C40.7153 32.6594 41.5306 33.7525 42.7083 34.583C43.1944 34.9302 43.525 35.365 43.7 35.8872C43.875 36.4094 43.9611 36.9469 43.9583 37.4997C43.9583 38.6802 43.5583 39.6705 42.7583 40.4705C41.9583 41.2705 40.9694 41.6691 39.7917 41.6663H20.8333V46.458C21.5278 46.2497 22.2056 46.0941 22.8667 45.9913C23.5278 45.8886 24.2389 45.8358 25 45.833C29.5833 45.833 33.5069 47.465 36.7708 50.7288C40.0347 53.9927 41.6667 57.9163 41.6667 62.4997C41.6667 67.083 40.0347 71.0066 36.7708 74.2705C33.5069 77.5344 29.5833 79.1663 25 79.1663C24.2361 79.1663 23.5236 79.1136 22.8625 79.008C22.2014 78.9025 21.525 78.7469 20.8333 78.5414V83.333Z" fill="#2176FF"/>
</svg>
