<svg width="100" height="100" viewBox="0 0 100 100" fill="none" xmlns="http://www.w3.org/2000/svg">
<path d="M83.3307 33.3333V25C83.3307 18.125 77.7057 12.5 70.8307 12.5H29.1641C22.2891 12.5 16.6641 18.125 16.6641 25V33.3333C9.78906 33.3333 4.16406 38.9583 4.16406 45.8333V66.6667C4.16406 73.5417 9.78906 79.1667 16.6641 79.1667V83.3333C16.6641 85.625 18.5391 87.5 20.8307 87.5C23.1224 87.5 24.9974 85.625 24.9974 83.3333V79.1667H74.9974V83.3333C74.9974 85.625 76.8724 87.5 79.1641 87.5C81.4557 87.5 83.3307 85.625 83.3307 83.3333V79.1667C90.2057 79.1667 95.8307 73.5417 95.8307 66.6667V45.8333C95.8307 38.9583 90.2057 33.3333 83.3307 33.3333ZM24.9974 25C24.9974 22.7083 26.8724 20.8333 29.1641 20.8333H70.8307C73.1224 20.8333 74.9974 22.7083 74.9974 25V36.5833C72.4557 38.875 70.8307 42.1667 70.8307 45.8333V54.1667H29.1641V45.8333C29.1641 42.1667 27.5391 38.875 24.9974 36.5833V25ZM87.4974 66.6667C87.4974 68.9583 85.6224 70.8333 83.3307 70.8333H16.6641C14.3724 70.8333 12.4974 68.9583 12.4974 66.6667V45.8333C12.4974 43.5417 14.3724 41.6667 16.6641 41.6667C18.9557 41.6667 20.8307 43.5417 20.8307 45.8333V62.5H79.1641V45.8333C79.1641 43.5417 81.0391 41.6667 83.3307 41.6667C85.6224 41.6667 87.4974 43.5417 87.4974 45.8333V66.6667Z" fill="#2176FF"/>
</svg>
