<svg width="100" height="100" viewBox="0 0 100 100" fill="none" xmlns="http://www.w3.org/2000/svg">
<path d="M50 87.4998L83.8792 69.9665C85.1958 69.2832 85.8542 68.9457 86.3333 68.4415C86.7577 67.999 87.0793 67.4684 87.275 66.8873C87.5 66.2248 87.5 65.4873 87.5 64.004V31.3873M50 87.4998L16.1208 69.9665C14.8042 69.2832 14.1458 68.9457 13.6667 68.4415C13.2423 67.999 12.9207 67.4684 12.725 66.8873C12.5 66.2248 12.5 65.4832 12.5 63.9957V31.3873M50 87.4998V49.7373M87.5 31.3873L50 49.7373M87.5 31.3873L68.75 21.679M12.5 31.3873L46.9542 13.5582C48.0708 12.9832 48.625 12.6915 49.2125 12.579C49.7327 12.4789 50.2673 12.4789 50.7875 12.579C51.3708 12.6915 51.9292 12.9832 53.0417 13.5582L68.75 21.679M12.5 31.3873L31.25 40.5665M50 49.7373L31.25 40.5623M68.75 21.679L31.25 40.5623M31.25 40.5623V49.7373" stroke="#2176FF" stroke-width="6.25" stroke-linecap="round" stroke-linejoin="round"/>
</svg>
