<svg width="100" height="100" viewBox="0 0 100 100" fill="none" xmlns="http://www.w3.org/2000/svg">
<path d="M37.7891 29.167L24.9974 48.3587V83.3337H74.9974V29.167H37.7891ZM33.3307 20.8337H79.1641C80.2691 20.8337 81.3289 21.2726 82.1103 22.054C82.8917 22.8354 83.3307 23.8953 83.3307 25.0003V87.5003C83.3307 88.6054 82.8917 89.6652 82.1103 90.4466C81.3289 91.228 80.2691 91.667 79.1641 91.667H20.8307C19.7257 91.667 18.6659 91.228 17.8845 90.4466C17.1031 89.6652 16.6641 88.6054 16.6641 87.5003V45.8337L33.3307 20.8337ZM54.1641 4.16699H74.9974C76.1025 4.16699 77.1623 4.60598 77.9437 5.38738C78.7251 6.16878 79.1641 7.22859 79.1641 8.33366V16.667H49.9974V8.33366C49.9974 7.22859 50.4364 6.16878 51.2178 5.38738C51.9992 4.60598 53.059 4.16699 54.1641 4.16699ZM33.3307 50.0003H41.6641V75.0003H33.3307V50.0003Z" fill="#2176FF"/>
</svg>
