<svg width="576" height="400" viewBox="0 0 576 400" fill="none" xmlns="http://www.w3.org/2000/svg">
<path d="M323.352 400L290.224 318.397C300.257 304.363 308.443 289.073 314.556 272.892C323.847 248.298 328.164 222.13 327.261 195.881C327.148 192.588 326.952 189.302 326.676 186.026L413.541 400H323.352Z" fill="url(#paint0_linear_4392_1678)"/>
<path d="M485.811 0.000327149H576L413.617 399.999H323.427L485.811 0.000327149Z" fill="url(#paint1_linear_4392_1678)"/>
<path d="M316.768 200C316.768 173.736 311.554 147.728 301.422 123.463C291.291 99.1982 276.44 77.1504 257.72 58.5787C238.999 40.0069 216.774 25.275 192.315 15.2241C167.855 5.17315 141.639 2.6383e-06 115.164 0L0 7.91491e-06V82.9938L115.164 82.9938C130.653 82.9938 145.99 86.0203 160.299 91.9004C174.609 97.7805 187.611 106.399 198.563 117.264C208.418 127.04 216.439 138.463 222.266 150.996C222.915 152.392 223.537 153.801 224.131 155.224C225.021 157.357 225.847 159.514 226.608 161.69C230.906 173.996 233.109 186.944 233.109 200C233.109 215.365 230.058 230.58 224.131 244.776C218.203 258.972 209.516 271.871 198.563 282.736C187.611 293.601 174.609 302.22 160.299 308.1C145.99 313.98 130.653 317.006 115.164 317.006L0 317.006V399.999L115.164 400C141.639 400 167.855 394.827 192.315 384.776C216.774 374.725 238.999 359.993 257.72 341.421C276.44 322.85 291.291 300.802 301.422 276.537C311.554 252.272 316.768 226.264 316.768 200Z" fill="url(#paint2_linear_4392_1678)"/>
<defs>
<linearGradient id="paint0_linear_4392_1678" x1="288" y1="0" x2="288" y2="400" gradientUnits="userSpaceOnUse">
<stop stop-color="#67A1FF"/>
<stop offset="1" stop-color="#2176FF"/>
</linearGradient>
<linearGradient id="paint1_linear_4392_1678" x1="288" y1="0" x2="288" y2="400" gradientUnits="userSpaceOnUse">
<stop stop-color="#67A1FF"/>
<stop offset="1" stop-color="#2176FF"/>
</linearGradient>
<linearGradient id="paint2_linear_4392_1678" x1="288" y1="0" x2="288" y2="400" gradientUnits="userSpaceOnUse">
<stop stop-color="#67A1FF"/>
<stop offset="1" stop-color="#2176FF"/>
</linearGradient>
</defs>
</svg>
