<svg width="20" height="20" viewBox="0 0 20 20" fill="none" xmlns="http://www.w3.org/2000/svg">
<path d="M6.66406 1.66797V4.16797" stroke="#878787" stroke-width="1.5" stroke-miterlimit="10" stroke-linecap="round" stroke-linejoin="round"/>
<path d="M13.3359 1.66797V4.16797" stroke="#878787" stroke-width="1.5" stroke-miterlimit="10" stroke-linecap="round" stroke-linejoin="round"/>
<path d="M13.3333 2.91797C16.1083 3.06797 17.5 4.1263 17.5 8.04297V13.193C17.5 16.6263 16.6667 18.343 12.5 18.343H7.5C3.33333 18.343 2.5 16.6263 2.5 13.193V8.04297C2.5 4.1263 3.89167 3.0763 6.66667 2.91797H13.3333Z" stroke="#878787" stroke-width="1.5" stroke-miterlimit="10" stroke-linecap="round" stroke-linejoin="round"/>
<path d="M17.2943 14.668H2.71094" stroke="#878787" stroke-width="1.5" stroke-miterlimit="10" stroke-linecap="round" stroke-linejoin="round"/>
<path d="M9.9974 6.875C8.9724 6.875 8.10573 7.43333 8.10573 8.51667C8.10573 9.03333 8.3474 9.425 8.71406 9.675C8.20573 9.975 7.91406 10.4583 7.91406 11.025C7.91406 12.0583 8.70573 12.7 9.9974 12.7C11.2807 12.7 12.0807 12.0583 12.0807 11.025C12.0807 10.4583 11.7891 9.96667 11.2724 9.675C11.6474 9.41667 11.8807 9.03333 11.8807 8.51667C11.8807 7.43333 11.0224 6.875 9.9974 6.875ZM9.9974 9.24167C9.56406 9.24167 9.2474 8.98333 9.2474 8.575C9.2474 8.15833 9.56406 7.91667 9.9974 7.91667C10.4307 7.91667 10.7474 8.15833 10.7474 8.575C10.7474 8.98333 10.4307 9.24167 9.9974 9.24167ZM9.9974 11.6667C9.4474 11.6667 9.0474 11.3917 9.0474 10.8917C9.0474 10.3917 9.4474 10.125 9.9974 10.125C10.5474 10.125 10.9474 10.4 10.9474 10.8917C10.9474 11.3917 10.5474 11.6667 9.9974 11.6667Z" fill="#878787"/>
</svg>
