<svg width="41" height="41" viewBox="0 0 41 41" fill="none" xmlns="http://www.w3.org/2000/svg">
<path fill-rule="evenodd" clip-rule="evenodd" d="M20.5 41C23.1921 41 25.8578 40.4698 28.345 39.4395C30.8322 38.4093 33.0921 36.8993 34.9957 34.9957C36.8993 33.0921 38.4093 30.8322 39.4395 28.345C40.4698 25.8578 41 23.1921 41 20.5C41 17.8079 40.4698 15.1422 39.4395 12.655C38.4093 10.1678 36.8993 7.90791 34.9957 6.00431C33.0921 4.10071 30.8322 2.59069 28.345 1.56047C25.8578 0.530248 23.1921 -4.01154e-08 20.5 0C15.0631 8.10167e-08 9.84881 2.15981 6.00431 6.00431C2.15982 9.84881 0 15.0631 0 20.5C0 25.9369 2.15982 31.1512 6.00431 34.9957C9.84881 38.8402 15.0631 41 20.5 41ZM19.9716 28.7911L31.3604 15.1244L27.8618 12.2089L18.0673 23.9599L12.9993 18.8896L9.7785 22.1104L16.6118 28.9437L18.3748 30.7067L19.9716 28.7911Z" fill="#B1BFF9"/>
</svg>
