<svg width="24" height="24" viewBox="0 0 24 24" fill="none" xmlns="http://www.w3.org/2000/svg">
<path fill-rule="evenodd" clip-rule="evenodd" d="M2 3C1.46957 3 0.960859 3.21071 0.585786 3.58579C0.210714 3.96086 0 4.46957 0 5V19C0 19.5304 0.210714 20.0391 0.585786 20.4142C0.960859 20.7893 1.46957 21 2 21H18C18.5304 21 19.0391 20.7893 19.4142 20.4142C19.7893 20.0391 20 19.5304 20 19V5C20 4.46957 19.7893 3.96086 19.4142 3.58579C19.0391 3.21071 18.5304 3 18 3H2ZM6.625 8.63C6.64719 8.43882 6.71376 8.25547 6.81939 8.09458C6.92502 7.93369 7.0668 7.79972 7.2334 7.70335C7.4 7.60698 7.58682 7.55089 7.77896 7.53954C7.97109 7.5282 8.16321 7.56191 8.34 7.638C8.844 7.854 9.908 8.34 11.256 9.118C12.2034 9.65944 13.1182 10.2558 13.996 10.904C14.1503 11.0188 14.2757 11.1682 14.362 11.34C14.4484 11.5119 14.4933 11.7016 14.4933 11.894C14.4933 12.0864 14.4484 12.2761 14.362 12.448C14.2757 12.6198 14.1503 12.7692 13.996 12.884C13.1182 13.5315 12.2033 14.1272 11.256 14.668C10.3137 15.2184 9.34005 15.7132 8.34 16.15C8.16323 16.2263 7.97106 16.2602 7.77885 16.2489C7.58664 16.2377 7.39973 16.1816 7.23306 16.0852C7.0664 15.9888 6.9246 15.8548 6.81902 15.6938C6.71344 15.5328 6.64699 15.3493 6.625 15.158C6.50501 14.0742 6.44625 12.9844 6.449 11.894C6.449 10.343 6.561 9.175 6.625 8.63Z" fill="#878787"/>
</svg>
