<svg width="150" height="150" viewBox="0 0 150 150" fill="none" xmlns="http://www.w3.org/2000/svg">
<path d="M100 37.5C100 25.7125 100 19.825 96.3375 16.1625C92.675 12.5 86.7875 12.5 75 12.5C63.2125 12.5 57.325 12.5 53.6625 16.1625C50 19.825 50 25.7125 50 37.5M12.5 87.5C12.5 63.9312 12.5 52.1437 19.825 44.825C27.1437 37.5 38.9312 37.5 62.5 37.5H87.5C111.069 37.5 122.856 37.5 130.175 44.825C137.5 52.1437 137.5 63.9312 137.5 87.5C137.5 111.069 137.5 122.856 130.175 130.175C122.856 137.5 111.069 137.5 87.5 137.5H62.5C38.9312 137.5 27.1437 137.5 19.825 130.175C12.5 122.856 12.5 111.069 12.5 87.5Z" stroke="url(#paint0_linear_1693_651)" stroke-width="12.5"/>
<path d="M75 108.331C81.9063 108.331 87.5 103.669 87.5 97.9187C87.5 92.1687 81.9063 87.5 75 87.5C68.0937 87.5 62.5 82.8375 62.5 77.0813C62.5 71.3313 68.0937 66.6687 75 66.6687M75 108.331C68.0937 108.331 62.5 103.669 62.5 97.9187M75 108.331V112.5M75 66.6687V62.5M75 66.6687C81.9063 66.6687 87.5 71.3313 87.5 77.0813" stroke="url(#paint1_linear_1693_651)" stroke-width="12.5" stroke-linecap="round"/>
<defs>
<linearGradient id="paint0_linear_1693_651" x1="12.5" y1="75" x2="137.5" y2="75" gradientUnits="userSpaceOnUse">
<stop stop-color="#2176FF"/>
<stop offset="1" stop-color="#5897FB"/>
</linearGradient>
<linearGradient id="paint1_linear_1693_651" x1="62.5" y1="87.5" x2="87.5" y2="87.5" gradientUnits="userSpaceOnUse">
<stop stop-color="#2176FF"/>
<stop offset="1" stop-color="#5897FB"/>
</linearGradient>
</defs>
</svg>
