<svg width="150" height="150" viewBox="0 0 150 150" fill="none" xmlns="http://www.w3.org/2000/svg">
<path d="M134.375 81.25C126.709 78.1 112.5 65.625 87.5 84.375C80.9281 80.7 68.75 71.875 50 87.5C47.8094 78.575 47.3719 58.2625 50 40.625C51.0937 38 55.6063 36.1406 68.75 50L84.375 34.375C83.2813 27.55 75 18.75 50 18.75C40.625 18.75 32.0687 26.7656 28.125 40.625C23.1969 54.7969 15.625 87.5 15.625 106.25C15.625 112.025 23.4375 125 53.125 125C59.375 125 77.6562 125.703 100 115.625L118.75 131.25" stroke="url(#paint0_linear_1703_693)" stroke-width="12.5" stroke-linecap="round" stroke-linejoin="round"/>
<defs>
<linearGradient id="paint0_linear_1703_693" x1="15.625" y1="75" x2="134.375" y2="75" gradientUnits="userSpaceOnUse">
<stop stop-color="#2176FF"/>
<stop offset="1" stop-color="#5897FB"/>
</linearGradient>
</defs>
</svg>
