<svg width="150" height="150" viewBox="0 0 150 150" fill="none" xmlns="http://www.w3.org/2000/svg">
<path d="M75 89.1875L100.481 73.075L75 56.9688V89.1875ZM22.5937 126.2C19.7187 126.2 17.3187 125.237 15.3938 123.312C13.4688 121.387 12.5042 118.985 12.5 116.106V58.8938H18.75V116.106C18.75 117.065 19.15 117.946 19.95 118.75C20.7542 119.55 21.6354 119.95 22.5937 119.95H115.625V126.2H22.5937ZM41.3437 107.45C38.4687 107.45 36.0687 106.487 34.1437 104.562C32.2146 102.633 31.25 100.231 31.25 97.3562V38.7H64.425V28.8437C64.425 25.9687 65.3875 23.5688 67.3125 21.6438C69.2375 19.7188 71.6396 18.7542 74.5187 18.75H94.2312C97.1062 18.75 99.5083 19.7146 101.437 21.6438C103.367 23.5729 104.329 25.9729 104.325 28.8437V38.7H137.5V97.3562C137.5 100.231 136.537 102.633 134.612 104.562C132.687 106.492 130.285 107.454 127.406 107.45H41.3437ZM70.675 38.7H98.075V28.8437C98.075 27.8854 97.675 27.0042 96.875 26.2C96.075 25.3958 95.1937 24.9958 94.2312 25H74.5187C73.5604 25 72.6792 25.4 71.875 26.2C71.0708 27 70.6708 27.8812 70.675 28.8437V38.7Z" fill="url(#paint0_linear_1693_655)"/>
<defs>
<linearGradient id="paint0_linear_1693_655" x1="12.5" y1="72.475" x2="137.5" y2="72.475" gradientUnits="userSpaceOnUse">
<stop stop-color="#2176FF"/>
<stop offset="1" stop-color="#5897FB"/>
</linearGradient>
</defs>
</svg>
