<svg width="150" height="150" viewBox="0 0 150 150" fill="none" xmlns="http://www.w3.org/2000/svg">
<path d="M118.55 64.34L114.41 61.52C119.243 54.4022 122.057 46.1082 122.554 37.5193C123.05 28.9303 121.211 20.3672 117.23 12.74L116.39 11.21L120.75 8.75L121.65 10.42C126.054 18.8489 128.092 28.3137 127.546 37.8081C127 47.3024 123.891 56.4714 118.55 64.34ZM130.07 135.65V140H20.0703V135.65H44.9503L60.4403 64C60.6825 62.8834 61.2999 61.8834 62.1896 61.1666C63.0793 60.4497 64.1877 60.0592 65.3303 60.06H72.5803V46C70.0895 45.4214 67.8655 44.0221 66.2658 42.0271C64.6662 40.032 63.7837 37.5571 63.7603 35C63.7148 33.4526 63.9803 31.9119 64.541 30.469C65.1017 29.0261 65.9463 27.7104 67.0247 26.5998C68.1031 25.4892 69.3934 24.6063 70.8192 24.0034C72.245 23.4005 73.7773 23.0899 75.3253 23.0899C76.8733 23.0899 78.4056 23.4005 79.8314 24.0034C81.2572 24.6063 82.5475 25.4892 83.6259 26.5998C84.7043 27.7104 85.5489 29.0261 86.1096 30.469C86.6703 31.9119 86.9358 33.4526 86.8903 35C86.8683 37.6428 85.9287 40.1959 84.2323 42.2224C82.5359 44.249 80.188 45.6232 77.5903 46.11V60.06H84.8003C85.9446 60.0569 87.0554 60.4464 87.9471 61.1634C88.8389 61.8805 89.4577 62.8817 89.7003 64L105.17 135.65H130.07ZM84.5403 87.51H65.6003L62.3703 102.44H87.7803L84.5403 87.51ZM61.2803 107.44L58.0503 122.39H92.0803L88.8503 107.44H61.2803ZM69.3603 70.06L66.6603 82.51H83.4603L80.7703 70.06H69.3603ZM55.1803 135.66H94.9503L93.1603 127.39H56.9603L55.1803 135.66ZM52.1003 50.13C49.1125 45.5947 47.5333 40.2767 47.5618 34.8458C47.5903 29.4148 49.2251 24.1137 52.2603 19.61L48.1203 16.81C44.5299 22.1314 42.5958 28.3969 42.562 34.8162C42.5282 41.2355 44.3962 47.521 47.9303 52.88L52.1003 50.13ZM107.57 35C107.577 28.6524 105.72 22.4424 102.23 17.14L98.0503 19.89C101.031 24.4252 102.604 29.7404 102.572 35.1672C102.54 40.5941 100.904 45.8903 97.8703 50.39L102.01 53.17C105.641 47.8067 107.578 41.4768 107.57 35ZM35.3403 61.18C30.4982 53.8202 27.7917 45.262 27.5216 36.4564C27.2515 27.6507 29.4284 18.9427 33.8103 11.3L29.4803 8.8C24.635 17.2486 22.2285 26.8758 22.5286 36.6105C22.8288 46.3453 25.8237 55.806 31.1803 63.94L35.3403 61.18Z" fill="url(#paint0_linear_1693_668)"/>
<defs>
<linearGradient id="paint0_linear_1693_668" x1="20.0703" y1="74.375" x2="130.07" y2="74.375" gradientUnits="userSpaceOnUse">
<stop stop-color="#2176FF"/>
<stop offset="1" stop-color="#5897FB"/>
</linearGradient>
</defs>
</svg>
