<svg width="150" height="150" viewBox="0 0 150 150" fill="none" xmlns="http://www.w3.org/2000/svg">
<path d="M68.0839 47.4936C64.0195 46.0566 60.5009 43.3944 58.013 39.874C55.525 36.3535 54.1902 32.148 54.1924 27.8372C54.1924 22.3108 56.3878 17.0108 60.2955 13.1031C64.2032 9.19534 69.5032 7 75.0296 7C80.556 7 85.856 9.19534 89.7637 13.1031C93.6714 17.0108 95.8668 22.3108 95.8668 27.8372C95.8668 36.9361 90.0324 44.6458 81.9753 47.4936V67.011C77.4346 65.7213 72.6246 65.7213 68.0839 67.011V47.4936ZM118.788 139.663C115.043 137.529 112.056 134.284 110.239 130.376C108.422 126.468 107.865 122.092 108.647 117.854L91.6993 108.06C95.0333 104.865 97.5337 100.767 98.6451 96.0441L115.593 105.838C122.122 100.212 131.707 99.1003 139.555 103.615C149.557 109.38 152.961 122.091 147.196 132.023C145.837 134.395 144.023 136.476 141.858 138.145C139.693 139.814 137.22 141.038 134.58 141.748C131.94 142.458 129.186 142.64 126.476 142.282C123.766 141.924 121.153 141.034 118.788 139.663ZM10.4344 103.546C18.2831 99.0308 27.8682 100.212 34.3971 105.768L51.4142 95.9747C52.5255 100.767 54.9565 104.796 58.3599 107.991L41.3429 117.784C42.9404 126.258 39.1202 135.149 31.2716 139.663C21.2697 145.428 8.55905 142.025 2.7941 132.023C1.42438 129.652 0.535457 127.034 0.17815 124.319C-0.179157 121.604 0.00216127 118.845 0.711739 116.201C1.42132 113.556 2.64524 111.077 4.31352 108.905C5.98181 106.734 8.06174 104.913 10.4344 103.546ZM88.921 90.3487C88.921 94.0329 87.4575 97.5662 84.8523 100.171C82.2472 102.777 78.7138 104.24 75.0296 104.24C71.3454 104.24 67.812 102.777 65.2069 100.171C62.6017 97.5662 61.1382 94.0329 61.1382 90.3487C61.1382 86.6644 62.6017 83.1311 65.2069 80.5259C67.812 77.9208 71.3454 76.4572 75.0296 76.4572C78.7138 76.4572 82.2472 77.9208 84.8523 80.5259C87.4575 83.1311 88.921 86.6644 88.921 90.3487ZM109.758 90.3487L109.55 94.3077L99.3396 88.3344C98.6451 80.9025 94.686 74.443 88.921 70.345V58.4678C101.215 63.8855 109.758 76.1099 109.758 90.3487ZM95.6584 118.34C89.8934 122.577 82.7393 125.077 75.0296 125.077C67.3198 125.077 60.1658 122.577 54.4008 118.132L64.611 112.367C67.8061 113.825 71.3484 114.659 75.0296 114.659C78.7108 114.659 82.1837 113.825 85.4482 112.367L95.6584 118.34ZM40.5094 94.2383L40.301 90.3487C40.301 76.1099 48.8442 63.8855 61.1382 58.5373V70.4144C55.3732 74.443 51.4142 80.9025 50.7196 88.2649L40.5094 94.2383Z" fill="url(#paint0_linear_2037_1092)"/>
<defs>
<linearGradient id="paint0_linear_2037_1092" x1="0" y1="74.7338" x2="150" y2="74.7338" gradientUnits="userSpaceOnUse">
<stop stop-color="#2176FF"/>
<stop offset="1" stop-color="#5897FB"/>
</linearGradient>
</defs>
</svg>
