<svg width="150" height="150" viewBox="0 0 150 150" fill="none" xmlns="http://www.w3.org/2000/svg">
<path d="M31.25 81.25V137.5H18.75V81.25H31.25ZM143.75 81.25V93.75H131.25V137.5H118.75V93.75H106.25V81.25H143.75ZM75 68.75C83.7571 68.7966 92.3279 71.2835 99.75 75.9313L108.794 66.8688C98.8681 59.9811 87.0813 56.2774 75 56.25C63.0795 56.2734 51.4504 59.9368 41.6687 66.75L50.725 75.8313C57.9963 71.2495 66.4057 68.7964 75 68.75Z" fill="url(#paint0_linear_1693_662)"/>
<path d="M75.0004 43.75C90.39 43.782 105.363 48.7553 117.713 57.9375L126.632 49C111.869 37.5163 93.7039 31.2716 75.0004 31.25C56.4589 31.2735 38.4549 37.4802 23.8379 48.8875L32.7504 57.825C44.9563 48.717 59.7708 43.7817 75.0004 43.75Z" fill="url(#paint1_linear_1693_662)"/>
<path d="M75 18.7499C97.0192 18.7533 118.378 26.2719 135.544 40.0624L144.462 31.1311C124.974 15.0647 100.508 6.26941 75.2503 6.25003C49.9928 6.23065 25.5134 14.9884 6 31.0249L14.9187 39.9561C31.9398 26.2396 53.14 18.7568 75 18.7499ZM75 81.2499C69.4374 81.2499 63.9997 82.8994 59.3746 85.9898C54.7495 89.0802 51.1446 93.4727 49.0159 98.6119C46.8872 103.751 46.3302 109.406 47.4154 114.862C48.5006 120.318 51.1793 125.329 55.1126 129.262C59.046 133.196 64.0574 135.874 69.5131 136.959C74.9688 138.045 80.6238 137.488 85.763 135.359C90.9021 133.23 95.2947 129.625 98.3851 125C101.475 120.375 103.125 114.937 103.125 109.375C103.125 101.916 100.162 94.762 94.8874 89.4875C89.6129 84.213 82.4592 81.2499 75 81.2499ZM75 125C71.9097 125 68.8887 124.083 66.3192 122.367C63.7497 120.65 61.747 118.209 60.5644 115.354C59.3818 112.499 59.0723 109.358 59.6752 106.327C60.2781 103.296 61.7663 100.512 63.9515 98.3263C66.1366 96.1411 68.9208 94.653 71.9517 94.0501C74.9827 93.4472 78.1243 93.7566 80.9794 94.9393C83.8345 96.1219 86.2748 98.1246 87.9917 100.694C89.7086 103.264 90.625 106.285 90.625 109.375C90.625 113.519 88.9788 117.493 86.0485 120.423C83.1183 123.354 79.144 125 75 125Z" fill="url(#paint2_linear_1693_662)"/>
<defs>
<linearGradient id="paint0_linear_1693_662" x1="18.75" y1="96.875" x2="143.75" y2="96.875" gradientUnits="userSpaceOnUse">
<stop stop-color="#2176FF"/>
<stop offset="1" stop-color="#5897FB"/>
</linearGradient>
<linearGradient id="paint1_linear_1693_662" x1="23.8379" y1="44.5938" x2="126.632" y2="44.5938" gradientUnits="userSpaceOnUse">
<stop stop-color="#2176FF"/>
<stop offset="1" stop-color="#5897FB"/>
</linearGradient>
<linearGradient id="paint2_linear_1693_662" x1="6" y1="71.8749" x2="144.462" y2="71.8749" gradientUnits="userSpaceOnUse">
<stop stop-color="#2176FF"/>
<stop offset="1" stop-color="#5897FB"/>
</linearGradient>
</defs>
</svg>
