<svg width="150" height="150" viewBox="0 0 150 150" fill="none" xmlns="http://www.w3.org/2000/svg">
<path d="M86.1437 94.8241L99.4 81.5679L136.875 119.043L123.619 132.299L86.1437 94.8241ZM109.375 62.4991C121.437 62.4991 131.25 52.6866 131.25 40.6241C131.25 36.9991 130.25 33.6241 128.687 30.6241L111.812 47.4991L102.5 38.1866L119.375 21.3116C116.375 19.7491 113 18.7491 109.375 18.7491C97.3125 18.7491 87.5 28.5616 87.5 40.6241C87.5 43.1866 88 45.6241 88.8125 47.8741L77.25 59.4366L66.125 48.3116L70.5625 43.8741L61.75 35.0616L75 21.8116C71.4844 18.3004 66.7188 16.3281 61.75 16.3281C56.7812 16.3281 52.0156 18.3004 48.5 21.8116L26.375 43.9366L35.1875 52.7491H17.5625L13.125 57.1866L35.25 79.3116L39.6875 74.8741V57.1866L48.5 65.9991L52.9375 61.5616L64.0625 72.6866L17.75 118.999L31 132.249L102.125 61.1866C104.375 61.9991 106.812 62.4991 109.375 62.4991Z" fill="url(#paint0_linear_1693_666)"/>
<defs>
<linearGradient id="paint0_linear_1693_666" x1="13.125" y1="74.3136" x2="136.875" y2="74.3136" gradientUnits="userSpaceOnUse">
<stop stop-color="#2176FF"/>
<stop offset="1" stop-color="#5897FB"/>
</linearGradient>
</defs>
</svg>
