<svg width="150" height="150" viewBox="0 0 150 150" fill="none" xmlns="http://www.w3.org/2000/svg">
<path d="M110.157 9.375C115.675 9.375 120.851 10.4004 125.685 12.4512C130.519 14.502 134.718 17.334 138.282 20.9473C141.847 24.5605 144.679 28.7842 146.778 33.6182C148.878 38.4521 149.928 43.6279 149.928 49.1455C149.928 51.9775 149.635 54.7852 149.049 57.5684C148.463 60.3516 147.584 63.0371 146.412 65.625H112.501L98.4385 50.9766L75.001 74.4141L42.1885 41.6016L18.751 65.625H3.58984C2.41797 63.0371 1.53906 60.3516 0.953125 57.5684C0.367188 54.7852 0.0742188 51.9775 0.0742188 49.1455C0.0742188 43.6279 1.09961 38.4521 3.15039 33.6182C5.20117 28.7842 8.0332 24.585 11.6465 21.0205C15.2598 17.4561 19.4834 14.624 24.3174 12.5244C29.1514 10.4248 34.3271 9.375 39.8447 9.375C45.167 9.375 50.2451 10.376 55.0791 12.3779C59.9131 14.3799 64.2344 17.2607 68.043 21.0205L75.001 28.0518L81.959 21.0205C85.7188 17.2607 90.0156 14.3799 94.8496 12.3779C99.6836 10.376 104.786 9.375 110.157 9.375ZM103.126 75H140.479L139.454 76.1719C139.112 76.5625 138.746 76.9775 138.355 77.417L75.001 140.698L11.6465 77.417C11.2559 77.0264 10.8896 76.6357 10.5479 76.2451C10.2061 75.8545 9.86426 75.4395 9.52246 75H28.126L42.1885 61.5234L75.001 94.3359L98.4385 70.8984L103.126 75Z" fill="url(#paint0_linear_1693_670)"/>
<defs>
<linearGradient id="paint0_linear_1693_670" x1="0.0742188" y1="75.0366" x2="149.928" y2="75.0366" gradientUnits="userSpaceOnUse">
<stop stop-color="#2176FF"/>
<stop offset="1" stop-color="#5897FB"/>
</linearGradient>
</defs>
</svg>
