<svg width="150" height="150" viewBox="0 0 150 150" fill="none" xmlns="http://www.w3.org/2000/svg">
<path d="M18.75 131.25H31.25V93.75H18.75V112.5V131.25ZM77.875 137.5L59.5625 133.5L41.25 129.188C40.1901 128.981 39.2378 128.405 38.5625 127.562C37.864 126.744 37.4864 125.701 37.5 124.625V99.625C37.5177 98.5549 37.8916 97.5213 38.5625 96.6875C39.2606 95.8712 40.2029 95.3015 41.25 95.0625L71.125 91.375L101.063 87.625L102 91.125L102.938 94.5625C102.954 95.7148 102.628 96.8461 102 97.8125C101.426 98.8231 100.552 99.631 99.5 100.125L87 103.25L74.5 106.375L84.625 110.5L94.8125 114.562L109 110.562L122.813 106.25C124.04 105.94 125.34 106.119 126.438 106.75C126.99 107.048 127.475 107.458 127.863 107.953C128.25 108.447 128.531 109.017 128.688 109.625L129.875 114.438L131.125 119.188C131.408 120.375 131.23 121.627 130.625 122.687C129.982 123.758 128.953 124.541 127.75 124.875L105.062 131.125L82.375 137.375C81.628 137.47 80.872 137.47 80.125 137.375C79.387 137.54 78.6268 137.582 77.875 137.5ZM56.25 25L43.75 37.5L31.25 50L43.75 62.5L56.25 75L60.625 70.625L65 66.25L56.875 58.125L48.75 50L56.875 41.875L65 33.75L60.625 29.375L56.25 25ZM93.75 25L89.375 29.375L85 33.75L93.125 41.875L101.25 50L93.125 58.125L85 66.25L89.375 70.625L93.75 75L106.25 62.5L118.75 50L106.25 37.5L93.75 25Z" fill="url(#paint0_linear_1693_681)"/>
<defs>
<linearGradient id="paint0_linear_1693_681" x1="18.75" y1="81.2705" x2="131.256" y2="81.2705" gradientUnits="userSpaceOnUse">
<stop stop-color="#2176FF"/>
<stop offset="1" stop-color="#5897FB"/>
</linearGradient>
</defs>
</svg>
