<svg width="100" height="100" viewBox="0 0 100 100" fill="none" xmlns="http://www.w3.org/2000/svg">
<path d="M47.458 9.52911C43.4913 12.9706 40.4933 17.3893 38.7611 22.3468C37.0289 27.3044 36.6228 32.6287 37.5829 37.7916C31.2413 34.1416 24.2496 33.0416 16.2163 33.7083C15.6925 33.7534 15.1828 33.9013 14.7162 34.1435C14.2497 34.3858 13.8354 34.7176 13.4972 35.1201C13.159 35.5225 12.9034 35.9877 12.7451 36.489C12.5868 36.9903 12.5289 37.5179 12.5746 38.0416C13.2288 45.2333 16.5413 52.3666 21.1579 57.9416C19.4179 57.9277 17.679 58.0349 15.9538 58.2624C14.9615 58.3947 14.0575 58.902 13.4275 59.68C12.7975 60.458 12.4893 61.4477 12.5663 62.4458C13.1782 70.3954 16.768 77.8212 22.6181 83.2387C28.4681 88.6561 36.1473 91.666 44.1204 91.6666H55.8746C63.8485 91.667 71.5287 88.6576 77.3796 83.2401C83.2305 77.8225 86.8209 70.3961 87.4329 62.4458C87.5098 61.447 87.2011 60.4568 86.5702 59.6787C85.9393 58.9006 85.0343 58.3938 84.0413 58.2624C82.3368 58.0378 80.6188 57.9306 78.8996 57.9416C83.5163 52.3624 86.8288 45.2333 87.483 38.0416C87.5287 37.5176 87.4706 36.9897 87.312 36.4881C87.1535 35.9866 86.8975 35.5212 86.5589 35.1187C86.2202 34.7162 85.8055 34.3844 85.3385 34.1424C84.8714 33.9004 84.3612 33.7529 83.8371 33.7083C75.8038 33.0416 68.7746 34.1416 62.4121 37.7916C63.3728 32.629 62.9673 27.305 61.2359 22.3475C59.5044 17.3899 56.5071 12.9711 52.5413 9.52911C51.8362 8.91647 50.9336 8.5791 49.9996 8.5791C49.0656 8.5791 48.163 8.91647 47.458 9.52911ZM49.9996 48.8624C45.7205 44.4079 43.3307 38.4706 43.3307 32.2937C43.3307 26.1168 45.7205 20.1795 49.9996 15.7249C54.2775 20.1793 56.6666 26.1157 56.6666 32.2916C56.6666 38.4675 54.2775 44.404 49.9996 48.8583M49.9996 72.2208C45.4611 66.4463 39.3267 62.1317 32.3579 59.8124C32.2229 59.685 32.0796 59.5666 31.9288 59.4583C25.8038 55.2916 20.5954 47.6083 19.1246 39.7916C26.9121 39.5333 33.0246 41.4041 38.6038 46.1291C42.8746 49.7499 44.7704 54.1624 46.1746 57.4416C46.5413 58.2916 46.8705 59.0666 47.2038 59.7249C47.4636 60.2433 47.8625 60.6792 48.3559 60.9838C48.8493 61.2884 49.4177 61.4497 49.9975 61.4497C50.5774 61.4497 51.1458 61.2884 51.6392 60.9838C52.1326 60.6792 52.5315 60.2433 52.7913 59.7249C53.1191 59.0583 53.4621 58.2972 53.8204 57.4416C55.2288 54.1624 57.1205 49.7458 61.3913 46.1291C66.9705 41.4083 73.1288 39.5333 80.933 39.7916C79.458 47.6083 74.2538 55.2916 68.1288 59.4583C67.989 59.5569 67.8554 59.6641 67.7288 59.7791C60.7234 62.0934 54.5564 66.4185 49.9996 72.2208ZM52.6788 79.3333C58.4829 69.6249 69.3538 63.5833 80.9246 64.2374C79.9267 70.1592 76.8629 75.5359 72.277 79.4131C67.6912 83.2903 61.8799 85.4174 55.8746 85.4166H44.1246C31.6246 85.4166 21.1079 76.3499 19.0788 64.2416C30.6454 63.5833 41.5163 69.6208 47.3205 79.3333C47.5979 79.7967 47.9908 80.1804 48.4607 80.4467C48.9306 80.7131 49.4615 80.8531 50.0017 80.8531C50.5419 80.8531 51.0728 80.7131 51.5427 80.4467C52.0126 80.1804 52.4055 79.7967 52.6829 79.3333" fill="#2176FF"/>
</svg>
