<svg width="100" height="100" viewBox="0 0 100 100" fill="none" xmlns="http://www.w3.org/2000/svg">
<path d="M45.8333 29.166L54.1667 41.666L45.8333 54.166H33.3333L25 41.666L33.3333 29.166H45.8333Z" stroke="#2176FF" stroke-width="8.33333" stroke-linecap="round" stroke-linejoin="round"/>
<path d="M66.6641 41.666L74.9974 29.166L66.6641 16.666H54.1641L45.8307 29.166L54.1641 41.666M66.6641 41.666H54.1641M66.6641 41.666L74.9974 54.166M54.1641 41.666L45.8307 54.166L54.1641 66.666M66.6641 66.666L74.9974 79.166M66.6641 66.666L74.9974 54.166M66.6641 66.666H54.1641M20.8307 16.666L33.3307 29.166M33.3307 54.166L24.9974 62.4993M54.1641 66.666L45.8307 74.9993M24.9974 41.666H16.6641M74.9974 54.166H87.4974" stroke="#2176FF" stroke-width="8.33333" stroke-linecap="round" stroke-linejoin="round"/>
<path d="M37.5026 87.4993C39.8038 87.4993 41.6693 85.6339 41.6693 83.3327C41.6693 81.0315 39.8038 79.166 37.5026 79.166C35.2014 79.166 33.3359 81.0315 33.3359 83.3327C33.3359 85.6339 35.2014 87.4993 37.5026 87.4993Z" fill="#2176FF"/>
<path d="M16.6667 74.9993C18.9679 74.9993 20.8333 73.1339 20.8333 70.8327C20.8333 68.5315 18.9679 66.666 16.6667 66.666C14.3655 66.666 12.5 68.5315 12.5 70.8327C12.5 73.1339 14.3655 74.9993 16.6667 74.9993Z" fill="#2176FF"/>
<path d="M87.5026 33.3324C89.8038 33.3324 91.6693 31.4669 91.6693 29.1657C91.6693 26.8645 89.8038 24.999 87.5026 24.999C85.2014 24.999 83.3359 26.8645 83.3359 29.1657C83.3359 31.4669 85.2014 33.3324 87.5026 33.3324Z" fill="#2176FF"/>
</svg>
