<svg width="100" height="100" viewBox="0 0 100 100" fill="none" xmlns="http://www.w3.org/2000/svg">
<path d="M33.3333 8.33301C28.7083 8.33301 25 12.0413 25 16.6663V66.6663C25 71.2913 28.7083 74.9997 33.3333 74.9997H37.5V83.333H25V91.6663H37.5C42.125 91.6663 45.8333 87.958 45.8333 83.333V74.9997H54.1667V83.333C54.1667 87.958 57.875 91.6663 62.5 91.6663H75V83.333H62.5V74.9997H66.6667C71.2917 74.9997 75 71.2913 75 66.6663V16.6663C75 12.0413 71.2917 8.33301 66.6667 8.33301H33.3333ZM50 20.708C52.2101 20.708 54.3298 21.586 55.8926 23.1488C57.4554 24.7116 58.3333 26.8312 58.3333 29.0413C58.3333 31.2515 57.4554 33.3711 55.8926 34.9339C54.3298 36.4967 52.2101 37.3747 50 37.3747C47.7899 37.3747 45.6702 36.4967 44.1074 34.9339C42.5446 33.3711 41.6667 31.2515 41.6667 29.0413C41.6667 26.8312 42.5446 24.7116 44.1074 23.1488C45.6702 21.586 47.7899 20.708 50 20.708ZM41.6667 60.4163H58.3333V66.6663H41.6667V60.4163Z" fill="#2176FF"/>
</svg>
