<svg width="100" height="100" viewBox="0 0 100 100" fill="none" xmlns="http://www.w3.org/2000/svg">
<path d="M70.3333 16.6665L79.2917 25.4165L56.25 43.7499L52.0833 39.5832L70.2917 16.6665H70.3333ZM70.3333 8.33319C69.1021 8.32505 67.8843 8.58987 66.7676 9.1086C65.6509 9.62732 64.663 10.3871 63.875 11.3332L40.8333 40.2082L55.5833 54.9582L84.5 31.9582C88.25 28.7915 88.5417 23.0832 85.0417 19.5832L76.25 10.7915C74.5833 9.12486 72.4583 8.33319 70.3333 8.33319ZM37.9167 43.1665L34.9583 46.1249C34.1771 46.9197 33.7394 47.9896 33.7394 49.104C33.7394 50.2185 34.1771 51.2884 34.9583 52.0832L43.75 60.8332C44.625 61.6665 45.6667 62.0415 46.75 62.0415C47.8333 62.0415 48.875 61.6665 49.7083 60.8332L52.625 57.9165L37.9167 43.1665ZM25 62.4999C22.7083 62.4999 20.8333 64.3749 20.8333 66.6665C20.8333 68.9582 22.7083 70.8332 25 70.8332C27.2917 70.8332 29.1667 68.9582 29.1667 66.6665C29.1667 64.3749 27.2917 62.4999 25 62.4999ZM37.5 66.6665C35.2083 66.6665 33.3333 68.5415 33.3333 70.8332C33.3333 73.1249 35.2083 74.9999 37.5 74.9999C39.7917 74.9999 41.6667 73.1249 41.6667 70.8332C41.6667 68.5415 39.7917 66.6665 37.5 66.6665ZM16.6667 74.9999C14.375 74.9999 12.5 76.8749 12.5 79.1665C12.5 81.4582 14.375 83.3332 16.6667 83.3332C18.9583 83.3332 20.8333 81.4582 20.8333 79.1665C20.8333 76.8749 18.9583 74.9999 16.6667 74.9999ZM29.1667 79.1665C26.875 79.1665 25 81.0415 25 83.3332C25 85.6249 26.875 87.4999 29.1667 87.4999C31.4583 87.4999 33.3333 85.6249 33.3333 83.3332C33.3333 81.0415 31.4583 79.1665 29.1667 79.1665Z" fill="#2176FF"/>
</svg>
