<svg width="100" height="100" viewBox="0 0 100 100" fill="none" xmlns="http://www.w3.org/2000/svg">
<path d="M4.64062 83.5285V57.6714L27.2621 47.9785L49.8835 57.6785V83.5285L27.2621 93.2142L4.64062 83.5285Z" stroke="#2176FF" stroke-width="7.14286" stroke-linecap="round" stroke-linejoin="round"/>
<path d="M4.64062 57.6212L27.2621 67.3141L49.8835 57.6212M27.2621 22.2998L49.8763 31.9998L72.4978 22.3069" stroke="#2176FF" stroke-width="7.14286" stroke-linecap="round" stroke-linejoin="round"/>
<path d="M49.875 57.6211L72.4964 67.3139L95.1179 57.6211" stroke="#2176FF" stroke-width="7.14286" stroke-linecap="round" stroke-linejoin="round"/>
<path d="M27.2578 67.3283V93.2212M72.5078 67.3283V93.2212M49.8721 31.9998V57.8855M27.2721 47.9641V22.1069L49.8864 12.4141L72.5078 22.1069V47.9641L49.8864 57.6569L27.2721 47.9641ZM49.8721 83.5284V57.6712L72.4935 47.9784L95.115 57.6784V83.5284L72.4935 93.2141L49.8721 83.5284Z" stroke="#2176FF" stroke-width="7.14286" stroke-linecap="round" stroke-linejoin="round"/>
</svg>
