<svg width="32" height="32" viewBox="0 0 32 32" fill="none" xmlns="http://www.w3.org/2000/svg">
<path d="M15.9116 28C22.4901 28 27.8231 22.6274 27.8231 16C27.8231 9.37258 22.4901 4 15.9116 4C9.33299 4 4 9.37258 4 16C4 22.6274 9.33299 28 15.9116 28Z" fill="black"/>
<path d="M26.4992 14.0058L26.4098 13.5963L22.8864 12.9932L24.9376 10.2774L24.7014 10.0113L21.6865 11.4315L22.0674 7.66779L21.7589 7.49096L19.9248 10.5436L17.8717 6H17.5099L17.9993 10.3836L12.8228 6.3183L12.3866 6.44301L16.3652 11.3607L8.48233 8.78647L8.11856 9.17736L15.1653 13.1179L5.44841 13.9164L5.33984 14.5027L15.4377 15.5842L7.01013 22.4378L7.37389 22.9162L17.3994 17.5554L15.4205 27H16.0205L19.8695 18.1064L22.2141 25.0641L22.6312 24.744L21.6694 17.6801L25.3184 21.7453L25.5546 21.3712L22.7588 16.3306L26.6631 17.7508L26.6992 17.3246L23.1949 14.7857L26.4992 14.0058Z" fill="#FED42B"/>
</svg>
