<svg width="33" height="32" viewBox="0 0 33 32" fill="none" xmlns="http://www.w3.org/2000/svg">
<path fill-rule="evenodd" clip-rule="evenodd" d="M28.8242 16.5001C28.8242 21.9234 28.8242 24.6317 27.1435 26.3193C25.4559 28 22.7477 28 17.3244 28H16.3241C10.9008 28 8.19252 28 6.50497 26.3193C4.82422 24.6317 4.82422 21.9166 4.82422 16.5001V15.4999C4.82422 10.0766 4.82422 7.3683 6.50497 5.68075C8.19252 4 10.9008 4 16.3241 4H17.3244C22.7477 4 25.4559 4 27.1435 5.68075C28.8242 7.3683 28.8242 10.0766 28.8242 15.4999V16.5001Z" fill="#0077FF"/>
<path d="M14.7522 4C19.148 4.02041 21.4888 4.17012 22.9994 5.68075C24.6734 7.3683 24.6734 10.0766 24.6734 15.4999V16.5001C24.6734 21.9234 24.6734 24.6317 22.9994 26.3193C21.4888 27.8163 19.1344 27.9796 14.7522 28C10.3632 27.9796 8.0156 27.8299 6.50497 26.3193C4.82422 24.6317 4.82422 21.9166 4.82422 16.5001V15.4999C4.82422 10.0766 4.82422 7.3683 6.50497 5.68075C8.0224 4.17012 10.3632 4.02041 14.7522 4Z" fill="#FF2B42"/>
<path fill-rule="evenodd" clip-rule="evenodd" d="M12.8677 12.3157C12.5615 12.1932 12.2144 12.3838 12.1668 12.7036C11.9627 13.7855 11.8674 14.8675 11.8674 15.963C11.8674 17.1062 11.9627 18.2154 12.1872 19.2837C12.2348 19.6103 12.5751 19.8076 12.8881 19.6784C14.8887 18.9435 16.7327 17.8207 18.3046 16.3781C18.5359 16.1672 18.5359 15.8065 18.3046 15.5956C16.7259 14.1666 14.875 13.0438 12.8677 12.3157ZM9.72393 12.2273C10.071 10.4172 11.9559 9.3489 13.691 9.97493C16.0114 10.8187 18.1413 12.1048 19.9581 13.7651C21.285 14.9559 21.285 17.0314 19.9581 18.2222C18.1413 19.8757 16.0182 21.1618 13.7115 22.0055C11.9831 22.6316 10.105 21.5769 9.74434 19.7736C9.49257 18.5216 9.36328 17.2423 9.36328 15.963C9.36328 14.6906 9.49937 13.4385 9.72393 12.2273Z" fill="white"/>
</svg>
