<svg width="33" height="32" viewBox="0 0 33 32" fill="none" xmlns="http://www.w3.org/2000/svg">
<mask id="mask0_4144_6199" style="mask-type:luminance" maskUnits="userSpaceOnUse" x="4" y="4" width="25" height="24">
<path d="M28.8242 16C28.8242 9.37258 23.4516 4 16.8242 4C10.1968 4 4.82422 9.37258 4.82422 16C4.82422 22.6274 10.1968 28 16.8242 28C23.4516 28 28.8242 22.6274 28.8242 16Z" fill="white"/>
</mask>
<g mask="url(#mask0_4144_6199)">
<path d="M28.8242 4H4.82422V28H28.8242V4Z" fill="#100943"/>
<path d="M28.8242 16C35.4517 16 40.8242 10.6274 40.8242 4.00001C40.8242 -2.62742 35.4517 -8 28.8242 -8C22.1968 -8 16.8242 -2.62742 16.8242 4.00001C16.8242 10.6274 22.1968 16 28.8242 16Z" fill="#ED143B"/>
<path d="M19.6483 15.4521H12.5578V12.6463H19.6483C20.0624 12.6463 20.3504 12.7185 20.4949 12.8446C20.6395 12.9706 20.729 13.2045 20.729 13.546V14.5535C20.729 14.9133 20.6395 15.1472 20.4949 15.2732C20.3504 15.3993 20.0624 15.4532 19.6483 15.4532V15.4521ZM20.1347 10.0011H9.55078V22H12.5578V18.0963H18.0995L20.729 22H24.0962L21.1971 18.0779C22.2659 17.9195 22.7459 17.592 23.1417 17.0522C23.5375 16.5123 23.7361 15.6493 23.7361 14.4974V13.5977C23.7361 12.9146 23.6637 12.3748 23.5375 11.961C23.4113 11.5473 23.1957 11.1874 22.8893 10.8641C22.5658 10.5581 22.2055 10.3426 21.773 10.1983C21.3405 10.0722 20.8002 10 20.1347 10V10.0011Z" fill="white"/>
</g>
</svg>
