<svg width="100" height="100" viewBox="0 0 100 100" fill="none" xmlns="http://www.w3.org/2000/svg">
<path d="M24.3776 49.9997L23.1276 43.7497C22.2943 43.4025 21.5137 43.0386 20.7859 42.658C20.0582 42.2775 19.3109 41.808 18.5443 41.2497L12.5026 43.1247L8.33594 36.0413L13.1276 31.8747C12.9887 30.9719 12.9193 30.0691 12.9193 29.1663C12.9193 28.2636 12.9887 27.3608 13.1276 26.458L8.33594 22.2913L12.5026 15.208L18.5443 17.083C19.3082 16.5275 20.0554 16.058 20.7859 15.6747C21.5165 15.2913 22.297 14.9275 23.1276 14.583L24.3776 8.33301H32.7109L33.9609 14.583C34.7943 14.9302 35.5762 15.2955 36.3068 15.6788C37.0373 16.0622 37.7832 16.5302 38.5443 17.083L44.5859 15.208L48.7526 22.2913L43.9609 26.458C44.0998 27.3608 44.1693 28.2636 44.1693 29.1663C44.1693 30.0691 44.0998 30.9719 43.9609 31.8747L48.7526 36.0413L44.5859 43.1247L38.5443 41.2497C37.7804 41.8052 37.0345 42.2747 36.3068 42.658C35.579 43.0413 34.797 43.4052 33.9609 43.7497L32.7109 49.9997H24.3776ZM28.5443 37.4997C30.8359 37.4997 32.7984 36.6844 34.4318 35.0538C36.0651 33.4233 36.8804 31.4608 36.8776 29.1663C36.8748 26.8719 36.0595 24.9108 34.4318 23.283C32.804 21.6552 30.8415 20.8386 28.5443 20.833C26.247 20.8275 24.2859 21.6441 22.6609 23.283C21.0359 24.9219 20.2193 26.883 20.2109 29.1663C20.2026 31.4497 21.0193 33.4122 22.6609 35.0538C24.3026 36.6955 26.2637 37.5108 28.5443 37.4997ZM61.6693 95.833L59.7943 87.083C58.6137 86.6663 57.5207 86.1622 56.5151 85.5705C55.5095 84.9788 54.5193 84.3024 53.5443 83.5413L45.2109 86.2497L39.3776 76.2497L46.0443 70.4163C45.9054 69.1663 45.8359 67.9163 45.8359 66.6663C45.8359 65.4163 45.9054 64.1663 46.0443 62.9163L39.3776 57.083L45.2109 47.083L53.5443 49.7913C54.5165 49.0275 55.5068 48.3497 56.5151 47.758C57.5234 47.1663 58.6165 46.6636 59.7943 46.2497L61.6693 37.4997H73.3359L75.2109 46.2497C76.3915 46.6663 77.4859 47.1705 78.4943 47.7622C79.5026 48.3538 80.4915 49.0302 81.4609 49.7913L89.7943 47.083L95.6276 57.083L88.9609 62.9163C89.0998 64.1663 89.1693 65.4163 89.1693 66.6663C89.1693 67.9163 89.0998 69.1663 88.9609 70.4163L95.6276 76.2497L89.7943 86.2497L81.4609 83.5413C80.4887 84.3052 79.4998 84.9816 78.4943 85.5705C77.4887 86.1594 76.3943 86.6636 75.2109 87.083L73.3359 95.833H61.6693ZM67.5026 79.1663C70.9748 79.1663 73.9262 77.9511 76.3568 75.5205C78.7873 73.09 80.0026 70.1386 80.0026 66.6663C80.0026 63.1941 78.7873 60.2427 76.3568 57.8122C73.9262 55.3816 70.9748 54.1663 67.5026 54.1663C64.0304 54.1663 61.079 55.3816 58.6484 57.8122C56.2179 60.2427 55.0026 63.1941 55.0026 66.6663C55.0026 70.1386 56.2179 73.09 58.6484 75.5205C61.079 77.9511 64.0304 79.1663 67.5026 79.1663Z" fill="#2176FF"/>
</svg>
