<svg width="100" height="100" viewBox="0 0 100 100" fill="none" xmlns="http://www.w3.org/2000/svg">
<path d="M70.8402 62.4958V81.2458M61.461 71.8708H80.2152M95.836 65.6208C95.8493 72.8977 93.3788 79.9612 88.833 85.6434C84.2872 91.3257 77.9383 95.2864 70.836 96.8708C63.7337 95.2864 57.3848 91.3257 52.839 85.6434C48.2932 79.9612 45.8227 72.8977 45.836 65.6208V56.25C45.836 54.5924 46.4945 53.0027 47.6666 51.8306C48.8387 50.6585 50.4284 50 52.086 50H89.586C91.2436 50 92.8333 50.6585 94.0054 51.8306C95.1775 53.0027 95.836 54.5924 95.836 56.25V65.6208Z" stroke="#2176FF" stroke-width="6.25" stroke-linecap="round" stroke-linejoin="round"/>
<path d="M35.4219 84.3875H16.6719C13.3567 84.3875 10.1772 83.0705 7.83304 80.7263C5.48884 78.3821 4.17188 75.2027 4.17188 71.8875V40.6375C4.17188 37.3223 5.48884 34.1429 7.83304 31.7987C10.1772 29.4545 13.3567 28.1375 16.6719 28.1375H41.6719C44.503 28.137 47.2504 29.0976 49.4645 30.862C51.6785 32.6264 53.228 35.0902 53.8594 37.85M4.17188 9.375L6.76354 6.7875C9.10516 4.44517 12.2807 3.12792 15.5927 3.125H44.7969M29.1677 15.625V3.125M41.6719 28.1292H16.6719V21.8792C16.6719 20.2216 17.3304 18.6319 18.5025 17.4598C19.6746 16.2876 21.2643 15.6292 22.9219 15.6292H35.4219C37.0795 15.6292 38.6692 16.2876 39.8413 17.4598C41.0134 18.6319 41.6719 20.2216 41.6719 21.8792V28.1292Z" stroke="#2176FF" stroke-width="6.25" stroke-linecap="round" stroke-linejoin="round"/>
</svg>
