<svg width="100" height="100" viewBox="0 0 100 100" fill="none" xmlns="http://www.w3.org/2000/svg">
<path d="M27.0833 20.833C24.3333 20.833 22 22.583 21.1667 24.9997L12.5 49.9997V83.333C12.5 84.4381 12.939 85.4979 13.7204 86.2793C14.5018 87.0607 15.5616 87.4997 16.6667 87.4997H20.8333C21.9384 87.4997 22.9982 87.0607 23.7796 86.2793C24.561 85.4979 25 84.4381 25 83.333V79.1663H47.0833C46.2655 76.4637 45.8444 73.6567 45.8333 70.833C45.84 65.7935 47.1524 60.8417 49.6425 56.4603C52.1325 52.079 55.7154 48.4176 60.0417 45.833H20.8333L27.0833 27.083H72.9167L77.8333 41.7913C80.3875 42.0576 82.8953 42.6601 85.2917 43.583L78.8333 24.9997C78 22.583 75.6667 20.833 72.9167 20.833H27.0833ZM70.8333 49.9997C70.5787 49.9949 70.3306 50.08 70.1325 50.2401C69.9343 50.4001 69.7989 50.6248 69.75 50.8747L68.9583 56.3747C67.7083 56.9163 66.5 57.583 65.4167 58.333L60.25 56.2497C59.7917 56.2497 59.25 56.2497 58.9583 56.7913L54.7917 63.9997C54.5417 64.458 54.625 64.9997 55.0417 65.333L59.4583 68.7497C59.2924 70.1336 59.2924 71.5324 59.4583 72.9163L55.0417 76.333C54.8544 76.4936 54.7276 76.7133 54.6821 76.9557C54.6367 77.1981 54.6753 77.4488 54.7917 77.6663L58.9583 84.8747C59.2083 85.4164 59.75 85.4163 60.25 85.4163L65.4167 83.333C66.5 84.083 67.6667 84.7913 68.9583 85.2913L69.75 90.7914C69.8333 91.2914 70.25 91.6663 70.8333 91.6663H79.1667C79.625 91.6663 80.0833 91.2914 80.1667 90.7914L80.9583 85.2913C82.2083 84.7497 83.3333 84.083 84.4583 83.333L89.5833 85.4163C90.125 85.4163 90.6667 85.4164 90.9583 84.8747L95.125 77.6663C95.2414 77.4488 95.28 77.1981 95.2345 76.9557C95.1891 76.7133 95.0622 76.4936 94.875 76.333L90.4167 72.9163C90.5 72.208 90.5833 71.5413 90.5833 70.833C90.5833 70.1247 90.5417 69.458 90.4167 68.7497L94.8333 65.333C95.0206 65.1724 95.1474 64.9528 95.1929 64.7103C95.2383 64.4679 95.1997 64.2172 95.0833 63.9997L90.9167 56.7913C90.6667 56.2497 90.125 56.2497 89.5833 56.2497L84.4583 58.333C83.3333 57.583 82.2083 56.8747 80.9167 56.3747L80.125 50.8747C80.0987 50.6373 79.987 50.4177 79.8107 50.2566C79.6343 50.0956 79.4054 50.0043 79.1667 49.9997H70.8333ZM27.0833 54.1663C28.7409 54.1663 30.3307 54.8248 31.5028 55.9969C32.6749 57.169 33.3333 58.7587 33.3333 60.4163C33.3333 62.0739 32.6749 63.6637 31.5028 64.8358C30.3307 66.0079 28.7409 66.6663 27.0833 66.6663C25.4257 66.6663 23.836 66.0079 22.6639 64.8358C21.4918 63.6637 20.8333 62.0739 20.8333 60.4163C20.8333 58.7587 21.4918 57.169 22.6639 55.9969C23.836 54.8248 25.4257 54.1663 27.0833 54.1663ZM75 64.583C78.4583 64.583 81.25 67.3747 81.25 70.833C81.25 74.2913 78.4583 77.083 75 77.083C71.5 77.083 68.75 74.2913 68.75 70.833C68.75 67.3747 71.5417 64.583 75 64.583Z" fill="#2176FF"/>
</svg>
