<svg width="100" height="100" viewBox="0 0 100 100" fill="none" xmlns="http://www.w3.org/2000/svg">
<path d="M57.8947 0V40H100C100 17.9 81.1579 0 57.8947 0ZM68.4211 30V11.7C77.3684 14.7 84.4737 21.45 87.6842 30H68.4211ZM23.3684 45L18.3684 35H0V45H11.6842C11.6842 45 21.6316 65.35 22.8421 67.1C17.0526 70.05 13.1579 75.85 13.1579 82.5C13.1579 92.15 21.4211 100 31.5789 100C40.8421 100 48.5263 93.5 49.7895 85H60.7368C62 93.5 69.6842 100 78.9474 100C89.1053 100 97.3684 92.15 97.3684 82.5C97.3684 77.3 94.9474 72.65 91.1579 69.45C96.8907 62.4636 100.003 53.8583 100 45H23.3684ZM31.5789 90C27.2105 90 23.6842 86.65 23.6842 82.5C23.6842 78.35 27.2105 75 31.5789 75C35.9474 75 39.4737 78.35 39.4737 82.5C39.4737 86.65 35.9474 90 31.5789 90ZM78.9474 90C74.5789 90 71.0526 86.65 71.0526 82.5C71.0526 78.35 74.5789 75 78.9474 75C83.3158 75 86.8421 78.35 86.8421 82.5C86.8421 86.65 83.3158 90 78.9474 90ZM82.8421 63.3L81.3158 65.15C77.4603 64.6808 73.5473 65.3806 70.1353 67.1495C66.7233 68.9184 63.9866 71.6659 62.3158 75H48.2105C45.5789 69.8 40.3158 66 34.1053 65.15L31.7895 61.8C31.2632 60.95 30 58.35 28.2632 55H87.6842C86.5789 57.95 84.9474 60.75 82.8421 63.3Z" fill="#2176FF"/>
</svg>
