<svg width="100" height="100" viewBox="0 0 100 100" fill="none" xmlns="http://www.w3.org/2000/svg">
<path fill-rule="evenodd" clip-rule="evenodd" d="M32.2943 23.4086C32.2942 22.1656 31.9764 20.9432 31.371 19.8575C30.7656 18.7719 29.8927 17.859 28.8352 17.2057C27.7777 16.5523 26.5708 16.1801 25.329 16.1245C24.0872 16.0689 22.8518 16.3316 21.7401 16.8878L13.4068 21.0544C12.196 21.6602 11.1778 22.591 10.4662 23.7427C9.75459 24.8944 9.37765 26.2215 9.3776 27.5753V42.7086H8.33594C7.50714 42.7086 6.71228 43.0379 6.12623 43.6239C5.54018 44.21 5.21094 45.0048 5.21094 45.8336V70.8336C5.21094 74.9776 6.85714 78.9519 9.78739 81.8822C12.7176 84.8124 16.6919 86.4586 20.8359 86.4586C24.9799 86.4586 28.9542 84.8124 31.8845 81.8822C34.8147 78.9519 36.4609 74.9776 36.4609 70.8336V45.8336C36.4609 45.0048 36.1317 44.21 35.5456 43.6239C34.9596 43.0379 34.1647 42.7086 33.3359 42.7086H32.2943V23.4086ZM11.4609 48.9586H30.2109V70.8336C30.2109 72.0648 29.9684 73.2838 29.4973 74.4213C29.0262 75.5587 28.3356 76.5922 27.4651 77.4627C26.5945 78.3333 25.561 79.0238 24.4236 79.495C23.2862 79.9661 22.0671 80.2086 20.8359 80.2086C19.6048 80.2086 18.3857 79.9661 17.2483 79.495C16.1109 79.0238 15.0774 78.3333 14.2068 77.4627C13.3363 76.5922 12.6457 75.5587 12.1746 74.4213C11.7034 73.2838 11.4609 72.0648 11.4609 70.8336V48.9586ZM26.0443 42.7086V23.4086C26.0446 23.2308 25.9994 23.0559 25.9131 22.9004C25.8267 22.745 25.7019 22.6143 25.5507 22.5208C25.3995 22.4272 25.2269 22.3739 25.0492 22.3659C24.8716 22.358 24.6949 22.3956 24.5359 22.4753L16.2026 26.6419C16.0295 26.7287 15.884 26.862 15.7824 27.0269C15.6808 27.1917 15.6272 27.3816 15.6276 27.5753V42.7086H26.0443ZM68.7526 17.7086C62.1159 17.7072 55.7291 20.2397 50.8968 24.7888C46.0645 29.3379 43.1513 35.5603 42.7524 42.185C42.3535 48.8097 44.4989 55.3367 48.7504 60.4328C53.0019 65.5289 59.0387 68.8095 65.6276 69.6044V80.2086H56.2526C55.4238 80.2086 54.6289 80.5378 54.0429 81.1239C53.4568 81.71 53.1276 82.5048 53.1276 83.3336C53.1276 84.1624 53.4568 84.9573 54.0429 85.5433C54.6289 86.1294 55.4238 86.4586 56.2526 86.4586H81.2526C82.0814 86.4586 82.8763 86.1294 83.4623 85.5433C84.0484 84.9573 84.3776 84.1624 84.3776 83.3336C84.3776 82.5048 84.0484 81.71 83.4623 81.1239C82.8763 80.5378 82.0814 80.2086 81.2526 80.2086H71.8776V69.6044C78.4538 68.7936 84.4737 65.5069 88.7118 60.4134C92.9498 55.32 95.0873 48.8028 94.689 42.1888C94.2907 35.5748 91.3867 29.3612 86.568 24.8131C81.7494 20.2651 75.3786 17.7245 68.7526 17.7086ZM68.7526 63.5419C71.3517 63.5419 73.9253 63.03 76.3265 62.0354C78.7278 61.0408 80.9096 59.5829 82.7474 57.7451C84.5853 55.9073 86.0431 53.7255 87.0377 51.3242C88.0323 48.923 88.5443 46.3494 88.5443 43.7503C88.5443 41.1512 88.0323 38.5776 87.0377 36.1763C86.0431 33.7751 84.5853 31.5933 82.7474 29.7555C80.9096 27.9176 78.7278 26.4598 76.3265 25.4652C73.9253 24.4705 71.3517 23.9586 68.7526 23.9586C63.5035 23.9586 58.4694 26.0438 54.7578 29.7555C51.0461 33.4671 48.9609 38.5012 48.9609 43.7503C48.9609 48.9994 51.0461 54.0334 54.7578 57.7451C58.4694 61.4568 63.5035 63.5419 68.7526 63.5419Z" fill="#2176FF"/>
</svg>
