<svg width="100" height="100" viewBox="0 0 100 100" fill="none" xmlns="http://www.w3.org/2000/svg">
<path d="M50 43.75H56.25V50H50V43.75ZM62.5 43.75H68.75V50H62.5V43.75ZM75 43.75H81.25V50H75V43.75ZM50 56.25H56.25V62.5H50V56.25ZM62.5 56.25H68.75V62.5H62.5V56.25ZM75 56.25H81.25V62.5H75V56.25ZM50 68.75H56.25V75H50V68.75ZM62.5 68.75H68.75V75H62.5V68.75ZM75 68.75H81.25V75H75V68.75ZM50 31.25H81.25V37.5H50V31.25Z" fill="#2176FF"/>
<path d="M87.5 18.75H43.75V15.625C43.7475 13.9682 43.0882 12.3799 41.9167 11.2083C40.7451 10.0368 39.1568 9.37748 37.5 9.375H25C23.3432 9.37748 21.7549 10.0368 20.5833 11.2083C19.4118 12.3799 18.7525 13.9682 18.75 15.625V18.75H12.5C10.8432 18.7525 9.25489 19.4118 8.08332 20.5833C6.91176 21.7549 6.25248 23.3432 6.25 25V81.25C6.25248 82.9068 6.91176 84.4951 8.08332 85.6667C9.25489 86.8382 10.8432 87.4975 12.5 87.5H87.5C89.1568 87.4975 90.7451 86.8382 91.9167 85.6667C93.0882 84.4951 93.7475 82.9068 93.75 81.25V25C93.7475 23.3432 93.0882 21.7549 91.9167 20.5833C90.7451 19.4118 89.1568 18.7525 87.5 18.75ZM25 15.625H37.5V68.75H25V15.625ZM87.5 81.25H12.5V25H18.75V68.75C18.7525 70.4068 19.4118 71.9951 20.5833 73.1667C21.7549 74.3382 23.3432 74.9975 25 75H37.5C39.1568 74.9975 40.7451 74.3382 41.9167 73.1667C43.0882 71.9951 43.7475 70.4068 43.75 68.75V25H87.5V81.25Z" fill="#2176FF"/>
</svg>
