<svg width="100" height="100" viewBox="0 0 100 100" fill="none" xmlns="http://www.w3.org/2000/svg">
<path d="M31.1441 39.775C31.1441 39.112 31.4075 38.4761 31.8763 38.0072C32.3451 37.5384 32.981 37.275 33.6441 37.275H55.3741C56.0371 37.275 56.673 37.5384 57.1418 38.0072C57.6107 38.4761 57.8741 39.112 57.8741 39.775V60.225C57.8741 60.888 57.6107 61.5239 57.1418 61.9928C56.673 62.4616 56.0371 62.725 55.3741 62.725H33.6441C32.981 62.725 32.3451 62.4616 31.8763 61.9928C31.4075 61.5239 31.1441 60.888 31.1441 60.225V39.775ZM36.1441 57.725H52.8741V42.275H36.1441V57.725ZM8.96907 24.895C11.9991 18.03 18.8491 12.5 27.0091 12.5H76.6441C85.4641 12.5 95.0541 19.795 95.0541 30.91C95.0541 37.55 91.2291 43.2 88.6691 45.955C88.6091 49.495 88.7591 54.24 88.9291 59.305L88.9791 60.795C89.1541 65.84 89.3341 71.065 89.3341 75.455C89.3341 79.545 88.8891 83.05 86.4241 85.215C85.1941 86.295 83.6891 86.84 82.1041 87.135C80.299 87.4227 78.4714 87.5449 76.6441 87.5H25.7341C19.8591 87.5 16.2641 85.745 14.4441 82.705C12.9791 80.26 13.0241 77.405 13.0441 75.905L13.0541 75.455V46.025C6.54907 39.86 6.01907 31.58 8.96907 24.895ZM27.0091 17.5C21.1741 17.5 15.9241 21.515 13.5441 26.91C11.2141 32.18 11.7791 38.42 17.1741 43.005C17.4494 43.2392 17.6706 43.5304 17.8226 43.8584C17.9745 44.1864 18.0535 44.5435 18.0541 44.905V75.93C18.0441 77.595 18.0391 78.98 18.7291 80.13C19.2941 81.075 20.7941 82.5 25.7341 82.5H63.9191C65.9141 82.5 67.3191 82.42 68.3441 82.22C69.3441 82.025 69.7591 81.76 69.9741 81.555C70.1841 81.35 70.4541 80.945 70.6591 79.945C70.8691 78.92 70.9591 77.495 70.9591 75.455C70.9591 72.34 70.9391 68.905 70.9141 65.435C70.8641 58.36 70.8141 51.12 70.9641 46.11C70.981 45.4708 71.2423 44.8625 71.6941 44.41C72.2441 43.87 72.7607 43.3767 73.2441 42.93C74.4091 41.85 75.4141 40.91 76.3591 39.525C77.5741 37.735 78.6341 35.19 78.8641 30.85C78.8441 27.48 76.9141 24.165 73.8891 21.6C70.8341 19.005 67.0241 17.5 63.9191 17.5H27.0091ZM75.5591 80.95C75.4524 81.4833 75.3074 82 75.1241 82.5H76.6441C78.6341 82.5 80.0941 82.42 81.1941 82.215C82.2791 82.015 82.8141 81.73 83.1241 81.46C83.7241 80.93 84.3341 79.66 84.3341 75.455C84.3341 71.155 84.1591 66.02 83.9841 60.955L83.9341 59.47C83.7441 53.98 83.5841 48.645 83.6891 44.835C83.709 44.1747 83.9894 43.5492 84.4691 43.095C86.4591 41.205 90.0541 36.3 90.0541 30.91C90.0541 22.99 83.1941 17.575 76.7791 17.5L77.1241 17.785C80.8891 20.98 83.8641 25.595 83.8641 30.91V31.04C83.5991 36.2 82.2991 39.68 80.4891 42.34C79.2041 44.225 77.5991 45.72 76.3241 46.91L75.9341 47.27C75.8241 52.12 75.8691 58.715 75.9141 65.26C75.9391 68.76 75.9641 72.25 75.9641 75.455C75.9641 77.565 75.8741 79.405 75.5591 80.945" fill="#2176FF"/>
</svg>
