<svg width="24" height="25" viewBox="0 0 24 25" fill="none" xmlns="http://www.w3.org/2000/svg">
<path id="Vector 1" d="M17.4697 24.5303C17.7626 24.8232 18.2374 24.8232 18.5303 24.5303L23.3033 19.7574C23.5962 19.4645 23.5962 18.9896 23.3033 18.6967C23.0104 18.4038 22.5355 18.4038 22.2426 18.6967L18 22.9393L13.7574 18.6967C13.4645 18.4038 12.9896 18.4038 12.6967 18.6967C12.4038 18.9896 12.4038 19.4645 12.6967 19.7574L17.4697 24.5303ZM2.28484e-07 2.25C4.56591 2.25 8.76534 2.28073 11.8949 4.88867C15.0003 7.47656 17.25 12.8005 17.25 24H18.75C18.75 12.6995 16.4997 6.77344 12.8551 3.73633C9.23466 0.719266 4.43409 0.749999 -2.28484e-07 0.75L2.28484e-07 2.25Z" fill="#1B63EB"/>
</svg>
