<svg width="29" height="29" viewBox="0 0 29 29" fill="none" xmlns="http://www.w3.org/2000/svg">
<g clip-path="url(#clip0_4107_2545)">
<path d="M6.77428 13.9398V8.49011C6.79047 7.41889 7.01788 6.3614 7.44348 5.37822C7.86908 4.39504 8.48452 3.50549 9.25451 2.76056C10.0245 2.01562 10.9339 1.42993 11.9307 1.03706C12.9274 0.644178 13.9919 0.451831 15.0631 0.471035C16.1344 0.451831 17.1988 0.644178 18.1956 1.03706C19.1923 1.42993 20.1018 2.01562 20.8718 2.76056C21.6418 3.50549 22.2572 4.39504 22.6828 5.37822C23.1084 6.3614 23.3358 7.41889 23.352 8.49011V13.9398M19.2076 24.8184C20.3067 24.8184 21.3609 24.3817 22.1381 23.6045C22.9153 22.8274 23.352 21.7733 23.352 20.6741V16.0119M19.2076 24.8184C19.2076 25.5053 18.9347 26.1641 18.4489 26.6499C17.9631 27.1356 17.3043 27.4085 16.6173 27.4085H13.509C12.822 27.4085 12.1632 27.1356 11.6774 26.6499C11.1916 26.1641 10.9187 25.5053 10.9187 24.8184C10.9187 24.1314 11.1916 23.4726 11.6774 22.9869C12.1632 22.5011 12.822 22.2282 13.509 22.2282H16.6173C17.3043 22.2282 17.9631 22.5011 18.4489 22.9869C18.9347 23.4726 19.2076 24.1314 19.2076 24.8184ZM3.66596 10.8316H5.73818C6.01297 10.8316 6.27651 10.9408 6.47082 11.1351C6.66512 11.3294 6.77428 11.5929 6.77428 11.8677V18.084C6.77428 18.3588 6.66512 18.6223 6.47082 18.8166C6.27651 19.0109 6.01297 19.12 5.73818 19.12H3.66596C3.11638 19.12 2.5893 18.9017 2.20069 18.5131C1.81207 18.1245 1.59375 17.5975 1.59375 17.0479V12.9037C1.59375 12.3542 1.81207 11.8271 2.20069 11.4385C2.5893 11.0499 3.11638 10.8316 3.66596 10.8316ZM26.4603 19.12H24.3881C24.1133 19.12 23.8498 19.0109 23.6555 18.8166C23.4612 18.6223 23.352 18.3588 23.352 18.084V11.8677C23.352 11.5929 23.4612 11.3294 23.6555 11.1351C23.8498 10.9408 24.1133 10.8316 24.3881 10.8316H26.4603C27.0099 10.8316 27.537 11.0499 27.9256 11.4385C28.3142 11.8271 28.5325 12.3542 28.5325 12.9037V17.0479C28.5325 17.5975 28.3142 18.1245 27.9256 18.5131C27.537 18.9017 27.0099 19.12 26.4603 19.12Z" stroke="white" stroke-width="2.2794" stroke-linecap="round" stroke-linejoin="round"/>
</g>
<defs>
<clipPath id="clip0_4107_2545">
<rect width="28.5443" height="28.5443" fill="white" transform="translate(0.226562 0.228516)"/>
</clipPath>
</defs>
</svg>
