<svg width="27" height="28" viewBox="0 0 27 28" fill="none" xmlns="http://www.w3.org/2000/svg">
<path fill-rule="evenodd" clip-rule="evenodd" d="M12.3256 1.93262H14.6726C16.7152 1.93262 18.3332 1.93262 19.599 2.10264C20.9014 2.27823 21.956 2.64717 22.7884 3.47842C23.6196 4.31077 23.9885 5.36538 24.1641 6.66781C24.3342 7.93468 24.3342 9.5516 24.3342 11.5941V16.1638C24.3342 18.2063 24.3342 19.8243 24.1641 21.0901C23.9885 22.3925 23.6196 23.4471 22.7884 24.2795C21.956 25.1107 20.9014 25.4797 19.599 25.6553C18.3321 25.8253 16.7152 25.8253 14.6726 25.8253H12.3256C10.283 25.8253 8.66501 25.8253 7.39926 25.6553C6.09683 25.4797 5.04222 25.1107 4.20986 24.2795C3.37862 23.4471 3.00967 22.3925 2.83409 21.0901C2.66406 19.8232 2.66406 18.2063 2.66406 16.1638V11.5941C2.66406 9.5516 2.66406 7.93357 2.83409 6.66781C3.00967 5.36538 3.37862 4.31077 4.20986 3.47842C5.04222 2.64717 6.09683 2.27823 7.39926 2.10264C8.66612 1.93262 10.283 1.93262 12.3256 1.93262ZM7.6204 3.75513C6.50245 3.90515 5.8579 4.18742 5.38672 4.65749C4.91775 5.12757 4.63549 5.77211 4.48546 6.89007C4.3321 8.03247 4.32988 9.53715 4.32988 11.6564V16.1015C4.32988 18.2208 4.3321 19.7265 4.48546 20.8689C4.63549 21.9858 4.91775 22.6303 5.38783 23.1004C5.8579 23.5705 6.50245 23.8528 7.6204 24.0028C8.76281 24.1561 10.2675 24.1584 12.3867 24.1584H14.6093C16.7285 24.1584 18.2343 24.1561 19.3767 24.0028C20.4936 23.8528 21.1381 23.5705 21.6082 23.1004C22.0782 22.6303 22.3605 21.9858 22.5105 20.8678C22.6639 19.7265 22.6661 18.2208 22.6661 16.1015V11.6564C22.6661 9.53715 22.6639 8.03247 22.5105 6.88896C22.3605 5.77211 22.0782 5.12757 21.6082 4.65749C21.1381 4.18742 20.4936 3.90515 19.3756 3.75513C18.2343 3.60177 16.7285 3.59955 14.6093 3.59955H12.3867C10.2675 3.59955 8.76392 3.60177 7.6204 3.75513ZM8.2205 11.6564C8.2205 11.4353 8.30831 11.2233 8.46461 11.067C8.62092 10.9107 8.83291 10.8229 9.05396 10.8229H17.9443C18.1653 10.8229 18.3773 10.9107 18.5336 11.067C18.6899 11.2233 18.7777 11.4353 18.7777 11.6564C18.7777 11.8774 18.6899 12.0894 18.5336 12.2457C18.3773 12.402 18.1653 12.4898 17.9443 12.4898H9.05396C8.83291 12.4898 8.62092 12.402 8.46461 12.2457C8.30831 12.0894 8.2205 11.8774 8.2205 11.6564ZM8.2205 16.1015C8.2205 15.8805 8.30831 15.6685 8.46461 15.5122C8.62092 15.3559 8.83291 15.2681 9.05396 15.2681H14.6104C14.8314 15.2681 15.0434 15.3559 15.1997 15.5122C15.3561 15.6685 15.4439 15.8805 15.4439 16.1015C15.4439 16.3226 15.3561 16.5346 15.1997 16.6909C15.0434 16.8472 14.8314 16.935 14.6104 16.935H9.05396C8.83291 16.935 8.62092 16.8472 8.46461 16.6909C8.30831 16.5346 8.2205 16.3226 8.2205 16.1015Z" fill="white"/>
</svg>
