<svg width="19" height="14" viewBox="0 0 19 14" fill="none" xmlns="http://www.w3.org/2000/svg">
<g id="Vector">
<path d="M7.30398 5.34009L7.55076 5.24295C7.60085 5.3312 7.64741 5.4215 7.69029 5.51365C7.9018 5.96823 8.01963 6.45907 8.03707 6.95816C8.039 7.01359 8.0397 7.06901 8.03915 7.12437L7.30398 5.34009Z" fill="#2176FF"/>
<path d="M10.6661 13.5L9.57337 10.8479C9.90429 10.3918 10.1743 9.89487 10.376 9.369C10.6825 8.5697 10.8249 7.71922 10.7951 6.86612C10.7913 6.75911 10.7849 6.65231 10.7758 6.54584L13.6411 13.5H10.6661Z" fill="#2176FF"/>
<path d="M16.025 0.500011H19L13.6436 13.5H10.6686L16.025 0.500011Z" fill="#2176FF"/>
<path d="M9.94274 4.51256C10.2769 5.30117 10.449 6.14641 10.449 7C10.449 7.85359 10.2769 8.69883 9.94274 9.48744C9.60854 10.2761 9.1187 10.9926 8.50117 11.5962C7.88365 12.1998 7.15054 12.6786 6.34371 13.0052C5.53687 13.3319 4.67211 13.5 3.79881 13.5V10.8027C4.30972 10.8027 4.81563 10.7043 5.28765 10.5132C5.75967 10.3221 6.18856 10.042 6.54984 9.68892C6.91111 9.3358 7.19768 8.9166 7.3932 8.45523C7.58872 7.99387 7.68935 7.49938 7.68935 7C7.68935 6.50062 7.58872 6.00613 7.3932 5.54477C7.19768 5.08341 6.91111 4.6642 6.54984 4.31108C6.18857 3.95797 5.75968 3.67787 5.28765 3.48676C4.81563 3.29566 4.30972 3.1973 3.79881 3.1973V0.5C4.67212 0.5 5.53687 0.668127 6.34371 0.994783C7.15054 1.32144 7.88365 1.80023 8.50117 2.40381C9.1187 3.00739 9.60854 3.72394 9.94274 4.51256Z" fill="#2176FF"/>
<path d="M0 0.5L3.79881 0.5V3.1973L0 3.1973V0.5Z" fill="#2176FF"/>
<path d="M3.79881 10.8027L0 10.8027V13.5L3.79881 13.5V10.8027Z" fill="#2176FF"/>
</g>
</svg>
