<svg width="19" height="14" viewBox="0 0 19 14" fill="none" xmlns="http://www.w3.org/2000/svg">
<path d="M7.30398 5.39087L7.55076 5.29373C7.60085 5.38198 7.64741 5.47228 7.69029 5.56443C7.9018 6.01901 8.01963 6.50985 8.03707 7.00894C8.039 7.06437 8.0397 7.11979 8.03915 7.17515L7.30398 5.39087Z" fill="white"/>
<path d="M10.6661 13.5508L9.57337 10.8987C9.90429 10.4426 10.1743 9.94565 10.376 9.41978C10.6825 8.62048 10.8249 7.77 10.7951 6.9169C10.7913 6.80989 10.7849 6.7031 10.7758 6.59662L13.6411 13.5508H10.6661Z" fill="white"/>
<path d="M16.025 0.550792H19L13.6436 13.5508H10.6686L16.025 0.550792Z" fill="white"/>
<path d="M9.94274 4.56334C10.2769 5.35196 10.449 6.19719 10.449 7.05078C10.449 7.90437 10.2769 8.74961 9.94274 9.53822C9.60854 10.3268 9.1187 11.0434 8.50117 11.647C7.88365 12.2506 7.15054 12.7293 6.34371 13.056C5.53687 13.3827 4.67211 13.5508 3.79881 13.5508V10.8535C4.30972 10.8535 4.81563 10.7551 5.28765 10.564C5.75967 10.3729 6.18856 10.0928 6.54984 9.7397C6.91111 9.38658 7.19768 8.96738 7.3932 8.50601C7.58872 8.04465 7.68935 7.55016 7.68935 7.05078C7.68935 6.5514 7.58872 6.05692 7.3932 5.59555C7.19768 5.13419 6.91111 4.71498 6.54984 4.36187C6.18857 4.00875 5.75968 3.72865 5.28765 3.53754C4.81563 3.34644 4.30972 3.24808 3.79881 3.24808V0.550781C4.67212 0.550781 5.53687 0.718909 6.34371 1.04556C7.15054 1.37222 7.88365 1.85101 8.50117 2.45459C9.1187 3.05817 9.60854 3.77472 9.94274 4.56334Z" fill="white"/>
<path d="M0 0.550782L3.79881 0.550781V3.24808L0 3.24808V0.550782Z" fill="white"/>
<path d="M3.79881 10.8535L0 10.8535V13.5508L3.79881 13.5508V10.8535Z" fill="white"/>
</svg>
