<svg width="37" height="37" viewBox="0 0 37 37" fill="none" xmlns="http://www.w3.org/2000/svg">
<mask id="path-1-outside-1_4107_2551" maskUnits="userSpaceOnUse" x="2.70312" y="4.15625" width="31" height="28" fill="black">
<rect fill="white" x="2.70312" y="4.15625" width="31" height="28"/>
<path d="M18.0579 30.2489C18.2512 30.2489 18.4495 30.2055 18.6527 30.1187C18.8558 30.0309 19.0201 29.9244 19.1453 29.7991L30.679 18.2655C31.0508 17.8937 31.3373 17.5139 31.5385 17.1263C31.7407 16.7367 31.8418 16.3097 31.8418 15.8451C31.8418 15.3747 31.7407 14.918 31.5385 14.4752C31.3373 14.0314 31.0508 13.627 30.679 13.262L25.1311 7.71419C24.7652 7.34236 24.3889 7.06965 24.0023 6.89606C23.6166 6.72247 23.1886 6.63568 22.7181 6.63568C22.2536 6.63568 21.8221 6.72247 21.4236 6.89606C21.0252 7.06965 20.6494 7.34236 20.2963 7.71419L19.0092 9.00129L21.7462 11.7486C22.0391 12.0366 22.2575 12.3645 22.4015 12.7324C22.5455 13.1003 22.618 13.4741 22.619 13.8538C22.619 14.6231 22.3675 15.2598 21.8645 15.7638C21.3595 16.2668 20.7224 16.5183 19.9531 16.5183C19.5734 16.5183 19.203 16.4606 18.842 16.3452C18.4801 16.2298 18.1551 16.0276 17.8671 15.7386L15.0369 12.9188L8.64876 19.3055C8.49884 19.4554 8.3864 19.6256 8.31145 19.8159C8.23649 20.0073 8.19901 20.1996 8.19901 20.3929C8.19901 20.742 8.31095 21.03 8.53484 21.2569C8.75873 21.4837 9.04524 21.5972 9.39439 21.5972C9.5877 21.5972 9.78594 21.5528 9.98912 21.464C10.1923 21.3772 10.3565 21.2712 10.4818 21.1459L15.1701 16.4576L16.2175 17.5051L11.5366 22.1948C11.3867 22.3438 11.2743 22.5134 11.1993 22.7038C11.1243 22.8951 11.0869 23.0874 11.0869 23.2808C11.0869 23.6102 11.2037 23.8913 11.4375 24.124C11.6702 24.3578 11.9518 24.4747 12.2822 24.4747C12.4755 24.4747 12.6738 24.4313 12.877 24.3445C13.0801 24.2577 13.2444 24.1516 13.3696 24.0264L18.3997 19.0037L19.4456 20.0512L14.4245 25.0812C14.2933 25.2065 14.1858 25.3707 14.1019 25.5739C14.0171 25.777 13.9747 25.9753 13.9747 26.1686C13.9747 26.498 14.0916 26.7791 14.3253 27.0119C14.5581 27.2456 14.8397 27.3625 15.1701 27.3625C15.3634 27.3625 15.5557 27.325 15.7471 27.2501C15.9374 27.1751 16.1076 27.0632 16.2575 26.9142L21.2875 21.8916L22.3335 22.939L17.3034 27.9691C17.1535 28.119 17.0411 28.2985 16.9661 28.5076C16.8912 28.7177 16.8537 28.91 16.8537 29.0846C16.8537 29.4337 16.977 29.7153 17.2235 29.9293C17.4691 30.1433 17.7473 30.2503 18.0579 30.2503M18.0491 31.7298C17.2886 31.7298 16.6377 31.4516 16.0962 30.8954C15.5538 30.3381 15.3161 29.6512 15.3831 28.8345C14.5448 28.8444 13.847 28.5939 13.2897 28.083C12.7315 27.5731 12.4667 26.861 12.4953 25.9467C11.581 25.9565 10.861 25.6952 10.3353 25.1626C9.80863 24.63 9.56896 23.9287 9.6163 23.0588C8.79374 23.0687 8.10531 22.8369 7.55102 22.3635C6.99673 21.8921 6.71958 21.2352 6.71958 20.3929C6.71958 20.0132 6.79355 19.6335 6.94149 19.2537C7.08845 18.873 7.30543 18.5387 7.59244 18.2507L15.0369 10.8151L18.8568 14.635C18.9821 14.7661 19.1369 14.8741 19.3214 14.959C19.5048 15.0428 19.7119 15.0847 19.9427 15.0847C20.2603 15.0847 20.5404 14.9742 20.783 14.7533C21.0257 14.5324 21.147 14.2449 21.147 13.8908C21.147 13.659 21.1051 13.4509 21.0212 13.2665C20.9364 13.083 20.8289 12.9287 20.6987 12.8034L15.6095 7.71419C15.2426 7.34236 14.8614 7.06965 14.4659 6.89606C14.0714 6.72247 13.6384 6.63568 13.1669 6.63568C12.7024 6.63568 12.2803 6.72247 11.9005 6.89606C11.5218 7.06965 11.1465 7.34236 10.7747 7.71419L6.27131 12.2264C5.95373 12.5421 5.69729 12.9193 5.50201 13.3582C5.30672 13.7971 5.20316 14.2493 5.19133 14.7148C5.18146 15.0492 5.21007 15.3702 5.27713 15.678C5.34617 15.9867 5.45467 16.2766 5.60261 16.5479L4.4812 17.6678C4.23266 17.2723 4.03836 16.8161 3.8983 16.2993C3.75727 15.7815 3.69266 15.2539 3.7045 14.7163C3.71633 14.0447 3.85096 13.4011 4.10838 12.7857C4.36679 12.1692 4.73566 11.6214 5.215 11.142L9.69027 6.66675C10.2061 6.15684 10.752 5.77712 11.328 5.52759C11.904 5.28003 12.5263 5.15625 13.195 5.15625C13.8657 5.15625 14.4836 5.28052 15.0488 5.52907C15.6149 5.77761 16.1534 6.15684 16.6643 6.66675L17.9514 7.95533L19.2415 6.66675C19.7573 6.15684 20.2983 5.77712 20.8644 5.52759C21.4305 5.28003 22.0485 5.15625 22.7181 5.15625C23.3878 5.15625 24.0102 5.28052 24.5852 5.52907C25.1612 5.77761 25.7041 6.15684 26.214 6.66675L31.7249 12.1776C32.2358 12.6875 32.6293 13.2601 32.9055 13.8952C33.1826 14.5314 33.3212 15.1843 33.3212 15.854C33.3212 16.5227 33.1831 17.1401 32.907 17.7063C32.6298 18.2724 32.2358 18.8109 31.7249 19.3218L20.1913 30.8466C19.8845 31.1543 19.5502 31.3782 19.1882 31.5182C18.8272 31.6583 18.4475 31.7283 18.0491 31.7283"/>
</mask>
<path d="M18.0579 30.2489C18.2512 30.2489 18.4495 30.2055 18.6527 30.1187C18.8558 30.0309 19.0201 29.9244 19.1453 29.7991L30.679 18.2655C31.0508 17.8937 31.3373 17.5139 31.5385 17.1263C31.7407 16.7367 31.8418 16.3097 31.8418 15.8451C31.8418 15.3747 31.7407 14.918 31.5385 14.4752C31.3373 14.0314 31.0508 13.627 30.679 13.262L25.1311 7.71419C24.7652 7.34236 24.3889 7.06965 24.0023 6.89606C23.6166 6.72247 23.1886 6.63568 22.7181 6.63568C22.2536 6.63568 21.8221 6.72247 21.4236 6.89606C21.0252 7.06965 20.6494 7.34236 20.2963 7.71419L19.0092 9.00129L21.7462 11.7486C22.0391 12.0366 22.2575 12.3645 22.4015 12.7324C22.5455 13.1003 22.618 13.4741 22.619 13.8538C22.619 14.6231 22.3675 15.2598 21.8645 15.7638C21.3595 16.2668 20.7224 16.5183 19.9531 16.5183C19.5734 16.5183 19.203 16.4606 18.842 16.3452C18.4801 16.2298 18.1551 16.0276 17.8671 15.7386L15.0369 12.9188L8.64876 19.3055C8.49884 19.4554 8.3864 19.6256 8.31145 19.8159C8.23649 20.0073 8.19901 20.1996 8.19901 20.3929C8.19901 20.742 8.31095 21.03 8.53484 21.2569C8.75873 21.4837 9.04524 21.5972 9.39439 21.5972C9.5877 21.5972 9.78594 21.5528 9.98912 21.464C10.1923 21.3772 10.3565 21.2712 10.4818 21.1459L15.1701 16.4576L16.2175 17.5051L11.5366 22.1948C11.3867 22.3438 11.2743 22.5134 11.1993 22.7038C11.1243 22.8951 11.0869 23.0874 11.0869 23.2808C11.0869 23.6102 11.2037 23.8913 11.4375 24.124C11.6702 24.3578 11.9518 24.4747 12.2822 24.4747C12.4755 24.4747 12.6738 24.4313 12.877 24.3445C13.0801 24.2577 13.2444 24.1516 13.3696 24.0264L18.3997 19.0037L19.4456 20.0512L14.4245 25.0812C14.2933 25.2065 14.1858 25.3707 14.1019 25.5739C14.0171 25.777 13.9747 25.9753 13.9747 26.1686C13.9747 26.498 14.0916 26.7791 14.3253 27.0119C14.5581 27.2456 14.8397 27.3625 15.1701 27.3625C15.3634 27.3625 15.5557 27.325 15.7471 27.2501C15.9374 27.1751 16.1076 27.0632 16.2575 26.9142L21.2875 21.8916L22.3335 22.939L17.3034 27.9691C17.1535 28.119 17.0411 28.2985 16.9661 28.5076C16.8912 28.7177 16.8537 28.91 16.8537 29.0846C16.8537 29.4337 16.977 29.7153 17.2235 29.9293C17.4691 30.1433 17.7473 30.2503 18.0579 30.2503M18.0491 31.7298C17.2886 31.7298 16.6377 31.4516 16.0962 30.8954C15.5538 30.3381 15.3161 29.6512 15.3831 28.8345C14.5448 28.8444 13.847 28.5939 13.2897 28.083C12.7315 27.5731 12.4667 26.861 12.4953 25.9467C11.581 25.9565 10.861 25.6952 10.3353 25.1626C9.80863 24.63 9.56896 23.9287 9.6163 23.0588C8.79374 23.0687 8.10531 22.8369 7.55102 22.3635C6.99673 21.8921 6.71958 21.2352 6.71958 20.3929C6.71958 20.0132 6.79355 19.6335 6.94149 19.2537C7.08845 18.873 7.30543 18.5387 7.59244 18.2507L15.0369 10.8151L18.8568 14.635C18.9821 14.7661 19.1369 14.8741 19.3214 14.959C19.5048 15.0428 19.7119 15.0847 19.9427 15.0847C20.2603 15.0847 20.5404 14.9742 20.783 14.7533C21.0257 14.5324 21.147 14.2449 21.147 13.8908C21.147 13.659 21.1051 13.4509 21.0212 13.2665C20.9364 13.083 20.8289 12.9287 20.6987 12.8034L15.6095 7.71419C15.2426 7.34236 14.8614 7.06965 14.4659 6.89606C14.0714 6.72247 13.6384 6.63568 13.1669 6.63568C12.7024 6.63568 12.2803 6.72247 11.9005 6.89606C11.5218 7.06965 11.1465 7.34236 10.7747 7.71419L6.27131 12.2264C5.95373 12.5421 5.69729 12.9193 5.50201 13.3582C5.30672 13.7971 5.20316 14.2493 5.19133 14.7148C5.18146 15.0492 5.21007 15.3702 5.27713 15.678C5.34617 15.9867 5.45467 16.2766 5.60261 16.5479L4.4812 17.6678C4.23266 17.2723 4.03836 16.8161 3.8983 16.2993C3.75727 15.7815 3.69266 15.2539 3.7045 14.7163C3.71633 14.0447 3.85096 13.4011 4.10838 12.7857C4.36679 12.1692 4.73566 11.6214 5.215 11.142L9.69027 6.66675C10.2061 6.15684 10.752 5.77712 11.328 5.52759C11.904 5.28003 12.5263 5.15625 13.195 5.15625C13.8657 5.15625 14.4836 5.28052 15.0488 5.52907C15.6149 5.77761 16.1534 6.15684 16.6643 6.66675L17.9514 7.95533L19.2415 6.66675C19.7573 6.15684 20.2983 5.77712 20.8644 5.52759C21.4305 5.28003 22.0485 5.15625 22.7181 5.15625C23.3878 5.15625 24.0102 5.28052 24.5852 5.52907C25.1612 5.77761 25.7041 6.15684 26.214 6.66675L31.7249 12.1776C32.2358 12.6875 32.6293 13.2601 32.9055 13.8952C33.1826 14.5314 33.3212 15.1843 33.3212 15.854C33.3212 16.5227 33.1831 17.1401 32.907 17.7063C32.6298 18.2724 32.2358 18.8109 31.7249 19.3218L20.1913 30.8466C19.8845 31.1543 19.5502 31.3782 19.1882 31.5182C18.8272 31.6583 18.4475 31.7283 18.0491 31.7283" fill="white"/>
<path d="M18.6527 30.1187L18.7312 30.3026L18.732 30.3023L18.6527 30.1187ZM19.1453 29.7991L19.2867 29.9405L19.1453 29.7991ZM30.679 18.2655L30.5375 18.1241L30.679 18.2655ZM31.5385 17.1263L31.716 17.2185L31.716 17.2184L31.5385 17.1263ZM31.5385 14.4752L31.3563 14.5578L31.3566 14.5582L31.5385 14.4752ZM30.679 13.262L30.5375 13.4035L30.5389 13.4048L30.679 13.262ZM25.1311 7.71419L24.9885 7.85447L24.9897 7.85561L25.1311 7.71419ZM24.0023 6.89606L23.9202 7.07844L23.9204 7.07851L24.0023 6.89606ZM20.2963 7.71419L20.4378 7.85565L20.4413 7.8519L20.2963 7.71419ZM19.0092 9.00129L18.8678 8.85987L18.7266 9.00102L18.8675 9.14244L19.0092 9.00129ZM21.7462 11.7486L21.6045 11.8898L21.6059 11.8912L21.7462 11.7486ZM22.619 13.8538H22.819L22.819 13.8533L22.619 13.8538ZM21.8645 15.7638L22.0057 15.9055L22.0061 15.905L21.8645 15.7638ZM18.842 16.3452L18.9029 16.1547L18.9028 16.1546L18.842 16.3452ZM17.8671 15.7386L18.0088 15.5974L18.0082 15.5969L17.8671 15.7386ZM15.0369 12.9188L15.1781 12.7771L15.0367 12.6363L14.8955 12.7774L15.0369 12.9188ZM8.64876 19.3055L8.50735 19.1641L8.50733 19.1641L8.64876 19.3055ZM8.31145 19.8159L8.12535 19.7426L8.12523 19.743L8.31145 19.8159ZM9.98912 21.464L9.91055 21.2801L9.90905 21.2807L9.98912 21.464ZM10.4818 21.1459L10.3403 21.0045L10.4818 21.1459ZM15.1701 16.4576L15.3115 16.3162L15.1701 16.1748L15.0287 16.3162L15.1701 16.4576ZM16.2175 17.5051L16.3591 17.6463L16.5002 17.5049L16.3589 17.3636L16.2175 17.5051ZM11.5366 22.1948L11.6776 22.3367L11.6782 22.3361L11.5366 22.1948ZM11.1993 22.7038L11.0132 22.6305L11.0131 22.6308L11.1993 22.7038ZM11.4375 24.124L11.5792 23.9829L11.5786 23.9823L11.4375 24.124ZM13.3696 24.0264L13.2283 23.8849L13.2282 23.885L13.3696 24.0264ZM18.3997 19.0037L18.5412 18.8624L18.3999 18.7209L18.2584 18.8622L18.3997 19.0037ZM19.4456 20.0512L19.5872 20.1925L19.7283 20.0511L19.5872 19.9098L19.4456 20.0512ZM14.4245 25.0812L14.5626 25.2259L14.566 25.2225L14.4245 25.0812ZM14.1019 25.5739L14.2865 25.6509L14.2868 25.6502L14.1019 25.5739ZM14.3253 27.0119L14.4671 26.8708L14.4665 26.8702L14.3253 27.0119ZM15.7471 27.2501L15.82 27.4363L15.8203 27.4362L15.7471 27.2501ZM16.2575 26.9142L16.3984 27.0561L16.3988 27.0558L16.2575 26.9142ZM21.2875 21.8916L21.4291 21.7502L21.2877 21.6087L21.1462 21.75L21.2875 21.8916ZM22.3335 22.939L22.4749 23.0804L22.6162 22.9391L22.475 22.7977L22.3335 22.939ZM17.3034 27.9691L17.162 27.8276L17.3034 27.9691ZM16.9661 28.5076L16.7778 28.4401L16.7777 28.4404L16.9661 28.5076ZM17.2235 29.9293L17.3549 29.7785L17.3546 29.7783L17.2235 29.9293ZM16.0962 30.8954L16.2395 30.7559L16.2395 30.7559L16.0962 30.8954ZM15.3831 28.8345L15.5825 28.8509L15.6004 28.632L15.3808 28.6345L15.3831 28.8345ZM13.2897 28.083L13.4249 27.9356L13.4246 27.9353L13.2897 28.083ZM12.4953 25.9467L12.6952 25.9529L12.7017 25.7444L12.4931 25.7467L12.4953 25.9467ZM10.3353 25.1626L10.4776 25.0221L10.4775 25.022L10.3353 25.1626ZM9.6163 23.0588L9.81601 23.0697L9.82762 22.8563L9.61391 22.8589L9.6163 23.0588ZM7.55102 22.3635L7.68091 22.2114L7.6806 22.2112L7.55102 22.3635ZM6.94149 19.2537L7.12785 19.3263L7.12808 19.3258L6.94149 19.2537ZM7.59244 18.2507L7.45111 18.1092L7.45078 18.1095L7.59244 18.2507ZM15.0369 10.8151L15.1784 10.6736L15.037 10.5323L14.8956 10.6736L15.0369 10.8151ZM18.8568 14.635L19.0015 14.4968L18.9982 14.4935L18.8568 14.635ZM19.3214 14.959L19.2378 15.1407L19.2382 15.1409L19.3214 14.959ZM21.0212 13.2665L21.2033 13.1837L21.2028 13.1826L21.0212 13.2665ZM20.6987 12.8034L20.5573 12.9449L20.5601 12.9475L20.6987 12.8034ZM15.6095 7.71419L15.4671 7.85466L15.4681 7.85561L15.6095 7.71419ZM14.4659 6.89606L14.3853 7.07912L14.3855 7.0792L14.4659 6.89606ZM11.9005 6.89606L11.8174 6.71417L11.8172 6.71425L11.9005 6.89606ZM10.7747 7.71419L10.6333 7.57276L10.6331 7.5729L10.7747 7.71419ZM6.27131 12.2264L6.41229 12.3683L6.41287 12.3677L6.27131 12.2264ZM5.19133 14.7148L5.39124 14.7207L5.39126 14.7199L5.19133 14.7148ZM5.27713 15.678L5.08172 15.7205L5.08196 15.7216L5.27713 15.678ZM5.60261 16.5479L5.74394 16.6894L5.8499 16.5836L5.77819 16.4521L5.60261 16.5479ZM4.4812 17.6678L4.31186 17.7742L4.44521 17.9864L4.62253 17.8093L4.4812 17.6678ZM3.8983 16.2993L4.09134 16.247L4.09127 16.2468L3.8983 16.2993ZM3.7045 14.7163L3.90445 14.7207L3.90447 14.7199L3.7045 14.7163ZM4.10838 12.7857L3.92393 12.7084L3.92387 12.7085L4.10838 12.7857ZM5.215 11.142L5.35642 11.2834L5.215 11.142ZM9.69027 6.66675L9.54967 6.52451L9.54885 6.52533L9.69027 6.66675ZM11.328 5.52759L11.249 5.34384L11.2485 5.34407L11.328 5.52759ZM15.0488 5.52907L14.9683 5.71214L14.9684 5.7122L15.0488 5.52907ZM16.6643 6.66675L16.8058 6.52541L16.8056 6.52519L16.6643 6.66675ZM17.9514 7.95533L17.8099 8.09667L17.9513 8.23818L18.0928 8.09683L17.9514 7.95533ZM19.2415 6.66675L19.1009 6.52451L19.1001 6.52525L19.2415 6.66675ZM20.8644 5.52759L20.7843 5.34434L20.7837 5.34458L20.8644 5.52759ZM24.5852 5.52907L24.5058 5.71265L24.5059 5.7127L24.5852 5.52907ZM26.214 6.66675L26.3555 6.52533L26.214 6.66675ZM31.7249 12.1776L31.5835 12.319L31.5836 12.3192L31.7249 12.1776ZM32.9055 13.8952L32.7221 13.975L32.7221 13.9751L32.9055 13.8952ZM32.907 17.7063L33.0866 17.7942L33.0867 17.7939L32.907 17.7063ZM31.7249 19.3218L31.8663 19.4633L31.8663 19.4632L31.7249 19.3218ZM20.1913 30.8466L20.0499 30.7051L20.0496 30.7054L20.1913 30.8466ZM19.1882 31.5182L19.116 31.3317L19.1159 31.3318L19.1882 31.5182ZM18.0579 30.4489C18.2818 30.4489 18.5067 30.3985 18.7312 30.3026L18.5741 29.9348C18.3922 30.0124 18.2207 30.0489 18.0579 30.0489V30.4489ZM18.732 30.3023C18.9528 30.2069 19.1398 30.0875 19.2867 29.9405L19.0039 29.6577C18.9003 29.7613 18.7589 29.8549 18.5733 29.9351L18.732 30.3023ZM19.2867 29.9405L30.8204 18.4069L30.5375 18.1241L19.0039 29.6577L19.2867 29.9405ZM30.8204 18.4069C31.2038 18.0234 31.5037 17.6275 31.716 17.2185L31.361 17.0342C31.1709 17.4003 30.8977 17.7639 30.5375 18.1241L30.8204 18.4069ZM31.716 17.2184C31.9338 16.7987 32.0418 16.3398 32.0418 15.8451H31.6418C31.6418 16.2795 31.5475 16.6747 31.361 17.0342L31.716 17.2184ZM32.0418 15.8451C32.0418 15.345 31.9341 14.8601 31.7204 14.3921L31.3566 14.5582C31.5473 14.9759 31.6418 15.4043 31.6418 15.8451H32.0418ZM31.7207 14.3926C31.5086 13.9248 31.2073 13.5003 30.819 13.1193L30.5389 13.4048C30.8943 13.7536 31.166 14.1379 31.3563 14.5578L31.7207 14.3926ZM30.8204 13.1206L25.2725 7.57276L24.9897 7.85561L30.5375 13.4035L30.8204 13.1206ZM25.2736 7.5739C24.8942 7.18833 24.498 6.89941 24.0842 6.71361L23.9204 7.07851C24.2798 7.23988 24.6362 7.49638 24.9885 7.85447L25.2736 7.5739ZM24.0844 6.71368C23.6702 6.52724 23.2137 6.43568 22.7181 6.43568V6.83568C23.1635 6.83568 23.5631 6.91771 23.9202 7.07844L24.0844 6.71368ZM22.7181 6.43568C22.228 6.43568 21.7691 6.5274 21.3438 6.7127L21.5035 7.07942C21.8751 6.91755 22.2792 6.83568 22.7181 6.83568V6.43568ZM21.3438 6.7127C20.9167 6.89873 20.5196 7.18865 20.1513 7.57647L20.4413 7.8519C20.7793 7.49606 21.1336 7.24056 21.5035 7.07942L21.3438 6.7127ZM20.1549 7.57276L18.8678 8.85987L19.1506 9.14271L20.4377 7.85561L20.1549 7.57276ZM18.8675 9.14244L21.6045 11.8897L21.8878 11.6074L19.1509 8.86014L18.8675 9.14244ZM21.6059 11.8912C21.8796 12.1603 22.082 12.4647 22.2153 12.8053L22.5878 12.6595C22.4331 12.2644 22.1986 11.9129 21.8864 11.606L21.6059 11.8912ZM22.2153 12.8053C22.3506 13.1511 22.4181 13.5004 22.419 13.8543L22.819 13.8533C22.818 13.4478 22.7404 13.0495 22.5878 12.6595L22.2153 12.8053ZM22.419 13.8538C22.419 14.5749 22.1853 15.1592 21.7229 15.6225L22.0061 15.905C22.5497 15.3604 22.819 14.6714 22.819 13.8538H22.419ZM21.7234 15.6221C21.259 16.0846 20.6741 16.3183 19.9531 16.3183V16.7183C20.7707 16.7183 21.46 16.449 22.0057 15.9055L21.7234 15.6221ZM19.9531 16.3183C19.594 16.3183 19.2442 16.2638 18.9029 16.1547L18.7811 16.5357C19.1618 16.6574 19.5527 16.7183 19.9531 16.7183V16.3183ZM18.9028 16.1546C18.5736 16.0497 18.2758 15.8654 18.0087 15.5974L17.7254 15.8798C18.0343 16.1898 18.3865 16.4099 18.7813 16.5357L18.9028 16.1546ZM18.0082 15.5969L15.1781 12.7771L14.8958 13.0605L17.7259 15.8803L18.0082 15.5969ZM14.8955 12.7774L8.50735 19.1641L8.79016 19.447L15.1783 13.0603L14.8955 12.7774ZM8.50733 19.1641C8.33873 19.3327 8.21074 19.5258 8.12535 19.7426L8.49754 19.8892C8.56207 19.7253 8.65895 19.5782 8.79018 19.4469L8.50733 19.1641ZM8.12523 19.743C8.04174 19.9561 7.99901 20.1731 7.99901 20.3929H8.39901C8.39901 20.2261 8.43123 20.0585 8.49767 19.8889L8.12523 19.743ZM7.99901 20.3929C7.99901 20.7891 8.12797 21.1294 8.39249 21.3974L8.67719 21.1164C8.49394 20.9307 8.39901 20.695 8.39901 20.3929H7.99901ZM8.39249 21.3974C8.65774 21.6661 8.99737 21.7972 9.39439 21.7972V21.3972C9.09311 21.3972 8.85972 21.3013 8.67719 21.1164L8.39249 21.3974ZM9.39439 21.7972C9.61902 21.7972 9.84445 21.7455 10.0692 21.6473L9.90905 21.2807C9.72744 21.3601 9.55638 21.3972 9.39439 21.3972V21.7972ZM10.0677 21.6479C10.2887 21.5535 10.476 21.4345 10.6232 21.2874L10.3403 21.0045C10.237 21.1079 10.0959 21.2009 9.91055 21.2801L10.0677 21.6479ZM10.6232 21.2874L15.3115 16.599L15.0287 16.3162L10.3403 21.0045L10.6232 21.2874ZM15.0287 16.599L16.0761 17.6465L16.3589 17.3636L15.3115 16.3162L15.0287 16.599ZM16.076 17.3638L11.395 22.0536L11.6782 22.3361L16.3591 17.6463L16.076 17.3638ZM11.3957 22.053C11.2268 22.2207 11.0986 22.4135 11.0132 22.6305L11.3854 22.7771C11.4499 22.6133 11.5466 22.4668 11.6776 22.3367L11.3957 22.053ZM11.0131 22.6308C10.9296 22.8439 10.8869 23.0609 10.8869 23.2808H11.2869C11.2869 23.1139 11.3191 22.9463 11.3855 22.7767L11.0131 22.6308ZM10.8869 23.2808C10.8869 23.6634 11.025 23.9955 11.2964 24.2657L11.5786 23.9823C11.3825 23.787 11.2869 23.5569 11.2869 23.2808H10.8869ZM11.2958 24.2651C11.5661 24.5367 11.8987 24.6747 12.2822 24.6747V24.2747C12.0049 24.2747 11.7744 24.1789 11.5792 23.9829L11.2958 24.2651ZM12.2822 24.6747C12.5061 24.6747 12.7311 24.6243 12.9555 24.5284L12.7984 24.1605C12.6165 24.2382 12.445 24.2747 12.2822 24.2747V24.6747ZM12.9555 24.5284C13.1766 24.434 13.3639 24.315 13.511 24.1678L13.2282 23.885C13.1248 23.9883 12.9837 24.0814 12.7984 24.1605L12.9555 24.5284ZM13.5109 24.1679L18.541 19.1452L18.2584 18.8622L13.2283 23.8849L13.5109 24.1679ZM18.2582 19.145L19.3041 20.1925L19.5872 19.9098L18.5412 18.8624L18.2582 19.145ZM19.3041 19.9099L14.2829 24.9399L14.566 25.2225L19.5872 20.1925L19.3041 19.9099ZM14.2863 24.9366C14.1312 25.0847 14.0093 25.274 13.9171 25.4976L14.2868 25.6502C14.3622 25.4674 14.4554 25.3282 14.5626 25.2259L14.2863 24.9366ZM13.9174 25.4968C13.8238 25.721 13.7747 25.9454 13.7747 26.1686H14.1747C14.1747 26.0052 14.2105 25.8331 14.2865 25.6509L13.9174 25.4968ZM13.7747 26.1686C13.7747 26.5513 13.9128 26.8834 14.1842 27.1536L14.4665 26.8702C14.2703 26.6749 14.1747 26.4447 14.1747 26.1686H13.7747ZM14.1836 27.153C14.454 27.4245 14.7866 27.5625 15.1701 27.5625V27.1625C14.8928 27.1625 14.6622 27.0667 14.4671 26.8708L14.1836 27.153ZM15.1701 27.5625C15.3899 27.5625 15.6069 27.5198 15.82 27.4363L15.6741 27.0638C15.5045 27.1303 15.3369 27.1625 15.1701 27.1625V27.5625ZM15.8203 27.4362C16.0369 27.3509 16.2298 27.2236 16.3984 27.0561L16.1165 26.7723C15.9853 26.9027 15.838 26.9993 15.6738 27.064L15.8203 27.4362ZM16.3988 27.0558L21.4288 22.0331L21.1462 21.75L16.1161 26.7727L16.3988 27.0558ZM21.146 22.0329L22.192 23.0803L22.475 22.7977L21.4291 21.7502L21.146 22.0329ZM22.1921 22.7976L17.162 27.8276L17.4448 28.1105L22.4749 23.0804L22.1921 22.7976ZM17.162 27.8276C16.9902 27.9994 16.8623 28.2046 16.7778 28.4401L17.1544 28.5751C17.2199 28.3924 17.3168 28.2385 17.4448 28.1105L17.162 27.8276ZM16.7777 28.4404C16.6971 28.6663 16.6537 28.8817 16.6537 29.0846H17.0537C17.0537 28.9382 17.0852 28.769 17.1545 28.5748L16.7777 28.4404ZM16.6537 29.0846C16.6537 29.4871 16.7988 29.8254 17.0924 30.0803L17.3546 29.7783C17.1552 29.6051 17.0537 29.3803 17.0537 29.0846H16.6537ZM17.0921 30.0801C17.3722 30.3242 17.6964 30.4503 18.0579 30.4503V30.0504C17.7981 30.0504 17.566 29.9625 17.3549 29.7785L17.0921 30.0801ZM18.0491 31.5298C17.3439 31.5298 16.7442 31.2744 16.2395 30.7559L15.9529 31.0349C16.5311 31.6289 17.2334 31.9298 18.0491 31.9298V31.5298ZM16.2395 30.7559C15.7398 30.2425 15.5198 29.6135 15.5825 28.8509L15.1838 28.8182C15.1123 29.6889 15.3677 30.4337 15.9529 31.0349L16.2395 30.7559ZM15.3808 28.6345C14.5873 28.6439 13.9404 28.4082 13.4249 27.9356L13.1546 28.2304C13.7535 28.7795 14.5023 29.0449 15.3855 29.0345L15.3808 28.6345ZM13.4246 27.9353C12.9185 27.473 12.668 26.8223 12.6952 25.9529L12.2954 25.9404C12.2654 26.8997 12.5445 27.6732 13.1548 28.2307L13.4246 27.9353ZM12.4931 25.7467C11.6202 25.7561 10.957 25.5078 10.4776 25.0221L10.193 25.3031C10.7649 25.8826 11.5418 26.157 12.4974 26.1467L12.4931 25.7467ZM10.4775 25.022C9.99711 24.5362 9.77118 23.8934 9.81601 23.0697L9.4166 23.048C9.36674 23.9641 9.62015 24.7238 10.1931 25.3032L10.4775 25.022ZM9.61391 22.8589C8.83313 22.8682 8.1936 22.6493 7.68091 22.2114L7.42113 22.5156C8.01702 23.0245 8.75435 23.2692 9.6187 23.2588L9.61391 22.8589ZM7.6806 22.2112C7.17825 21.7839 6.91958 21.1868 6.91958 20.3929H6.51958C6.51958 21.2836 6.8152 22.0002 7.42144 22.5159L7.6806 22.2112ZM6.91958 20.3929C6.91958 20.0398 6.98826 19.6846 7.12785 19.3263L6.75514 19.1811C6.59884 19.5823 6.51958 19.9866 6.51958 20.3929H6.91958ZM7.12808 19.3258C7.26506 18.9709 7.46679 18.6601 7.73411 18.3919L7.45078 18.1095C7.14408 18.4173 6.91184 18.7752 6.75491 19.1817L7.12808 19.3258ZM7.73378 18.3922L15.1783 10.9566L14.8956 10.6736L7.45111 18.1092L7.73378 18.3922ZM14.8955 10.9565L18.7154 14.7764L18.9982 14.4935L15.1784 10.6736L14.8955 10.9565ZM18.7122 14.7731C18.8568 14.9246 19.0332 15.0465 19.2378 15.1407L19.4049 14.7773C19.2407 14.7017 19.1073 14.6077 19.0015 14.4968L18.7122 14.7731ZM19.2382 15.1409C19.4513 15.2382 19.6874 15.2847 19.9427 15.2847V14.8847C19.7365 14.8847 19.5583 14.8474 19.4045 14.7771L19.2382 15.1409ZM19.9427 15.2847C20.3119 15.2847 20.6396 15.1544 20.9177 14.9012L20.6484 14.6054C20.4412 14.7941 20.2087 14.8847 19.9427 14.8847V15.2847ZM20.9177 14.9012C21.2055 14.6391 21.347 14.2962 21.347 13.8908H20.947C20.947 14.1936 20.8458 14.4256 20.6484 14.6054L20.9177 14.9012ZM21.347 13.8908C21.347 13.6346 21.3005 13.3976 21.2033 13.1837L20.8392 13.3492C20.9096 13.5042 20.947 13.6835 20.947 13.8908H21.347ZM21.2028 13.1826C21.1088 12.9792 20.9875 12.8037 20.8374 12.6593L20.5601 12.9475C20.6703 13.0537 20.7641 13.1869 20.8397 13.3504L21.2028 13.1826ZM20.8401 12.662L15.7509 7.57276L15.4681 7.85561L20.5573 12.9448L20.8401 12.662ZM15.7518 7.57371C15.3708 7.18754 14.9692 6.89857 14.5463 6.71292L14.3855 7.0792C14.7535 7.24073 15.1144 7.49717 15.4671 7.85466L15.7518 7.57371ZM14.5464 6.713C14.1242 6.52723 13.6635 6.43568 13.1669 6.43568V6.83568C13.6133 6.83568 14.0185 6.91772 14.3853 7.07912L14.5464 6.713ZM13.1669 6.43568C12.677 6.43568 12.226 6.52737 11.8174 6.71417L11.9837 7.07796C12.3345 6.91758 12.7278 6.83568 13.1669 6.83568V6.43568ZM11.8172 6.71425C11.412 6.89995 11.0177 7.18835 10.6333 7.57276L10.9161 7.85561C11.2754 7.49636 11.6316 7.23934 11.9839 7.07787L11.8172 6.71425ZM10.6331 7.5729L6.12975 12.0852L6.41287 12.3677L10.9163 7.85547L10.6331 7.5729ZM6.13033 12.0846C5.79396 12.4189 5.52388 12.8171 5.31928 13.2769L5.68474 13.4395C5.87071 13.0216 6.11349 12.6653 6.41229 12.3683L6.13033 12.0846ZM5.31928 13.2769C5.11365 13.7391 5.00392 14.2171 4.99139 14.7098L5.39126 14.7199C5.40241 14.2815 5.4998 13.8552 5.68474 13.4395L5.31928 13.2769ZM4.99141 14.709C4.9811 15.0586 5.01098 15.396 5.08172 15.7205L5.47255 15.6354C5.40916 15.3445 5.38183 15.0398 5.39124 14.7207L4.99141 14.709ZM5.08196 15.7216C5.15497 16.0481 5.26994 16.3556 5.42703 16.6436L5.77819 16.4521C5.63939 16.1976 5.53738 15.9253 5.47231 15.6343L5.08196 15.7216ZM5.46128 16.4063L4.33987 17.5263L4.62253 17.8093L5.74394 16.6894L5.46128 16.4063ZM4.65054 17.5614C4.41394 17.1849 4.22696 16.7475 4.09134 16.247L3.70527 16.3516C3.84976 16.8848 4.05137 17.3597 4.31186 17.7742L4.65054 17.5614ZM4.09127 16.2468C3.9553 15.7475 3.89304 15.2391 3.90445 14.7207L3.50455 14.7119C3.49229 15.2686 3.55923 15.8155 3.70534 16.3519L4.09127 16.2468ZM3.90447 14.7199C3.91586 14.0733 4.04531 13.4548 4.29289 12.8628L3.92387 12.7085C3.65662 13.3475 3.51681 14.016 3.50453 14.7128L3.90447 14.7199ZM4.29283 12.863C4.54105 12.2709 4.89519 11.7447 5.35642 11.2834L5.07358 11.0006C4.57614 11.498 4.19253 12.0676 3.92393 12.7084L4.29283 12.863ZM5.35642 11.2834L9.8317 6.80817L9.54885 6.52533L5.07358 11.0006L5.35642 11.2834ZM9.83088 6.80898C10.3318 6.31383 10.8575 5.94937 11.4075 5.71111L11.2485 5.34407C10.6465 5.60486 10.0804 5.99985 9.54967 6.52451L9.83088 6.80898ZM11.407 5.71133C11.9564 5.4752 12.5517 5.35625 13.195 5.35625V4.95625C12.501 4.95625 11.8516 5.08486 11.249 5.34384L11.407 5.71133ZM13.195 5.35625C13.8404 5.35625 14.4306 5.47569 14.9683 5.71214L15.1293 5.34599C14.5366 5.08535 13.891 4.95625 13.195 4.95625V5.35625ZM14.9684 5.7122C15.5083 5.94926 16.0268 6.31302 16.523 6.80831L16.8056 6.52519C16.28 6.00065 15.7215 5.60597 15.1292 5.34594L14.9684 5.7122ZM16.5228 6.80809L17.8099 8.09667L18.0929 7.81399L16.8058 6.52541L16.5228 6.80809ZM18.0928 8.09683L19.3828 6.80825L19.1001 6.52525L17.8101 7.81383L18.0928 8.09683ZM19.3821 6.80898C19.8835 6.31331 20.4047 5.94877 20.9451 5.7106L20.7837 5.34458C20.1918 5.60547 19.6311 6.00037 19.1009 6.52451L19.3821 6.80898ZM20.9445 5.71083C21.4833 5.47522 22.0737 5.35625 22.7181 5.35625V4.95625C22.0232 4.95625 21.3777 5.08483 20.7843 5.34434L20.9445 5.71083ZM22.7181 5.35625C23.3624 5.35625 23.9576 5.47567 24.5058 5.71265L24.6645 5.34548C24.0628 5.08538 23.4132 4.95625 22.7181 4.95625V5.35625ZM24.5059 5.7127C25.0555 5.94985 25.5779 6.31349 26.0726 6.80817L26.3555 6.52533C25.8303 6.00019 25.2668 5.60537 24.6644 5.34543L24.5059 5.7127ZM26.0726 6.80817L31.5835 12.319L31.8663 12.0362L26.3555 6.52533L26.0726 6.80817ZM31.5836 12.3192C32.0775 12.8121 32.4564 13.3639 32.7221 13.975L33.0889 13.8155C32.8023 13.1563 32.3941 12.563 31.8662 12.0361L31.5836 12.3192ZM32.7221 13.9751C32.9887 14.587 33.1212 15.2128 33.1212 15.854H33.5212C33.5212 15.1558 33.3766 14.4758 33.0889 13.8154L32.7221 13.9751ZM33.1212 15.854C33.1212 16.4942 32.9892 17.0814 32.7272 17.6186L33.0867 17.7939C33.377 17.1988 33.5212 16.5512 33.5212 15.854H33.1212ZM32.7273 17.6183C32.4612 18.162 32.081 18.6828 31.5835 19.1804L31.8663 19.4632C32.3906 18.939 32.7985 18.3828 33.0866 17.7942L32.7273 17.6183ZM31.5835 19.1803L20.0499 30.7051L20.3326 30.988L31.8663 19.4633L31.5835 19.1803ZM20.0496 30.7054C19.7603 30.9957 19.449 31.2029 19.116 31.3317L19.2604 31.7047C19.6514 31.5535 20.0088 31.3129 20.3329 30.9878L20.0496 30.7054ZM19.1159 31.3318C18.7786 31.4626 18.4235 31.5283 18.0491 31.5283V31.9283C18.4715 31.9283 18.8758 31.8539 19.2606 31.7047L19.1159 31.3318Z" fill="white" mask="url(#path-1-outside-1_4107_2551)"/>
</svg>
