<svg width="33" height="33" viewBox="0 0 33 33" fill="none" xmlns="http://www.w3.org/2000/svg">
<mask id="path-1-outside-1_1406_1516" maskUnits="userSpaceOnUse" x="2.31836" y="3.6123" width="28" height="25" fill="black">
<rect fill="white" x="2.31836" y="3.6123" width="28" height="25"/>
<path d="M16.1072 26.9675C16.2794 26.9675 16.456 26.9289 16.637 26.8516C16.8181 26.7734 16.9644 26.6785 17.0759 26.5669L27.3514 16.2914C27.6826 15.9602 27.9379 15.6219 28.1171 15.2765C28.2973 14.9295 28.3873 14.549 28.3873 14.1351C28.3873 13.716 28.2973 13.3092 28.1171 12.9146C27.9379 12.5192 27.6826 12.159 27.3514 11.8338L22.4087 6.89119C22.0827 6.55993 21.7475 6.31697 21.4031 6.16232C21.0595 6.00767 20.6781 5.93034 20.259 5.93034C19.8451 5.93034 19.4607 6.00767 19.1057 6.16232C18.7507 6.31697 18.416 6.55993 18.1014 6.89119L16.9547 8.03789L19.3931 10.4855C19.654 10.7421 19.8487 11.0342 19.9769 11.362C20.1052 11.6897 20.1698 12.0228 20.1707 12.361C20.1707 13.0464 19.9466 13.6136 19.4985 14.0626C19.0486 14.5108 18.481 14.7348 17.7956 14.7348C17.4573 14.7348 17.1273 14.6834 16.8057 14.5806C16.4833 14.4778 16.1937 14.2977 15.9372 14.0402L13.4158 11.528L7.72447 17.218C7.59091 17.3516 7.49073 17.5032 7.42395 17.6727C7.35717 17.8432 7.32378 18.0146 7.32378 18.1868C7.32378 18.4978 7.42351 18.7544 7.62298 18.9565C7.82244 19.1586 8.0777 19.2597 8.38876 19.2597C8.56098 19.2597 8.7376 19.2201 8.91861 19.141C9.09962 19.0637 9.24592 18.9693 9.35752 18.8577L13.5344 14.6808L14.4675 15.614L10.2973 19.7921C10.1637 19.9248 10.0635 20.076 9.99676 20.2456C9.92998 20.416 9.89659 20.5874 9.89659 20.7596C9.89659 21.0531 10.0007 21.3035 10.209 21.5109C10.4163 21.7191 10.6672 21.8232 10.9616 21.8232C11.1338 21.8232 11.3104 21.7846 11.4914 21.7073C11.6724 21.6299 11.8187 21.5355 11.9303 21.4239L16.4117 16.9491L17.3435 17.8823L12.8701 22.3636C12.7532 22.4752 12.6574 22.6215 12.5828 22.8025C12.5072 22.9836 12.4694 23.1602 12.4694 23.3324C12.4694 23.6259 12.5735 23.8763 12.7818 24.0837C12.9891 24.2919 13.24 24.3961 13.5344 24.3961C13.7066 24.3961 13.8779 24.3627 14.0484 24.2959C14.218 24.2291 14.3696 24.1294 14.5031 23.9967L18.9845 19.522L19.9163 20.4551L15.435 24.9364C15.3014 25.07 15.2013 25.2299 15.1345 25.4162C15.0677 25.6034 15.0343 25.7747 15.0343 25.9303C15.0343 26.2413 15.1441 26.4922 15.3638 26.6828C15.5826 26.8735 15.8304 26.9689 16.1072 26.9689M16.0993 28.2869C15.4218 28.2869 14.8419 28.0391 14.3595 27.5435C13.8762 27.0471 13.6644 26.4351 13.7242 25.7075C12.9773 25.7163 12.3556 25.4931 11.8592 25.0379C11.3618 24.5837 11.1259 23.9492 11.1514 23.1347C10.3368 23.1435 9.69537 22.9106 9.22703 22.4361C8.75781 21.9616 8.54429 21.3369 8.58646 20.5619C7.85363 20.5707 7.24031 20.3642 6.74648 19.9424C6.25266 19.5224 6.00575 18.9372 6.00575 18.1868C6.00575 17.8485 6.07165 17.5102 6.20345 17.1719C6.33438 16.8327 6.52769 16.5348 6.78339 16.2783L13.4158 9.6538L16.8189 13.057C16.9305 13.1738 17.0685 13.2701 17.2328 13.3456C17.3962 13.4203 17.5808 13.4577 17.7864 13.4577C18.0693 13.4577 18.3189 13.3592 18.535 13.1624C18.7512 12.9656 18.8593 12.7095 18.8593 12.394C18.8593 12.1875 18.8219 12.0021 18.7472 11.8378C18.6717 11.6744 18.5759 11.5368 18.4599 11.4252L13.9258 6.89119C13.599 6.55993 13.2593 6.31697 12.907 6.16232C12.5555 6.00767 12.1698 5.93034 11.7498 5.93034C11.3359 5.93034 10.9598 6.00767 10.6215 6.16232C10.2841 6.31697 9.94975 6.55993 9.61849 6.89119L5.60638 10.9112C5.32344 11.1924 5.09498 11.5285 4.921 11.9195C4.74702 12.3105 4.65476 12.7134 4.64421 13.1281C4.63543 13.426 4.66091 13.712 4.72066 13.9862C4.78217 14.2612 4.87882 14.5196 5.01063 14.7612L4.01155 15.759C3.79012 15.4066 3.61702 15.0002 3.49225 14.5398C3.36659 14.0785 3.30904 13.6084 3.31958 13.1295C3.33013 12.5311 3.45007 11.9577 3.67941 11.4094C3.90963 10.8602 4.23826 10.3721 4.6653 9.94509L8.65237 5.95802C9.11192 5.50374 9.59828 5.16544 10.1114 4.94313C10.6246 4.72258 11.179 4.6123 11.7748 4.6123C12.3723 4.6123 12.9228 4.72302 13.4263 4.94445C13.9307 5.16588 14.4104 5.50374 14.8656 5.95802L16.0123 7.10603L17.1616 5.95802C17.6212 5.50374 18.1031 5.16544 18.6075 4.94313C19.1119 4.72258 19.6624 4.6123 20.259 4.6123C20.8556 4.6123 21.4101 4.72302 21.9224 4.94445C22.4355 5.16588 22.9192 5.50374 23.3735 5.95802L28.2832 10.8677C28.7384 11.322 29.089 11.8321 29.335 12.398C29.5819 12.9647 29.7054 13.5464 29.7054 14.143C29.7054 14.7388 29.5824 15.2889 29.3363 15.7932C29.0894 16.2976 28.7384 16.7774 28.2832 17.2325L18.0078 27.5C17.7345 27.7742 17.4366 27.9736 17.1142 28.0984C16.7926 28.2232 16.4543 28.2856 16.0993 28.2856"/>
</mask>
<path d="M16.1072 26.9675C16.2794 26.9675 16.456 26.9289 16.637 26.8516C16.8181 26.7734 16.9644 26.6785 17.0759 26.5669L27.3514 16.2914C27.6826 15.9602 27.9379 15.6219 28.1171 15.2765C28.2973 14.9295 28.3873 14.549 28.3873 14.1351C28.3873 13.716 28.2973 13.3092 28.1171 12.9146C27.9379 12.5192 27.6826 12.159 27.3514 11.8338L22.4087 6.89119C22.0827 6.55993 21.7475 6.31697 21.4031 6.16232C21.0595 6.00767 20.6781 5.93034 20.259 5.93034C19.8451 5.93034 19.4607 6.00767 19.1057 6.16232C18.7507 6.31697 18.416 6.55993 18.1014 6.89119L16.9547 8.03789L19.3931 10.4855C19.654 10.7421 19.8487 11.0342 19.9769 11.362C20.1052 11.6897 20.1698 12.0228 20.1707 12.361C20.1707 13.0464 19.9466 13.6136 19.4985 14.0626C19.0486 14.5108 18.481 14.7348 17.7956 14.7348C17.4573 14.7348 17.1273 14.6834 16.8057 14.5806C16.4833 14.4778 16.1937 14.2977 15.9372 14.0402L13.4158 11.528L7.72447 17.218C7.59091 17.3516 7.49073 17.5032 7.42395 17.6727C7.35717 17.8432 7.32378 18.0146 7.32378 18.1868C7.32378 18.4978 7.42351 18.7544 7.62298 18.9565C7.82244 19.1586 8.0777 19.2597 8.38876 19.2597C8.56098 19.2597 8.7376 19.2201 8.91861 19.141C9.09962 19.0637 9.24592 18.9693 9.35752 18.8577L13.5344 14.6808L14.4675 15.614L10.2973 19.7921C10.1637 19.9248 10.0635 20.076 9.99676 20.2456C9.92998 20.416 9.89659 20.5874 9.89659 20.7596C9.89659 21.0531 10.0007 21.3035 10.209 21.5109C10.4163 21.7191 10.6672 21.8232 10.9616 21.8232C11.1338 21.8232 11.3104 21.7846 11.4914 21.7073C11.6724 21.6299 11.8187 21.5355 11.9303 21.4239L16.4117 16.9491L17.3435 17.8823L12.8701 22.3636C12.7532 22.4752 12.6574 22.6215 12.5828 22.8025C12.5072 22.9836 12.4694 23.1602 12.4694 23.3324C12.4694 23.6259 12.5735 23.8763 12.7818 24.0837C12.9891 24.2919 13.24 24.3961 13.5344 24.3961C13.7066 24.3961 13.8779 24.3627 14.0484 24.2959C14.218 24.2291 14.3696 24.1294 14.5031 23.9967L18.9845 19.522L19.9163 20.4551L15.435 24.9364C15.3014 25.07 15.2013 25.2299 15.1345 25.4162C15.0677 25.6034 15.0343 25.7747 15.0343 25.9303C15.0343 26.2413 15.1441 26.4922 15.3638 26.6828C15.5826 26.8735 15.8304 26.9689 16.1072 26.9689M16.0993 28.2869C15.4218 28.2869 14.8419 28.0391 14.3595 27.5435C13.8762 27.0471 13.6644 26.4351 13.7242 25.7075C12.9773 25.7163 12.3556 25.4931 11.8592 25.0379C11.3618 24.5837 11.1259 23.9492 11.1514 23.1347C10.3368 23.1435 9.69537 22.9106 9.22703 22.4361C8.75781 21.9616 8.54429 21.3369 8.58646 20.5619C7.85363 20.5707 7.24031 20.3642 6.74648 19.9424C6.25266 19.5224 6.00575 18.9372 6.00575 18.1868C6.00575 17.8485 6.07165 17.5102 6.20345 17.1719C6.33438 16.8327 6.52769 16.5348 6.78339 16.2783L13.4158 9.6538L16.8189 13.057C16.9305 13.1738 17.0685 13.2701 17.2328 13.3456C17.3962 13.4203 17.5808 13.4577 17.7864 13.4577C18.0693 13.4577 18.3189 13.3592 18.535 13.1624C18.7512 12.9656 18.8593 12.7095 18.8593 12.394C18.8593 12.1875 18.8219 12.0021 18.7472 11.8378C18.6717 11.6744 18.5759 11.5368 18.4599 11.4252L13.9258 6.89119C13.599 6.55993 13.2593 6.31697 12.907 6.16232C12.5555 6.00767 12.1698 5.93034 11.7498 5.93034C11.3359 5.93034 10.9598 6.00767 10.6215 6.16232C10.2841 6.31697 9.94975 6.55993 9.61849 6.89119L5.60638 10.9112C5.32344 11.1924 5.09498 11.5285 4.921 11.9195C4.74702 12.3105 4.65476 12.7134 4.64421 13.1281C4.63543 13.426 4.66091 13.712 4.72066 13.9862C4.78217 14.2612 4.87882 14.5196 5.01063 14.7612L4.01155 15.759C3.79012 15.4066 3.61702 15.0002 3.49225 14.5398C3.36659 14.0785 3.30904 13.6084 3.31958 13.1295C3.33013 12.5311 3.45007 11.9577 3.67941 11.4094C3.90963 10.8602 4.23826 10.3721 4.6653 9.94509L8.65237 5.95802C9.11192 5.50374 9.59828 5.16544 10.1114 4.94313C10.6246 4.72258 11.179 4.6123 11.7748 4.6123C12.3723 4.6123 12.9228 4.72302 13.4263 4.94445C13.9307 5.16588 14.4104 5.50374 14.8656 5.95802L16.0123 7.10603L17.1616 5.95802C17.6212 5.50374 18.1031 5.16544 18.6075 4.94313C19.1119 4.72258 19.6624 4.6123 20.259 4.6123C20.8556 4.6123 21.4101 4.72302 21.9224 4.94445C22.4355 5.16588 22.9192 5.50374 23.3735 5.95802L28.2832 10.8677C28.7384 11.322 29.089 11.8321 29.335 12.398C29.5819 12.9647 29.7054 13.5464 29.7054 14.143C29.7054 14.7388 29.5824 15.2889 29.3363 15.7932C29.0894 16.2976 28.7384 16.7774 28.2832 17.2325L18.0078 27.5C17.7345 27.7742 17.4366 27.9736 17.1142 28.0984C16.7926 28.2232 16.4543 28.2856 16.0993 28.2856" fill="white"/>
<path d="M16.637 26.8516L16.7156 27.0355L16.7164 27.0352L16.637 26.8516ZM17.0759 26.5669L17.2174 26.7083L17.0759 26.5669ZM27.3514 16.2914L27.2099 16.15L27.3514 16.2914ZM28.1171 15.2765L28.2947 15.3687L28.2947 15.3687L28.1171 15.2765ZM28.1171 12.9146L27.935 12.9972L27.9352 12.9977L28.1171 12.9146ZM27.3514 11.8338L27.2099 11.9753L27.2113 11.9766L27.3514 11.8338ZM22.4087 6.89119L22.2662 7.03148L22.2673 7.03261L22.4087 6.89119ZM21.4031 6.16232L21.321 6.34469L21.3211 6.34477L21.4031 6.16232ZM18.1014 6.89119L18.2428 7.03266L18.2464 7.02891L18.1014 6.89119ZM16.9547 8.03789L16.8133 7.89646L16.6721 8.03762L16.813 8.17904L16.9547 8.03789ZM19.3931 10.4855L19.2514 10.6266L19.2528 10.6281L19.3931 10.4855ZM20.1707 12.361H20.3707V12.3605L20.1707 12.361ZM19.4985 14.0626L19.6396 14.2043L19.6401 14.2039L19.4985 14.0626ZM16.8057 14.5806L16.8666 14.3901L16.8665 14.3901L16.8057 14.5806ZM15.9372 14.0402L16.0788 13.899L16.0783 13.8986L15.9372 14.0402ZM13.4158 11.528L13.5569 11.3864L13.4155 11.2455L13.2743 11.3866L13.4158 11.528ZM7.72447 17.218L7.58306 17.0766L7.58305 17.0766L7.72447 17.218ZM7.42395 17.6727L7.23786 17.5995L7.23773 17.5998L7.42395 17.6727ZM8.91861 19.141L8.84004 18.9571L8.83854 18.9578L8.91861 19.141ZM9.35752 18.8577L9.21609 18.7162L9.35752 18.8577ZM13.5344 14.6808L13.6758 14.5394L13.5344 14.398L13.393 14.5394L13.5344 14.6808ZM14.4675 15.614L14.6091 15.7553L14.7503 15.6138L14.609 15.4725L14.4675 15.614ZM10.2973 19.7921L10.4382 19.934L10.4388 19.9334L10.2973 19.7921ZM9.99676 20.2456L9.81067 20.1723L9.81054 20.1726L9.99676 20.2456ZM10.209 21.5109L10.3507 21.3697L10.3501 21.3692L10.209 21.5109ZM11.9303 21.4239L11.789 21.2824L11.7889 21.2825L11.9303 21.4239ZM16.4117 16.9491L16.5532 16.8078L16.4119 16.6663L16.2703 16.8076L16.4117 16.9491ZM17.3435 17.8823L17.4851 18.0236L17.6261 17.8823L17.485 17.741L17.3435 17.8823ZM12.8701 22.3636L13.0082 22.5083L13.0116 22.5049L12.8701 22.3636ZM12.5828 22.8025L12.7673 22.8796L12.7676 22.8788L12.5828 22.8025ZM12.7818 24.0837L12.9235 23.9426L12.9229 23.942L12.7818 24.0837ZM14.0484 24.2959L14.1214 24.4821L14.1217 24.482L14.0484 24.2959ZM14.5031 23.9967L14.6441 24.1386L14.6445 24.1382L14.5031 23.9967ZM18.9845 19.522L19.126 19.3806L18.9847 19.2391L18.8431 19.3804L18.9845 19.522ZM19.9163 20.4551L20.0577 20.5965L20.1991 20.4552L20.0578 20.3138L19.9163 20.4551ZM15.435 24.9364L15.2936 24.795L15.435 24.9364ZM15.1345 25.4162L14.9462 25.3487L14.9461 25.349L15.1345 25.4162ZM15.3638 26.6828L15.4952 26.5321L15.4949 26.5318L15.3638 26.6828ZM14.3595 27.5435L14.5028 27.404L14.5028 27.404L14.3595 27.5435ZM13.7242 25.7075L13.9235 25.7239L13.9415 25.5049L13.7218 25.5075L13.7242 25.7075ZM11.8592 25.0379L11.9943 24.8905L11.994 24.8903L11.8592 25.0379ZM11.1514 23.1347L11.3513 23.1409L11.3578 22.9325L11.1492 22.9347L11.1514 23.1347ZM9.22703 22.4361L9.36937 22.2956L9.36924 22.2955L9.22703 22.4361ZM8.58646 20.5619L8.78617 20.5728L8.79778 20.3593L8.58407 20.3619L8.58646 20.5619ZM6.74648 19.9424L6.87637 19.7903L6.87606 19.7901L6.74648 19.9424ZM6.20345 17.1719L6.38981 17.2445L6.39003 17.2439L6.20345 17.1719ZM6.78339 16.2783L6.64205 16.1368L6.64172 16.1371L6.78339 16.2783ZM13.4158 9.6538L13.5572 9.51238L13.4158 9.37104L13.2744 9.51229L13.4158 9.6538ZM16.8189 13.057L16.9636 12.9188L16.9604 12.9156L16.8189 13.057ZM17.2328 13.3456L17.1492 13.5273L17.1497 13.5275L17.2328 13.3456ZM18.7472 11.8378L18.9293 11.755L18.9288 11.7539L18.7472 11.8378ZM18.4599 11.4252L18.3184 11.5667L18.3212 11.5694L18.4599 11.4252ZM13.9258 6.89119L13.7835 7.03167L13.7844 7.03261L13.9258 6.89119ZM12.907 6.16232L12.8264 6.34538L12.8266 6.34545L12.907 6.16232ZM10.6215 6.16232L10.5384 5.98042L10.5382 5.9805L10.6215 6.16232ZM9.61849 6.89119L9.47707 6.74977L9.47693 6.74991L9.61849 6.89119ZM5.60638 10.9112L5.74736 11.0531L5.74794 11.0525L5.60638 10.9112ZM4.64421 13.1281L4.84413 13.134L4.84415 13.1332L4.64421 13.1281ZM4.72066 13.9862L4.52524 14.0288L4.52548 14.0298L4.72066 13.9862ZM5.01063 14.7612L5.15195 14.9027L5.25791 14.7969L5.18621 14.6654L5.01063 14.7612ZM4.01155 15.759L3.84222 15.8654L3.97556 16.0776L4.15288 15.9005L4.01155 15.759ZM3.49225 14.5398L3.68528 14.4875L3.68522 14.4872L3.49225 14.5398ZM3.31958 13.1295L3.51954 13.1339L3.51955 13.133L3.31958 13.1295ZM3.67941 11.4094L3.49496 11.3321L3.4949 11.3323L3.67941 11.4094ZM4.6653 9.94509L4.80672 10.0865L4.6653 9.94509ZM8.65237 5.95802L8.51176 5.81578L8.51094 5.8166L8.65237 5.95802ZM10.1114 4.94313L10.0325 4.75938L10.0319 4.75961L10.1114 4.94313ZM13.4263 4.94445L13.3458 5.12753L13.3459 5.12758L13.4263 4.94445ZM14.8656 5.95802L15.0071 5.81668L15.0069 5.81646L14.8656 5.95802ZM16.0123 7.10603L15.8708 7.24737L16.0121 7.38888L16.1536 7.24754L16.0123 7.10603ZM17.1616 5.95802L17.021 5.81578L17.0203 5.81652L17.1616 5.95802ZM18.6075 4.94313L18.5274 4.75989L18.5268 4.76012L18.6075 4.94313ZM21.9224 4.94445L21.843 5.12803L21.8431 5.12808L21.9224 4.94445ZM28.2832 10.8677L28.1418 11.0091L28.1419 11.0093L28.2832 10.8677ZM29.335 12.398L29.1516 12.4777L29.1517 12.4778L29.335 12.398ZM29.3363 15.7932L29.516 15.8812L29.5161 15.8809L29.3363 15.7932ZM28.2832 17.2325L28.4246 17.374L28.4246 17.3739L28.2832 17.2325ZM18.0078 27.5L17.8664 27.3586L17.8662 27.3588L18.0078 27.5ZM17.1142 28.0984L17.042 27.9119L17.0418 27.912L17.1142 28.0984ZM16.1072 27.1675C16.31 27.1675 16.5133 27.1219 16.7156 27.0355L16.5585 26.6676C16.3988 26.7359 16.2488 26.7675 16.1072 26.7675V27.1675ZM16.7164 27.0352C16.915 26.9494 17.0841 26.8416 17.2174 26.7083L16.9345 26.4254C16.8446 26.5153 16.7211 26.5974 16.5577 26.668L16.7164 27.0352ZM17.2174 26.7083L27.4928 16.4329L27.2099 16.15L16.9345 26.4254L17.2174 26.7083ZM27.4928 16.4329C27.8357 16.09 28.1043 15.7355 28.2947 15.3687L27.9396 15.1844C27.7715 15.5083 27.5296 15.8304 27.2099 16.15L27.4928 16.4329ZM28.2947 15.3687C28.4904 14.9915 28.5873 14.5791 28.5873 14.1351H28.1873C28.1873 14.5189 28.1041 14.8675 27.9396 15.1844L28.2947 15.3687ZM28.5873 14.1351C28.5873 13.6863 28.4907 13.2512 28.2991 12.8316L27.9352 12.9977C28.1039 13.3671 28.1873 13.7457 28.1873 14.1351H28.5873ZM28.2993 12.832C28.1092 12.4126 27.8391 12.0323 27.4915 11.6911L27.2113 11.9766C27.5262 12.2856 27.7666 12.6258 27.935 12.9972L28.2993 12.832ZM27.4928 11.6924L22.5501 6.74977L22.2673 7.03261L27.2099 11.9753L27.4928 11.6924ZM22.5513 6.75091C22.2118 6.4059 21.8566 6.14673 21.485 5.97986L21.3211 6.34477C21.6384 6.4872 21.9537 6.71395 22.2662 7.03147L22.5513 6.75091ZM21.4852 5.97994C21.113 5.81243 20.7032 5.73034 20.259 5.73034V6.13034C20.653 6.13034 21.006 6.20291 21.321 6.34469L21.4852 5.97994ZM20.259 5.73034C19.8196 5.73034 19.4077 5.81259 19.0258 5.97896L19.1856 6.34567C19.5137 6.20274 19.8707 6.13034 20.259 6.13034V5.73034ZM19.0258 5.97896C18.6423 6.14605 18.2861 6.40622 17.9564 6.75347L18.2464 7.02891C18.5458 6.71363 18.8592 6.48788 19.1856 6.34567L19.0258 5.97896ZM17.96 6.74977L16.8133 7.89646L17.0961 8.17931L18.2428 7.03261L17.96 6.74977ZM16.813 8.17904L19.2514 10.6266L19.5347 10.3443L17.0964 7.89673L16.813 8.17904ZM19.2528 10.6281C19.4946 10.8657 19.6731 11.1344 19.7907 11.4349L20.1632 11.2891C20.0242 10.9341 19.8135 10.6184 19.5333 10.3429L19.2528 10.6281ZM19.7907 11.4349C19.9103 11.7405 19.9699 12.049 19.9707 12.3616L20.3707 12.3605C20.3698 11.9965 20.3001 11.639 20.1632 11.2891L19.7907 11.4349ZM19.9707 12.361C19.9707 12.9982 19.7645 13.513 19.3569 13.9214L19.6401 14.2039C20.1288 13.7142 20.3707 13.0947 20.3707 12.361H19.9707ZM19.3574 13.9209C18.9481 14.3286 18.4327 14.5348 17.7956 14.5348V14.9348C18.5292 14.9348 19.1491 14.693 19.6396 14.2043L19.3574 13.9209ZM17.7956 14.5348C17.4779 14.5348 17.1685 14.4866 16.8666 14.3901L16.7449 14.7711C17.0862 14.8802 17.4367 14.9348 17.7956 14.9348V14.5348ZM16.8665 14.3901C16.5768 14.2977 16.3145 14.1355 16.0788 13.8991L15.7955 14.1814C16.073 14.4599 16.3898 14.6579 16.745 14.7712L16.8665 14.3901ZM16.0783 13.8986L13.5569 11.3864L13.2746 11.6697L15.796 14.1819L16.0783 13.8986ZM13.2743 11.3866L7.58306 17.0766L7.86587 17.3595L13.5572 11.6695L13.2743 11.3866ZM7.58305 17.0766C7.4308 17.2288 7.31507 17.4034 7.23786 17.5995L7.61005 17.746C7.6664 17.6029 7.75101 17.4743 7.86589 17.3594L7.58305 17.0766ZM7.23773 17.5998C7.16243 17.792 7.12378 17.988 7.12378 18.1868H7.52378C7.52378 18.0411 7.55192 17.8944 7.61017 17.7457L7.23773 17.5998ZM7.12378 18.1868C7.12378 18.5449 7.24053 18.8537 7.48063 19.097L7.76532 18.816C7.6065 18.6551 7.52378 18.4508 7.52378 18.1868H7.12378ZM7.48063 19.097C7.72145 19.341 8.02983 19.4597 8.38876 19.4597V19.0597C8.12557 19.0597 7.92343 18.9762 7.76532 18.816L7.48063 19.097ZM8.38876 19.4597C8.5923 19.4597 8.79611 19.4128 8.99868 19.3243L8.83854 18.9578C8.67909 19.0274 8.52966 19.0597 8.38876 19.0597V19.4597ZM8.99718 19.325C9.19606 19.24 9.36544 19.1326 9.49894 18.9991L9.21609 18.7162C9.1264 18.8059 9.00318 18.8874 8.84004 18.9571L8.99718 19.325ZM9.49894 18.9991L13.6758 14.8222L13.393 14.5394L9.21609 18.7162L9.49894 18.9991ZM13.393 14.8222L14.3261 15.7554L14.609 15.4725L13.6758 14.5394L13.393 14.8222ZM14.326 15.4727L10.1557 19.6509L10.4388 19.9334L14.6091 15.7553L14.326 15.4727ZM10.1563 19.6503C10.0038 19.8018 9.88793 19.9761 9.81067 20.1723L10.1829 20.3188C10.2392 20.1758 10.3236 20.0479 10.4382 19.934L10.1563 19.6503ZM9.81054 20.1726C9.73524 20.3648 9.69659 20.5609 9.69659 20.7596H10.0966C10.0966 20.6139 10.1247 20.4672 10.183 20.3185L9.81054 20.1726ZM9.69659 20.7596C9.69659 21.1063 9.82197 21.4077 10.0678 21.6526L10.3501 21.3692C10.1795 21.1993 10.0966 20.9998 10.0966 20.7596H9.69659ZM10.0672 21.652C10.3122 21.898 10.6141 22.0232 10.9616 22.0232V21.6232C10.7203 21.6232 10.5205 21.5402 10.3507 21.3697L10.0672 21.652ZM10.9616 22.0232C11.1644 22.0232 11.3677 21.9776 11.57 21.8912L11.4129 21.5233C11.2531 21.5916 11.1032 21.6232 10.9616 21.6232V22.0232ZM11.57 21.8912C11.7689 21.8062 11.9382 21.6988 12.0717 21.5653L11.7889 21.2825C11.6992 21.3721 11.576 21.4536 11.4129 21.5233L11.57 21.8912ZM12.0716 21.5654L16.553 17.0907L16.2703 16.8076L11.789 21.2824L12.0716 21.5654ZM16.2701 17.0905L17.202 18.0236L17.485 17.741L16.5532 16.8078L16.2701 17.0905ZM17.202 17.741L12.7285 22.2223L13.0116 22.5049L17.4851 18.0236L17.202 17.741ZM12.732 22.219C12.5911 22.3535 12.481 22.5248 12.3979 22.7263L12.7676 22.8788C12.8339 22.7183 12.9153 22.597 13.0082 22.5083L12.732 22.219ZM12.3982 22.7255C12.3138 22.9275 12.2694 23.1303 12.2694 23.3324H12.6694C12.6694 23.1901 12.7005 23.0396 12.7673 22.8796L12.3982 22.7255ZM12.2694 23.3324C12.2694 23.6792 12.3948 23.9806 12.6407 24.2254L12.9229 23.942C12.7523 23.7721 12.6694 23.5726 12.6694 23.3324H12.2694ZM12.6401 24.2248C12.885 24.4708 13.1869 24.5961 13.5344 24.5961V24.1961C13.2931 24.1961 13.0933 24.113 12.9235 23.9426L12.6401 24.2248ZM13.5344 24.5961C13.7331 24.5961 13.9291 24.5574 14.1214 24.4821L13.9755 24.1097C13.8268 24.1679 13.6801 24.1961 13.5344 24.1961V24.5961ZM14.1217 24.482C14.3175 24.4049 14.4919 24.2898 14.6441 24.1386L14.3622 23.8548C14.2473 23.9689 14.1185 24.0533 13.9751 24.1098L14.1217 24.482ZM14.6445 24.1382L19.1258 19.6635L18.8431 19.3804L14.3618 23.8552L14.6445 24.1382ZM18.8429 19.6633L19.7748 20.5964L20.0578 20.3138L19.126 19.3806L18.8429 19.6633ZM19.7749 20.3137L15.2936 24.795L15.5764 25.0779L20.0577 20.5965L19.7749 20.3137ZM15.2936 24.795C15.1381 24.9505 15.0225 25.136 14.9462 25.3487L15.3227 25.4837C15.38 25.3239 15.4647 25.1896 15.5764 25.0779L15.2936 24.795ZM14.9461 25.349C14.8737 25.552 14.8343 25.7465 14.8343 25.9303H15.2343C15.2343 25.803 15.2617 25.6547 15.3228 25.4834L14.9461 25.349ZM14.8343 25.9303C14.8343 26.2947 14.966 26.6023 15.2327 26.8339L15.4949 26.5318C15.3223 26.382 15.2343 26.1879 15.2343 25.9303H14.8343ZM15.2324 26.8336C15.4857 27.0544 15.7796 27.1689 16.1072 27.1689V26.7689C15.8812 26.7689 15.6795 26.6927 15.4952 26.5321L15.2324 26.8336ZM16.0993 28.0869C15.477 28.0869 14.9484 27.8618 14.5028 27.404L14.2162 27.683C14.7353 28.2164 15.3666 28.4869 16.0993 28.4869V28.0869ZM14.5028 27.404C14.0622 26.9514 13.8682 26.3973 13.9235 25.7239L13.5248 25.6911C13.4607 26.4728 13.6902 27.1427 14.2162 27.683L14.5028 27.404ZM13.7218 25.5075C13.0198 25.5158 12.4491 25.3075 11.9943 24.8905L11.724 25.1854C12.2622 25.6788 12.9348 25.9168 13.7265 25.9075L13.7218 25.5075ZM11.994 24.8903C11.5488 24.4836 11.3272 23.9106 11.3513 23.1409L10.9515 23.1284C10.9246 23.9879 11.1748 24.6837 11.7243 25.1856L11.994 24.8903ZM11.1492 22.9347C10.376 22.943 9.79142 22.7232 9.36937 22.2956L9.08469 22.5766C9.59932 23.098 10.2976 23.3439 11.1535 23.3347L11.1492 22.9347ZM9.36924 22.2955C8.94629 21.8678 8.74651 21.3015 8.78617 20.5728L8.38676 20.551C8.34206 21.3723 8.56933 22.0555 9.08482 22.5768L9.36924 22.2955ZM8.58407 20.3619C7.89302 20.3702 7.32859 20.1766 6.87637 19.7903L6.61659 20.0945C7.15202 20.5518 7.81424 20.7712 8.58886 20.7619L8.58407 20.3619ZM6.87606 19.7901C6.43418 19.4142 6.20575 18.8888 6.20575 18.1868H5.80575C5.80575 18.9856 6.07113 19.6306 6.61691 20.0948L6.87606 19.7901ZM6.20575 18.1868C6.20575 17.8751 6.26636 17.5614 6.38981 17.2445L6.0171 17.0993C5.87694 17.459 5.80575 17.8219 5.80575 18.1868H6.20575ZM6.39003 17.2439C6.51099 16.9306 6.68904 16.6563 6.92505 16.4194L6.64172 16.1371C6.36634 16.4134 6.15776 16.7349 6.01687 17.0999L6.39003 17.2439ZM6.92472 16.4198L13.5571 9.79531L13.2744 9.51229L6.64205 16.1368L6.92472 16.4198ZM13.2743 9.79522L16.6775 13.1984L16.9604 12.9156L13.5572 9.51238L13.2743 9.79522ZM16.6743 13.1951C16.8053 13.3323 16.9647 13.4425 17.1492 13.5273L17.3164 13.1639C17.1722 13.0976 17.0558 13.0154 16.9636 12.9189L16.6743 13.1951ZM17.1497 13.5275C17.3427 13.6157 17.5562 13.6577 17.7864 13.6577V13.2577C17.6053 13.2577 17.4498 13.2249 17.3159 13.1637L17.1497 13.5275ZM17.7864 13.6577C18.1209 13.6577 18.418 13.5394 18.6697 13.3103L18.4004 13.0145C18.2197 13.1791 18.0177 13.2577 17.7864 13.2577V13.6577ZM18.6697 13.3103C18.931 13.0723 19.0593 12.7608 19.0593 12.394H18.6593C18.6593 12.6581 18.5713 12.8588 18.4004 13.0145L18.6697 13.3103ZM19.0593 12.394C19.0593 12.1631 19.0174 11.9488 18.9293 11.755L18.5651 11.9205C18.6264 12.0554 18.6593 12.212 18.6593 12.394H19.0593ZM18.9288 11.7539C18.844 11.5705 18.7344 11.4119 18.5986 11.2811L18.3212 11.5694C18.4173 11.6618 18.4993 11.7782 18.5657 11.9217L18.9288 11.7539ZM18.6013 11.2838L14.0673 6.74977L13.7844 7.03261L18.3185 11.5667L18.6013 11.2838ZM14.0682 6.75072C13.7272 6.40511 13.3672 6.14589 12.9874 5.97918L12.8266 6.34545C13.1515 6.48805 13.4707 6.71474 13.7835 7.03167L14.0682 6.75072ZM12.9875 5.97925C12.6084 5.81242 12.1949 5.73034 11.7498 5.73034V6.13034C12.1447 6.13034 12.5026 6.20291 12.8264 6.34538L12.9875 5.97925ZM11.7498 5.73034C11.3104 5.73034 10.9056 5.81256 10.5384 5.98042L10.7047 6.34421C11.0141 6.20277 11.3613 6.13034 11.7498 6.13034V5.73034ZM10.5382 5.9805C10.1743 6.14727 9.82092 6.40592 9.47707 6.74977L9.75991 7.03261C10.0786 6.71394 10.3939 6.48666 10.7048 6.34413L10.5382 5.9805ZM9.47693 6.74991L5.46482 10.7699L5.74794 11.0525L9.76005 7.03247L9.47693 6.74991ZM5.4654 10.7693C5.16368 11.0692 4.92157 11.4263 4.73827 11.8382L5.10373 12.0008C5.26839 11.6307 5.4832 11.3156 5.74736 11.0531L5.4654 10.7693ZM4.73827 11.8382C4.55394 12.2525 4.45551 12.6812 4.44428 13.1231L4.84415 13.1332C4.854 12.7456 4.94009 12.3686 5.10373 12.0008L4.73827 11.8382ZM4.4443 13.1223C4.43506 13.4354 4.46182 13.7378 4.52525 14.0288L4.91607 13.9436C4.86 13.6863 4.83579 13.4166 4.84413 13.134L4.4443 13.1223ZM4.52548 14.0298C4.59096 14.3226 4.6941 14.5986 4.83505 14.857L5.18621 14.6654C5.06355 14.4406 4.97337 14.1998 4.91584 13.9425L4.52548 14.0298ZM4.8693 14.6197L3.87023 15.6174L4.15288 15.9005L5.15195 14.9027L4.8693 14.6197ZM4.18089 15.6525C3.97141 15.3192 3.80562 14.9315 3.68528 14.4875L3.29921 14.5921C3.42842 15.0689 3.60884 15.494 3.84222 15.8654L4.18089 15.6525ZM3.68522 14.4872C3.56463 14.0445 3.50941 13.5936 3.51954 13.1339L3.11963 13.1251C3.10867 13.6231 3.16856 14.1124 3.29928 14.5923L3.68522 14.4872ZM3.51955 13.133C3.52965 12.5597 3.64442 12.0114 3.86392 11.4866L3.4949 11.3323C3.25572 11.9041 3.1306 12.5024 3.11961 13.1259L3.51955 13.133ZM3.86386 11.4867C4.08389 10.9619 4.39778 10.4954 4.80672 10.0865L4.52388 9.80367C4.07873 10.2488 3.73536 10.7586 3.49496 11.3321L3.86386 11.4867ZM4.80672 10.0865L8.79379 6.09944L8.51094 5.8166L4.52388 9.80367L4.80672 10.0865ZM8.79297 6.10026C9.2376 5.66073 9.70378 5.3377 10.1909 5.12665L10.0319 4.75961C9.49278 4.99318 8.98625 5.34675 8.51176 5.81579L8.79297 6.10026ZM10.1904 5.12688C10.677 4.91775 11.2044 4.8123 11.7748 4.8123V4.4123C11.1537 4.4123 10.5722 4.52741 10.0325 4.75938L10.1904 5.12688ZM11.7748 4.8123C12.347 4.8123 12.8698 4.91819 13.3458 5.12753L13.5068 4.76137C12.9758 4.52785 12.3976 4.4123 11.7748 4.4123V4.8123ZM13.3459 5.12758C13.8241 5.33753 14.2838 5.65992 14.7243 6.09958L15.0069 5.81646C14.5371 5.34755 14.0372 4.99424 13.5067 4.76132L13.3459 5.12758ZM14.7241 6.09936L15.8708 7.24737L16.1538 6.96469L15.0071 5.81668L14.7241 6.09936ZM16.1536 7.24754L17.303 6.09952L17.0203 5.81652L15.8709 6.96453L16.1536 7.24754ZM17.3022 6.10026C17.7474 5.6602 18.2096 5.33709 18.6882 5.12614L18.5268 4.76012C17.9967 4.99379 17.495 5.34727 17.021 5.81579L17.3022 6.10026ZM18.6876 5.12638C19.1647 4.91778 19.6876 4.8123 20.259 4.8123V4.4123C19.6371 4.4123 19.0591 4.52739 18.5274 4.75989L18.6876 5.12638ZM20.259 4.8123C20.8303 4.8123 21.3575 4.91817 21.843 5.12803L22.0017 4.76087C21.4627 4.52787 20.881 4.4123 20.259 4.4123V4.8123ZM21.8431 5.12808C22.3299 5.33812 22.7931 5.66039 23.2321 6.09944L23.515 5.8166C23.0454 5.34709 22.5412 4.99364 22.0016 4.76082L21.8431 5.12808ZM23.2321 6.09944L28.1418 11.0091L28.4246 10.7263L23.515 5.8166L23.2321 6.09944ZM28.1419 11.0093C28.5801 11.4465 28.916 11.9359 29.1516 12.4777L29.5184 12.3182C29.2619 11.7283 28.8967 11.1974 28.4245 10.7262L28.1419 11.0093ZM29.1517 12.4778C29.388 13.0203 29.5054 13.5749 29.5054 14.143H29.9054C29.9054 13.5179 29.7759 12.9091 29.5184 12.3181L29.1517 12.4778ZM29.5054 14.143C29.5054 14.7103 29.3885 15.2301 29.1566 15.7055L29.5161 15.8809C29.7763 15.3476 29.9054 14.7673 29.9054 14.143H29.5054ZM29.1567 15.7053C28.9208 16.1872 28.5836 16.6493 28.1418 17.0911L28.4246 17.3739C28.8932 16.9054 29.2581 16.408 29.516 15.8812L29.1567 15.7053ZM28.1419 17.091L17.8664 27.3586L18.1492 27.6415L28.4246 17.374L28.1419 17.091ZM17.8662 27.3588C17.6103 27.6156 17.3355 27.7984 17.042 27.9119L17.1863 28.2849C17.5378 28.1489 17.8588 27.9328 18.1494 27.6412L17.8662 27.3588ZM17.0418 27.912C16.744 28.0275 16.4303 28.0856 16.0993 28.0856V28.4856C16.4783 28.4856 16.8412 28.4189 17.1865 28.2849L17.0418 27.912Z" fill="white" mask="url(#path-1-outside-1_1406_1516)"/>
</svg>
