<svg width="36" height="36" viewBox="0 0 36 36" fill="none" xmlns="http://www.w3.org/2000/svg">
<path d="M22.5112 15.2508L21.4379 15.0724C21.412 15.2282 21.4203 15.3878 21.4623 15.5401C21.5044 15.6924 21.579 15.8337 21.6812 15.9542C21.7833 16.0747 21.9105 16.1715 22.0538 16.2379C22.1972 16.3043 22.3532 16.3386 22.5112 16.3386V15.2508ZM6.55657 15.2508V14.163C6.26806 14.163 5.99137 14.2776 5.78736 14.4816C5.58336 14.6856 5.46875 14.9623 5.46875 15.2508H6.55657ZM9.45741 30.8428H25.9342V28.6672H9.45741V30.8428ZM27.6747 14.163H22.5112V16.3386H27.6747V14.163ZM23.5845 15.4292L24.7536 8.41639L22.6069 8.05814L21.4379 15.0724L23.5845 15.4292ZM22.2501 5.46043H21.9397V7.63607H22.2487L22.2501 5.46043ZM17.413 7.88264L13.7652 13.3551L15.5753 14.5618L19.2231 9.08939L17.413 7.88264ZM12.2567 14.163H6.55657V16.3386H12.2567V14.163ZM5.46875 15.2508V26.8542H7.64438V15.2508H5.46875ZM29.846 27.6374L31.5865 18.9349L29.4544 18.507L27.7139 27.2095L29.846 27.6374ZM13.7652 13.3551C13.5997 13.6035 13.3754 13.8058 13.1123 13.9467C12.8491 14.0877 12.5552 14.1614 12.2567 14.1615V16.3371C13.5911 16.3371 14.8356 15.6714 15.5753 14.5618L13.7652 13.3551ZM24.7536 8.41639C24.814 8.05287 24.7946 7.6791 24.6966 7.32385C24.5986 6.96861 24.4245 6.63895 24.1862 6.3578C23.948 6.07664 23.6514 5.85073 23.3171 5.69577C22.9827 5.5408 22.6186 5.4605 22.2501 5.46043L22.2487 7.63607C22.3013 7.6362 22.3546 7.64776 22.4023 7.66995C22.4499 7.69214 22.4922 7.72443 22.5262 7.76458C22.5601 7.80473 22.5849 7.85178 22.5989 7.90247C22.6128 7.95316 22.6156 8.00628 22.6069 8.05814L24.7536 8.41639ZM27.6747 16.3371C28.8205 16.3371 29.6763 17.3844 29.4529 18.5055L31.5865 18.9334C31.7019 18.3548 31.6876 17.7564 31.5444 17.184C31.4013 16.6117 31.133 16.0782 30.7588 15.622C30.3847 15.1659 29.914 14.7984 29.3806 14.5461C28.8473 14.2938 28.2647 14.1629 27.6747 14.163V16.3371ZM25.9342 30.8428C26.8562 30.843 27.7499 30.5223 28.4631 29.9379C29.1762 29.3535 29.6649 28.54 29.846 27.6359L27.7139 27.2081C27.6317 27.6194 27.4093 27.9895 27.0848 28.2553C26.7603 28.5211 26.3537 28.6676 25.9342 28.6672V30.8428ZM21.9397 5.46043C21.0443 5.4605 20.1628 5.68017 19.3734 6.10271C18.584 6.52525 17.9111 7.13616 17.4144 7.88119L19.2231 9.08939C19.5212 8.64217 19.9252 8.27405 20.3991 8.02051C20.873 7.76697 21.4023 7.63587 21.9397 7.63607V5.46043ZM9.45741 28.6672C8.45662 28.6672 7.64438 27.8549 7.64438 26.8542H5.46875C5.46875 27.912 5.88898 28.9265 6.637 29.6746C7.38502 30.4226 8.39955 30.8428 9.45741 30.8428V28.6672Z" fill="white"/>
<path d="M12.3594 15.251V29.7552" stroke="white" stroke-width="1.5"/>
</svg>
