<svg width="25" height="24" viewBox="0 0 25 24" fill="none" xmlns="http://www.w3.org/2000/svg">
<path d="M16.0666 9.60544L15.1104 9.4465C15.0873 9.58533 15.0947 9.72752 15.1321 9.86319C15.1696 9.99885 15.2361 10.1247 15.3271 10.2321C15.4181 10.3395 15.5314 10.4257 15.6591 10.4848C15.7868 10.544 15.9258 10.5746 16.0666 10.5746V9.60544ZM1.85245 9.60544V8.63629C1.59541 8.63629 1.34891 8.7384 1.16716 8.92015C0.985407 9.1019 0.883301 9.3484 0.883301 9.60544H1.85245ZM4.43683 23.4965H19.1162V21.5582H4.43683V23.4965ZM20.6668 8.63629H16.0666V10.5746H20.6668V8.63629ZM17.0228 9.76438L18.0643 3.51662L16.1519 3.19745L15.1104 9.4465L17.0228 9.76438ZM15.834 0.883128H15.5575V2.82142H15.8327L15.834 0.883128ZM11.5245 3.04109L8.27465 7.91654L9.88731 8.99165L13.1372 4.1162L11.5245 3.04109ZM6.93077 8.63629H1.85245V10.5746H6.93077V8.63629ZM0.883301 9.60544V19.943H2.82159V9.60544H0.883301ZM22.6012 20.6408L24.1518 12.8876L22.2523 12.5064L20.7017 20.2596L22.6012 20.6408ZM8.27465 7.91654C8.12721 8.13787 7.9274 8.31808 7.69296 8.44364C7.45853 8.5692 7.19671 8.63493 6.93077 8.635V10.5733C8.11959 10.5733 9.22829 9.98017 9.88731 8.99165L8.27465 7.91654ZM18.0643 3.51662C18.1182 3.19276 18.1008 2.85976 18.0135 2.54327C17.9263 2.22677 17.7711 1.93308 17.5589 1.6826C17.3466 1.43211 17.0824 1.23085 16.7845 1.09279C16.4867 0.95473 16.1623 0.883185 15.834 0.883128L15.8327 2.82142C15.8795 2.82153 15.9271 2.83183 15.9695 2.8516C16.012 2.87137 16.0497 2.90014 16.0799 2.93591C16.1101 2.97168 16.1322 3.0136 16.1447 3.05876C16.1571 3.10392 16.1595 3.15124 16.1519 3.19745L18.0643 3.51662ZM20.6668 10.5733C21.6876 10.5733 22.45 11.5063 22.251 12.5051L24.1518 12.8863C24.2547 12.3709 24.2419 11.8377 24.1144 11.3278C23.9869 10.8179 23.7478 10.3426 23.4145 9.93618C23.0811 9.52979 22.6618 9.2024 22.1866 8.97762C21.7115 8.75284 21.1924 8.63627 20.6668 8.63629V10.5733ZM19.1162 23.4965C19.9376 23.4967 20.7338 23.211 21.3691 22.6903C22.0045 22.1696 22.4399 21.4449 22.6012 20.6395L20.7017 20.2583C20.6284 20.6248 20.4304 20.9545 20.1413 21.1913C19.8522 21.4281 19.4899 21.5586 19.1162 21.5582V23.4965ZM15.5575 0.883128C14.7597 0.883186 13.9744 1.07889 13.2711 1.45534C12.5678 1.83179 11.9683 2.37604 11.5258 3.0398L13.1372 4.1162C13.4028 3.71776 13.7627 3.3898 14.1849 3.16392C14.6071 2.93804 15.0786 2.82124 15.5575 2.82142V0.883128ZM4.43683 21.5582C3.54522 21.5582 2.82159 20.8346 2.82159 19.943H0.883301C0.883301 20.8854 1.25769 21.7893 1.92411 22.4557C2.59052 23.1221 3.49438 23.4965 4.43683 23.4965V21.5582Z" fill="white"/>
<path d="M7.021 9.60547V22.5274" stroke="white" stroke-width="1.5"/>
</svg>
