<svg width="27" height="28" viewBox="0 0 27 28" fill="none" xmlns="http://www.w3.org/2000/svg">
<path fill-rule="evenodd" clip-rule="evenodd" d="M12.3266 1.93262H14.6736C16.7162 1.93262 18.3342 1.93262 19.5999 2.10264C20.9024 2.27823 21.957 2.64717 22.7893 3.47842C23.6206 4.31077 23.9895 5.36538 24.1651 6.66781C24.3351 7.93468 24.3351 9.5516 24.3351 11.5941V16.1638C24.3351 18.2063 24.3351 19.8243 24.1651 21.0901C23.9895 22.3925 23.6206 23.4471 22.7893 24.2795C21.957 25.1107 20.9024 25.4797 19.5999 25.6553C18.3331 25.8253 16.7162 25.8253 14.6736 25.8253H12.3266C10.284 25.8253 8.66599 25.8253 7.40023 25.6553C6.0978 25.4797 5.04319 25.1107 4.21084 24.2795C3.3796 23.4471 3.01065 22.3925 2.83507 21.0901C2.66504 19.8232 2.66504 18.2063 2.66504 16.1638V11.5941C2.66504 9.5516 2.66504 7.93357 2.83507 6.66781C3.01065 5.36538 3.3796 4.31077 4.21084 3.47842C5.04319 2.64717 6.0978 2.27823 7.40023 2.10264C8.6671 1.93262 10.284 1.93262 12.3266 1.93262ZM7.62138 3.75513C6.50342 3.90515 5.85888 4.18742 5.38769 4.65749C4.91873 5.12757 4.63646 5.77211 4.48644 6.89007C4.33308 8.03247 4.33086 9.53715 4.33086 11.6564V16.1015C4.33086 18.2208 4.33308 19.7265 4.48644 20.8689C4.63646 21.9858 4.91873 22.6303 5.3888 23.1004C5.85888 23.5705 6.50342 23.8528 7.62138 24.0028C8.76378 24.1561 10.2685 24.1584 12.3877 24.1584H14.6103C16.7295 24.1584 18.2353 24.1561 19.3777 24.0028C20.4945 23.8528 21.1391 23.5705 21.6091 23.1004C22.0792 22.6303 22.3615 21.9858 22.5115 20.8678C22.6649 19.7265 22.6671 18.2208 22.6671 16.1015V11.6564C22.6671 9.53715 22.6649 8.03247 22.5115 6.88896C22.3615 5.77211 22.0792 5.12757 21.6091 4.65749C21.1391 4.18742 20.4945 3.90515 19.3766 3.75513C18.2353 3.60177 16.7295 3.59955 14.6103 3.59955H12.3877C10.2685 3.59955 8.76489 3.60177 7.62138 3.75513ZM8.22147 11.6564C8.22147 11.4353 8.30929 11.2233 8.46559 11.067C8.6219 10.9107 8.83389 10.8229 9.05494 10.8229H17.9452C18.1663 10.8229 18.3783 10.9107 18.5346 11.067C18.6909 11.2233 18.7787 11.4353 18.7787 11.6564C18.7787 11.8774 18.6909 12.0894 18.5346 12.2457C18.3783 12.402 18.1663 12.4898 17.9452 12.4898H9.05494C8.83389 12.4898 8.6219 12.402 8.46559 12.2457C8.30929 12.0894 8.22147 11.8774 8.22147 11.6564ZM8.22147 16.1015C8.22147 15.8805 8.30929 15.6685 8.46559 15.5122C8.6219 15.3559 8.83389 15.2681 9.05494 15.2681H14.6114C14.8324 15.2681 15.0444 15.3559 15.2007 15.5122C15.357 15.6685 15.4448 15.8805 15.4448 16.1015C15.4448 16.3226 15.357 16.5346 15.2007 16.6909C15.0444 16.8472 14.8324 16.935 14.6114 16.935H9.05494C8.83389 16.935 8.6219 16.8472 8.46559 16.6909C8.30929 16.5346 8.22147 16.3226 8.22147 16.1015Z" fill="white"/>
</svg>
