<svg width="12" height="12" viewBox="0 0 12 12" fill="none" xmlns="http://www.w3.org/2000/svg">
<path d="M1.5 5C1.5 3.1145 1.5 2.1715 2.086 1.586C2.6715 1 3.6145 1 5.5 1H6.5C8.3855 1 9.3285 1 9.914 1.586C10.5 2.1715 10.5 3.1145 10.5 5V7C10.5 8.8855 10.5 9.8285 9.914 10.414C9.3285 11 8.3855 11 6.5 11H5.5C3.6145 11 2.6715 11 2.086 10.414C1.5 9.8285 1.5 8.8855 1.5 7V5Z" stroke="#2176FF" stroke-width="0.75"/>
<path d="M3.99951 5H7.99951M3.99951 7H6.49951" stroke="#2176FF" stroke-width="0.75" stroke-linecap="round"/>
</svg>
