<svg width="27" height="27" viewBox="0 0 27 27" fill="none" xmlns="http://www.w3.org/2000/svg">
<g clip-path="url(#clip0_1406_1524)">
<path d="M6.61538 13.0006V8.14543C6.6298 7.19108 6.8324 6.24895 7.21158 5.37302C7.59075 4.49709 8.13905 3.70459 8.82504 3.04092C9.51104 2.37725 10.3213 1.85546 11.2093 1.50544C12.0973 1.15542 13.0456 0.984056 14 1.00117C14.9544 0.984056 15.9027 1.15542 16.7907 1.50544C17.6787 1.85546 18.489 2.37725 19.175 3.04092C19.861 3.70459 20.4092 4.49709 20.7884 5.37302C21.1676 6.24895 21.3702 7.19108 21.3846 8.14543V13.0006M17.6923 22.6924C18.6716 22.6924 19.6107 22.3034 20.3032 21.611C20.9956 20.9186 21.3846 19.9795 21.3846 19.0003V14.8466M17.6923 22.6924C17.6923 23.3044 17.4492 23.8914 17.0164 24.3241C16.5836 24.7569 15.9967 25 15.3846 25H12.6154C12.0033 25 11.4164 24.7569 10.9836 24.3241C10.5508 23.8914 10.3077 23.3044 10.3077 22.6924C10.3077 22.0804 10.5508 21.4935 10.9836 21.0607C11.4164 20.628 12.0033 20.3848 12.6154 20.3848H15.3846C15.9967 20.3848 16.5836 20.628 17.0164 21.0607C17.4492 21.4935 17.6923 22.0804 17.6923 22.6924ZM3.84615 10.2315H5.69231C5.93712 10.2315 6.17191 10.3287 6.34502 10.5018C6.51813 10.6749 6.61538 10.9097 6.61538 11.1545V16.6927C6.61538 16.9375 6.51813 17.1723 6.34502 17.3454C6.17191 17.5185 5.93712 17.6157 5.69231 17.6157H3.84615C3.35652 17.6157 2.88695 17.4212 2.54073 17.075C2.1945 16.7288 2 16.2593 2 15.7697V12.0776C2 11.5879 2.1945 11.1184 2.54073 10.7722C2.88695 10.426 3.35652 10.2315 3.84615 10.2315ZM24.1538 17.6157H22.3077C22.0629 17.6157 21.8281 17.5185 21.655 17.3454C21.4819 17.1723 21.3846 16.9375 21.3846 16.6927V11.1545C21.3846 10.9097 21.4819 10.6749 21.655 10.5018C21.8281 10.3287 22.0629 10.2315 22.3077 10.2315H24.1538C24.6435 10.2315 25.1131 10.426 25.4593 10.7722C25.8055 11.1184 26 11.5879 26 12.0776V15.7697C26 16.2593 25.8055 16.7288 25.4593 17.075C25.1131 17.4212 24.6435 17.6157 24.1538 17.6157Z" stroke="white" stroke-width="2.2794" stroke-linecap="round" stroke-linejoin="round"/>
</g>
<defs>
<clipPath id="clip0_1406_1524">
<rect width="25.4304" height="25.4304" fill="white" transform="translate(0.784668 0.785156)"/>
</clipPath>
</defs>
</svg>
