<svg width="120" height="41" viewBox="0 0 120 41" fill="none" xmlns="http://www.w3.org/2000/svg">
<g clip-path="url(#clip0_1117_1002)">
<path d="M37.839 38.3079C37.7911 38.2028 37.7564 38.0256 37.7354 37.7767C37.4536 38.1908 37.0936 38.3979 36.6557 38.3979C36.2149 38.3979 35.8699 38.2748 35.6209 38.0286C35.3749 37.7797 35.252 37.4299 35.252 36.9797C35.252 36.4843 35.42 36.0912 35.7559 35.8C36.0919 35.5089 36.5522 35.3604 37.1371 35.3544H37.722V34.8366C37.722 34.5453 37.6575 34.3383 37.5285 34.2152C37.3995 34.0921 37.2032 34.0306 36.9392 34.0306C36.6992 34.0306 36.5043 34.1025 36.3543 34.2466C36.2042 34.3878 36.1293 34.5678 36.1293 34.7871H35.3329C35.3329 34.5379 35.4064 34.3008 35.5534 34.0757C35.7005 33.8475 35.8984 33.6689 36.1473 33.5398C36.3963 33.4107 36.6738 33.3462 36.9796 33.3462C37.4776 33.3462 37.8554 33.4707 38.1134 33.7198C38.3744 33.966 38.5078 34.3262 38.5138 34.8005V37.2589C38.5168 37.634 38.5679 37.9597 38.6669 38.2359V38.3079H37.839ZM36.7771 37.673C36.9722 37.673 37.1581 37.6189 37.335 37.5109C37.5121 37.4028 37.6411 37.2679 37.722 37.1058V35.9441H37.2721C36.8941 35.9501 36.5956 36.0357 36.3767 36.2007C36.1578 36.3629 36.0484 36.591 36.0484 36.885C36.0484 37.1613 36.1039 37.3623 36.2148 37.4884C36.3258 37.6115 36.5133 37.673 36.7771 37.673ZM39.6768 35.6514C39.6768 34.9011 39.8162 34.3292 40.0953 33.9359C40.3771 33.5428 40.7805 33.3462 41.3056 33.3462C41.7705 33.3462 42.1334 33.5352 42.3942 33.9135V31.3922H43.1907V38.3079H42.4617L42.4213 37.7857C42.1603 38.1938 41.7869 38.3979 41.3009 38.3979C40.7972 38.3979 40.4011 38.2028 40.1133 37.8126C39.8283 37.4195 39.6828 36.8656 39.6768 36.1512V35.6514ZM40.4733 36.1063C40.4733 36.6525 40.5542 37.0546 40.716 37.3128C40.8781 37.568 41.1421 37.6955 41.5081 37.6955C41.9039 37.6955 42.1993 37.496 42.3942 37.0967V34.6383C42.1903 34.2482 41.8965 34.053 41.5125 34.053C41.1465 34.053 40.8825 34.1821 40.7206 34.4403C40.5586 34.6955 40.4761 35.0886 40.4733 35.62V36.1063ZM45.8879 37.0967L46.8101 33.4362H47.62L46.1757 38.3079H45.5818L44.1197 33.4362H44.9296L45.8879 37.0967ZM50.2182 38.3979C49.6122 38.3979 49.1473 38.2179 48.8234 37.8577C48.4995 37.4944 48.3345 36.9632 48.3285 36.2638V35.6739C48.3285 34.9476 48.4861 34.3787 48.801 33.9676C49.1189 33.5533 49.5614 33.3462 50.1282 33.3462C50.6981 33.3462 51.124 33.5278 51.406 33.891C51.6879 34.2543 51.8319 34.82 51.8379 35.5885V36.1107H49.1205V36.2233C49.1205 36.7455 49.2178 37.1252 49.4129 37.3623C49.6108 37.5995 49.8943 37.7181 50.2633 37.7181C50.4972 37.7181 50.7025 37.6744 50.8796 37.5874C51.0595 37.4974 51.2276 37.3563 51.3834 37.1643L51.7974 37.6686C51.4525 38.1547 50.9261 38.3979 50.2182 38.3979ZM50.1282 34.0306C49.7983 34.0306 49.5538 34.1446 49.3949 34.3727C49.2359 34.5978 49.1459 34.949 49.1249 35.4263H51.0415V35.3183C51.0206 34.856 50.9365 34.5259 50.7897 34.3278C50.6457 34.1296 50.4251 34.0306 50.1282 34.0306ZM54.8995 34.1837C54.7885 34.1627 54.6685 34.1522 54.5395 34.1522C54.1317 34.1522 53.8466 34.3757 53.6848 34.823V38.3079H52.8883V33.4362H53.6621L53.6758 33.9315C53.8887 33.5412 54.1902 33.3462 54.58 33.3462C54.706 33.3462 54.8109 33.3672 54.8951 33.4091L54.8995 34.1837ZM57.0568 32.2565V33.4362H57.7901V34.0801H57.0568V37.1011C57.0568 37.2934 57.0883 37.4389 57.1511 37.5379C57.2142 37.637 57.3222 37.6865 57.4753 37.6865C57.5802 37.6865 57.6866 37.6686 57.7945 37.6325L57.7855 38.3079C57.6057 38.3678 57.4212 38.3979 57.2323 38.3979C56.9172 38.3979 56.6774 38.2854 56.5124 38.0603C56.3473 37.8352 56.265 37.5169 56.265 37.1058V34.0801H55.5226V33.4362H56.265V32.2565H57.0568ZM59.6909 38.3079H58.8947V33.4362H59.6909V38.3079ZM59.754 32.1441C59.754 32.2792 59.7163 32.3916 59.6414 32.4818C59.5665 32.5718 59.4525 32.6167 59.2995 32.6167C59.1495 32.6167 59.0371 32.5718 58.9622 32.4818C58.887 32.3916 58.8496 32.2792 58.8496 32.1441C58.8496 32.009 58.887 31.8949 58.9622 31.8019C59.0371 31.7089 59.1495 31.6624 59.2995 31.6624C59.4495 31.6624 59.5619 31.7103 59.637 31.8063C59.7149 31.8995 59.754 32.012 59.754 32.1441ZM63.4049 37.0606C63.4049 36.8897 63.3404 36.7425 63.2114 36.6194C63.0826 36.4964 62.8336 36.3522 62.4646 36.1873C62.0357 36.0101 61.7327 35.8585 61.5558 35.7324C61.3817 35.6063 61.2513 35.4638 61.1644 35.3049C61.0772 35.1427 61.0338 34.9506 61.0338 34.7285C61.0338 34.3322 61.1778 34.0035 61.4658 33.7425C61.7567 33.4783 62.1271 33.3462 62.577 33.3462C63.0509 33.3462 63.4319 33.4843 63.7198 33.7603C64.0078 34.0366 64.1518 34.3908 64.1518 34.823H63.36C63.36 34.6039 63.2865 34.4178 63.1394 34.2647C62.9924 34.1085 62.8049 34.0306 62.577 34.0306C62.343 34.0306 62.1587 34.0921 62.0237 34.2152C61.8917 34.3352 61.8256 34.4974 61.8256 34.7015C61.8256 34.8634 61.8737 34.9941 61.9696 35.0932C62.0686 35.1922 62.3041 35.3227 62.6761 35.4849C63.2668 35.716 63.6689 35.9427 63.8818 36.1648C64.0947 36.3839 64.2013 36.6629 64.2013 37.0021C64.2013 37.4255 64.0559 37.7646 63.7648 38.0196C63.474 38.2718 63.084 38.3979 62.595 38.3979C62.0882 38.3979 61.6772 38.2524 61.3623 37.9613C61.0474 37.67 60.89 37.3008 60.89 36.8536H61.6908C61.6998 37.1238 61.7821 37.3353 61.9382 37.4884C62.0942 37.6416 62.3132 37.7181 62.595 37.7181C62.859 37.7181 63.0599 37.6596 63.1979 37.5425C63.336 37.4225 63.4049 37.2619 63.4049 37.0606ZM66.192 38.3079H65.3958V33.4362H66.192V38.3079ZM66.2551 32.1441C66.2551 32.2792 66.2176 32.3916 66.1425 32.4818C66.0676 32.5718 65.9536 32.6167 65.8006 32.6167C65.6507 32.6167 65.5382 32.5718 65.4633 32.4818C65.3881 32.3916 65.3507 32.2792 65.3507 32.1441C65.3507 32.009 65.3881 31.8949 65.4633 31.8019C65.5382 31.7089 65.6507 31.6624 65.8006 31.6624C65.9506 31.6624 66.063 31.7103 66.1381 31.8063C66.216 31.8995 66.2551 32.012 66.2551 32.1441ZM68.2908 33.4362L68.3133 33.963C68.6224 33.5519 69.0168 33.3462 69.4965 33.3462C70.3575 33.3462 70.7939 33.9211 70.806 35.0707V38.3079H70.0139V35.1066C70.0139 34.7255 69.9496 34.4553 69.8206 34.2962C69.6946 34.1342 69.5041 34.053 69.2491 34.053C69.0512 34.053 68.8727 34.1192 68.7137 34.2513C68.5579 34.3834 68.4319 34.5559 68.3359 34.769V38.3079H67.5395V33.4362H68.2908ZM71.9373 35.6514C71.9373 34.8921 72.0753 34.3188 72.3512 33.9315C72.6272 33.5412 73.0306 33.3462 73.5614 33.3462C74.0564 33.3462 74.4328 33.5579 74.6908 33.981L74.7312 33.4362H75.4512V38.353C75.4512 38.9562 75.2967 39.4184 74.9878 39.7397C74.6788 40.0639 74.2483 40.2258 73.6964 40.2258C73.4565 40.2258 73.1866 40.1659 72.8866 40.0458C72.5897 39.9288 72.3662 39.7832 72.2163 39.609L72.5402 39.0598C72.8702 39.3839 73.2345 39.5461 73.6335 39.5461C74.2964 39.5461 74.6369 39.1843 74.6547 38.461V37.8262C74.3969 38.2073 74.031 38.3979 73.557 38.3979C73.053 38.3979 72.6602 38.2089 72.3782 37.8306C72.0964 37.4493 71.9493 36.9031 71.9373 36.1917V35.6514ZM72.7337 36.1063C72.7337 36.6525 72.8131 37.0546 72.9721 37.3128C73.1342 37.568 73.398 37.6955 73.7639 37.6955C74.16 37.6955 74.4568 37.493 74.6547 37.0877V34.652C74.4478 34.2527 74.1539 34.053 73.773 34.053C73.407 34.053 73.1432 34.1821 72.9811 34.4403C72.8191 34.6955 72.7367 35.0886 72.7337 35.62V36.1063ZM79.9816 32.2565V33.4362H80.7149V34.0801H79.9816V37.1011C79.9816 37.2934 80.0132 37.4389 80.0761 37.5379C80.139 37.637 80.2472 37.6865 80.4 37.6865C80.505 37.6865 80.6116 37.6686 80.7195 37.6325L80.7105 38.3079C80.5306 38.3678 80.3462 38.3979 80.1571 38.3979C79.8422 38.3979 79.6022 38.2854 79.4374 38.0603C79.2723 37.8352 79.1898 37.5169 79.1898 37.1058V34.0801H78.4474V33.4362H79.1898V32.2565H79.9816ZM83.4977 38.3979C82.8917 38.3979 82.4268 38.2179 82.1029 37.8577C81.779 37.4944 81.6139 36.9632 81.6079 36.2638V35.6739C81.6079 34.9476 81.7656 34.3787 82.0805 33.9676C82.3983 33.5533 82.8408 33.3462 83.4077 33.3462C83.9776 33.3462 84.4035 33.5278 84.6855 33.891C84.9673 34.2543 85.1114 34.82 85.1174 35.5885V36.1107H82.3999V36.2233C82.3999 36.7455 82.4973 37.1252 82.6924 37.3623C82.8903 37.5995 83.1738 37.7181 83.5427 37.7181C83.7767 37.7181 83.982 37.6744 84.1591 37.5874C84.339 37.4974 84.507 37.3563 84.6629 37.1643L85.0769 37.6686C84.732 38.1547 84.2056 38.3979 83.4977 38.3979ZM83.4077 34.0306C83.0778 34.0306 82.8332 34.1446 82.6744 34.3727C82.5153 34.5978 82.4254 34.949 82.4044 35.4263H84.3209V35.3183C84.3001 34.856 84.216 34.5259 84.0691 34.3278C83.9251 34.1296 83.7046 34.0306 83.4077 34.0306ZM87.8596 37.7181C88.1234 37.7181 88.335 37.637 88.494 37.475C88.6529 37.3098 88.7398 37.0757 88.7548 36.7726H89.5062C89.4882 37.2409 89.3217 37.6295 89.0068 37.9386C88.6949 38.2449 88.3125 38.3979 87.8596 38.3979C87.2567 38.3979 86.7962 38.2089 86.4783 37.8306C86.1634 37.4493 86.0059 36.8836 86.0059 36.1331V35.5975C86.0059 34.862 86.1634 34.3038 86.4783 33.9225C86.7932 33.5382 87.2521 33.3462 87.855 33.3462C88.353 33.3462 88.7474 33.5038 89.0383 33.8189C89.3323 34.1342 89.4882 34.5648 89.5062 35.1112H88.7548C88.7368 34.751 88.6498 34.4808 88.494 34.3008C88.341 34.1206 88.128 34.0306 87.855 34.0306C87.5011 34.0306 87.2387 34.1476 87.0676 34.3818C86.8967 34.6129 86.8082 34.9941 86.8022 35.5254V36.1468C86.8022 36.7201 86.8861 37.1252 87.0542 37.3623C87.2252 37.5995 87.4937 37.7181 87.8596 37.7181ZM91.3126 33.9359C91.6155 33.5428 92.0025 33.3462 92.4734 33.3462C93.3341 33.3462 93.7706 33.9211 93.7826 35.0707V38.3079H92.9908V35.1066C92.9908 34.7255 92.9263 34.4553 92.7973 34.2962C92.6713 34.1342 92.4808 34.053 92.2258 34.053C92.0279 34.053 91.8494 34.1192 91.6906 34.2513C91.5345 34.3834 91.4085 34.5559 91.3126 34.769V38.3079H90.5161V31.3922H91.3126V33.9359ZM95.814 33.4362L95.8364 33.963C96.1453 33.5519 96.5397 33.3462 97.0196 33.3462C97.8806 33.3462 98.3169 33.9211 98.3289 35.0707V38.3079H97.5371V35.1066C97.5371 34.7255 97.4725 34.4553 97.3436 34.2962C97.2176 34.1342 97.0273 34.053 96.7723 34.053C96.5742 34.053 96.3957 34.1192 96.2368 34.2513C96.0808 34.3834 95.9548 34.5559 95.8588 34.769V38.3079H95.0626V33.4362H95.814ZM99.4514 35.647C99.4514 34.9386 99.6223 34.3787 99.9642 33.9676C100.309 33.5533 100.764 33.3462 101.328 33.3462C101.891 33.3462 102.344 33.5473 102.686 33.9496C103.031 34.3517 103.208 34.8995 103.217 35.5929V36.1063C103.217 36.8115 103.046 37.37 102.704 37.7811C102.362 38.1924 101.906 38.3979 101.337 38.3979C100.773 38.3979 100.32 38.1982 99.9778 37.7991C99.6389 37.3998 99.4634 36.8596 99.4514 36.1782V35.647ZM100.248 36.1063C100.248 36.6074 100.345 37.0021 100.54 37.2904C100.738 37.5754 101.004 37.7181 101.337 37.7181C102.038 37.7181 102.4 37.2108 102.421 36.1963V35.647C102.421 35.1487 102.322 34.7554 102.124 34.4673C101.926 34.1761 101.66 34.0306 101.328 34.0306C101.001 34.0306 100.738 34.1761 100.54 34.4673C100.345 34.7554 100.248 35.1471 100.248 35.6424V36.1063ZM105.195 38.3079H104.398V31.3922H105.195V38.3079ZM106.375 35.647C106.375 34.9386 106.546 34.3787 106.888 33.9676C107.233 33.5533 107.688 33.3462 108.251 33.3462C108.816 33.3462 109.268 33.5473 109.61 33.9496C109.955 34.3517 110.132 34.8995 110.141 35.5929V36.1063C110.141 36.8115 109.97 37.37 109.628 37.7811C109.286 38.1924 108.83 38.3979 108.26 38.3979C107.697 38.3979 107.244 38.1982 106.902 37.7991C106.563 37.3998 106.387 36.8596 106.375 36.1782V35.647ZM107.172 36.1063C107.172 36.6074 107.269 37.0021 107.464 37.2904C107.662 37.5754 107.928 37.7181 108.26 37.7181C108.962 37.7181 109.324 37.2108 109.345 36.1963V35.647C109.345 35.1487 109.246 34.7554 109.048 34.4673C108.85 34.1761 108.585 34.0306 108.251 34.0306C107.925 34.0306 107.662 34.1761 107.464 34.4673C107.269 34.7554 107.172 35.1471 107.172 35.6424V36.1063ZM111.102 35.6514C111.102 34.8921 111.24 34.3188 111.516 33.9315C111.792 33.5412 112.195 33.3462 112.726 33.3462C113.221 33.3462 113.597 33.5579 113.855 33.981L113.896 33.4362H114.616V38.353C114.616 38.9562 114.461 39.4184 114.152 39.7397C113.843 40.0639 113.413 40.2258 112.861 40.2258C112.621 40.2258 112.351 40.1659 112.051 40.0458C111.754 39.9288 111.531 39.7832 111.381 39.609L111.705 39.0598C112.035 39.3839 112.399 39.5461 112.798 39.5461C113.461 39.5461 113.801 39.1843 113.819 38.461V37.8262C113.561 38.2073 113.195 38.3979 112.721 38.3979C112.217 38.3979 111.825 38.2089 111.543 37.8306C111.261 37.4493 111.114 36.9031 111.102 36.1917V35.6514ZM111.898 36.1063C111.898 36.6525 111.977 37.0546 112.137 37.3128C112.299 37.568 112.562 37.6955 112.928 37.6955C113.324 37.6955 113.621 37.493 113.819 37.0877V34.652C113.612 34.2527 113.318 34.053 112.937 34.053C112.571 34.053 112.308 34.1821 112.146 34.4403C111.983 34.6955 111.901 35.0886 111.898 35.62V36.1063ZM117.227 36.9841L118.114 33.4362H118.96L117.367 38.9969C117.247 39.414 117.077 39.7307 116.858 39.9468C116.639 40.1659 116.39 40.2754 116.111 40.2754C116.004 40.2754 115.866 40.2515 115.697 40.2034V39.5281L115.873 39.5461C116.104 39.5461 116.284 39.4906 116.413 39.3795C116.545 39.2715 116.651 39.0822 116.732 38.8122L116.89 38.2674L115.459 33.4362H116.327L117.227 36.9841Z" fill="white"/>
<path d="M43.9561 22.4395H39.6494L38.8081 25.6468H35.4629L40.3505 9.97125H43.235L48.1626 25.6468H44.7774L43.9561 22.4395ZM40.3304 19.8136H43.255L41.7927 14.2209L40.3304 19.8136Z" fill="white"/>
<path d="M49.3447 19.4729C49.3447 17.5686 49.6652 16.1453 50.3062 15.2032C50.9472 14.261 51.8887 13.8 53.1306 13.8C54.032 13.8 54.7732 14.1809 55.3741 14.9626V9.10931H58.4388V25.6469H55.6746L55.5343 24.4642C54.9134 25.4063 54.1121 25.8674 53.1306 25.8674C51.9087 25.8674 50.9873 25.4063 50.3463 24.4642C49.7053 23.522 49.3848 22.1589 49.3648 20.3548V19.4729H49.3447ZM52.4095 20.2345C52.4095 21.3771 52.5297 22.179 52.77 22.64C53.0104 23.1011 53.4311 23.3216 54.012 23.3216C54.6129 23.3216 55.0736 23.061 55.3741 22.5197V17.2077C55.0736 16.6264 54.6129 16.3458 54.012 16.3458C53.4511 16.3458 53.0505 16.5663 52.7901 17.0273C52.5297 17.4884 52.4095 18.2902 52.4095 19.4328V20.2345Z" fill="white"/>
<path d="M64.7483 21.3371L66.2306 14.0004H69.3955L66.1905 25.6469H63.286L60.0811 14.0004H63.266L64.7483 21.3371Z" fill="white"/>
<path d="M69.5557 24.1033C69.5557 23.6222 69.7159 23.2213 70.0364 22.9006C70.3569 22.5799 70.7976 22.4195 71.3184 22.4195C71.8192 22.4195 72.2599 22.5799 72.5804 22.8805C72.9209 23.2013 73.0811 23.6022 73.0811 24.0833C73.0811 24.5844 72.9009 24.9853 72.5603 25.286C72.2198 25.5867 71.7991 25.7471 71.2984 25.7471C70.7976 25.7471 70.3769 25.5867 70.0364 25.286C69.7159 25.0054 69.5557 24.6045 69.5557 24.1033Z" fill="white"/>
<path d="M86.7421 20.435C86.662 22.2191 86.1612 23.5822 85.2398 24.4842C84.3184 25.4063 83.0164 25.8674 81.3137 25.8674C79.551 25.8674 78.1889 25.286 77.2474 24.1234C76.3059 22.9607 75.8252 21.297 75.8252 19.1321V16.4861C75.8252 14.3412 76.3059 12.6774 77.2875 11.5148C78.269 10.3521 79.6111 9.77081 81.3538 9.77081C83.0564 9.77081 84.3584 10.2519 85.2398 11.1941C86.1212 12.1562 86.622 13.5193 86.7421 15.3034H83.5973C83.5772 14.2009 83.3969 13.4392 83.0764 13.0182C82.756 12.5972 82.1951 12.3968 81.3538 12.3968C80.5125 12.3968 79.9115 12.6975 79.551 13.2788C79.1904 13.8802 79.0101 14.8424 78.9901 16.2055V19.1722C78.9901 20.7357 79.1704 21.7981 79.5109 22.3794C79.8514 22.9607 80.4524 23.2614 81.2937 23.2614C82.135 23.2614 82.6959 23.061 83.0164 22.6601C83.3369 22.2591 83.5171 21.5175 83.5572 20.455L86.7421 20.435Z" fill="white"/>
<path d="M94.334 25.6468C94.2538 25.4664 94.1537 25.1657 94.0736 24.7448C93.5327 25.4865 92.7916 25.8673 91.8501 25.8673C90.8686 25.8673 90.0673 25.5466 89.4263 24.9051C88.7853 24.2637 88.4648 23.4218 88.4648 22.3994C88.4648 21.1767 88.8454 20.2345 89.6267 19.5731C90.4079 18.9116 91.5296 18.5708 92.9919 18.5508H93.9133V17.6086C93.9133 17.0874 93.8332 16.7066 93.6529 16.5061C93.4726 16.2856 93.2122 16.1854 92.8717 16.1854C92.1105 16.1854 91.7299 16.6264 91.7299 17.5284H88.6852C88.6852 16.446 89.0858 15.564 89.8871 14.8624C90.6883 14.1608 91.7099 13.82 92.9518 13.82C94.2338 13.82 95.2153 14.1608 95.9164 14.8223C96.6175 15.4838 96.958 16.4259 96.958 17.6688V23.1411C96.9781 24.1434 97.1183 24.9252 97.3787 25.5065V25.6869H94.334V25.6468ZM92.5512 23.4819C92.8917 23.4819 93.1722 23.4218 93.4125 23.2815C93.6529 23.1411 93.8332 22.9808 93.9333 22.8004V20.3548H93.1922C92.6714 20.3548 92.2708 20.5152 91.9703 20.8559C91.6698 21.1767 91.5296 21.6177 91.5296 22.1789C91.5296 23.0409 91.8701 23.4819 92.5512 23.4819Z" fill="white"/>
<path d="M103.308 21.1566L102.487 22.0787V25.6469H99.4424V9.10931H102.487V18.0497L102.868 17.4884L104.971 14.0004H108.597L105.211 18.8114L108.917 25.6669H105.432L103.308 21.1566Z" fill="white"/>
<path d="M114.746 25.8673C113.183 25.8673 111.961 25.4063 111.08 24.4641C110.199 23.522 109.758 22.199 109.758 20.455V19.533C109.758 17.6888 110.158 16.2856 110.96 15.2833C111.761 14.281 112.923 13.7799 114.405 13.7799C115.867 13.7799 116.969 14.241 117.71 15.1831C118.451 16.1252 118.832 17.5084 118.832 19.3325V20.8359H112.783C112.823 21.6978 113.023 22.3393 113.343 22.7402C113.684 23.1411 114.205 23.3416 114.906 23.3416C115.927 23.3416 116.769 23.0008 117.45 22.2992L118.652 24.1434C118.271 24.6646 117.73 25.0856 117.029 25.4063C116.348 25.707 115.567 25.8673 114.746 25.8673ZM112.823 18.7111H115.867V18.4305C115.847 17.7289 115.747 17.2077 115.527 16.8469C115.306 16.4861 114.946 16.3057 114.405 16.3057C113.864 16.3057 113.484 16.4861 113.243 16.8669C113.003 17.2678 112.863 17.8692 112.823 18.7111Z" fill="white"/>
<path d="M25.5874 31.1193L25.4472 32.0815C25.4472 32.0815 23.0835 35.9303 14.2498 35.9303H14.1496C5.15566 35.9303 2.95224 32.0815 2.95224 32.0815L2.79199 31.0393C2.79199 31.0393 2.79199 30.8589 2.89215 30.9992C3.51311 31.8612 6.23734 34.848 14.1496 34.848C14.1697 34.848 14.1697 34.848 14.1897 34.848H14.2297C14.2498 34.848 14.2498 34.848 14.2698 34.848C21.9818 34.868 24.7661 32.0214 25.4872 31.0792C25.5874 30.8788 25.5874 31.1193 25.5874 31.1193Z" fill="white"/>
<path d="M25.367 34.1264L25.0465 36.1109C25.0465 36.1109 22.783 40.3405 14.1697 40.3605H13.9894C5.376 40.3204 3.11249 36.1109 3.11249 36.1109L2.79199 34.1264C2.79199 34.1264 2.87212 33.7856 3.15255 34.0863C4.17414 35.2489 7.13874 37.4539 14.0094 37.474H14.1897C21.0604 37.4539 24.0049 35.2489 25.0265 34.0863C25.2869 33.7856 25.367 34.1264 25.367 34.1264Z" fill="white"/>
<path d="M26.3084 26.589L25.9679 28.7138C25.9679 28.7138 23.5441 33.2241 14.3298 33.2642H14.1095C4.89515 33.2241 2.47139 28.7138 2.47139 28.7138L2.13086 26.589C2.13086 26.589 2.23101 26.2282 2.51145 26.5489C3.61316 27.7918 6.75804 30.1571 14.0894 30.1571H14.3098C21.6411 30.1371 24.8061 27.7918 25.8877 26.5489C26.2082 26.2282 26.3084 26.589 26.3084 26.589Z" fill="white"/>
<path d="M20.72 27.1104C19.0174 27.5915 16.854 27.9322 14.1098 27.9322H13.9896C4.17436 27.9322 1.75059 23.7427 1.75059 23.7427L1.57031 22.6201C1.57031 22.6201 1.57031 22.3996 1.6905 22.5801C2.35153 23.5022 5.33616 26.7896 13.9896 26.7896C14.0096 26.7896 14.0096 26.7896 14.0297 26.7896H14.0697C14.0897 26.7896 14.0897 26.7896 14.1098 26.7896C16.3733 26.7896 18.3363 26.5691 19.8787 26.2284C19.8988 26.2284 20.019 26.4689 20.2393 26.6894C20.4396 26.8698 20.7401 27.0903 20.72 27.1104Z" fill="white"/>
<path d="M0.668945 15.2232C0.668945 15.2232 0.989443 18.4706 1.00947 19.072C1.02951 19.6733 1.45016 20.2746 2.05109 20.3949C2.85233 20.5352 3.4733 19.9339 4.11429 20.0742C4.9556 20.2746 5.09582 23.522 6.65824 23.6623C8.22067 23.8026 8.8216 21.4974 9.54272 21.5776C10.2839 21.6578 10.8848 23.081 12.1668 23.0409C13.4688 23.0008 13.9095 22.3193 14.3702 21.9184C14.9311 21.4373 15.7524 21.5575 16.0128 22.5999C16.2932 23.7024 16.5536 24.2637 17.1145 24.5042C17.8556 24.825 18.4165 24.4842 18.9573 24.0031C19.4781 23.5421 20.039 24.4241 20.3395 25.0054C20.5799 25.4664 21.3611 26.589 22.2625 26.4888C23.8049 26.3083 24.2055 24.3238 24.2856 23.4218C24.3657 22.5598 24.6061 21.5375 25.0468 21.5174C25.6077 21.4573 25.6077 23.1812 26.2887 22.9006C27.13 22.5598 27.6709 19.2323 27.7109 18.4706C27.731 17.9695 27.791 15.2433 27.791 15.2433L0.668945 15.2633V15.2232Z" fill="white"/>
<path d="M14.23 18.2902C6.73837 18.2902 0.668945 16.9271 0.668945 15.2433C0.668945 13.5594 6.73837 12.2164 14.23 12.2164C21.7216 12.2164 27.791 13.5594 27.791 15.2433C27.771 16.907 21.7016 18.2902 14.23 18.2902Z" fill="white"/>
<path d="M12.8276 15.1831C13.108 15.2834 13.5888 15.4437 14.1296 15.4437H14.1697C14.7105 15.4237 15.1712 15.3034 15.4116 15.2032C15.5318 14.1408 15.9524 10.2519 16.1527 8.42775C15.6319 8.78857 14.9509 9.08926 14.1697 9.20953C14.0495 9.22958 13.9293 9.22958 13.7891 9.22958C13.3684 9.22958 12.9678 9.14939 12.5872 9.08926C12.427 9.06921 12.2667 9.04917 12.1465 9.00907L12.8276 15.1831ZM14.1296 16.3658C13.128 16.3658 12.2467 15.9449 12.2066 15.9248L11.9863 15.8045L11.2451 8.76853V8.72844C11.2451 8.62821 11.3052 8.08698 12.0063 8.08698C12.2266 8.08698 12.467 8.12707 12.7675 8.1872C13.1881 8.26739 13.6889 8.32752 14.0695 8.28743C15.011 8.16716 15.7721 7.64597 16.1527 7.22502C16.3731 6.98447 16.8138 7.00451 17.0341 7.26511C17.1343 7.38538 17.1743 7.54575 17.1743 7.70611C17.0341 8.76853 16.313 15.4838 16.313 15.5439L16.293 15.8045L16.0726 15.9248C16.0326 15.9449 15.2313 16.3458 14.2097 16.3658H14.1296Z" fill="white"/>
<path d="M14.45 0.148938C14.1695 -0.512567 13.1279 1.55213 12.7073 2.55442C12.4669 3.11569 11.906 4.33848 12.2465 5.54121C12.4669 6.30294 13.0478 7.06468 14.2096 7.06468C15.5517 7.06468 16.3729 5.74167 16.2127 4.41866C16.0324 2.91524 14.5701 0.409531 14.45 0.148938Z" fill="white"/>
</g>
<defs>
<clipPath id="clip0_1117_1002">
<rect width="118.584" height="40.4921" fill="white" transform="translate(0.668945 0.020752)"/>
</clipPath>
</defs>
</svg>
