<svg width="192" height="44" viewBox="0 0 192 44" fill="none" xmlns="http://www.w3.org/2000/svg">
<path d="M17.9331 34.9695L16.2625 30.2854H6.10267L4.43209 34.9695H0.17041L8.83015 11.7148H13.535L22.1607 34.9695H17.9331ZM7.39822 26.6975H14.967L11.1826 16.1997L7.39822 26.6975ZM28.6478 31.3152H38.3644V34.9695H24.727V11.7148H28.6478V31.3152ZM55.4232 11.7148H59.3439V34.9695H55.4232V24.9036H45.1951V34.9695H41.2744V11.7148H45.1951V21.2493H55.4232V11.7148ZM68.035 31.3152H78.604V34.9695H64.1143V11.7148H78.4335V15.3692H68.035V21.4154H77.5812V25.0365H68.035V31.3152ZM96.5124 11.7148H100.433V34.9695H97.3647L86.1139 19.1896V34.9695H82.1932V11.7148H85.2616L96.5124 27.4948V11.7148ZM120.746 34.9695L119.076 30.2854H108.916L107.245 34.9695H102.984L111.643 11.7148H116.348L124.974 34.9695H120.746ZM110.211 26.6975H117.78L113.996 16.1997L110.211 26.6975Z" fill="#31393C"/>
<path d="M142.125 37.2364L144.435 30.8268C143.735 29.7246 143.165 28.5236 142.738 27.2527C142.091 25.3209 141.79 23.2655 141.853 21.2037C141.86 20.9451 141.874 20.6871 141.893 20.4297L135.837 37.2364H142.125Z" fill="#2176FF"/>
<path d="M130.797 5.81836H124.509L135.831 37.2365H142.12L130.797 5.81836Z" fill="#2176FF"/>
<path d="M143.654 15.5158C142.948 17.4217 142.584 19.4645 142.584 21.5274C142.584 23.5903 142.948 25.6332 143.654 27.539C144.361 29.4449 145.396 31.1767 146.701 32.6354C148.007 34.0942 149.556 35.2513 151.262 36.0407C152.967 36.8302 154.795 37.2365 156.641 37.2365V30.7177C155.561 30.7177 154.492 30.48 153.494 30.0181C152.496 29.5563 151.59 28.8794 150.826 28.026C150.062 27.1725 149.457 26.1595 149.043 25.0444C148.63 23.9294 148.417 22.7343 148.417 21.5274C148.417 20.3206 148.63 19.1255 149.043 18.0105C149.457 16.8954 150.062 15.8823 150.826 15.0289C151.59 14.1755 152.496 13.4986 153.494 13.0367C154.492 12.5749 155.561 12.3371 156.641 12.3371V5.81836C154.795 5.81836 152.967 6.22469 151.262 7.01414C149.556 7.8036 148.007 8.96071 146.701 10.4194C145.396 11.8782 144.361 13.6099 143.654 15.5158Z" fill="#2176FF"/>
<path d="M164.671 5.81836L156.641 5.81836V12.3371H164.671V5.81836Z" fill="#2176FF"/>
<path d="M156.641 30.7169L164.671 30.7168V37.2357H156.641V30.7169Z" fill="#2176FF"/>
</svg>
