<svg width="184" height="36" viewBox="0 0 184 36" fill="none" xmlns="http://www.w3.org/2000/svg">
<path d="M12.4 23V30.7C12.4 30.7 12.4 30.7 12.4 30.8C12.4 30.8 12.4 30.8 12.4 30.9C12.4 31.2 12.4 31.5 12.4 31.9C12.4 32.3 12.3 32.7 12.3 33.1C12.1 33.8 11.7 34.5 11.1 35.1C10.4 35.6 9.4 36 7.9 36H4.5C4.4 36 4.2 36 4.1 36C3.9 36 3.8 36 3.6 36C2.7 35.9 1.9 35.6 1.2 35C0.5 34.4 0.1 33 0.1 30.8V5.2C0 5 0 4.8 0 4.6C0 4.4 0 4.2 0 4C0 3 0.3 2.1 0.8 1.3C1.4 0.4 2.6 0 4.5 0H7.9C9.5 0 10.6 0.3 11.2 0.9C11.8 1.5 12.2 2.2 12.3 3C12.4 3.3 12.4 3.7 12.4 4C12.4 4.3 12.4 4.6 12.4 4.9C12.4 5 12.4 5 12.4 5V5.1V12H7.4V3.9C7.4 3.6 7.3 3.4 7.1 3.3C6.9 3 6.8 2.9 6.6 2.8C6.5 2.8 6.5 2.8 6.4 2.7C6.3 2.7 6.2 2.7 6.2 2.7C5.9 2.7 5.6 2.8 5.4 3C5.2 3.3 5 3.5 5 3.7V3.8C5 3.8 5 3.8 5 3.9V31.7V31.8V31.9C5.1 32.1 5.2 32.3 5.4 32.5C5.6 32.7 5.8 32.8 6.2 32.8C6.5 32.8 6.8 32.7 7 32.5C7.3 32.3 7.4 32 7.4 31.7V23H12.4Z" fill="black"/>
<path d="M18.8 26.5L14 0H19.7L21.3 15.1L23 0H28.7L23.9 26.5V36H18.8V26.5Z" fill="black"/>
<path d="M31.6996 0H39.1996C40.8996 0 41.9996 0.3 42.6996 1C43.3996 1.6 43.7996 2.4 43.8996 3.2C43.9996 3.5 43.9996 3.9 44.0996 4.2C44.0996 4.6 44.0996 4.9 44.0996 5.2V5.3V13.3C44.0996 14.6 43.7996 15.5 43.1996 16.1C42.5996 16.7 41.9996 17.1 41.1996 17.3C40.8996 17.4 40.5996 17.4 40.3996 17.4C40.0996 17.4 39.8996 17.4 39.6996 17.4V17.7C39.8996 17.7 40.1996 17.7 40.3996 17.7C40.6996 17.7 40.8996 17.8 41.1996 17.8C41.9996 18 42.6996 18.3 43.2996 18.8C43.8996 19.3 44.1996 20.1 44.1996 21.2V31C44.1996 32.6 43.8996 33.8 43.1996 34.5C42.4996 35.2 41.7996 35.6 40.9996 35.8C40.6996 35.9 40.3996 35.9 39.9996 36C39.6996 36 39.3996 36 39.0996 36H31.5996V0H31.6996ZM37.2996 15.6C37.9996 15.6 38.3996 15.5 38.6996 15.2C38.9996 14.9 39.0996 14.5 39.0996 14V5.1C39.0996 4.5 38.8996 4.1 38.5996 3.8C38.1996 3.5 37.7996 3.3 37.2996 3.3H36.6996V15.6H37.2996ZM37.2996 32.7C37.7996 32.7 38.1996 32.6 38.4996 32.3C38.8996 32 39.0996 31.5 39.0996 30.8V21C39.0996 20.2 38.8996 19.6 38.5996 19.3C38.1996 19 37.8996 18.8 37.3996 18.8H36.7996V32.7H37.2996Z" fill="black"/>
<path d="M47.2002 0H59.2002V3.3H52.3002V15.6H59.2002V18.9H52.3002V32.7H59.2002V36H47.2002V0Z" fill="black"/>
<path d="M62.5996 0H70.5996C72.3996 0 73.4996 0.4 74.0996 1.1C74.6996 1.8 74.9996 2.7 75.0996 3.5C75.0996 3.7 75.0996 4 75.0996 4.2C75.0996 4.4 75.0996 4.7 75.0996 4.9V5V5.1V17C75.0996 17.2 75.0996 17.5 75.0996 17.7C75.0996 17.9 75.0996 18.2 75.0996 18.4C74.9996 19.1 74.8996 19.8 74.4996 20.4C74.1996 21 73.5996 21.5 72.6996 21.9L76.0996 35.9H70.6996L67.9996 22.7H67.6996V36H62.5996V0ZM68.3996 19.5C68.8996 19.5 69.2996 19.3 69.5996 18.9C69.8996 18.5 69.9996 17.9 69.9996 17.2V5.2C69.9996 4.5 69.8996 4 69.5996 3.8C69.2996 3.5 68.9996 3.4 68.6996 3.4H68.5996H68.4996H67.6996V19.6H68.3996V19.5Z" fill="black"/>
<path d="M79.2002 0H84.3002V32.7H90.0002V36H79.2002V0Z" fill="white"/>
<path d="M91.7998 0H103.8V3.3H96.8998V15.6H103.8V18.9H96.8998V32.7H103.8V36H91.7998V0Z" fill="white"/>
<path d="M107.1 0H112.2L115.4 16.5V0H120.5V36H115.4L112.2 21.2V36H107.1V0Z" fill="white"/>
<path d="M124.7 0H129.8V36H124.7V0Z" fill="white"/>
<path d="M134 0H139.1L142.3 16.5V0H147.4V36H142.3L139.1 21.2V36H134V0Z" fill="white"/>
<path d="M151.5 0H156.6V15.5L159.2 0H164.3L161.1 17L164.8 36H159.9L156.7 18.9V36H151.6V0H151.5Z" fill="white"/>
<path d="M171 0H178.7L182.3 36H177.3L176.4 26H172.9L172.1 36H167.2L171 0ZM176.1 22.6L174.8 4.3H174.5L173.1 22.6H176.1Z" fill="white"/>
</svg>
