<svg width="150" height="31" viewBox="0 0 150 31" fill="none" xmlns="http://www.w3.org/2000/svg">
<path d="M16.8239 11.4061L17.3923 11.1772C17.5077 11.3852 17.6149 11.598 17.7137 11.8151C18.2009 12.8864 18.4723 14.0431 18.5125 15.2193C18.5169 15.3499 18.5185 15.4805 18.5173 15.6109L16.8239 11.4061Z" fill="#1F78FF"/>
<path d="M24.5682 30.6357L22.0512 24.3858C22.8134 23.311 23.4355 22.1399 23.8999 20.9006C24.6058 19.017 24.9338 17.0128 24.8652 15.0024C24.8566 14.7502 24.8418 14.4985 24.8208 14.2476L31.4207 30.6357H24.5682Z" fill="#1F78FF"/>
<path d="M36.9118 2.50562e-05H43.7643L31.4265 30.6357H24.5739L36.9118 2.50562e-05Z" fill="#1F78FF"/>
<path d="M22.902 9.45597C23.6718 11.3144 24.068 13.3063 24.068 15.3179C24.068 17.3294 23.6718 19.3213 22.902 21.1798C22.1322 23.0382 21.0039 24.7268 19.5815 26.1492C18.1591 27.5716 16.4705 28.6999 14.612 29.4697C12.7536 30.2395 10.7617 30.6357 8.75012 30.6357V24.2793C9.92695 24.2793 11.0923 24.0475 12.1795 23.5971C13.2668 23.1468 14.2547 22.4867 15.0868 21.6546C15.9189 20.8224 16.579 19.8345 17.0294 18.7473C17.4797 17.66 17.7115 16.4947 17.7115 15.3179C17.7115 14.141 17.4797 12.9757 17.0294 11.8885C16.579 10.8012 15.9189 9.81333 15.0868 8.98118C14.2547 8.14904 13.2668 7.48894 12.1795 7.03859C11.0923 6.58824 9.92695 6.35644 8.75012 6.35644V0C10.7617 2.02066e-07 12.7536 0.396208 14.612 1.166C16.4705 1.9358 18.1591 3.0641 19.5815 4.4865C21.0039 5.9089 22.1322 7.59752 22.902 9.45597Z" fill="#1F78FF"/>
<path d="M0 6.06197e-07L8.75012 0V6.35644L0 6.35644V6.06197e-07Z" fill="#1F78FF"/>
<path d="M8.75012 24.2793L0 24.2792V30.6357L8.75012 30.6357V24.2793Z" fill="#1F78FF"/>
<path d="M62.9615 17.927H57.9511V14.5175H66.371V23.1153C65.4815 24.0047 64.2956 24.7162 62.8133 25.2499C61.3309 25.7638 59.9276 26.0207 58.6033 26.0207C55.2433 26.0207 52.5948 25.0522 50.6578 23.1153C48.7406 21.1981 47.782 18.599 47.782 15.318C47.782 12.2742 48.7307 9.73437 50.6281 7.69857C52.5256 5.64301 55.0259 4.61523 58.129 4.61523C60.7775 4.61523 63.001 5.31689 64.7996 6.72021L63.258 9.62566C62.7441 9.13153 62.0622 8.74612 61.2123 8.46941C60.3624 8.17293 59.4829 8.0247 58.5737 8.0247C56.4983 8.0247 54.8282 8.67694 53.5632 9.98143C52.2785 11.2662 51.6362 13.045 51.6362 15.318C51.6362 17.5119 52.2785 19.2809 53.5632 20.6249C54.8282 21.9491 56.528 22.6113 58.6626 22.6113C59.4137 22.6113 60.224 22.4729 61.0937 22.1962C61.9634 21.8997 62.586 21.5637 62.9615 21.1882V17.927Z" fill="#31393C"/>
<path d="M74.511 17.927V25.6946H70.8644V4.94136C71.8922 4.94136 73.0089 4.93147 74.2146 4.91171C75.4202 4.89194 76.4085 4.88206 77.1793 4.88206C82.1996 4.88206 84.7098 7.01668 84.7098 11.2859C84.7098 12.8671 84.3046 14.1716 83.4942 15.1994C82.6839 16.1876 81.7549 16.8596 80.7074 17.2154L87.2002 25.6946H82.7827L77.0607 17.927H74.511ZM77.0014 8.29152C76.9026 8.29152 76.7445 8.30141 76.5271 8.32117C76.3097 8.32117 76.0033 8.33105 75.608 8.35082C75.2127 8.35082 74.847 8.35082 74.511 8.35082V14.5175H76.8828C78.049 14.5175 78.9977 14.2309 79.729 13.6577C80.4801 13.0845 80.8556 12.3038 80.8556 11.3156C80.8556 9.29954 79.5709 8.29152 77.0014 8.29152Z" fill="#31393C"/>
<path d="M87.9682 15.318C87.9682 12.2939 88.9762 9.75413 90.9923 7.69857C93.0478 5.64301 95.637 4.61523 98.7599 4.61523C101.883 4.61523 104.462 5.60348 106.498 7.57998C108.553 9.57625 109.581 12.1556 109.581 15.318C109.581 18.4211 108.553 20.9806 106.498 22.9967C104.442 25.0127 101.863 26.0207 98.7599 26.0207C95.637 26.0207 93.0577 25.0325 91.0219 23.056C88.9861 21.0795 87.9682 18.5001 87.9682 15.318ZM91.8224 15.318C91.8224 17.4131 92.4845 19.1524 93.8088 20.5359C95.133 21.9195 96.7834 22.6113 98.7599 22.6113C100.895 22.6113 102.584 21.9195 103.83 20.5359C105.095 19.1524 105.727 17.4131 105.727 15.318C105.727 13.2031 105.055 11.4539 103.711 10.0704C102.367 8.70659 100.717 8.0247 98.7599 8.0247C96.7636 8.0247 95.1034 8.70659 93.7791 10.0704C92.4746 11.4342 91.8224 13.1834 91.8224 15.318Z" fill="#31393C"/>
<path d="M126.965 4.94136H130.582V17.0968C130.582 20.0813 129.801 22.3148 128.239 23.7972C126.658 25.2795 124.692 26.0207 122.34 26.0207C119.671 26.0207 117.527 25.24 115.906 23.6786C114.305 22.1171 113.505 19.854 113.505 16.8893V4.94136H117.151V16.1185C117.151 18.174 117.586 19.775 118.456 20.9214C119.345 22.048 120.64 22.6113 122.34 22.6113C125.423 22.6113 126.965 20.5261 126.965 16.3556V4.94136Z" fill="#31393C"/>
<path d="M139.712 18.1938V25.6946H136.066V4.94136C136.935 4.94136 137.874 4.93147 138.882 4.91171C139.91 4.89194 140.938 4.88206 141.966 4.88206C143.428 4.88206 144.693 5.06983 145.76 5.44536C146.848 5.80113 147.688 6.30514 148.28 6.95739C148.873 7.58987 149.308 8.29152 149.585 9.06236C149.862 9.81343 150 10.6436 150 11.5527C150 13.4304 149.328 15.0215 147.984 16.326C146.66 17.6305 144.802 18.2827 142.41 18.2827C141.205 18.2827 140.305 18.2531 139.712 18.1938ZM142.321 8.29152L139.712 8.35082V14.725C140.76 14.8239 141.62 14.8733 142.292 14.8733C143.458 14.8733 144.387 14.5867 145.079 14.0135C145.79 13.4403 146.146 12.6102 146.146 11.5231C146.146 9.36871 144.871 8.29152 142.321 8.29152Z" fill="#31393C"/>
</svg>
