<svg width="192" height="27" viewBox="0 0 192 27" fill="none" xmlns="http://www.w3.org/2000/svg">
<path d="M14.1658 9.97533L14.6444 9.77512C14.7416 9.957 14.8319 10.1431 14.915 10.333C15.3252 11.2699 15.5538 12.2815 15.5876 13.3101C15.5913 13.4244 15.5927 13.5386 15.5916 13.6527L14.1658 9.97533Z" fill="#1F78FF"/>
<path d="M20.6865 26.7927L18.5672 21.3268C19.209 20.3868 19.7328 19.3626 20.1238 18.2788C20.7182 16.6315 20.9944 14.8787 20.9366 13.1205C20.9294 12.8999 20.9169 12.6798 20.8992 12.4603L26.4564 26.7927H20.6865Z" fill="#1F78FF"/>
<path d="M31.0799 2.19131e-05H36.8498L26.4613 26.7927H20.6914L31.0799 2.19131e-05Z" fill="#1F78FF"/>
<path d="M19.2836 8.2698C19.9318 9.89512 20.2654 11.6371 20.2654 13.3964C20.2654 15.1556 19.9318 16.8976 19.2836 18.5229C18.6354 20.1483 17.6854 21.6251 16.4877 22.869C15.29 24.113 13.8682 25.0998 12.3034 25.773C10.7386 26.4462 9.06139 26.7927 7.36764 26.7927V21.2337C8.35854 21.2337 9.33974 21.0309 10.2552 20.6371C11.1707 20.2432 12.0025 19.6659 12.7032 18.9382C13.4038 18.2104 13.9596 17.3464 14.3388 16.3956C14.718 15.4447 14.9132 14.4256 14.9132 13.3964C14.9132 12.3672 14.718 11.348 14.3388 10.3972C13.9596 9.44631 13.4038 8.58233 12.7032 7.85457C12.0025 7.12681 11.1707 6.54952 10.2552 6.15566C9.33974 5.7618 8.35854 5.55908 7.36764 5.55908V0C9.06139 1.76718e-07 10.7386 0.346507 12.3034 1.01974C13.8682 1.69297 15.29 2.67974 16.4877 3.92371C17.6854 5.16767 18.6354 6.64448 19.2836 8.2698Z" fill="#1F78FF"/>
<path d="M0 5.30155e-07L7.36764 0V5.55908L0 5.55908V5.30155e-07Z" fill="#1F78FF"/>
<path d="M7.36764 21.2337L0 21.2336V26.7927L7.36764 26.7927V21.2337Z" fill="#1F78FF"/>
<path d="M51.2967 15.7763V22.5476H49.9724V5.67976C50.6306 5.67976 51.3128 5.67173 52.0191 5.65567C52.7254 5.6396 53.4157 5.63157 54.0899 5.63157C55.2135 5.63157 56.1767 5.77615 56.9793 6.06531C57.798 6.35448 58.424 6.74806 58.8575 7.24606C59.2909 7.74406 59.6039 8.28222 59.7965 8.86055C59.9892 9.42281 60.0855 10.0413 60.0855 10.716C60.0855 12.1779 59.5798 13.3988 58.5685 14.3787C57.5412 15.3747 56.0483 15.8727 54.0899 15.8727C52.9823 15.8727 52.0512 15.8406 51.2967 15.7763ZM54.2103 6.88461C53.6805 6.88461 52.7094 6.90067 51.2967 6.9328V14.4992C52.4525 14.5795 53.3675 14.6197 54.0417 14.6197C55.5185 14.6197 56.6583 14.2663 57.4609 13.5594C58.2796 12.8526 58.6889 11.8968 58.6889 10.6919C58.6889 9.50313 58.3117 8.57139 57.5572 7.89667C56.8188 7.22196 55.7031 6.88461 54.2103 6.88461Z" fill="#212121"/>
<path d="M65.5395 22.5476H64.1911L71.5351 5.53518H72.6186L79.9627 22.5476H78.542L76.086 16.8125H67.9955L65.5395 22.5476ZM75.5322 15.5595L72.0407 7.36654L68.5253 15.5595H75.5322Z" fill="#212121"/>
<path d="M88.3244 15.4631V22.5476H87V5.67976C87.7224 5.67976 88.4528 5.67173 89.1912 5.65567C89.9296 5.6396 90.5476 5.63157 91.0453 5.63157C94.9781 5.63157 96.9445 7.25409 96.9445 10.4991C96.9445 11.6558 96.5673 12.6759 95.8128 13.5594C95.0584 14.4109 94.1033 14.9571 92.9475 15.198L98.8468 22.5476H97.2094L91.5991 15.4631H88.3244ZM90.973 6.88461C90.6199 6.88461 89.737 6.90067 88.3244 6.9328V14.21H91.2379C92.3776 14.21 93.3729 13.8647 94.2236 13.1739C95.1065 12.4831 95.548 11.5915 95.548 10.4991C95.548 8.08945 94.023 6.88461 90.973 6.88461Z" fill="#212121"/>
<path d="M108.719 6.9328H102.482V5.67976H116.279V6.9328H110.043V22.5476H108.719V6.9328Z" fill="#212121"/>
<path d="M136.885 5.67976V22.5476H135.826L124.292 8.04125V22.5476H123.04V5.67976H124.1L135.633 20.2343V5.67976H136.885Z" fill="#212121"/>
<path d="M155.64 22.5476H146.08V5.67976H155.399V6.9328H147.405V13.3667H154.676V14.6197H147.405V21.2945H155.64V22.5476Z" fill="#212121"/>
<path d="M165.107 15.4631V22.5476H163.783V5.67976C164.505 5.67976 165.236 5.67173 165.974 5.65567C166.713 5.6396 167.331 5.63157 167.828 5.63157C171.761 5.63157 173.727 7.25409 173.727 10.4991C173.727 11.6558 173.35 12.6759 172.596 13.5594C171.841 14.4109 170.886 14.9571 169.73 15.198L175.63 22.5476H173.992L168.382 15.4631H165.107ZM167.756 6.88461C167.403 6.88461 166.52 6.90067 165.107 6.9328V14.21H168.021C169.161 14.21 170.156 13.8647 171.007 13.1739C171.889 12.4831 172.331 11.5915 172.331 10.4991C172.331 8.08945 170.806 6.88461 167.756 6.88461Z" fill="#212121"/>
<path d="M190.603 18.3547C190.603 17.6157 190.387 16.9812 189.953 16.4511C189.52 15.9209 188.982 15.5193 188.34 15.2462C187.698 14.9731 186.999 14.6759 186.245 14.3546C185.491 14.0173 184.792 13.688 184.15 13.3667C183.508 13.0454 182.97 12.5715 182.537 11.9449C182.103 11.3024 181.887 10.5473 181.887 9.67984C181.887 8.45893 182.328 7.4549 183.211 6.66773C184.11 5.8645 185.314 5.46289 186.823 5.46289C188.797 5.46289 190.306 6.03318 191.35 7.17377L190.627 8.16174C189.664 7.19787 188.412 6.71593 186.871 6.71593C185.763 6.71593 184.889 6.98903 184.246 7.53522C183.604 8.06535 183.283 8.78022 183.283 9.67984C183.283 10.4027 183.5 11.0293 183.933 11.5594C184.367 12.0735 184.905 12.459 185.547 12.716C186.189 12.9731 186.887 13.2622 187.642 13.5835C188.396 13.8888 189.094 14.202 189.736 14.5233C190.379 14.8446 190.916 15.3346 191.35 15.9932C191.783 16.6358 192 17.4149 192 18.3306C192 19.6479 191.486 20.7162 190.459 21.5355C189.431 22.3548 188.155 22.7644 186.63 22.7644C185.587 22.7644 184.559 22.5476 183.548 22.1138C182.553 21.6479 181.855 21.0536 181.453 20.3307L182.248 19.415C182.729 20.0415 183.372 20.5475 184.174 20.9331C184.977 21.3186 185.787 21.5114 186.606 21.5114C187.698 21.5114 188.637 21.2303 189.423 20.668C190.21 20.1218 190.603 19.3507 190.603 18.3547Z" fill="#212121"/>
</svg>
