<svg width="95" height="27" viewBox="0 0 95 27" fill="none" xmlns="http://www.w3.org/2000/svg">
<path d="M16.707 2.58984C17.3398 2.58984 17.8867 2.85547 18.3477 3.38672C18.793 3.90234 19.0156 4.49219 19.0156 5.15625C19.0156 5.57812 18.9219 5.91797 18.7344 6.17578C18.5547 6.42578 18.3203 6.55078 18.0312 6.55078C17.4219 6.55078 17.1172 6.26953 17.1172 5.70703C17.1172 5.53516 17.2461 5.29688 17.5039 4.99219C17.7773 4.67188 17.9141 4.39063 17.9141 4.14844C17.9141 3.80469 17.7852 3.50781 17.5273 3.25781C17.2773 3.00781 16.9492 2.88281 16.543 2.88281C15.918 2.88281 15.4688 3.05859 15.1953 3.41016C15.0625 3.57422 14.9648 3.70312 14.9023 3.79688C14.8398 3.88281 14.7656 4.02344 14.6797 4.21875C14.6016 4.40625 14.5273 4.63281 14.457 4.89844C14.3789 5.23438 14.1953 6.06641 13.9062 7.39453C13.8047 7.92578 13.6836 8.46094 13.543 9H16.1562L16.0625 9.36328L13.4727 9.31641L13.4258 9.50391C13.2695 10.1836 12.7891 12.0859 11.9844 15.2109L10.543 20.8828C10.1602 22.4375 9.54297 23.7812 8.69141 24.9141C7.85547 26.0312 6.85547 26.5898 5.69141 26.5898C5.07422 26.5898 4.55469 26.3672 4.13281 25.9219C3.70312 25.4922 3.48828 25.0117 3.48828 24.4805C3.48828 24.043 3.59375 23.6719 3.80469 23.3672C4.00781 23.0703 4.26953 22.9219 4.58984 22.9219C5.15234 22.9219 5.43359 23.1836 5.43359 23.707C5.43359 23.9023 5.32031 24.1445 5.09375 24.4336C4.85156 24.7148 4.73047 24.9766 4.73047 25.2188C4.73047 25.5078 4.85156 25.7461 5.09375 25.9336C5.32812 26.1289 5.61719 26.2266 5.96094 26.2266C6.57031 26.2266 7.05859 25.9648 7.42578 25.4414C7.80078 24.9102 8.09766 24.2617 8.31641 23.4961C8.59766 22.6055 8.8125 21.7734 8.96094 21C9.00781 20.7891 9.06641 20.5391 9.13672 20.25C9.21484 19.9531 9.26172 19.7695 9.27734 19.6992C10.2305 15.8555 11.1094 12.3867 11.9141 9.29297L10.332 9.26953L10.4492 9H11.9844L12.1484 8.35547C12.5938 6.55859 13.1562 5.14063 13.8359 4.10156C14.5078 3.09375 15.4648 2.58984 16.707 2.58984ZM21.2314 6.36328C20.9423 6.36328 20.6845 6.25781 20.458 6.04688C20.2392 5.82812 20.1298 5.57422 20.1298 5.28516C20.1298 4.98828 20.2392 4.72656 20.458 4.5C20.6845 4.26562 20.9423 4.14844 21.2314 4.14844C21.5283 4.14844 21.7861 4.26172 22.0048 4.48828C22.2236 4.71484 22.333 4.98047 22.333 5.28516C22.333 5.57422 22.2236 5.82812 22.0048 6.04688C21.7861 6.25781 21.5283 6.36328 21.2314 6.36328ZM15.6416 12.6914C17.5244 10.0195 19.0439 8.68359 20.2002 8.68359C20.6377 8.68359 20.8447 8.93359 20.8212 9.43359C20.8056 9.77734 20.6611 10.3516 20.3877 11.1562L17.8212 18.8672C17.6962 19.2031 17.6142 19.4727 17.5752 19.6758C17.5361 19.8711 17.5439 20.0234 17.5986 20.1328C17.6611 20.2344 17.7744 20.2852 17.9384 20.2852C18.2666 20.2852 18.6962 20.0039 19.2275 19.4414C19.7587 18.8711 20.2978 18.125 20.8447 17.2031L20.997 17.3086C20.2783 18.6133 19.5439 19.6055 18.7939 20.2852C18.0517 20.957 17.415 21.293 16.8837 21.293C15.9775 21.293 15.7783 20.5312 16.2861 19.0078L18.7587 11.4492C19.0478 10.6133 19.1923 10.1328 19.1923 10.0078C19.1689 9.85156 19.0712 9.77344 18.8994 9.77344C18.3212 9.77344 17.29 10.7812 15.8056 12.7969L15.6416 12.6914ZM29.5995 21.3398C29.1698 21.3398 28.9042 21.125 28.8027 20.6953C28.7089 20.2578 28.7909 19.6797 29.0487 18.9609L30.9237 13.6289C31.2753 12.6836 31.498 11.9102 31.5917 11.3086C31.6855 10.707 31.6464 10.2539 31.4745 9.94922C31.3027 9.63672 30.9902 9.48047 30.537 9.48047C28.9823 9.48047 26.5683 13.3203 23.2948 21H21.9941C23.9706 14.9141 25.0019 11.6992 25.0878 11.3555C25.1816 11.082 25.2519 10.8438 25.2987 10.6406C25.3534 10.4375 25.3847 10.2539 25.3925 10.0898C25.4081 9.91797 25.3925 9.78906 25.3456 9.70312C25.2987 9.61719 25.2206 9.57422 25.1112 9.57422C24.8456 9.57422 24.4081 9.87891 23.7987 10.4883C23.1425 11.1445 22.5722 11.8711 22.0878 12.668L21.9237 12.5742C22.7284 11.2383 23.5019 10.2578 24.2441 9.63281C24.9941 9 25.6542 8.68359 26.2245 8.68359C27.037 8.68359 27.2284 9.39062 26.7987 10.8047C26.6425 11.2969 26.2323 12.4883 25.5683 14.3789L24.4433 17.6133L24.5136 17.6367C26.2011 13.8555 27.6112 11.3594 28.7441 10.1484C29.2909 9.57812 29.7597 9.19141 30.1503 8.98828C30.5487 8.78516 30.998 8.68359 31.498 8.68359C31.7948 8.68359 32.0644 8.75781 32.3066 8.90625C32.5566 9.05469 32.7636 9.28125 32.9277 9.58594C33.0995 9.88281 33.1777 10.2969 33.162 10.8281C33.1464 11.3516 33.0175 11.9492 32.7753 12.6211L30.83 18.293C30.4862 19.2852 30.3261 19.8672 30.3495 20.0391C30.373 20.2656 30.4902 20.3789 30.7011 20.3789C30.9667 20.3789 31.3769 20.0898 31.9316 19.5117C32.5331 18.8555 33.0761 18.1523 33.5605 17.4023L33.7011 17.4961C33.1073 18.4727 32.412 19.3594 31.6152 20.1562C30.8261 20.9453 30.1542 21.3398 29.5995 21.3398ZM45.9247 8.90625C44.6278 12.4531 43.4872 15.8047 42.5028 18.9609C42.2372 19.8281 42.3466 20.2617 42.8309 20.2617C43.0731 20.2617 43.4208 20.0195 43.8739 19.5352C44.3348 19.0508 44.87 18.3242 45.4794 17.3555L45.6669 17.4492C44.9091 18.7148 44.1591 19.6758 43.4169 20.332C42.6747 20.9883 42.0653 21.3164 41.5888 21.3164C40.5731 21.3164 40.3895 20.457 41.038 18.7383L41.8231 16.6992L41.7059 16.6758C40.9559 18.1055 40.1513 19.2383 39.2919 20.0742C38.4403 20.9023 37.5966 21.3164 36.7606 21.3164C36.0028 21.3164 35.3973 21.0117 34.9442 20.4023C34.4911 19.7852 34.2645 18.9844 34.2645 18C34.2645 16.5391 34.6005 15.082 35.2723 13.6289C35.9598 12.1758 36.8544 10.9922 37.9559 10.0781C39.0731 9.14844 40.2098 8.68359 41.3661 8.68359C41.952 8.68359 42.4716 8.85547 42.9247 9.19922C43.3778 9.54297 43.7059 10.0117 43.9091 10.6055L44.0614 10.125L45.4208 6C45.788 5.07031 45.9052 4.44141 45.7723 4.11328C45.6395 3.78516 45.1708 3.6875 44.3661 3.82031L44.4364 3.57422L47.9989 2.70703L45.9247 8.90625ZM37.5106 20.2266C38.2919 20.2266 39.2098 19.6055 40.2645 18.3633C41.3192 17.1211 42.1591 15.5586 42.7841 13.6758C43.2294 12.3242 43.3192 11.2148 43.0536 10.3477C42.8192 9.43359 42.2997 8.97656 41.495 8.97656C40.7372 8.97656 39.913 9.41016 39.0223 10.2773C38.1395 11.1133 37.3856 12.2461 36.7606 13.6758C36.1356 15.1055 35.8231 16.5312 35.8231 17.9531C35.8231 18.6094 35.9677 19.1523 36.2567 19.582C36.5536 20.0117 36.9716 20.2266 37.5106 20.2266Z" fill="#070707"/>
<path d="M50.92 21V3.36H53.812V21H50.92ZM61.6906 21.36C60.7226 21.36 59.8426 21.192 59.0506 20.856C58.2586 20.52 57.5786 20.052 57.0106 19.452C56.4506 18.852 56.0146 18.132 55.7026 17.292C55.3986 16.452 55.2466 15.528 55.2466 14.52C55.2466 13.512 55.4026 12.588 55.7146 11.748C56.0266 10.908 56.4626 10.188 57.0226 9.588C57.5906 8.98 58.2706 8.512 59.0626 8.184C59.8546 7.848 60.7306 7.68 61.6906 7.68C62.6666 7.68 63.5506 7.848 64.3426 8.184C65.1346 8.512 65.8146 8.98 66.3826 9.588C66.9506 10.188 67.3866 10.908 67.6906 11.748C68.0026 12.588 68.1586 13.512 68.1586 14.52C68.1586 15.528 68.0026 16.452 67.6906 17.292C67.3786 18.132 66.9386 18.856 66.3706 19.464C65.8106 20.064 65.1306 20.532 64.3306 20.868C63.5386 21.196 62.6586 21.36 61.6906 21.36ZM61.6906 18.648C62.2346 18.648 62.7186 18.556 63.1426 18.372C63.5666 18.18 63.9226 17.908 64.2106 17.556C64.4986 17.196 64.7186 16.76 64.8706 16.248C65.0226 15.736 65.0986 15.16 65.0986 14.52C65.0986 13.872 65.0226 13.292 64.8706 12.78C64.7266 12.268 64.5106 11.836 64.2226 11.484C63.9346 11.124 63.5786 10.852 63.1546 10.668C62.7306 10.484 62.2426 10.392 61.6906 10.392C60.5866 10.392 59.7466 10.756 59.1706 11.484C58.5946 12.204 58.3066 13.216 58.3066 14.52C58.3066 15.168 58.3786 15.748 58.5226 16.26C58.6746 16.772 58.8946 17.204 59.1826 17.556C59.4706 17.908 59.8226 18.18 60.2386 18.372C60.6626 18.556 61.1466 18.648 61.6906 18.648ZM75.0865 21.36C74.1185 21.36 73.2385 21.192 72.4465 20.856C71.6545 20.52 70.9745 20.052 70.4065 19.452C69.8465 18.852 69.4105 18.132 69.0985 17.292C68.7945 16.452 68.6425 15.528 68.6425 14.52C68.6425 13.512 68.7985 12.588 69.1105 11.748C69.4225 10.908 69.8585 10.188 70.4185 9.588C70.9865 8.98 71.6665 8.512 72.4585 8.184C73.2505 7.848 74.1265 7.68 75.0865 7.68C76.0625 7.68 76.9465 7.848 77.7385 8.184C78.5305 8.512 79.2105 8.98 79.7785 9.588C80.3465 10.188 80.7825 10.908 81.0865 11.748C81.3985 12.588 81.5545 13.512 81.5545 14.52C81.5545 15.528 81.3985 16.452 81.0865 17.292C80.7745 18.132 80.3345 18.856 79.7665 19.464C79.2065 20.064 78.5265 20.532 77.7265 20.868C76.9345 21.196 76.0545 21.36 75.0865 21.36ZM75.0865 18.648C75.6305 18.648 76.1145 18.556 76.5385 18.372C76.9625 18.18 77.3185 17.908 77.6065 17.556C77.8945 17.196 78.1145 16.76 78.2665 16.248C78.4185 15.736 78.4945 15.16 78.4945 14.52C78.4945 13.872 78.4185 13.292 78.2665 12.78C78.1225 12.268 77.9065 11.836 77.6185 11.484C77.3305 11.124 76.9745 10.852 76.5505 10.668C76.1265 10.484 75.6385 10.392 75.0865 10.392C73.9825 10.392 73.1425 10.756 72.5665 11.484C71.9905 12.204 71.7025 13.216 71.7025 14.52C71.7025 15.168 71.7745 15.748 71.9185 16.26C72.0705 16.772 72.2905 17.204 72.5785 17.556C72.8665 17.908 73.2185 18.18 73.6345 18.372C74.0585 18.556 74.5425 18.648 75.0865 18.648ZM82.7344 3.72H85.6264V14.28L90.3664 8.04H93.9784L88.9504 14.52L94.4104 21H90.5824L85.6264 14.748V21H82.7344V3.72Z" fill="#070707"/>
</svg>
