<svg width="123" height="22" viewBox="0 0 123 22" fill="none" xmlns="http://www.w3.org/2000/svg">
<path d="M0 21.672V0H13.1197V3.29101H3.70992V9.1746H12.2198V12.4656H3.70992V21.672H0Z" fill="url(#paint0_linear_1531_11879)"/>
<path d="M21.9121 21.9894C20.4121 21.9894 19.1121 21.6402 18.0121 20.9418C16.9122 20.2434 16.0588 19.2663 15.4522 18.0106C14.8522 16.7549 14.5522 15.2875 14.5522 13.6085C14.5522 11.9295 14.8522 10.4586 15.4522 9.19577C16.0588 7.93298 16.9122 6.95238 18.0121 6.25397C19.1121 5.55556 20.4121 5.20635 21.9121 5.20635C23.412 5.20635 24.712 5.55556 25.812 6.25397C26.912 6.95238 27.7619 7.93298 28.3619 9.19577C28.9686 10.4586 29.2719 11.9295 29.2719 13.6085C29.2719 15.2875 28.9686 16.7549 28.3619 18.0106C27.7619 19.2663 26.912 20.2434 25.812 20.9418C24.712 21.6402 23.412 21.9894 21.9121 21.9894ZM21.9321 18.9206C22.7454 18.9206 23.4254 18.6843 23.972 18.2116C24.5187 17.7319 24.9253 17.0899 25.192 16.2857C25.4653 15.4815 25.602 14.5855 25.602 13.5979C25.602 12.6032 25.4653 11.7037 25.192 10.8995C24.9253 10.0882 24.5187 9.44268 23.972 8.96296C23.4254 8.48324 22.7454 8.24339 21.9321 8.24339C21.0987 8.24339 20.4054 8.48324 19.8521 8.96296C19.3054 9.44268 18.8954 10.0882 18.6221 10.8995C18.3555 11.7037 18.2221 12.6032 18.2221 13.5979C18.2221 14.5855 18.3555 15.4815 18.6221 16.2857C18.8954 17.0899 19.3054 17.7319 19.8521 18.2116C20.4054 18.6843 21.0987 18.9206 21.9321 18.9206Z" fill="url(#paint1_linear_1531_11879)"/>
<path d="M35.9643 0V21.672H32.3443V0H35.9643Z" fill="url(#paint2_linear_1531_11879)"/>
<path d="M43.3066 0V21.672H39.6867V0H43.3066Z" fill="url(#paint3_linear_1531_11879)"/>
<path d="M53.7289 21.9894C52.2289 21.9894 50.929 21.6402 49.829 20.9418C48.729 20.2434 47.8757 19.2663 47.269 18.0106C46.669 16.7549 46.3691 15.2875 46.3691 13.6085C46.3691 11.9295 46.669 10.4586 47.269 9.19577C47.8757 7.93298 48.729 6.95238 49.829 6.25397C50.929 5.55556 52.2289 5.20635 53.7289 5.20635C55.2289 5.20635 56.5289 5.55556 57.6288 6.25397C58.7288 6.95238 59.5788 7.93298 60.1788 9.19577C60.7854 10.4586 61.0888 11.9295 61.0888 13.6085C61.0888 15.2875 60.7854 16.7549 60.1788 18.0106C59.5788 19.2663 58.7288 20.2434 57.6288 20.9418C56.5289 21.6402 55.2289 21.9894 53.7289 21.9894ZM53.7489 18.9206C54.5622 18.9206 55.2422 18.6843 55.7889 18.2116C56.3355 17.7319 56.7422 17.0899 57.0088 16.2857C57.2822 15.4815 57.4188 14.5855 57.4188 13.5979C57.4188 12.6032 57.2822 11.7037 57.0088 10.8995C56.7422 10.0882 56.3355 9.44268 55.7889 8.96296C55.2422 8.48324 54.5622 8.24339 53.7489 8.24339C52.9156 8.24339 52.2223 8.48324 51.6689 8.96296C51.1223 9.44268 50.7123 10.0882 50.439 10.8995C50.1723 11.7037 50.039 12.6032 50.039 13.5979C50.039 14.5855 50.1723 15.4815 50.439 16.2857C50.7123 17.0899 51.1223 17.7319 51.6689 18.2116C52.2223 18.6843 52.9156 18.9206 53.7489 18.9206Z" fill="url(#paint4_linear_1531_11879)"/>
<path d="M66.8911 21.672L62.5512 5.41799H66.2411L68.9411 16.8466H69.0811L71.841 5.41799H75.491L78.2509 16.7831H78.4009L81.0608 5.41799H84.7608L80.4109 21.672H76.6409L73.761 10.6878H73.551L70.6711 21.672H66.8911Z" fill="url(#paint5_linear_1531_11879)"/>
<path d="M100.358 0H104.068V14.1587C104.068 15.7108 103.721 17.0758 103.028 18.254C102.341 19.4321 101.375 20.3527 100.128 21.0159C98.8813 21.672 97.4247 22 95.7581 22C94.0848 22 92.6248 21.672 91.3781 21.0159C90.1315 20.3527 89.1648 19.4321 88.4782 18.254C87.7915 17.0758 87.4482 15.7108 87.4482 14.1587V0H91.1581V13.8307C91.1581 14.7337 91.3448 15.5379 91.7181 16.2434C92.0981 16.9489 92.6314 17.5026 93.3181 17.9048C94.0048 18.2998 94.8181 18.4974 95.7581 18.4974C96.698 18.4974 97.5114 18.2998 98.198 17.9048C98.8913 17.5026 99.4246 16.9489 99.798 16.2434C100.171 15.5379 100.358 14.7337 100.358 13.8307V0Z" fill="url(#paint6_linear_1531_11879)"/>
<path d="M108.1 21.672V0H115.78C117.353 0 118.673 0.310406 119.74 0.931217C120.813 1.55203 121.623 2.40564 122.17 3.49206C122.723 4.57143 123 5.79894 123 7.1746C123 8.56437 122.723 9.79894 122.17 10.8783C121.617 11.9577 120.8 12.8078 119.72 13.4286C118.64 14.0423 117.31 14.3492 115.73 14.3492H110.64V11.1217H115.23C116.15 11.1217 116.903 10.9524 117.49 10.6138C118.077 10.2751 118.51 9.80952 118.79 9.21693C119.077 8.62434 119.22 7.94356 119.22 7.1746C119.22 6.40564 119.077 5.7284 118.79 5.14286C118.51 4.55732 118.073 4.10229 117.48 3.77778C116.893 3.44621 116.137 3.28042 115.21 3.28042H111.81V21.672H108.1Z" fill="url(#paint7_linear_1531_11879)"/>
<defs>
<linearGradient id="paint0_linear_1531_11879" x1="-2.01995" y1="-10.6102" x2="125.932" y2="27.4547" gradientUnits="userSpaceOnUse">
<stop stop-color="#0A5CFE"/>
<stop offset="1" stop-color="#00E585"/>
</linearGradient>
<linearGradient id="paint1_linear_1531_11879" x1="-2.01995" y1="-10.6102" x2="125.932" y2="27.4547" gradientUnits="userSpaceOnUse">
<stop stop-color="#0A5CFE"/>
<stop offset="1" stop-color="#00E585"/>
</linearGradient>
<linearGradient id="paint2_linear_1531_11879" x1="-2.01995" y1="-10.6102" x2="125.932" y2="27.4547" gradientUnits="userSpaceOnUse">
<stop stop-color="#0A5CFE"/>
<stop offset="1" stop-color="#00E585"/>
</linearGradient>
<linearGradient id="paint3_linear_1531_11879" x1="-2.01995" y1="-10.6102" x2="125.932" y2="27.4547" gradientUnits="userSpaceOnUse">
<stop stop-color="#0A5CFE"/>
<stop offset="1" stop-color="#00E585"/>
</linearGradient>
<linearGradient id="paint4_linear_1531_11879" x1="-2.01995" y1="-10.6102" x2="125.932" y2="27.4547" gradientUnits="userSpaceOnUse">
<stop stop-color="#0A5CFE"/>
<stop offset="1" stop-color="#00E585"/>
</linearGradient>
<linearGradient id="paint5_linear_1531_11879" x1="-2.01995" y1="-10.6102" x2="125.932" y2="27.4547" gradientUnits="userSpaceOnUse">
<stop stop-color="#0A5CFE"/>
<stop offset="1" stop-color="#00E585"/>
</linearGradient>
<linearGradient id="paint6_linear_1531_11879" x1="-2.01995" y1="-10.6102" x2="125.932" y2="27.4547" gradientUnits="userSpaceOnUse">
<stop stop-color="#0A5CFE"/>
<stop offset="1" stop-color="#00E585"/>
</linearGradient>
<linearGradient id="paint7_linear_1531_11879" x1="-2.01995" y1="-10.6102" x2="125.932" y2="27.4547" gradientUnits="userSpaceOnUse">
<stop stop-color="#0A5CFE"/>
<stop offset="1" stop-color="#00E585"/>
</linearGradient>
</defs>
</svg>
