<svg width="125" height="29" viewBox="0 0 125 29" fill="none" xmlns="http://www.w3.org/2000/svg">
<g clip-path="url(#clip0_1117_1020)">
<path d="M12.9116 1.72391L23.2891 7.68518C23.5429 7.83094 23.7536 8.04062 23.9001 8.29304C24.0466 8.54553 24.1237 8.83193 24.1237 9.12349V21.046C24.1237 21.3375 24.0466 21.6239 23.9001 21.8764C23.7536 22.1289 23.5429 22.3385 23.2891 22.4842L12.9116 28.4455C12.6579 28.5913 12.37 28.668 12.077 28.668C11.784 28.668 11.4961 28.5913 11.2424 28.4455L0.864903 22.4842C0.611148 22.3385 0.400429 22.1289 0.253922 21.8764C0.107415 21.6239 0.0302809 21.3375 0.0302734 21.046V9.12349C0.0302809 8.83193 0.107415 8.54553 0.253922 8.29304C0.400429 8.04062 0.611148 7.83094 0.864903 7.68518L11.2424 1.72391C11.4961 1.57815 11.784 1.5014 12.077 1.5014C12.37 1.5014 12.6579 1.57815 12.9116 1.72391Z" fill="white"/>
<path d="M8.40379 13.4876H7.41968C7.34159 13.4876 7.26676 13.5185 7.21156 13.5734C7.15637 13.6284 7.12537 13.7028 7.12537 13.7805V19.7723C7.12537 19.9339 7.25715 20.0651 7.41968 20.0651H13.3542C13.4323 20.0651 13.5071 20.0342 13.5623 19.9793C13.6175 19.9244 13.6485 19.8499 13.6485 19.7723V13.7805C13.6485 13.7028 13.6175 13.6284 13.5623 13.5734C13.5071 13.5185 13.4323 13.4876 13.3542 13.4876H11.1049V11.9482H13.9364C14.1018 11.9482 14.2655 11.9806 14.4183 12.0436C14.5711 12.1065 14.7099 12.1989 14.8269 12.3152C14.9438 12.4316 15.0366 12.5697 15.0999 12.7217C15.1632 12.8738 15.1958 13.0366 15.1958 13.2012V20.3515C15.1958 20.6838 15.0631 21.0025 14.8269 21.2375C14.5907 21.4725 14.2704 21.6045 13.9364 21.6045H6.83747C6.50347 21.6045 6.18315 21.4725 5.94698 21.2375C5.71081 21.0025 5.57812 20.6838 5.57812 20.3515V13.2012C5.57812 12.8689 5.71081 12.5502 5.94698 12.3152C6.18315 12.0802 6.50347 11.9482 6.83747 11.9482H8.40379V13.4876Z" fill="#3B0470"/>
<path d="M15.7501 16.6814H16.7342C16.8123 16.6814 16.8871 16.6506 16.9423 16.5956C16.9975 16.5407 17.0286 16.4662 17.0286 16.3885V10.3969C17.0286 10.3192 16.9975 10.2447 16.9423 10.1898C16.8871 10.1349 16.8123 10.1041 16.7342 10.1041H10.7997C10.7216 10.1041 10.6468 10.1349 10.5916 10.1898C10.5364 10.2447 10.5053 10.3192 10.5053 10.3969V16.3885C10.5053 16.5503 10.6372 16.6814 10.7997 16.6814H13.049V18.2208H10.2175C9.88351 18.2208 9.56318 18.0888 9.32703 17.8538C9.0908 17.6189 8.95812 17.3001 8.95812 16.9678V9.81762C8.95812 9.6531 8.99073 9.49015 9.054 9.33816C9.11727 9.18611 9.21004 9.04804 9.32703 8.93169C9.56318 8.69669 9.88351 8.56464 10.2175 8.56464H17.3164C17.6504 8.56464 17.9707 8.69669 18.2069 8.93169C18.4431 9.16661 18.5758 9.48534 18.5758 9.81762V16.968C18.5758 17.3003 18.4431 17.619 18.2069 17.8539C17.9707 18.0889 17.6504 18.221 17.3164 18.221H15.7501V16.6814ZM8.40403 11.9484V13.4878H7.41992" fill="#3B0470"/>
<path d="M31.1221 18.6626H32.4462V16.5117H34.2565V15.453H32.4462V14.1093H34.5021V13.058H31.1221V18.6626ZM36.7023 18.479C37.0062 18.6457 37.5125 18.7279 38.224 18.7279C38.9405 18.7279 39.4519 18.6457 39.7557 18.479C40.0621 18.3146 40.2494 18.0488 40.3254 17.6838C40.3988 17.3213 40.4342 16.7123 40.4342 15.8591C40.4342 15.006 40.3988 14.3994 40.3254 14.0344C40.2494 13.6718 40.0621 13.406 39.7557 13.2393C39.4519 13.0749 38.9405 12.9927 38.224 12.9927C37.5125 12.9927 37.0062 13.0749 36.7023 13.2393C36.396 13.406 36.2061 13.6719 36.1301 14.0393C36.0516 14.4066 36.0137 15.0132 36.0137 15.8591C36.0137 16.7074 36.0516 17.314 36.1301 17.6814C36.2061 18.0463 36.396 18.3146 36.7023 18.479ZM38.8443 17.5872C38.7379 17.6475 38.5329 17.6766 38.224 17.6766C37.9176 17.6766 37.71 17.6475 37.6062 17.5872C37.4999 17.5267 37.434 17.3866 37.4062 17.1642C37.3758 16.9418 37.3631 16.5068 37.3631 15.8591C37.3631 15.2138 37.3758 14.7788 37.4062 14.5564C37.434 14.334 37.4999 14.1915 37.6062 14.1335C37.71 14.0731 37.9176 14.0441 38.224 14.0441C38.5329 14.0441 38.7379 14.0731 38.8443 14.1335C38.948 14.1915 39.0164 14.334 39.0443 14.5564C39.0721 14.7788 39.0873 15.2138 39.0873 15.8591C39.0873 16.5068 39.0721 16.9418 39.0443 17.1642C39.0164 17.3866 38.948 17.5267 38.8443 17.5872ZM45.0955 18.6626H46.488L45.6676 16.5044C45.9462 16.3739 46.131 16.1684 46.2221 15.8881C46.3133 15.6077 46.3588 15.2694 46.3588 14.873C46.3588 14.4501 46.3183 14.1117 46.2348 13.8555C46.1538 13.5994 45.9892 13.4036 45.7436 13.2659C45.5005 13.1256 45.136 13.058 44.6524 13.058H42.2369V18.6626H43.5586V16.7002H44.4119L45.0955 18.6626ZM44.7587 15.5981C44.6524 15.6368 44.4751 15.6561 44.2245 15.6561H43.5586V14.1093H44.2346C44.4827 14.1093 44.6625 14.1262 44.7663 14.1601C44.8726 14.1963 44.941 14.264 44.9714 14.3655C45.0043 14.4646 45.0195 14.6386 45.0195 14.8827C45.0195 15.122 45.0018 15.2912 44.9663 15.3902C44.9334 15.4918 44.8625 15.5618 44.7587 15.5981ZM48.1438 13.058V18.6626H49.4654V16.8621H50.5161C50.9947 16.8621 51.3542 16.7823 51.5998 16.6252C51.8454 16.4682 52.0049 16.2555 52.0809 15.9896C52.1593 15.7237 52.1974 15.3781 52.1974 14.9552C52.1974 14.5105 52.1568 14.1553 52.0733 13.887C51.9897 13.6211 51.8302 13.4181 51.5922 13.2731C51.3517 13.1281 50.9972 13.058 50.5238 13.058H48.1438ZM50.063 15.8108H49.4654V14.1093H50.063C50.3136 14.1093 50.4934 14.1262 50.5997 14.1649C50.7086 14.2036 50.7795 14.2785 50.8149 14.3897C50.8478 14.5009 50.8656 14.6893 50.8656 14.9552C50.8656 15.2211 50.8478 15.4096 50.8149 15.5207C50.7795 15.6319 50.7086 15.7093 50.5997 15.7503C50.4934 15.7914 50.3136 15.8108 50.063 15.8108ZM53.8355 18.6626H57.3699V17.6113H55.1596V16.357H57.0534V15.3057H55.1596V14.1093H57.3699V13.058H53.8355V18.6626ZM59.7043 18.479C60.0081 18.6457 60.517 18.7279 61.2285 18.7279C61.945 18.7279 62.4539 18.6457 62.7603 18.479C63.0641 18.3146 63.254 18.0488 63.3274 17.6838C63.4009 17.3213 63.4388 16.7123 63.4388 15.8591C63.4388 15.006 63.4009 14.3994 63.3274 14.0344C63.254 13.6718 63.0641 13.406 62.7603 13.2393C62.4539 13.0749 61.945 12.9927 61.2285 12.9927C60.517 12.9927 60.0081 13.0749 59.7043 13.2393C59.4005 13.406 59.2081 13.6719 59.1321 14.0393C59.0561 14.4066 59.0157 15.0132 59.0157 15.8591C59.0157 16.7074 59.0561 17.314 59.1321 17.6814C59.2081 18.0463 59.4005 18.3146 59.7043 18.479ZM61.8463 17.5872C61.7399 17.6475 61.5348 17.6766 61.2285 17.6766C60.9196 17.6766 60.7145 17.6475 60.6082 17.5872C60.5044 17.5267 60.4361 17.3866 60.4081 17.1642C60.3803 16.9418 60.3651 16.5068 60.3651 15.8591C60.3651 15.2138 60.3803 14.7788 60.4081 14.5564C60.4361 14.334 60.5044 14.1915 60.6082 14.1335C60.7145 14.0731 60.9196 14.0441 61.2285 14.0441C61.5348 14.0441 61.7399 14.0731 61.8463 14.1335C61.9526 14.1915 62.0184 14.334 62.0463 14.5564C62.0741 14.7788 62.0894 15.2138 62.0894 15.8591C62.0894 16.5068 62.0741 16.9418 62.0463 17.1642C62.0184 17.3866 61.9526 17.5267 61.8463 17.5872ZM65.239 13.058V18.6626H66.5632V16.8621H67.6113C68.0899 16.8621 68.4519 16.7823 68.695 16.6252C68.9406 16.4682 69.1001 16.2555 69.1785 15.9896C69.2545 15.7237 69.2925 15.3781 69.2925 14.9552C69.2925 14.5105 69.252 14.1553 69.1684 13.887C69.0874 13.6211 68.9254 13.4181 68.6873 13.2731C68.4494 13.1281 68.0924 13.058 67.6215 13.058H65.239ZM67.1606 15.8108H66.5632V14.1093H67.1606C67.4088 14.1093 67.5886 14.1262 67.6975 14.1649C67.8063 14.2036 67.8772 14.2785 67.9101 14.3897C67.9455 14.5009 67.9607 14.6893 67.9607 14.9552C67.9607 15.2211 67.9455 15.4096 67.9101 15.5207C67.8772 15.6319 67.8063 15.7093 67.6975 15.7503C67.5886 15.7914 67.4088 15.8108 67.1606 15.8108ZM70.9331 18.6626H74.2021V17.5702H72.2548V13.058H70.9331V18.6626ZM75.7639 18.6626H79.2961V17.6113H77.0857V16.357H78.9816V15.3057H77.0857V14.1093H79.2961V13.058H75.7639V18.6626ZM86.5269 18.6868C86.7698 18.6602 86.9723 18.6264 87.1321 18.5901V17.6041C86.8031 17.6524 86.4712 17.6766 86.1422 17.6766C85.7546 17.6766 85.4885 17.6403 85.3447 17.5678C85.1979 17.4929 85.1068 17.3431 85.0663 17.1182C85.0258 16.8935 85.0077 16.473 85.0077 15.8591C85.0077 15.2452 85.0258 14.8271 85.0663 14.5999C85.1068 14.3752 85.1979 14.2253 85.3447 14.1528C85.4885 14.0803 85.7546 14.0441 86.1422 14.0441C86.3013 14.0441 86.623 14.0682 87.1068 14.1165V13.1378C86.952 13.0942 86.7575 13.0604 86.5218 13.0338C86.2861 13.0049 86.0562 12.9927 85.8356 12.9927C85.1979 12.9927 84.7264 13.0798 84.4227 13.2538C84.1169 13.4254 83.9137 13.7106 83.8125 14.1045C83.7091 14.4984 83.6584 15.0833 83.6584 15.8591C83.6584 16.647 83.7091 17.2367 83.8074 17.6282C83.9065 18.0197 84.1089 18.3001 84.4126 18.4717C84.7192 18.6433 85.1928 18.7279 85.8356 18.7279C86.0511 18.7279 86.281 18.7134 86.5269 18.6868ZM89.3801 18.479C89.6867 18.6457 90.1929 18.7279 90.9044 18.7279C91.6209 18.7279 92.1321 18.6457 92.4366 18.479C92.7402 18.3146 92.9297 18.0488 93.0034 17.6838C93.0794 17.3213 93.1148 16.7123 93.1148 15.8591C93.1148 15.006 93.0794 14.3994 93.0034 14.0344C92.9297 13.6718 92.7402 13.406 92.4366 13.2393C92.1321 13.0749 91.6209 12.9927 90.9044 12.9927C90.1929 12.9927 89.6867 13.0749 89.3801 13.2393C89.0764 13.406 88.8863 13.6719 88.8082 14.0393C88.7323 14.4066 88.6939 15.0132 88.6939 15.8591C88.6939 16.7074 88.7323 17.314 88.8082 17.6814C88.8863 18.0463 89.0764 18.3146 89.3801 18.479ZM91.5248 17.5872C91.4185 17.6475 91.2109 17.6766 90.9044 17.6766C90.5985 17.6766 90.3903 17.6475 90.2869 17.5872C90.1806 17.5267 90.1148 17.3866 90.0844 17.1642C90.0562 16.9418 90.0439 16.5068 90.0439 15.8591C90.0439 15.2138 90.0562 14.7788 90.0844 14.5564C90.1148 14.334 90.1806 14.1915 90.2869 14.1335C90.3903 14.0731 90.5985 14.0441 90.9044 14.0441C91.2109 14.0441 91.4185 14.0731 91.5248 14.1335C91.6289 14.1915 91.6947 14.334 91.7251 14.5564C91.7525 14.7788 91.7677 15.2138 91.7677 15.8591C91.7677 16.5068 91.7525 16.9418 91.7251 17.1642C91.6969 17.3866 91.6289 17.5267 91.5248 17.5872ZM99.4316 18.6626H100.713V13.058H98.8271L97.8444 16.6494H97.7837L96.8039 13.058H94.9001V18.6626H96.1452V14.7836H96.2059L97.2645 18.6626H98.305L99.3708 14.7836H99.4316V18.6626ZM102.64 13.058V18.6626H103.964V16.8621H105.014C105.491 16.8621 105.852 16.7823 106.098 16.6252C106.341 16.4682 106.503 16.2555 106.579 15.9896C106.658 15.7237 106.696 15.3781 106.696 14.9552C106.696 14.5105 106.653 14.1553 106.572 13.887C106.488 13.6211 106.329 13.4181 106.088 13.2731C105.85 13.1281 105.496 13.058 105.022 13.058H102.64ZM104.561 15.8108H103.964V14.1093H104.561C104.812 14.1093 104.992 14.1262 105.098 14.1649C105.207 14.2036 105.278 14.2785 105.313 14.3897C105.346 14.5009 105.364 14.6893 105.364 14.9552C105.364 15.2211 105.346 15.4096 105.313 15.5207C105.278 15.6319 105.207 15.7093 105.098 15.7503C104.992 15.7914 104.812 15.8108 104.561 15.8108ZM111.228 18.6626H112.575L111.015 13.058H109.154L107.582 18.6626H108.914L109.197 17.5388H110.929L111.228 18.6626ZM110.083 14.1988L110.663 16.4948H109.461L110.033 14.1988H110.083ZM117.074 18.6626H118.305V13.058H117.031V15.9992H116.988L115.375 13.058H114.035V18.6626H115.307V15.4604H115.35L117.074 18.6626ZM121.386 18.6626H122.715V16.7316L124.399 13.058H123.067L122.11 15.4434H122.041L121.059 13.058H119.694L121.386 16.7316V18.6626Z" fill="white"/>
</g>
<defs>
<clipPath id="clip0_1117_1020">
<rect width="124.369" height="27.9589" fill="white" transform="translate(0.0302734 0.805542)"/>
</clipPath>
</defs>
</svg>
