<svg width="165" height="28" viewBox="0 0 165 28" fill="none" xmlns="http://www.w3.org/2000/svg">
<g clip-path="url(#clip0_1406_1356)">
<path d="M17.0174 16.8718C16.122 17.1299 15.5867 18.1025 15.9465 18.996C16.7735 21.0494 18.072 22.8702 19.7378 24.2915C21.8396 26.0847 24.4227 27.1539 27.1313 27.3518C29.8399 27.5497 32.5407 26.8664 34.8615 25.3962C37.1823 23.926 39.009 21.7412 40.0898 19.1429C41.1706 16.5445 41.4525 13.6605 40.8962 10.8881C40.3401 8.11573 38.9733 5.5915 36.9845 3.66319C34.9958 1.7349 32.4827 0.497424 29.7914 0.121287C27.6583 -0.176839 25.4967 0.0777634 23.4941 0.850536C22.6228 1.18677 22.3075 2.25895 22.7385 3.11743C23.1696 3.97592 24.1841 4.2911 25.0688 3.99533C26.4417 3.53634 27.902 3.39802 29.3446 3.59964C31.346 3.87939 33.2151 4.79968 34.6941 6.23376C36.1734 7.66784 37.1895 9.54511 37.6034 11.6069C38.0169 13.6687 37.8074 15.8136 37.0035 17.746C36.1998 19.6784 34.8413 21.3032 33.1153 22.3966C31.3893 23.49 29.3807 23.9981 27.3663 23.8509C25.3519 23.7038 23.4309 22.9086 21.8678 21.575C20.7411 20.6137 19.8404 19.4068 19.2239 18.0474C18.8266 17.1713 17.9129 16.6137 17.0174 16.8718Z" fill="#3173DB"/>
<path d="M16.9168 16.8105L24.9398 13.7004C25.7734 13.3772 26.7003 13.82 27.01 14.6895L27.01 14.6895C27.3198 15.5589 26.895 16.5257 26.0614 16.8489L18.0384 19.959C17.2048 20.2821 16.2779 19.8393 15.9681 18.9699L15.9681 18.9698C15.6584 18.1004 16.0831 17.1336 16.9168 16.8105Z" fill="#3173DB"/>
<path d="M16.9168 16.8105L24.9398 13.7004C25.7734 13.3772 26.7003 13.82 27.01 14.6895L27.01 14.6895C27.3198 15.5589 26.895 16.5257 26.0614 16.8489L18.0384 19.959C17.2048 20.2821 16.2779 19.8393 15.9681 18.9699L15.9681 18.9698C15.6584 18.1004 16.0831 17.1336 16.9168 16.8105Z" fill="#3173DB"/>
<path d="M24.1606 10.5125C25.0541 10.2549 25.5881 9.28448 25.2294 8.3929C24.4025 6.33794 23.1035 4.51594 21.4367 3.09377C19.3349 1.30053 16.7518 0.231313 14.0431 0.033457C11.3345 -0.164399 8.63375 0.518836 6.31293 1.98903C3.99211 3.45924 2.16545 5.644 1.08467 8.24238C0.00388346 10.8407 -0.277849 13.7248 0.278289 16.4971C0.834427 19.2695 2.20106 21.7938 4.1899 23.7221C6.17873 25.6503 8.6919 26.8878 11.3831 27.264C13.5174 27.5623 15.6803 27.3072 17.6839 26.5334C18.5532 26.1976 18.8677 25.1278 18.4377 24.2713C18.0076 23.4147 16.9953 23.1002 16.1127 23.3958C14.7374 23.8564 13.2743 23.9954 11.8289 23.7933C9.82589 23.5134 7.95544 22.5924 6.47519 21.1572C4.99497 19.722 3.97783 17.8433 3.56392 15.7799C3.15001 13.7166 3.3597 11.5701 4.16408 9.63618C4.96846 7.70229 6.32798 6.07625 8.05532 4.98201C9.78262 3.88778 11.7927 3.37929 13.8086 3.52655C15.8246 3.67381 17.7472 4.46957 19.3114 5.80424C20.4403 6.76739 21.3424 7.97693 21.9594 9.33931C22.3554 10.2136 23.2672 10.7699 24.1606 10.5125Z" fill="#3173DB"/>
<path d="M24.1606 10.5125C25.0541 10.2549 25.5881 9.28448 25.2294 8.3929C24.4025 6.33794 23.1035 4.51594 21.4367 3.09377C19.3349 1.30053 16.7518 0.231313 14.0431 0.033457C11.3345 -0.164399 8.63375 0.518836 6.31293 1.98903C3.99211 3.45924 2.16545 5.644 1.08467 8.24238C0.00388346 10.8407 -0.277849 13.7248 0.278289 16.4971C0.834427 19.2695 2.20106 21.7938 4.1899 23.7221C6.17873 25.6503 8.6919 26.8878 11.3831 27.264C13.5174 27.5623 15.6803 27.3072 17.6839 26.5334C18.5532 26.1976 18.8677 25.1278 18.4377 24.2713C18.0076 23.4147 16.9953 23.1002 16.1127 23.3958C14.7374 23.8564 13.2743 23.9954 11.8289 23.7933C9.82589 23.5134 7.95544 22.5924 6.47519 21.1572C4.99497 19.722 3.97783 17.8433 3.56392 15.7799C3.15001 13.7166 3.3597 11.5701 4.16408 9.63618C4.96846 7.70229 6.32798 6.07625 8.05532 4.98201C9.78262 3.88778 11.7927 3.37929 13.8086 3.52655C15.8246 3.67381 17.7472 4.46957 19.3114 5.80424C20.4403 6.76739 21.3424 7.97693 21.9594 9.33931C22.3554 10.2136 23.2672 10.7699 24.1606 10.5125Z" fill="#3173DB"/>
<path d="M24.258 10.5742L16.2346 13.6845C15.401 14.0076 14.4743 13.5648 14.1646 12.6955C13.8549 11.8263 14.2796 10.8596 15.1131 10.5365L23.1366 7.42624C23.9701 7.10313 24.8968 7.54589 25.2065 8.41518C25.5162 9.28447 25.0915 10.2511 24.258 10.5742Z" fill="#3173DB"/>
<path d="M24.258 10.5742L16.2346 13.6845C15.401 14.0076 14.4743 13.5648 14.1646 12.6955C13.8549 11.8263 14.2796 10.8596 15.1131 10.5365L23.1366 7.42624C23.9701 7.10313 24.8968 7.54589 25.2065 8.41518C25.5162 9.28447 25.0915 10.2511 24.258 10.5742Z" fill="#3173DB"/>
<path d="M54.2248 20.9116C52.78 20.9116 51.4967 20.5824 50.3748 19.924C49.2528 19.251 48.383 18.3219 47.766 17.1369C47.149 15.9371 46.8403 14.5765 46.8403 13.0549C46.8403 11.504 47.1628 10.1287 47.8081 8.92902C48.4534 7.72929 49.3298 6.80025 50.4379 6.14187C51.5598 5.48349 52.8011 5.1543 54.1616 5.1543C55.2556 5.1543 56.2093 5.29328 57.0228 5.57127C57.8502 5.84927 58.6428 6.23696 59.4002 6.73441C59.5123 6.79295 59.6105 6.89534 59.6947 7.04166C59.7789 7.18798 59.8209 7.3489 59.8209 7.52447C59.8209 7.77318 59.7368 7.98534 59.5685 8.16091C59.4143 8.33648 59.2039 8.42426 58.9373 8.42426C58.7831 8.42426 58.6359 8.38767 58.4955 8.31453C57.8364 7.90486 57.177 7.59762 56.5179 7.3928C55.8588 7.18798 55.1435 7.08555 54.372 7.08555C53.306 7.08555 52.3454 7.31965 51.4898 7.78783C50.6341 8.256 49.9609 8.94366 49.4701 9.85076C48.9931 10.7432 48.7548 11.8113 48.7548 13.0549C48.7548 14.1961 48.9793 15.2202 49.428 16.1273C49.8909 17.0198 50.55 17.7294 51.4056 18.2561C52.2751 18.7682 53.2991 19.0242 54.4772 19.0242C55.7957 19.0242 57.0228 18.7023 58.1589 18.0586V14.0863H54.6876C54.4493 14.0863 54.2458 13.9986 54.0775 13.823C53.9092 13.6474 53.825 13.4353 53.825 13.1866C53.825 12.9378 53.9092 12.7257 54.0775 12.5501C54.2458 12.3746 54.4493 12.2868 54.6876 12.2868H58.8321C59.1125 12.2868 59.3512 12.3892 59.5474 12.594C59.7437 12.7988 59.842 13.0476 59.842 13.3402V18.3219C59.842 18.6292 59.7647 18.9072 59.6105 19.1559C59.4702 19.39 59.2808 19.5656 59.0425 19.6826C57.4716 20.5019 55.8657 20.9116 54.2248 20.9116ZM63.7518 20.6921C63.4852 20.6921 63.2607 20.597 63.0786 20.4068C62.8961 20.2166 62.8051 19.9825 62.8051 19.7045V6.38328C62.8051 6.10528 62.8961 5.87121 63.0786 5.681C63.2607 5.47618 63.4852 5.37376 63.7518 5.37376H72.1881C72.4406 5.37376 72.651 5.46885 72.8193 5.65906C73.0014 5.83462 73.0928 6.05409 73.0928 6.31744C73.0928 6.58079 73.0014 6.80025 72.8193 6.97582C72.651 7.15139 72.4406 7.23917 72.1881 7.23917H64.7195V12.0893H71.4307C71.6832 12.0893 71.8936 12.1843 72.0619 12.3746C72.244 12.5501 72.3354 12.7696 72.3354 13.0329C72.3354 13.2963 72.244 13.5157 72.0619 13.6913C71.8936 13.8669 71.6832 13.9547 71.4307 13.9547H64.7195V18.8267H72.1881C72.4406 18.8267 72.651 18.9218 72.8193 19.112C73.0014 19.2876 73.0928 19.507 73.0928 19.7704C73.0928 20.0337 73.0014 20.2532 72.8193 20.4288C72.651 20.6043 72.4406 20.6921 72.1881 20.6921H63.7518ZM79.7342 20.8018C79.468 20.8018 79.2434 20.7068 79.061 20.5165C78.8789 20.3263 78.7875 20.0923 78.7875 19.8143V7.23917H74.4957C74.2433 7.23917 74.0329 7.15139 73.8646 6.97582C73.6963 6.80025 73.6121 6.58079 73.6121 6.31744C73.6121 6.05409 73.6963 5.83462 73.8646 5.65906C74.0329 5.46885 74.2433 5.37376 74.4957 5.37376H84.9728C85.2252 5.37376 85.4356 5.46885 85.6039 5.65906C85.7863 5.83462 85.8774 6.05409 85.8774 6.31744C85.8774 6.58079 85.7863 6.80025 85.6039 6.97582C85.4356 7.15139 85.2252 7.23917 84.9728 7.23917H80.702V19.8143C80.702 20.0923 80.604 20.3263 80.4075 20.5165C80.2253 20.7068 80.0008 20.8018 79.7342 20.8018ZM86.2546 15.4251C86.016 15.4251 85.8128 15.3446 85.6445 15.1837C85.49 15.0081 85.4131 14.7959 85.4131 14.5472C85.4131 14.2985 85.49 14.0863 85.6445 13.9108C85.8128 13.7352 86.016 13.6474 86.2546 13.6474H90.2308C90.4692 13.6474 90.6726 13.7352 90.8409 13.9108C91.0092 14.0863 91.0934 14.2985 91.0934 14.5472C91.0934 14.7959 91.0092 15.0081 90.8409 15.1837C90.6726 15.3446 90.4692 15.4251 90.2308 15.4251H86.2546ZM100.249 20.9116C98.8045 20.9116 97.5212 20.5824 96.3992 19.924C95.2773 19.251 94.4075 18.3219 93.7905 17.1369C93.1735 15.9371 92.8648 14.5765 92.8648 13.0549C92.8648 11.504 93.1873 10.1287 93.8326 8.92902C94.4778 7.72929 95.3542 6.80025 96.4623 6.14187C97.5843 5.48349 98.8256 5.1543 100.186 5.1543C101.28 5.1543 102.234 5.29328 103.047 5.57127C103.875 5.84927 104.667 6.23696 105.425 6.73441C105.537 6.79295 105.635 6.89534 105.719 7.04166C105.803 7.18798 105.845 7.3489 105.845 7.52447C105.845 7.77318 105.761 7.98534 105.593 8.16091C105.439 8.33648 105.228 8.42426 104.962 8.42426C104.808 8.42426 104.66 8.38767 104.52 8.31453C103.861 7.90486 103.202 7.59762 102.542 7.3928C101.883 7.18798 101.168 7.08555 100.396 7.08555C99.3305 7.08555 98.3699 7.31965 97.5143 7.78783C96.6586 8.256 95.9854 8.94366 95.4946 9.85076C95.0176 10.7432 94.7793 11.8113 94.7793 13.0549C94.7793 14.1961 95.0038 15.2202 95.4525 16.1273C95.9154 17.0198 96.5745 17.7294 97.4301 18.2561C98.2996 18.7682 99.3236 19.0242 100.502 19.0242C101.82 19.0242 103.047 18.7023 104.183 18.0586V14.0863H100.712C100.474 14.0863 100.27 13.9986 100.102 13.823C99.9337 13.6474 99.8495 13.4353 99.8495 13.1866C99.8495 12.9378 99.9337 12.7257 100.102 12.5501C100.27 12.3746 100.474 12.2868 100.712 12.2868H104.857C105.137 12.2868 105.376 12.3892 105.572 12.594C105.768 12.7988 105.866 13.0476 105.866 13.3402V18.3219C105.866 18.6292 105.789 18.9072 105.635 19.1559C105.495 19.39 105.305 19.5656 105.067 19.6826C103.496 20.5019 101.89 20.9116 100.249 20.9116ZM109.776 20.8018C109.51 20.8018 109.285 20.7068 109.103 20.5165C108.921 20.3263 108.829 20.0923 108.829 19.8143V6.38328C108.829 6.10528 108.921 5.87121 109.103 5.681C109.285 5.47618 109.51 5.37376 109.776 5.37376H114.678C116.585 5.37376 118.016 5.78343 118.97 6.60274C119.924 7.42205 120.4 8.4974 120.4 9.82881C120.4 10.7067 120.162 11.5114 119.685 12.2429C119.222 12.9598 118.542 13.4792 117.644 13.801C118.654 14.079 119.341 14.7374 119.706 15.7762C120.085 16.8004 120.274 17.8099 120.274 18.8048V19.8143C120.274 20.0923 120.183 20.3263 120.001 20.5165C119.818 20.7068 119.594 20.8018 119.327 20.8018C119.033 20.8018 118.794 20.7141 118.612 20.5385C118.444 20.3483 118.36 20.1069 118.36 19.8143V19.1559C118.36 18.4244 118.296 17.7513 118.17 17.1369C118.044 16.5077 117.743 15.9518 117.266 15.469C116.789 14.9715 116.066 14.7228 115.099 14.7228H110.744V19.8143C110.744 20.0923 110.646 20.3263 110.449 20.5165C110.267 20.7068 110.043 20.8018 109.776 20.8018ZM114.552 12.8354C115.758 12.8354 116.712 12.5867 117.413 12.0893C118.128 11.5918 118.486 10.8895 118.486 9.98243C118.486 9.10459 118.177 8.43157 117.56 7.96339C116.957 7.49522 115.919 7.26112 114.446 7.26112H110.744V12.8354H114.552ZM122.923 20.8018C122.643 20.8018 122.411 20.7068 122.229 20.5165C122.06 20.3263 121.976 20.0923 121.976 19.8143C121.976 19.6972 122.012 19.5509 122.082 19.3753L127.446 6.16382C127.559 5.90046 127.713 5.68831 127.909 5.52738C128.12 5.35181 128.372 5.26403 128.667 5.26403H128.877C129.171 5.26403 129.417 5.35181 129.613 5.52738C129.824 5.68831 129.985 5.90046 130.097 6.16382L135.462 19.3753C135.532 19.5509 135.567 19.6972 135.567 19.8143C135.567 20.0923 135.476 20.3263 135.294 20.5165C135.125 20.7068 134.901 20.8018 134.62 20.8018C134.424 20.8018 134.242 20.7506 134.073 20.6482C133.919 20.5312 133.8 20.3776 133.716 20.1874L132.348 16.7638H125.195L123.828 20.1874C123.744 20.3776 123.617 20.5312 123.449 20.6482C123.295 20.7506 123.12 20.8018 122.923 20.8018ZM125.932 14.9422H131.612L128.772 7.80977L125.932 14.9422ZM138.767 20.8018C138.5 20.8018 138.276 20.7068 138.094 20.5165C137.911 20.3263 137.82 20.0923 137.82 19.8143V6.71247C137.82 6.31744 137.953 5.98094 138.22 5.70295C138.487 5.41034 138.809 5.26403 139.188 5.26403H139.461C139.91 5.26403 140.296 5.48349 140.618 5.92241L148.718 18.1244V6.27355C148.718 5.99555 148.809 5.76148 148.992 5.57127C149.174 5.36645 149.398 5.26403 149.665 5.26403C149.931 5.26403 150.156 5.36645 150.338 5.57127C150.534 5.76148 150.633 5.99555 150.633 6.27355V19.3753C150.633 19.7704 150.492 20.1069 150.212 20.3849C149.945 20.6629 149.623 20.8018 149.244 20.8018H148.992C148.767 20.8018 148.557 20.7506 148.36 20.6482C148.164 20.5312 148.003 20.3849 147.877 20.2093L139.735 7.94145V19.8143C139.735 20.0923 139.636 20.3263 139.44 20.5165C139.258 20.7068 139.034 20.8018 138.767 20.8018ZM158.222 20.8018C157.955 20.8018 157.731 20.7068 157.548 20.5165C157.366 20.3263 157.275 20.0923 157.275 19.8143V7.23917H152.983C152.731 7.23917 152.52 7.15139 152.352 6.97582C152.184 6.80025 152.1 6.58079 152.1 6.31744C152.1 6.05409 152.184 5.83462 152.352 5.65906C152.52 5.46885 152.731 5.37376 152.983 5.37376H163.46C163.713 5.37376 163.923 5.46885 164.091 5.65906C164.274 5.83462 164.365 6.05409 164.365 6.31744C164.365 6.58079 164.274 6.80025 164.091 6.97582C163.923 7.15139 163.713 7.23917 163.46 7.23917H159.189V19.8143C159.189 20.0923 159.091 20.3263 158.895 20.5165C158.713 20.7068 158.488 20.8018 158.222 20.8018Z" fill="#3173DB"/>
<path d="M50.3745 19.9241L50.0749 20.4677L50.0773 20.4691L50.0797 20.4706L50.3745 19.9241ZM47.7658 17.1369L47.2362 17.4334L47.2377 17.4362L47.7658 17.1369ZM47.8079 8.9291L48.332 9.23587L47.8079 8.9291ZM50.4376 6.14195L50.1428 5.59543L50.1401 5.59712L50.4376 6.14195ZM57.0226 5.57135L56.8354 6.16722L56.8384 6.16819L57.0226 5.57135ZM59.3999 6.73449L59.0796 7.26512L59.1048 7.28154L59.1313 7.29534L59.3999 6.73449ZM59.6945 7.04174L59.179 7.36434L59.6945 7.04174ZM59.5682 8.16099L59.1433 7.71761L59.134 7.72724L59.1252 7.7373L59.5682 8.16099ZM58.4953 8.31461L58.1875 8.85329L58.2068 8.86511L58.2266 8.87546L58.4953 8.31461ZM56.5177 7.39287L56.6893 6.79193L56.5177 7.39287ZM51.4896 7.7879L51.7688 8.34317L51.4896 7.7879ZM49.4699 9.85083L48.9463 9.54259L48.9448 9.54556L49.4699 9.85083ZM49.4278 16.1274L48.8937 16.415L48.8964 16.4204L48.8991 16.4258L49.4278 16.1274ZM51.4054 18.2562L51.0997 18.7962L51.1049 18.7993L51.11 18.8022L51.4054 18.2562ZM58.1587 18.0587L58.4457 18.6096L58.7598 18.4316V18.0587H58.1587ZM58.1587 14.0864H58.7598V13.4594H58.1587V14.0864ZM59.6103 19.156L59.1057 18.8153L59.103 18.8195L59.1006 18.8236L59.6103 19.156ZM59.0423 19.6827L58.7862 19.1153L58.7799 19.1185L58.7736 19.1218L59.0423 19.6827ZM54.2245 20.2846C52.8703 20.2846 51.6906 19.977 50.6694 19.3776L50.0797 20.4706C51.3023 21.188 52.6896 21.5387 54.2245 21.5387V20.2846ZM50.6742 19.3805C49.6484 18.7652 48.858 17.9207 48.2938 16.8376L47.2377 17.4362C47.9079 18.7233 48.8565 19.7369 50.0749 20.4677L50.6742 19.3805ZM48.2954 16.8405C47.7306 15.7422 47.4412 14.4855 47.4412 13.055H46.239C46.239 14.6677 46.5669 16.1322 47.2362 17.4334L48.2954 16.8405ZM47.4412 13.055C47.4412 11.5976 47.7435 10.3304 48.332 9.23587L47.2837 8.62232C46.5819 9.92717 46.239 11.4106 46.239 13.055H47.4412ZM48.332 9.23587C48.9259 8.13195 49.7254 7.28678 50.7352 6.68677L50.1401 5.59712C48.934 6.31388 47.9804 7.32678 47.2837 8.62232L48.332 9.23587ZM50.7325 6.68844C51.7591 6.08589 52.8982 5.78141 54.1614 5.78141V4.52734C52.7038 4.52734 51.36 4.88124 50.1428 5.59543L50.7325 6.68844ZM54.1614 5.78141C55.2085 5.78141 56.0966 5.91471 56.8354 6.16722L57.2099 4.97548C56.3217 4.67203 55.3023 4.52734 54.1614 4.52734V5.78141ZM56.8384 6.16819C57.6168 6.42966 58.3637 6.79475 59.0796 7.26512L59.7203 6.20387C58.9215 5.67936 58.0835 5.26903 57.2069 4.97451L56.8384 6.16819ZM59.1313 7.29534C59.1144 7.28656 59.1361 7.28976 59.179 7.36434L60.2099 6.71913C60.0846 6.50111 59.91 6.29946 59.6686 6.17364L59.1313 7.29534ZM59.179 7.36434C59.2055 7.41027 59.2196 7.45918 59.2196 7.52455H60.4218C60.4218 7.23878 60.3518 6.9658 60.2099 6.71913L59.179 7.36434ZM59.2196 7.52455C59.2196 7.60729 59.1986 7.65986 59.1433 7.71761L59.9932 8.60436C60.2745 8.31097 60.4218 7.93924 60.4218 7.52455H59.2196ZM59.1252 7.7373C59.1039 7.76135 59.066 7.79731 58.9371 7.79731V9.05137C59.3413 9.05137 59.7239 8.91176 60.0113 8.58467L59.1252 7.7373ZM58.9371 7.79731C58.8776 7.79731 58.8223 7.78414 58.764 7.75376L58.2266 8.87546C58.4487 8.99139 58.6879 9.05137 58.9371 9.05137V7.79731ZM58.8031 7.77593C58.1058 7.34274 57.4013 7.01318 56.6893 6.79193L56.3461 7.99382C56.9526 8.18224 57.5663 8.46716 58.1875 8.85329L58.8031 7.77593ZM56.6893 6.79193C55.968 6.56786 55.1944 6.4586 54.3718 6.4586V7.71266C55.0919 7.71266 55.7489 7.80825 56.3461 7.99382L56.6893 6.79193ZM54.3718 6.4586C53.2189 6.4586 52.1607 6.71261 51.2104 7.23264L51.7688 8.34317C52.5294 7.92685 53.3929 7.71266 54.3718 7.71266V6.4586ZM51.2104 7.23264C50.2486 7.75887 49.4921 8.53407 48.9463 9.54259L49.9934 10.1591C50.4292 9.35341 51.0192 8.75331 51.7688 8.34317L51.2104 7.23264ZM48.9448 9.54556C48.4084 10.5496 48.1535 11.7275 48.1535 13.055H49.3557C49.3557 11.8951 49.5778 10.937 49.9949 10.1561L48.9448 9.54556ZM48.1535 13.055C48.1535 14.2843 48.396 15.4089 48.8937 16.415L49.9619 15.8398C49.5622 15.0317 49.3557 14.1081 49.3557 13.055H48.1535ZM48.8991 16.4258C49.4152 17.4207 50.1524 18.2129 51.0997 18.7962L51.7111 17.7162C50.9474 17.2461 50.3661 16.6191 49.9565 15.8291L48.8991 16.4258ZM51.11 18.8022C52.0846 19.3762 53.2141 19.6513 54.477 19.6513V18.3973C53.3836 18.3973 52.4654 18.1603 51.7008 17.7102L51.11 18.8022ZM54.477 19.6513C55.8935 19.6513 57.2198 19.3043 58.4457 18.6096L57.8717 17.5077C56.8255 18.1005 55.6972 18.3973 54.477 18.3973V19.6513ZM58.7598 18.0587V14.0864H57.5576V18.0587H58.7598ZM58.1587 13.4594H54.6874V14.7135H58.1587V13.4594ZM54.6874 13.4594C54.608 13.4594 54.5575 13.4374 54.5022 13.3797L53.6523 14.2664C53.9336 14.5598 54.2898 14.7135 54.6874 14.7135V13.4594ZM54.5022 13.3797C54.4469 13.3219 54.4259 13.2694 54.4259 13.1866H53.2237C53.2237 13.6013 53.371 13.9731 53.6523 14.2664L54.5022 13.3797ZM54.4259 13.1866C54.4259 13.1039 54.4469 13.0513 54.5022 12.9936L53.6523 12.1068C53.371 12.4002 53.2237 12.772 53.2237 13.1866H54.4259ZM54.5022 12.9936C54.5575 12.9358 54.608 12.9139 54.6874 12.9139V11.6598C54.2898 11.6598 53.9336 11.8134 53.6523 12.1068L54.5022 12.9936ZM54.6874 12.9139H58.8319V11.6598H54.6874V12.9139ZM58.8319 12.9139C58.9548 12.9139 59.0399 12.9516 59.1222 13.0375L59.9722 12.1507C59.662 11.827 59.2701 11.6598 58.8319 11.6598V12.9139ZM59.1222 13.0375C59.2046 13.1234 59.2407 13.212 59.2407 13.3403H60.4428C60.4428 12.8832 60.2826 12.4745 59.9722 12.1507L59.1222 13.0375ZM59.2407 13.3403V18.322H60.4428V13.3403H59.2407ZM59.2407 18.322C59.2407 18.5131 59.1947 18.672 59.1057 18.8153L60.1149 19.4966C60.3346 19.1425 60.4428 18.7454 60.4428 18.322H59.2407ZM59.1006 18.8236C59.0213 18.956 58.92 19.0498 58.7862 19.1153L59.2984 20.25C59.6416 20.0815 59.919 19.8241 60.12 19.4883L59.1006 18.8236ZM58.7736 19.1218C57.2802 19.9008 55.7657 20.2846 54.2245 20.2846V21.5387C55.9653 21.5387 57.6628 21.1032 59.311 20.2435L58.7736 19.1218ZM63.0783 20.4069L63.5033 19.9635L63.0783 20.4069ZM63.0783 5.68108L63.5033 6.12445L63.5111 6.11624L63.5186 6.10774L63.0783 5.68108ZM72.819 5.65913L72.3772 6.08445L72.3935 6.10285L72.4112 6.11988L72.819 5.65913ZM72.819 6.9759L72.4112 6.51516L72.4025 6.52365L72.3938 6.53253L72.819 6.9759ZM64.7193 7.23925V6.61222H64.1182V7.23925H64.7193ZM64.7193 12.0893H64.1182V12.7164H64.7193V12.0893ZM72.0617 12.3746L71.6199 12.7999L71.6361 12.8184L71.6538 12.8354L72.0617 12.3746ZM72.0617 13.6914L71.6538 13.2307L71.6451 13.2392L71.6364 13.248L72.0617 13.6914ZM64.7193 13.9547V13.3277H64.1182V13.9547H64.7193ZM64.7193 18.8268H64.1182V19.4538H64.7193V18.8268ZM72.819 19.1121L72.3772 19.5374L72.3935 19.5558L72.4112 19.5728L72.819 19.1121ZM72.819 20.4288L72.4112 19.9681L72.4025 19.9766L72.3938 19.9855L72.819 20.4288ZM63.7516 20.0652C63.6382 20.0652 63.5688 20.0318 63.5033 19.9635L62.6531 20.8503C62.9524 21.1624 63.3314 21.3192 63.7516 21.3192V20.0652ZM63.5033 19.9635C63.4378 19.8952 63.4059 19.8225 63.4059 19.7046H62.2037C62.2037 20.1427 62.354 20.5382 62.6531 20.8503L63.5033 19.9635ZM63.4059 19.7046V6.38335H62.2037V19.7046H63.4059ZM63.4059 6.38335C63.4059 6.26544 63.4378 6.19274 63.5033 6.12445L62.6531 5.23771C62.354 5.54981 62.2037 5.94528 62.2037 6.38335H63.4059ZM63.5186 6.10774C63.5881 6.02987 63.653 6.00087 63.7516 6.00087V4.7468C63.3167 4.7468 62.9332 4.92262 62.6377 5.25442L63.5186 6.10774ZM63.7516 6.00087H72.1879V4.7468H63.7516V6.00087ZM72.1879 6.00087C72.2757 6.00087 72.3249 6.02535 72.3772 6.08445L73.2605 5.23382C72.9762 4.91253 72.6047 4.7468 72.1879 4.7468V6.00087ZM72.4112 6.11988C72.4677 6.17443 72.4914 6.22569 72.4914 6.31752H73.6936C73.6936 5.88264 73.5346 5.49498 73.2266 5.19839L72.4112 6.11988ZM72.4914 6.31752C72.4914 6.40934 72.4677 6.4606 72.4112 6.51516L73.2266 7.43664C73.5346 7.14006 73.6936 6.75239 73.6936 6.31752H72.4914ZM72.3938 6.53253C72.3457 6.58281 72.2916 6.61222 72.1879 6.61222V7.86628C72.5888 7.86628 72.9555 7.72012 73.244 7.41927L72.3938 6.53253ZM72.1879 6.61222H64.7193V7.86628H72.1879V6.61222ZM64.1182 7.23925V12.0893H65.3204V7.23925H64.1182ZM64.7193 12.7164H71.4305V11.4623H64.7193V12.7164ZM71.4305 12.7164C71.5183 12.7164 71.5676 12.7408 71.6199 12.7999L72.5032 11.9493C72.2189 11.628 71.8474 11.4623 71.4305 11.4623V12.7164ZM71.6538 12.8354C71.7103 12.8899 71.7341 12.9412 71.7341 13.033H72.9363C72.9363 12.5981 72.7773 12.2105 72.4692 11.9139L71.6538 12.8354ZM71.7341 13.033C71.7341 13.1248 71.7103 13.1761 71.6538 13.2307L72.4692 14.1521C72.7773 13.8556 72.9363 13.4679 72.9363 13.033H71.7341ZM71.6364 13.248C71.5883 13.2983 71.5342 13.3277 71.4305 13.3277V14.5818C71.8314 14.5818 72.1981 14.4356 72.4866 14.1348L71.6364 13.248ZM71.4305 13.3277H64.7193V14.5818H71.4305V13.3277ZM64.1182 13.9547V18.8268H65.3204V13.9547H64.1182ZM64.7193 19.4538H72.1879V18.1997H64.7193V19.4538ZM72.1879 19.4538C72.2757 19.4538 72.3249 19.4783 72.3772 19.5374L73.2605 18.6868C72.9762 18.3655 72.6047 18.1997 72.1879 18.1997V19.4538ZM72.4112 19.5728C72.4677 19.6274 72.4914 19.6786 72.4914 19.7705H73.6936C73.6936 19.3356 73.5346 18.9479 73.2266 18.6513L72.4112 19.5728ZM72.4914 19.7705C72.4914 19.8623 72.4677 19.9135 72.4112 19.9681L73.2266 20.8896C73.5346 20.593 73.6936 20.2053 73.6936 19.7705H72.4914ZM72.3938 19.9855C72.3457 20.0358 72.2916 20.0652 72.1879 20.0652V21.3192C72.5888 21.3192 72.9555 21.1731 73.244 20.8722L72.3938 19.9855ZM72.1879 20.0652H63.7516V21.3192H72.1879V20.0652ZM79.0608 20.5166L78.6358 20.96L79.0608 20.5166ZM78.7873 7.23925H79.3884V6.61222H78.7873V7.23925ZM73.8643 6.9759L73.4394 7.41927L73.8643 6.9759ZM73.8643 5.65913L74.2893 6.10251L74.298 6.09363L74.3061 6.08445L73.8643 5.65913ZM85.6037 5.65913L85.1622 6.08445L85.1784 6.10285L85.1961 6.11988L85.6037 5.65913ZM85.6037 6.9759L85.1961 6.51516L85.1871 6.52365L85.1787 6.53253L85.6037 6.9759ZM80.7018 7.23925V6.61222H80.1007V7.23925H80.7018ZM80.4072 20.5166L79.9982 20.0571L79.9901 20.065L79.9823 20.0733L80.4072 20.5166ZM79.734 20.1749C79.621 20.1749 79.5513 20.1415 79.4858 20.0733L78.6358 20.96C78.9352 21.2721 79.3141 21.429 79.734 21.429V20.1749ZM79.4858 20.0733C79.4205 20.005 79.3884 19.9323 79.3884 19.8144H78.1862C78.1862 20.2524 78.3365 20.6479 78.6358 20.96L79.4858 20.0733ZM79.3884 19.8144V7.23925H78.1862V19.8144H79.3884ZM78.7873 6.61222H74.4955V7.86628H78.7873V6.61222ZM74.4955 6.61222C74.3918 6.61222 74.3377 6.58281 74.2893 6.53253L73.4394 7.41927C73.7279 7.72012 74.0943 7.86628 74.4955 7.86628V6.61222ZM74.2893 6.53253C74.2412 6.48224 74.213 6.42577 74.213 6.31752H73.0108C73.0108 6.73597 73.1508 7.11842 73.4394 7.41927L74.2893 6.53253ZM74.213 6.31752C74.213 6.20926 74.2412 6.1528 74.2893 6.10251L73.4394 5.21576C73.1508 5.51661 73.0108 5.89907 73.0108 6.31752H74.213ZM74.3061 6.08445C74.3584 6.02535 74.4074 6.00087 74.4955 6.00087V4.7468C74.0786 4.7468 73.7072 4.91253 73.4228 5.23382L74.3061 6.08445ZM74.4955 6.00087H84.9725V4.7468H74.4955V6.00087ZM84.9725 6.00087C85.0606 6.00087 85.1099 6.02535 85.1622 6.08445L86.0455 5.23382C85.7612 4.91253 85.3894 4.7468 84.9725 4.7468V6.00087ZM85.1961 6.11988C85.2527 6.17443 85.2761 6.22569 85.2761 6.31752H86.4783C86.4783 5.88264 86.3196 5.49498 86.0115 5.19839L85.1961 6.11988ZM85.2761 6.31752C85.2761 6.40934 85.2527 6.4606 85.1961 6.51516L86.0115 7.43664C86.3196 7.14006 86.4783 6.75239 86.4783 6.31752H85.2761ZM85.1787 6.53253C85.1306 6.58281 85.0762 6.61222 84.9725 6.61222V7.86628C85.3738 7.86628 85.7404 7.72012 86.0287 7.41927L85.1787 6.53253ZM84.9725 6.61222H80.7018V7.86628H84.9725V6.61222ZM80.1007 7.23925V19.8144H81.3029V7.23925H80.1007ZM80.1007 19.8144C80.1007 19.9169 80.073 19.9848 79.9982 20.0571L80.8163 20.9761C81.1343 20.668 81.3029 20.2678 81.3029 19.8144H80.1007ZM79.9823 20.0733C79.9167 20.1415 79.847 20.1749 79.734 20.1749V21.429C80.1539 21.429 80.5332 21.2721 80.8322 20.96L79.9823 20.0733ZM85.6443 15.1837L85.201 15.6074L85.2187 15.6275L85.2379 15.6459L85.6443 15.1837ZM85.6443 13.9109L85.2193 13.4675L85.21 13.4771L85.201 13.4871L85.6443 13.9109ZM90.8407 15.1837L91.2467 15.6459L91.2564 15.6367L91.2657 15.6271L90.8407 15.1837ZM86.2544 14.7981C86.1588 14.7981 86.1026 14.7714 86.0503 14.7215L85.2379 15.6459C85.5225 15.918 85.8727 16.0522 86.2544 16.0522V14.7981ZM86.0873 14.76C86.0395 14.7056 86.0139 14.6468 86.0139 14.5473H84.8117C84.8117 14.9452 84.9404 15.3107 85.201 15.6074L86.0873 14.76ZM86.0139 14.5473C86.0139 14.4478 86.0395 14.389 86.0873 14.3345L85.201 13.4871C84.9404 13.7839 84.8117 14.1493 84.8117 14.5473H86.0139ZM86.0692 14.3542C86.1245 14.2965 86.175 14.2745 86.2544 14.2745V13.0205C85.8567 13.0205 85.5003 13.1741 85.2193 13.4675L86.0692 14.3542ZM86.2544 14.2745H90.2306V13.0205H86.2544V14.2745ZM90.2306 14.2745C90.3099 14.2745 90.3601 14.2965 90.4157 14.3542L91.2657 13.4675C90.9844 13.1741 90.6279 13.0205 90.2306 13.0205V14.2745ZM90.4157 14.3542C90.471 14.412 90.4921 14.4646 90.4921 14.5473H91.6943C91.6943 14.1326 91.547 13.7609 91.2657 13.4675L90.4157 14.3542ZM90.4921 14.5473C90.4921 14.63 90.471 14.6826 90.4157 14.7404L91.2657 15.6271C91.547 15.3337 91.6943 14.962 91.6943 14.5473H90.4921ZM90.4344 14.7215C90.3824 14.7714 90.3259 14.7981 90.2306 14.7981V16.0522C90.612 16.0522 90.9624 15.918 91.2467 15.6459L90.4344 14.7215ZM90.2306 14.7981H86.2544V16.0522H90.2306V14.7981ZM96.399 19.9241L96.0994 20.4677L96.1018 20.4691L96.1042 20.4706L96.399 19.9241ZM93.7903 17.1369L93.2607 17.4334L93.2619 17.4362L93.7903 17.1369ZM93.8323 8.9291L94.3565 9.23587L93.8323 8.9291ZM96.4621 6.14195L96.1673 5.59543L96.1646 5.59712L96.4621 6.14195ZM103.047 5.57135L102.86 6.16722L102.863 6.16819L103.047 5.57135ZM105.424 6.73449L105.104 7.26512L105.129 7.28154L105.156 7.29534L105.424 6.73449ZM105.719 7.04174L105.204 7.36434L105.719 7.04174ZM105.593 8.16099L105.168 7.71761L105.158 7.72724L105.15 7.7373L105.593 8.16099ZM104.52 8.31461L104.212 8.85329L104.231 8.86511L104.251 8.87546L104.52 8.31461ZM102.542 7.39287L102.714 6.79193L102.542 7.39287ZM97.514 7.7879L97.7933 8.34317L97.514 7.7879ZM95.4944 9.85083L94.9708 9.54259L94.9693 9.54556L95.4944 9.85083ZM95.4523 16.1274L94.9182 16.415L94.9209 16.4204L94.9236 16.4258L95.4523 16.1274ZM97.4299 18.2562L97.1242 18.7962L97.1293 18.7993L97.1344 18.8022L97.4299 18.2562ZM104.183 18.0587L104.47 18.6096L104.784 18.4316V18.0587H104.183ZM104.183 14.0864H104.784V13.4594H104.183V14.0864ZM105.635 19.156L105.13 18.8153L105.127 18.8195L105.125 18.8236L105.635 19.156ZM105.067 19.6827L104.811 19.1153L104.804 19.1185L104.798 19.1218L105.067 19.6827ZM100.249 20.2846C98.8948 20.2846 97.7151 19.977 96.6936 19.3776L96.1042 20.4706C97.3268 21.188 98.7141 21.5387 100.249 21.5387V20.2846ZM96.6987 19.3805C95.6729 18.7652 94.8825 17.9207 94.3183 16.8376L93.2619 17.4362C93.9324 18.7233 94.881 19.7369 96.0994 20.4677L96.6987 19.3805ZM94.3198 16.8405C93.7551 15.7422 93.4657 14.4855 93.4657 13.055H92.2635C92.2635 14.6677 92.5914 16.1322 93.2607 17.4334L94.3198 16.8405ZM93.4657 13.055C93.4657 11.5976 93.768 10.3304 94.3565 9.23587L93.3082 8.62232C92.6064 9.92717 92.2635 11.4106 92.2635 13.055H93.4657ZM94.3565 9.23587C94.9501 8.13195 95.7498 7.28678 96.7597 6.68677L96.1646 5.59712C94.9582 6.31388 94.0049 7.32678 93.3082 8.62232L94.3565 9.23587ZM96.7567 6.68844C97.7836 6.08589 98.9227 5.78141 100.186 5.78141V4.52734C98.7283 4.52734 97.3845 4.88124 96.1673 5.59543L96.7567 6.68844ZM100.186 5.78141C101.233 5.78141 102.121 5.91471 102.86 6.16722L103.234 4.97548C102.346 4.67203 101.327 4.52734 100.186 4.52734V5.78141ZM102.863 6.16819C103.641 6.42966 104.388 6.79475 105.104 7.26512L105.745 6.20387C104.946 5.67936 104.108 5.26903 103.231 4.97451L102.863 6.16819ZM105.156 7.29534C105.139 7.28656 105.161 7.28976 105.204 7.36434L106.234 6.71913C106.109 6.50111 105.934 6.29946 105.693 6.17364L105.156 7.29534ZM105.204 7.36434C105.23 7.41027 105.244 7.45918 105.244 7.52455H106.446C106.446 7.23878 106.376 6.9658 106.234 6.71913L105.204 7.36434ZM105.244 7.52455C105.244 7.60729 105.223 7.65986 105.168 7.71761L106.018 8.60436C106.299 8.31097 106.446 7.93924 106.446 7.52455H105.244ZM105.15 7.7373C105.128 7.76135 105.091 7.79731 104.962 7.79731V9.05137C105.366 9.05137 105.748 8.91176 106.036 8.58467L105.15 7.7373ZM104.962 7.79731C104.902 7.79731 104.847 7.78414 104.788 7.75376L104.251 8.87546C104.473 8.99139 104.712 9.05137 104.962 9.05137V7.79731ZM104.828 7.77593C104.13 7.34274 103.426 7.01318 102.714 6.79193L102.371 7.99382C102.977 8.18224 103.591 8.46716 104.212 8.85329L104.828 7.77593ZM102.714 6.79193C101.992 6.56786 101.219 6.4586 100.396 6.4586V7.71266C101.116 7.71266 101.773 7.80825 102.371 7.99382L102.714 6.79193ZM100.396 6.4586C99.2434 6.4586 98.1852 6.71261 97.2348 7.23264L97.7933 8.34317C98.5539 7.92685 99.4174 7.71266 100.396 7.71266V6.4586ZM97.2348 7.23264C96.2731 7.75887 95.5166 8.53407 94.9708 9.54259L96.0179 10.1591C96.4537 9.35341 97.0437 8.75331 97.7933 8.34317L97.2348 7.23264ZM94.9693 9.54556C94.4328 10.5496 94.178 11.7275 94.178 13.055H95.3802C95.3802 11.8951 95.6023 10.937 96.0194 10.1561L94.9693 9.54556ZM94.178 13.055C94.178 14.2843 94.4202 15.4089 94.9182 16.415L95.9864 15.8398C95.5866 15.0317 95.3802 14.1081 95.3802 13.055H94.178ZM94.9236 16.4258C95.4397 17.4207 96.1769 18.2129 97.1242 18.7962L97.7352 17.7162C96.9719 17.2461 96.3906 16.6191 95.981 15.8291L94.9236 16.4258ZM97.1344 18.8022C98.1091 19.3762 99.2386 19.6513 100.501 19.6513V18.3973C99.4081 18.3973 98.4899 18.1603 97.7253 17.7102L97.1344 18.8022ZM100.501 19.6513C101.918 19.6513 103.244 19.3043 104.47 18.6096L103.896 17.5077C102.85 18.1005 101.722 18.3973 100.501 18.3973V19.6513ZM104.784 18.0587V14.0864H103.582V18.0587H104.784ZM104.183 13.4594H100.712V14.7135H104.183V13.4594ZM100.712 13.4594C100.633 13.4594 100.582 13.4374 100.527 13.3797L99.6768 14.2664C99.9581 14.5598 100.314 14.7135 100.712 14.7135V13.4594ZM100.527 13.3797C100.471 13.3219 100.45 13.2694 100.45 13.1866H99.2482C99.2482 13.6013 99.3955 13.9731 99.6768 14.2664L100.527 13.3797ZM100.45 13.1866C100.45 13.1039 100.471 13.0513 100.527 12.9936L99.6768 12.1068C99.3955 12.4002 99.2482 12.772 99.2482 13.1866H100.45ZM100.527 12.9936C100.582 12.9358 100.633 12.9139 100.712 12.9139V11.6598C100.314 11.6598 99.9581 11.8134 99.6768 12.1068L100.527 12.9936ZM100.712 12.9139H104.856V11.6598H100.712V12.9139ZM104.856 12.9139C104.979 12.9139 105.064 12.9516 105.147 13.0375L105.997 12.1507C105.686 11.827 105.295 11.6598 104.856 11.6598V12.9139ZM105.147 13.0375C105.229 13.1234 105.265 13.212 105.265 13.3403H106.467C106.467 12.8832 106.307 12.4745 105.997 12.1507L105.147 13.0375ZM105.265 13.3403V18.322H106.467V13.3403H105.265ZM105.265 18.322C105.265 18.5131 105.219 18.672 105.13 18.8153L106.139 19.4966C106.359 19.1425 106.467 18.7454 106.467 18.322H105.265ZM105.125 18.8236C105.046 18.956 104.944 19.0498 104.811 19.1153L105.323 20.25C105.666 20.0815 105.943 19.8241 106.145 19.4883L105.125 18.8236ZM104.798 19.1218C103.305 19.9008 101.79 20.2846 100.249 20.2846V21.5387C101.99 21.5387 103.687 21.1032 105.335 20.2435L104.798 19.1218ZM109.103 20.5166L109.528 20.0733L109.103 20.5166ZM109.103 5.68108L109.528 6.12445L109.536 6.11624L109.543 6.10774L109.103 5.68108ZM118.969 6.60282L119.352 6.11878L118.969 6.60282ZM119.685 12.243L119.188 11.8904L119.186 11.8927L119.685 12.243ZM117.644 13.8011L117.449 13.2081L115.575 13.88L117.491 14.4074L117.644 13.8011ZM119.706 15.7763L119.141 15.9919L119.143 15.9969L119.145 16.0019L119.706 15.7763ZM120 20.5166L120.426 20.96L120 20.5166ZM118.612 20.5386L118.17 20.9639L118.187 20.9823L118.204 20.9993L118.612 20.5386ZM118.17 17.1369L117.582 17.2654L117.582 17.2683L118.17 17.1369ZM117.265 15.469L116.84 15.9124L116.844 15.9157L116.847 15.919L117.265 15.469ZM110.743 14.7229V14.0958H110.142V14.7229H110.743ZM110.449 20.5166L110.04 20.0571L110.032 20.065L110.024 20.0733L110.449 20.5166ZM117.413 12.0893L117.079 11.5676L117.077 11.5692L117.075 11.5708L117.413 12.0893ZM117.56 7.96347L117.201 8.46651L117.204 8.46854L117.206 8.47058L117.56 7.96347ZM110.743 7.2612V6.63417H110.142V7.2612H110.743ZM110.743 12.8355H110.142V13.4625H110.743V12.8355ZM109.776 20.1749C109.663 20.1749 109.593 20.1415 109.528 20.0733L108.678 20.96C108.977 21.2721 109.356 21.429 109.776 21.429V20.1749ZM109.528 20.0733C109.462 20.005 109.43 19.9323 109.43 19.8144H108.228C108.228 20.2524 108.378 20.6479 108.678 20.96L109.528 20.0733ZM109.43 19.8144V6.38335H108.228V19.8144H109.43ZM109.43 6.38335C109.43 6.26544 109.462 6.19274 109.528 6.12445L108.678 5.23771C108.378 5.54981 108.228 5.94528 108.228 6.38335H109.43ZM109.543 6.10774C109.613 6.02987 109.677 6.00087 109.776 6.00087V4.7468C109.341 4.7468 108.958 4.92262 108.662 5.25442L109.543 6.10774ZM109.776 6.00087H114.678V4.7468H109.776V6.00087ZM114.678 6.00087C116.518 6.00087 117.786 6.39856 118.587 7.08685L119.352 6.11878C118.245 5.16845 116.653 4.7468 114.678 4.7468V6.00087ZM118.587 7.08685C119.397 7.78257 119.799 8.67772 119.799 9.82889H121.001C121.001 8.31727 120.449 7.06168 119.352 6.11878L118.587 7.08685ZM119.799 9.82889C119.799 10.5799 119.598 11.262 119.188 11.8904L120.182 12.5955C120.726 11.7609 121.001 10.8335 121.001 9.82889H119.799ZM119.186 11.8927C118.807 12.4804 118.242 12.9239 117.449 13.2081L117.84 14.3941C118.842 14.0346 119.637 13.4393 120.183 12.5932L119.186 11.8927ZM117.491 14.4074C118.307 14.6321 118.843 15.1421 119.141 15.9919L120.27 15.5607C119.839 14.3329 119.001 13.5261 117.798 13.1949L117.491 14.4074ZM119.145 16.0019C119.5 16.9615 119.673 17.8947 119.673 18.8048H120.875C120.875 17.7252 120.669 16.6393 120.267 15.5506L119.145 16.0019ZM119.673 18.8048V19.8144H120.875V18.8048H119.673ZM119.673 19.8144C119.673 19.9323 119.641 20.005 119.575 20.0733L120.426 20.96C120.725 20.6479 120.875 20.2524 120.875 19.8144H119.673ZM119.575 20.0733C119.51 20.1415 119.44 20.1749 119.327 20.1749V21.429C119.747 21.429 120.126 21.2721 120.426 20.96L119.575 20.0733ZM119.327 20.1749C119.154 20.1749 119.071 20.127 119.02 20.0778L118.204 20.9993C118.518 21.3013 118.911 21.429 119.327 21.429V20.1749ZM119.054 20.1133C119.001 20.0542 118.96 19.9715 118.96 19.8144H117.758C117.758 20.2425 117.886 20.6425 118.17 20.9639L119.054 20.1133ZM118.96 19.8144V19.156H117.758V19.8144H118.96ZM118.96 19.156C118.96 18.3873 118.894 17.6696 118.758 17.0055L117.582 17.2683C117.698 17.8333 117.758 18.4616 117.758 19.156H118.96ZM118.758 17.0085C118.606 16.2472 118.24 15.5818 117.684 15.0191L116.847 15.919C117.245 16.3219 117.482 16.7684 117.582 17.2654L118.758 17.0085ZM117.691 15.0257C117.06 14.3676 116.156 14.0958 115.098 14.0958V15.3499C115.977 15.3499 116.518 15.5756 116.84 15.9124L117.691 15.0257ZM115.098 14.0958H110.743V15.3499H115.098V14.0958ZM110.142 14.7229V19.8144H111.345V14.7229H110.142ZM110.142 19.8144C110.142 19.9169 110.115 19.9848 110.04 20.0571L110.858 20.9761C111.176 20.668 111.345 20.2678 111.345 19.8144H110.142ZM110.024 20.0733C109.958 20.1415 109.889 20.1749 109.776 20.1749V21.429C110.196 21.429 110.575 21.2721 110.874 20.96L110.024 20.0733ZM114.551 13.4625C115.829 13.4625 116.916 13.2001 117.751 12.6079L117.075 11.5708C116.507 11.9735 115.686 12.2085 114.551 12.2085V13.4625ZM117.746 12.6111C118.631 11.9957 119.087 11.0963 119.087 9.98251H117.884C117.884 10.6829 117.625 11.1881 117.079 11.5676L117.746 12.6111ZM119.087 9.98251C119.087 8.92797 118.704 8.05596 117.914 7.45636L117.206 8.47058C117.65 8.80736 117.884 9.28136 117.884 9.98251H119.087ZM117.919 7.46044C117.151 6.86469 115.944 6.63417 114.446 6.63417V7.88823C115.895 7.88823 116.763 8.1259 117.201 8.46651L117.919 7.46044ZM114.446 6.63417H110.743V7.88823H114.446V6.63417ZM110.142 7.2612V12.8355H111.345V7.2612H110.142ZM110.743 13.4625H114.551V12.2085H110.743V13.4625ZM122.229 20.5166L121.787 20.9419L121.795 20.9511L121.804 20.96L122.229 20.5166ZM122.081 19.3754L121.528 19.1309L121.526 19.1343L122.081 19.3754ZM127.446 6.16389L126.897 5.90923L126.895 5.91427L126.893 5.91932L127.446 6.16389ZM127.909 5.52746L128.28 6.02049L128.282 6.0188L128.285 6.01707L127.909 5.52746ZM129.613 5.52746L129.222 6.00353L129.239 6.01902L129.258 6.0331L129.613 5.52746ZM130.097 6.16389L130.65 5.91932L130.648 5.91427L130.646 5.90923L130.097 6.16389ZM135.462 19.3754L136.017 19.1343L136.015 19.1309L135.462 19.3754ZM135.293 20.5166L134.868 20.0733L134.86 20.0821L134.852 20.0913L135.293 20.5166ZM134.073 20.6483L133.72 21.1554L133.744 21.174L133.77 21.1899L134.073 20.6483ZM133.715 20.1874L133.161 20.4286L133.165 20.4395L133.17 20.4502L133.715 20.1874ZM132.348 16.7638L132.903 16.5227L132.749 16.1368H132.348V16.7638ZM125.195 16.7638V16.1368H124.794L124.64 16.5227L125.195 16.7638ZM123.827 20.1874L124.373 20.4502L124.378 20.4395L124.383 20.4286L123.827 20.1874ZM123.449 20.6483L123.772 21.1773L123.777 21.1737L123.782 21.17L123.449 20.6483ZM125.931 14.9423L125.376 14.7018L125.031 15.5694H125.931V14.9423ZM131.612 14.9423V15.5694H132.512L132.167 14.7018L131.612 14.9423ZM128.771 7.80985L129.327 7.56932L128.771 6.17527L128.216 7.56932L128.771 7.80985ZM122.923 20.1749C122.786 20.1749 122.713 20.135 122.654 20.0733L121.804 20.96C122.109 21.2787 122.498 21.429 122.923 21.429V20.1749ZM122.67 20.0913C122.613 20.026 122.577 19.9474 122.577 19.8144H121.375C121.375 20.2372 121.508 20.6269 121.787 20.9419L122.67 20.0913ZM122.577 19.8144C122.577 19.8193 122.577 19.8058 122.586 19.7689C122.594 19.7328 122.61 19.6825 122.636 19.6166L121.526 19.1343C121.443 19.3444 121.375 19.5788 121.375 19.8144H122.577ZM122.635 19.62L128 6.40847L126.893 5.91932L121.528 19.1309L122.635 19.62ZM127.995 6.41856C128.072 6.23848 128.169 6.11179 128.28 6.02049L127.538 5.03442C127.256 5.26498 127.045 5.5626 126.897 5.90923L127.995 6.41856ZM128.285 6.01707C128.378 5.93892 128.495 5.89114 128.666 5.89114V4.63707C128.249 4.63707 127.861 4.76486 127.534 5.03784L128.285 6.01707ZM128.666 5.89114H128.877V4.63707H128.666V5.89114ZM128.877 5.89114C129.049 5.89114 129.15 5.93885 129.222 6.00353L130.004 5.05138C129.684 4.76493 129.294 4.63707 128.877 4.63707V5.89114ZM129.258 6.0331C129.379 6.12558 129.475 6.24895 129.548 6.41856L130.646 5.90923C130.494 5.55213 130.269 5.25122 129.969 5.02182L129.258 6.0331ZM129.544 6.40847L134.908 19.62L136.015 19.1309L130.65 5.91932L129.544 6.40847ZM134.907 19.6166C134.933 19.6825 134.949 19.7328 134.958 19.7689C134.966 19.8058 134.966 19.8193 134.966 19.8144H136.168C136.168 19.5788 136.101 19.3444 136.017 19.1343L134.907 19.6166ZM134.966 19.8144C134.966 19.9323 134.934 20.005 134.868 20.0733L135.719 20.96C136.018 20.6479 136.168 20.2524 136.168 19.8144H134.966ZM134.852 20.0913C134.813 20.1355 134.757 20.1749 134.62 20.1749V21.429C135.044 21.429 135.438 21.2782 135.735 20.9419L134.852 20.0913ZM134.62 20.1749C134.529 20.1749 134.452 20.1527 134.376 20.1067L133.77 21.1899C134.031 21.3487 134.318 21.429 134.62 21.429V20.1749ZM134.427 20.1412C134.36 20.0905 134.305 20.0229 134.261 19.9247L133.17 20.4502C133.295 20.7323 133.478 20.972 133.72 21.1554L134.427 20.1412ZM134.271 19.9463L132.903 16.5227L131.793 17.005L133.161 20.4286L134.271 19.9463ZM132.348 16.1368H125.195V17.3909H132.348V16.1368ZM124.64 16.5227L123.273 19.9463L124.383 20.4286L125.75 17.005L124.64 16.5227ZM123.282 19.9247C123.244 20.0089 123.192 20.0733 123.115 20.1266L123.782 21.17C124.042 20.9893 124.242 20.7463 124.373 20.4502L123.282 19.9247ZM123.126 20.1193C123.076 20.1529 123.014 20.1749 122.923 20.1749V21.429C123.225 21.429 123.514 21.3485 123.772 21.1773L123.126 20.1193ZM125.931 15.5694H131.612V14.3153H125.931V15.5694ZM132.167 14.7018L129.327 7.56932L128.216 8.05038L131.057 15.1829L132.167 14.7018ZM128.216 7.56932L125.376 14.7018L126.486 15.1829L129.327 8.05038L128.216 7.56932ZM138.094 20.5166L138.519 20.0733L138.094 20.5166ZM138.22 5.70303L138.645 6.1464L138.65 6.14072L138.656 6.13489L138.22 5.70303ZM140.618 5.92249L141.112 5.56552L141.104 5.55304L141.095 5.54097L140.618 5.92249ZM148.718 18.1245L148.224 18.4815L149.319 20.1315V18.1245H148.718ZM148.991 5.57135L149.416 6.01472L149.424 6.00651L149.432 5.99801L148.991 5.57135ZM150.338 5.57135L149.897 5.99801L149.913 6.01504L149.929 6.03084L150.338 5.57135ZM150.212 20.3849L149.797 19.9304L149.792 19.9359L149.787 19.9416L150.212 20.3849ZM148.36 20.6483L148.062 21.1927L148.076 21.2013L148.092 21.2092L148.36 20.6483ZM147.876 20.2094L147.382 20.5663L147.389 20.5761L147.395 20.5856L147.876 20.2094ZM139.735 7.94153L140.229 7.58462L139.133 5.93424V7.94153H139.735ZM139.44 20.5166L139.031 20.0571L139.023 20.065L139.015 20.0733L139.44 20.5166ZM138.767 20.1749C138.654 20.1749 138.584 20.1415 138.519 20.0733L137.669 20.96C137.968 21.2721 138.347 21.429 138.767 21.429V20.1749ZM138.519 20.0733C138.453 20.005 138.421 19.9323 138.421 19.8144H137.219C137.219 20.2524 137.369 20.6479 137.669 20.96L138.519 20.0733ZM138.421 19.8144V6.71255H137.219V19.8144H138.421ZM138.421 6.71255C138.421 6.4829 138.492 6.30617 138.645 6.1464L137.795 5.25965C137.415 5.65587 137.219 6.15214 137.219 6.71255H138.421ZM138.656 6.13489C138.811 5.96384 138.978 5.89114 139.188 5.89114V4.63707C138.64 4.63707 138.161 4.85701 137.784 5.27116L138.656 6.13489ZM139.188 5.89114H139.461V4.63707H139.188V5.89114ZM139.461 5.89114C139.688 5.89114 139.909 5.98826 140.141 6.304L141.095 5.54097C140.682 4.97887 140.132 4.63707 139.461 4.63707V5.89114ZM140.124 6.27946L148.224 18.4815L149.212 17.7675L141.112 5.56552L140.124 6.27946ZM149.319 18.1245V6.27362H148.117V18.1245H149.319ZM149.319 6.27362C149.319 6.15571 149.351 6.08301 149.416 6.01472L148.566 5.12798C148.267 5.44008 148.117 5.83555 148.117 6.27362H149.319ZM149.432 5.99801C149.501 5.92014 149.566 5.89114 149.665 5.89114V4.63707C149.23 4.63707 148.846 4.81289 148.551 5.14469L149.432 5.99801ZM149.665 5.89114C149.763 5.89114 149.828 5.92014 149.897 5.99801L150.778 5.14469C150.483 4.81289 150.099 4.63707 149.665 4.63707V5.89114ZM149.929 6.03084C150.003 6.10313 150.031 6.1711 150.031 6.27362H151.233C151.233 5.82019 151.065 5.41995 150.747 5.11186L149.929 6.03084ZM150.031 6.27362V19.3754H151.233V6.27362H150.031ZM150.031 19.3754C150.031 19.5944 149.962 19.7679 149.797 19.9304L150.625 20.8395C151.023 20.4461 151.233 19.9465 151.233 19.3754H150.031ZM149.787 19.9416C149.633 20.1013 149.464 20.1749 149.244 20.1749V21.429C149.781 21.429 150.257 21.2245 150.637 20.8283L149.787 19.9416ZM149.244 20.1749H148.991V21.429H149.244V20.1749ZM148.991 20.1749C148.858 20.1749 148.74 20.1454 148.629 20.0875L148.092 21.2092C148.373 21.3561 148.676 21.429 148.991 21.429V20.1749ZM148.658 20.1039C148.528 20.0261 148.431 19.9352 148.357 19.8332L147.395 20.5856C147.575 20.8347 147.8 21.0364 148.062 21.1927L148.658 20.1039ZM148.37 19.8525L140.229 7.58462L139.24 8.29843L147.382 20.5663L148.37 19.8525ZM139.133 7.94153V19.8144H140.336V7.94153H139.133ZM139.133 19.8144C139.133 19.9169 139.105 19.9848 139.031 20.0571L139.849 20.9761C140.167 20.668 140.336 20.2678 140.336 19.8144H139.133ZM139.015 20.0733C138.949 20.1415 138.88 20.1749 138.767 20.1749V21.429C139.187 21.429 139.566 21.2721 139.865 20.96L139.015 20.0733ZM157.548 20.5166L157.123 20.96L157.548 20.5166ZM157.275 7.23925H157.876V6.61222H157.275V7.23925ZM152.352 6.9759L151.927 7.41927L152.352 6.9759ZM152.352 5.65913L152.777 6.10251L152.785 6.09363L152.794 6.08445L152.352 5.65913ZM164.091 5.65913L163.65 6.08445L163.666 6.10285L163.684 6.11988L164.091 5.65913ZM164.091 6.9759L163.684 6.51516L163.675 6.52365L163.666 6.53253L164.091 6.9759ZM159.189 7.23925V6.61222H158.588V7.23925H159.189ZM158.895 20.5166L158.486 20.0571L158.477 20.065L158.47 20.0733L158.895 20.5166ZM158.221 20.1749C158.108 20.1749 158.039 20.1415 157.973 20.0733L157.123 20.96C157.423 21.2721 157.802 21.429 158.221 21.429V20.1749ZM157.973 20.0733C157.908 20.005 157.876 19.9323 157.876 19.8144H156.674C156.674 20.2524 156.824 20.6479 157.123 20.96L157.973 20.0733ZM157.876 19.8144V7.23925H156.674V19.8144H157.876ZM157.275 6.61222H152.983V7.86628H157.275V6.61222ZM152.983 6.61222C152.879 6.61222 152.825 6.58281 152.777 6.53253L151.927 7.41927C152.215 7.72012 152.582 7.86628 152.983 7.86628V6.61222ZM152.777 6.53253C152.729 6.48224 152.7 6.42577 152.7 6.31752H151.498C151.498 6.73597 151.639 7.11842 151.927 7.41927L152.777 6.53253ZM152.7 6.31752C152.7 6.20926 152.729 6.1528 152.777 6.10251L151.927 5.21576C151.639 5.51661 151.498 5.89907 151.498 6.31752H152.7ZM152.794 6.08445C152.846 6.02535 152.895 6.00087 152.983 6.00087V4.7468C152.566 4.7468 152.195 4.91253 151.91 5.23382L152.794 6.08445ZM152.983 6.00087H163.46V4.7468H152.983V6.00087ZM163.46 6.00087C163.548 6.00087 163.597 6.02535 163.65 6.08445L164.533 5.23382C164.249 4.91253 163.877 4.7468 163.46 4.7468V6.00087ZM163.684 6.11988C163.74 6.17443 163.763 6.22569 163.763 6.31752H164.966C164.966 5.88264 164.807 5.49498 164.499 5.19839L163.684 6.11988ZM163.763 6.31752C163.763 6.40934 163.74 6.4606 163.684 6.51516L164.499 7.43664C164.807 7.14006 164.966 6.75239 164.966 6.31752H163.763ZM163.666 6.53253C163.618 6.58281 163.564 6.61222 163.46 6.61222V7.86628C163.861 7.86628 164.228 7.72012 164.516 7.41927L163.666 6.53253ZM163.46 6.61222H159.189V7.86628H163.46V6.61222ZM158.588 7.23925V19.8144H159.79V7.23925H158.588ZM158.588 19.8144C158.588 19.9169 158.56 19.9848 158.486 20.0571L159.304 20.9761C159.622 20.668 159.79 20.2678 159.79 19.8144H158.588ZM158.47 20.0733C158.404 20.1415 158.334 20.1749 158.221 20.1749V21.429C158.642 21.429 159.021 21.2721 159.32 20.96L158.47 20.0733Z" fill="#3173DB"/>
</g>
<defs>
<clipPath id="clip0_1406_1356">
<rect width="165" height="27.5893" fill="white"/>
</clipPath>
</defs>
</svg>
