<svg width="136" height="34" viewBox="0 0 136 34" fill="none" xmlns="http://www.w3.org/2000/svg">
<path fill-rule="evenodd" clip-rule="evenodd" d="M41.3125 13.2598V24.7704C41.3125 24.7704 41.7377 24.9482 42.7224 24.9482C43.64 24.9482 44.1324 24.7704 44.1324 24.7704V15.5486H48.4517C48.4517 15.5486 48.6755 15.082 48.6755 14.4153C48.6755 13.7487 48.4517 13.2598 48.4517 13.2598H41.3125ZM53.3082 14.1931C53.9348 13.4376 54.8972 13.0376 56.3295 13.0376C58.8361 13.0376 60.4698 14.5709 60.4698 19.104C60.4698 23.6372 58.8361 25.1704 56.3295 25.1704C54.8972 25.1704 53.9348 24.7704 53.3082 24.0149V29.748C53.3082 29.748 52.8158 29.9258 51.8759 29.9258C50.9359 29.9258 50.4883 29.748 50.4883 29.748V13.4376C50.4883 13.4376 50.9359 13.2598 51.8759 13.2598C52.8158 13.2598 53.3082 13.4376 53.3082 13.4376V14.1931ZM57.5604 19.104C57.5604 15.9708 56.7323 15.3042 55.3224 15.3042C54.0691 15.3042 53.3082 16.3041 53.3082 17.7041V20.504C53.3082 21.9039 54.0691 22.9039 55.3224 22.9039C56.7323 22.9039 57.5604 22.2372 57.5604 19.104ZM63.1778 13.9264C63.1778 13.9264 64.8339 13.0376 67.2062 13.0376C70.4737 13.0376 71.6822 14.3709 71.6822 17.1708V24.7704C71.6822 24.7704 71.3689 24.9482 70.5856 24.9482C69.8918 24.9482 69.4442 24.7704 69.4442 24.7704L69.019 23.5705C68.5042 24.6149 67.3628 25.1704 65.7515 25.1704C63.6254 25.1704 62.2826 23.926 62.2826 21.3261C62.2826 18.8151 63.8716 17.793 66.6467 17.793C67.43 17.793 68.2133 17.8374 68.8623 17.9041V17.3263C68.8623 16.1708 68.5042 15.3931 66.8481 15.3931C65.371 15.3931 63.9835 15.9264 63.9835 15.9264C63.9835 15.9264 63.6254 15.7042 63.3568 15.1042C63.0883 14.5042 63.1778 13.9264 63.1778 13.9264ZM68.8623 19.7484C68.2445 19.6945 67.6249 19.6648 67.0048 19.6595C65.8634 19.6595 65.192 20.1262 65.192 21.3261C65.192 22.5928 65.7962 23.0372 66.8033 23.0372C68.3699 23.0372 68.8623 21.5928 68.8623 20.4151V19.7484ZM80.0075 13.2598C81.9994 13.2598 83.2526 14.5264 83.2526 16.4152C83.2526 17.5263 82.8498 18.4152 82.0441 18.9262C83.096 19.4373 83.7002 20.3262 83.7002 21.5928C83.7002 23.6149 82.3574 24.9482 80.0523 24.9482H74.5468V13.2598H80.0075ZM77.3443 18.1041H79.2466C80.0971 18.1041 80.5223 17.4819 80.5223 16.6597C80.5223 15.8597 80.0971 15.2375 79.2466 15.2375H77.3443V18.1041ZM77.3443 22.9705H79.3138C80.3209 22.9705 80.8356 22.4372 80.8356 21.5261C80.8356 20.5928 80.4104 20.0151 79.3138 20.0151H77.3443V22.9705ZM93.2341 13.4376L89.9219 18.9485C89.3176 19.9706 88.8476 21.1484 88.8476 21.1484H88.7805C88.8476 21.1261 88.9148 18.4818 88.9148 16.2819V13.4376C88.9148 13.4376 88.3777 13.2598 87.4601 13.2598C86.632 13.2598 86.0949 13.4376 86.0949 13.4376V24.7704C86.0949 24.7704 86.632 24.9482 87.4825 24.9482C88.3777 24.9482 88.9148 24.7704 88.9148 24.7704L91.1304 21.1039C92.1599 19.3707 93.4579 17.1263 93.3013 17.0819H93.3684C93.3013 17.1485 93.2341 19.0373 93.2341 21.9483V24.7704C93.2341 24.7704 93.816 24.9482 94.6888 24.9482C95.5169 24.9482 96.054 24.7704 96.054 24.7704V13.4376C96.054 13.4376 95.4721 13.2598 94.6441 13.2598C93.7713 13.2598 93.2341 13.4376 93.2341 13.4376ZM98.113 13.2598C98.113 13.2598 97.8668 13.7265 97.8668 14.4375C97.8668 15.1264 98.113 15.593 98.113 15.593H101.313V24.7704C101.313 24.7704 101.739 24.9482 102.723 24.9482C103.641 24.9482 104.133 24.7704 104.133 24.7704V15.593H107.334C107.334 15.593 107.557 15.1264 107.557 14.4375C107.557 13.7265 107.334 13.2598 107.334 13.2598H98.113ZM118.188 19.9706H111.631C111.832 22.2372 112.839 22.815 114.406 22.815C115.905 22.815 117.024 22.2817 117.024 22.2817C117.494 22.7261 117.763 23.5038 117.807 24.2594C117.807 24.2594 116.487 25.1704 114.003 25.1704C110.355 25.1704 108.743 23.0594 108.743 19.0373C108.743 14.8375 110.758 13.0376 113.846 13.0376C116.621 13.0376 118.434 14.4598 118.434 17.6374C118.434 19.0596 118.188 19.9706 118.188 19.9706ZM115.637 17.3041C115.637 16.1486 115.256 15.2153 113.846 15.2153C112.705 15.2153 111.854 15.9708 111.653 18.0374H115.592C115.618 17.7938 115.633 17.5491 115.637 17.3041ZM124.768 18.504L125.036 15.3708H127.431V24.7704C127.431 24.7704 127.99 24.9482 128.863 24.9482C129.602 24.9482 130.228 24.7704 130.228 24.7704V13.2598H122.574L122.171 18.4152C121.903 21.8595 121.232 22.8372 120.627 22.9705C120.202 23.0594 119.777 22.9927 119.777 22.9927C119.777 22.9927 119.598 23.4372 119.598 23.9705C119.598 24.526 119.777 24.9038 119.777 24.9038C119.777 24.9038 120.292 25.0815 120.918 25.0815C122.798 25.0815 124.298 24.0371 124.768 18.504Z" fill="white"/>
<path d="M11.8887 16.6168C6.80347 18.7237 3.77056 21.1327 4.311 23.1359C4.69975 24.5745 6.71975 25.2551 9.85295 25.2971C12.7972 25.3366 16.5935 24.7951 20.5133 23.7515C24.4339 22.7088 27.9949 21.2932 30.5246 19.7978C33.2169 18.2061 34.6235 16.6135 34.2356 15.1749C33.6868 13.1404 29.7264 12.5717 24.1297 13.3248L24.2856 14.4679C26.8087 14.128 29.0169 14.0745 30.6299 14.3058C32.1327 14.5214 32.9757 14.9642 33.1132 15.4737C33.3114 16.2061 32.1982 17.4654 29.9303 18.8069C27.4992 20.2438 24.0361 21.6199 20.2132 22.6372C16.3904 23.6544 12.6977 24.1819 9.8687 24.1433C7.22869 24.1087 5.63142 23.5704 5.43332 22.838C5.29904 22.3392 5.78394 21.5557 6.93361 20.643C8.16865 19.6611 10.0461 18.6299 12.3355 17.681L11.8879 16.6168H11.8887ZM11.8332 5.14653C10.6396 5.46421 10.3635 7.16043 10.6711 10.2739C11.0383 13.8622 11.2927 15.7313 11.6442 17.2571C11.6786 17.4062 11.7712 17.5356 11.9017 17.6169C12.0322 17.6981 12.1899 17.7246 12.34 17.6904C12.4902 17.6563 12.6205 17.5643 12.7024 17.4347C12.7842 17.3052 12.8109 17.1486 12.7764 16.9995C12.4391 15.5346 12.1896 13.6993 11.8274 10.1603C11.6931 8.80399 11.6856 7.77111 11.7984 7.07731C11.8489 6.76621 11.9219 6.53659 12.0072 6.39256C12.0603 6.30203 12.0992 6.26994 12.1332 6.26088C12.1714 6.25101 12.2319 6.26088 12.3346 6.31602C12.4921 6.39915 12.6844 6.56293 12.9024 6.80572C13.3832 7.34479 13.9468 8.23117 14.5818 9.45746C14.6423 9.57471 14.7414 9.66783 14.8627 9.72129C14.984 9.77476 15.12 9.78534 15.2482 9.75127L18.6317 8.8509C19.2862 8.67671 19.9814 8.73521 20.597 9.01626C21.2127 9.29732 21.7099 9.78324 22.0028 10.3899C23.0456 12.5512 23.6855 14.0054 23.9159 14.7255C24.1107 15.337 24.2101 15.6687 24.3022 16.0391C24.3205 16.1126 24.3533 16.1817 24.3987 16.2427C24.444 16.3036 24.5009 16.355 24.5663 16.3941C24.6316 16.4331 24.7041 16.459 24.7795 16.4703C24.8549 16.4815 24.9319 16.4779 25.0059 16.4596C25.0799 16.4414 25.1496 16.4088 25.2109 16.3638C25.2723 16.3188 25.3241 16.2622 25.3634 16.1974C25.4027 16.1325 25.4288 16.0605 25.4401 15.9857C25.4515 15.9108 25.4478 15.8344 25.4294 15.7609C25.33 15.3609 25.2255 15.0111 25.0233 14.3782C24.7713 13.5881 24.1165 12.1018 23.0505 9.89201C22.6406 9.0425 21.9444 8.36205 21.0825 7.96842C20.2206 7.57479 19.2472 7.49276 18.3308 7.73654L15.3966 8.51758C14.0496 6.00575 12.9489 4.85024 11.8332 5.14653ZM25.2595 21.8215C25.2612 21.8397 25.4095 22.7746 25.4593 23.1713C25.4966 23.4635 25.5198 23.7136 25.5281 23.912C25.5525 24.5012 25.3741 25.081 25.0223 25.5561C24.6705 26.0312 24.1663 26.3733 23.5926 26.5259L19.3139 27.6649C18.7464 27.8159 18.1443 27.7727 17.6046 27.5423C17.0649 27.312 16.6191 26.9078 16.339 26.395C16.2395 26.214 16.1301 25.9835 16.0099 25.7119C15.8375 25.3218 15.4654 24.3885 15.462 24.3803C15.4299 24.3116 15.3845 24.2498 15.3283 24.1985C15.2722 24.1472 15.2064 24.1073 15.1347 24.0813C15.0631 24.0552 14.987 24.0434 14.9107 24.0466C14.8345 24.0497 14.7596 24.0678 14.6904 24.0996C14.6211 24.1315 14.5589 24.1766 14.5072 24.2324C14.4556 24.2882 14.4155 24.3535 14.3892 24.4246C14.363 24.4958 14.3511 24.5714 14.3543 24.6471C14.3574 24.7228 14.3756 24.7971 14.4077 24.8659C14.5807 25.305 14.7603 25.7415 14.9465 26.1753C15.0774 26.4732 15.2009 26.7308 15.3178 26.9448C15.7223 27.6852 16.3662 28.2688 17.1456 28.6015C17.925 28.9342 18.7945 28.9965 19.614 28.7785L23.8935 27.6402C24.722 27.4198 25.4502 26.9258 25.9582 26.2396C26.4662 25.5535 26.7238 24.716 26.6885 23.8651C26.6745 23.5855 26.649 23.3065 26.6123 23.0289C26.5584 22.6001 26.4133 21.6866 26.4158 21.7096C26.4009 21.5574 26.3256 21.4173 26.2066 21.3201C26.0876 21.2229 25.9346 21.1767 25.7813 21.1915C25.628 21.2064 25.4869 21.2811 25.389 21.3992C25.2911 21.5174 25.2446 21.6693 25.2595 21.8215ZM15.3477 12.4721C14.8089 12.6153 14.4732 13.147 14.5768 13.6902L15.2739 17.3238C15.3003 17.4619 15.3542 17.5933 15.4324 17.7105C15.5105 17.8276 15.6115 17.9281 15.7293 18.0061C15.8471 18.084 15.9793 18.1378 16.1183 18.1644C16.2573 18.191 16.4003 18.1898 16.5388 18.1608C17.2837 18.0054 18.0242 17.8298 18.7594 17.6341C19.4146 17.4604 20.065 17.2692 20.7097 17.0604C20.8411 17.0128 20.9618 16.9399 21.0648 16.8459C21.1678 16.752 21.2512 16.6388 21.3101 16.5128C21.3691 16.3869 21.4025 16.2506 21.4084 16.1119C21.4143 15.9731 21.3927 15.8346 21.3447 15.7041L20.0624 12.2154C19.971 11.9671 19.7893 11.7618 19.553 11.6399C19.3167 11.518 19.043 11.4884 18.7859 11.557L15.3477 12.4721ZM15.0468 11.3578L18.4858 10.4426C19.0234 10.2997 19.5954 10.3619 20.0891 10.6169C20.5828 10.8719 20.9625 11.3012 21.1532 11.8203L22.4363 15.3082C22.539 15.5871 22.584 15.8836 22.5688 16.18C22.5536 16.4765 22.4783 16.7669 22.3476 17.0339C22.2169 17.3009 22.0333 17.539 21.8079 17.734C21.5824 17.9291 21.3198 18.077 21.0355 18.169C20.4039 18.3731 19.7457 18.5665 19.0594 18.7492C18.3051 18.9501 17.5442 19.1303 16.7775 19.29C16.4879 19.3503 16.1891 19.3526 15.8986 19.297C15.608 19.2413 15.3316 19.1287 15.0854 18.9657C14.8392 18.8027 14.6282 18.5926 14.4648 18.3477C14.3013 18.1028 14.1886 17.828 14.1333 17.5394L13.4362 13.9067C13.3311 13.3584 13.4386 12.7909 13.7374 12.3182C14.0361 11.8454 14.5039 11.5023 15.0468 11.3578Z" fill="white"/>
</svg>
