<svg width="94" height="36" viewBox="0 0 94 36" fill="none" xmlns="http://www.w3.org/2000/svg">
<path d="M1.93359 29V7.8623H5.21484V29H1.93359ZM8.78906 13.0918H11.8213V15.7871H11.8799C12.2412 14.8984 12.8271 14.1953 13.6377 13.6777C14.4385 13.1699 15.3613 12.916 16.4062 12.916C18.7012 12.916 20.1855 13.9463 20.8594 16.0068H20.9326C21.3525 15.0498 22.002 14.293 22.8809 13.7363C23.7695 13.1895 24.7803 12.916 25.9131 12.916C27.4854 12.916 28.7402 13.3945 29.6777 14.3516C30.625 15.2988 31.0986 16.5684 31.0986 18.1602V29H27.9346V18.9219C27.9346 17.877 27.666 17.0713 27.1289 16.5049C26.582 15.9287 25.8154 15.6406 24.8291 15.6406C23.8525 15.6406 23.0566 15.9678 22.4414 16.6221C21.8164 17.2764 21.5039 18.1113 21.5039 19.127V29H18.3838V18.6582C18.3838 17.7402 18.1104 17.0078 17.5635 16.4609C17.0068 15.9141 16.2646 15.6406 15.3369 15.6406C14.3604 15.6406 13.5547 15.9824 12.9199 16.666C12.2852 17.3398 11.9678 18.1992 11.9678 19.2441V29H8.78906V13.0918ZM39.7998 26.627C40.9814 26.627 41.9678 26.29 42.7588 25.6162C43.5498 24.9326 43.9453 24.0684 43.9453 23.0234V21.7783L40.0781 22.042C37.8809 22.1787 36.7822 22.96 36.7822 24.3857C36.7822 25.0693 37.0557 25.6113 37.6025 26.0117C38.1494 26.4219 38.8818 26.627 39.7998 26.627ZM38.9502 29.1611C37.3584 29.1611 36.0645 28.7314 35.0684 27.8721C34.0723 27.0029 33.5742 25.8604 33.5742 24.4443C33.5742 23.0576 34.0967 21.9688 35.1416 21.1777C36.1768 20.3867 37.6807 19.9277 39.6533 19.8008L43.9453 19.5518V18.3213C43.9453 17.4131 43.6523 16.7148 43.0664 16.2266C42.4902 15.748 41.6699 15.5088 40.6055 15.5088C39.7461 15.5088 39.0186 15.7139 38.4229 16.124C37.8369 16.5342 37.4756 17.0859 37.3389 17.7793H34.3652C34.4141 16.373 35.0342 15.2061 36.2256 14.2783C37.417 13.3506 38.9062 12.8867 40.6934 12.8867C42.6367 12.8867 44.1846 13.3604 45.3369 14.3076C46.499 15.2549 47.0801 16.5146 47.0801 18.0869V29H44.0479V26.3486H43.9746C43.5352 27.208 42.8613 27.8916 41.9531 28.3994C41.0449 28.9072 40.0439 29.1611 38.9502 29.1611ZM58.8721 7.8623C60.9229 7.8623 62.5977 8.50684 63.8965 9.7959C65.1953 11.085 65.8447 12.7549 65.8447 14.8057C65.8447 16.8662 65.1855 18.5459 63.8672 19.8447C62.5488 21.1338 60.8496 21.7783 58.7695 21.7783H53.877V29H50.5957V7.8623H58.8721ZM53.877 19.0244H58.0078C59.4336 19.0244 60.5371 18.6582 61.3184 17.9258C62.0996 17.1836 62.4902 16.1484 62.4902 14.8203C62.4902 13.4824 62.0996 12.4521 61.3184 11.7295C60.5371 10.9971 59.4336 10.6309 58.0078 10.6309H53.877V19.0244ZM68.4082 13.0918H71.4404V15.7725H71.499C71.7432 14.8838 72.2119 14.1904 72.9053 13.6924C73.5889 13.1846 74.3994 12.9307 75.3369 12.9307C75.7764 12.9307 76.1279 12.9697 76.3916 13.0479V16.0215C76.04 15.8848 75.5762 15.8164 75 15.8164C73.9551 15.8164 73.125 16.1533 72.5098 16.8271C71.8945 17.4912 71.5869 18.3848 71.5869 19.5078V29H68.4082V13.0918ZM84.624 29.1904C82.3193 29.1904 80.4883 28.458 79.1309 26.9932C77.7734 25.5283 77.0947 23.5459 77.0947 21.0459C77.0947 18.5557 77.7783 16.5732 79.1455 15.0986C80.5029 13.624 82.3291 12.8867 84.624 12.8867C86.9189 12.8867 88.7451 13.6191 90.1025 15.084C91.46 16.5586 92.1387 18.5459 92.1387 21.0459C92.1387 23.5459 91.46 25.5283 90.1025 26.9932C88.7549 28.458 86.9287 29.1904 84.624 29.1904ZM84.624 26.5537C85.9717 26.5537 87.0264 26.0703 87.7881 25.1035C88.54 24.1367 88.916 22.7842 88.916 21.0459C88.916 19.3076 88.54 17.9551 87.7881 16.9883C87.0264 16.0117 85.9717 15.5234 84.624 15.5234C83.2764 15.5234 82.2217 16.0117 81.46 16.9883C80.6982 17.9648 80.3174 19.3174 80.3174 21.0459C80.3174 22.7744 80.6982 24.127 81.46 25.1035C82.2217 26.0703 83.2764 26.5537 84.624 26.5537Z" fill="#020206"/>
</svg>
