<svg width="111" height="40" viewBox="0 0 111 40" fill="none" xmlns="http://www.w3.org/2000/svg">
<g clip-path="url(#clip0_1419_876)">
<path fill-rule="evenodd" clip-rule="evenodd" d="M110.222 0C109.63 1.24026 109.124 2.33321 108.589 3.41222C106.125 8.3673 103.683 13.3323 101.168 18.2605C100.55 19.4709 100.53 20.4843 101.155 21.7126C103.999 27.2968 106.761 32.9227 109.547 38.5348C109.758 38.9628 109.94 39.4087 110.207 40H0V0H110.222Z" fill="#AD475C"/>
<path d="M20.582 31.0155L15.5437 24.019H14.5606V31.0155H9V9H17.6942C20.0905 9 22.0157 9.59081 23.4698 10.7724C24.9444 11.9541 25.7125 13.7783 25.7739 16.2452C25.7739 20.1425 24.3505 22.5472 21.5036 23.4593L27.4329 31.0155H20.582ZM14.5606 19.2304H17.7863C18.8718 19.2304 19.6399 18.8157 20.0905 17.9865C20.541 17.1366 20.541 16.297 20.0905 15.4678C19.6399 14.6179 18.8718 14.1929 17.7863 14.1929H14.5606V19.2304Z" fill="white"/>
<path d="M44.8054 15.7166C44.7849 16.3178 44.5801 16.9708 44.191 17.6756C43.8223 18.3804 43.2796 18.9194 42.5627 19.2925C43.894 19.9766 44.7849 20.8888 45.2355 22.0289C45.6861 23.1691 45.8192 24.2678 45.6349 25.325C45.0409 29.1187 42.4603 31.0155 37.8931 31.0155H29.0146V9H37.7395C39.8695 9 41.5899 9.61154 42.9007 10.8346C44.2319 12.037 44.8668 13.6643 44.8054 15.7166ZM34.5444 17.6134H37.7395C38.5792 17.6134 39.1731 17.2921 39.5213 16.6494C39.89 15.9861 39.9002 15.3331 39.552 14.6904C39.2038 14.0271 38.5997 13.6954 37.7395 13.6954H34.5444V17.6134ZM34.5444 26.1335H37.7395C38.784 26.1335 39.5111 25.7604 39.9207 25.0141C40.3508 24.2471 40.3508 23.4904 39.9207 22.7441C39.4906 21.9978 38.7635 21.6247 37.7395 21.6247H34.5444V26.1335Z" fill="white"/>
<path d="M47.3848 28.0921C47.3848 27.2422 47.6818 26.5166 48.2758 25.9154C48.8697 25.3143 49.5866 25.0137 50.4263 25.0137C51.266 25.0137 51.9828 25.3143 52.5768 25.9154C53.1912 26.5166 53.4984 27.2422 53.4984 28.0921C53.4984 28.9628 53.1912 29.7091 52.5768 30.331C51.9828 30.9322 51.266 31.2327 50.4263 31.2327C49.5866 31.2327 48.8697 30.9322 48.2758 30.331C47.6818 29.7091 47.3848 28.9628 47.3848 28.0921Z" fill="white"/>
<path d="M67.7295 31.0155L62.6911 24.019H61.708V31.0155H56.1475V9H64.8416C67.2379 9 69.1631 9.59081 70.6173 10.7724C72.0919 11.9541 72.8599 13.7783 72.9214 16.2452C72.9214 20.1425 71.498 22.5472 68.6511 23.4593L74.5803 31.0155H67.7295ZM61.708 19.2304H64.9338C66.0193 19.2304 66.7873 18.8157 67.2379 17.9865C67.6885 17.1366 67.6885 16.297 67.2379 15.4678C66.7873 14.6179 66.0193 14.1929 64.9338 14.1929H61.708V19.2304Z" fill="white"/>
<path d="M81.5997 9V23.6459C81.5997 24.3093 81.8148 24.8793 82.2449 25.3561C82.675 25.8122 83.187 26.092 83.781 26.1957C84.3954 26.2994 85.0098 26.2994 85.6242 26.1957C86.2387 26.092 86.7609 25.8122 87.191 25.3561C87.6211 24.8793 87.8362 24.3093 87.8362 23.6459V9H93.3968V23.6459C93.3968 24.7653 93.192 25.7915 92.7823 26.7243C92.3932 27.6364 91.8607 28.3931 91.1848 28.9943C90.509 29.5955 89.7307 30.1137 88.85 30.549C87.9898 30.9636 87.0784 31.2124 86.1158 31.2953C85.1737 31.3782 84.2213 31.3782 83.2587 31.2953C82.2961 31.2124 81.3744 30.9636 80.4938 30.549C79.6336 30.1137 78.8655 29.5955 78.1896 28.9943C77.5343 28.3931 77.012 27.6364 76.6228 26.7243C76.2337 25.7915 76.0391 24.7653 76.0391 23.6459V9H81.5997Z" fill="white"/>
</g>
<defs>
<clipPath id="clip0_1419_876">
<rect width="111" height="40" fill="white"/>
</clipPath>
</defs>
</svg>
