<svg width="164" height="15" viewBox="0 0 164 15" fill="none" xmlns="http://www.w3.org/2000/svg">
<g clip-path="url(#clip0_1117_1054)">
<path d="M106.154 14.3601C103.174 13.4447 101.538 10.6988 101.635 7.03573C101.637 3.88804 103.723 1.17215 106.635 0.526308C107.748 0.323832 108.886 0.323832 110 0.526308C113.024 1.41503 115.036 4.43689 114.808 7.74859C114.615 11.4099 112.594 14.0539 109.43 14.5626C108.338 14.7504 107.219 14.6813 106.154 14.3601ZM112.692 7.54444C112.773 4.93225 110.837 2.74535 108.367 2.65986C105.898 2.57437 103.831 4.62267 103.75 7.23486V7.64149C103.69 9.33665 104.493 10.9359 105.854 11.8333C107.215 12.7308 108.925 12.789 110.337 11.9861C111.75 11.1831 112.648 9.64179 112.692 7.94604V7.54444Z" fill="white"/>
<path d="M2.71683 5.03934V13.8728H0.658203V0.374451C1.05025 0.673252 6.83571 6.22965 9.48484 8.6919L10.0721 9.28791V0.573652H12.1323V14.0703C11.7403 13.778 6.14359 8.31472 3.50254 5.73491C3.25992 5.48165 2.99713 5.24901 2.71683 5.03934Z" fill="white"/>
<path d="M37.7513 9.89299V14.0703H35.6543V0.416806C38.0501 0.314551 40.446 0.416806 42.8418 0.51906C45.4363 0.824148 46.7336 2.86589 46.5348 5.5111C46.3345 7.95683 44.538 9.58624 41.7432 9.79074C40.5461 9.89299 39.1487 9.89299 37.7513 9.89299ZM37.8481 2.45352V7.85457C39.2456 7.85457 40.5428 7.95683 41.9402 7.85457C43.2462 7.87042 44.3181 6.80394 44.3361 5.47087V5.20601C44.4702 3.88416 43.5333 2.69994 42.2391 2.55577H41.9402C40.5805 2.41865 39.2128 2.38447 37.8481 2.45352Z" fill="white"/>
<path d="M123.197 5.03934V13.8728H121.137V0.374451C121.53 0.673252 127.609 6.52845 130.453 9.30747V0.573652H132.611V14.0703C132.219 13.7732 126.629 8.31472 124.079 5.83287L123.197 5.03934Z" fill="white"/>
<path d="M157.09 14.0703V2.41748H152.69V0.374451H163.591V2.31659H159.3V14.0703H157.09Z" fill="white"/>
<path d="M144.659 14.0703V0.374451H146.954V13.9728H144.659V14.0703Z" fill="white"/>
<path d="M95.8934 0.374451V2.31659H88.3091V6.30176H94.7122V8.2439H88.3091V12.0256H95.8934V14.0703H86.1406V0.374451H95.8934Z" fill="white"/>
<path d="M71.2236 0.374451H73.2959V12.1092H80.4029V14.0703H71.2236V0.374451Z" fill="white"/>
<path d="M56.2405 14.3584C53.3571 13.4433 51.6251 10.6976 51.7216 7.03503C51.7234 3.88775 53.8094 1.17219 56.7213 0.526433C57.8351 0.32379 58.9734 0.32379 60.0872 0.526433C63.1112 1.41505 65.1231 4.43652 64.8955 7.7478C64.7009 11.4171 62.6827 14.0523 59.6127 14.5609C58.4879 14.7511 57.3377 14.682 56.2405 14.3584ZM62.776 7.54367C62.8568 4.93274 60.9215 2.74686 58.4533 2.66139C55.9851 2.57591 53.9187 4.62321 53.8379 7.23414V7.64072C53.7857 9.32968 54.5891 10.9198 55.9457 11.8123C57.3023 12.7046 59.0059 12.7636 60.4148 11.967C61.8237 11.1705 62.7238 9.63924 62.776 7.95025V7.54367Z" fill="white"/>
<path d="M30.4911 14.6657L30.3951 14.4668C30.1089 13.7661 23.9895 0.96991 23.8935 0.96991C23.7975 0.96991 20.5474 7.86801 18.4427 12.2463L17.2959 14.646H19.7813L20.7378 12.447H27.1451L28.1 14.646L30.4911 14.6657ZM21.5024 10.567L21.5984 10.368L23.8935 4.96831L26.2846 10.5605L21.5024 10.567Z" fill="white"/>
</g>
<defs>
<clipPath id="clip0_1117_1054">
<rect width="162.933" height="14.4615" fill="white" transform="translate(0.658203 0.374451)"/>
</clipPath>
</defs>
</svg>
