<svg width="172" height="34" viewBox="0 0 172 34" fill="none" xmlns="http://www.w3.org/2000/svg">
<g clip-path="url(#clip0_1117_1073)">
<path d="M2.3134 21.8026C2.00743 22.0517 1.70146 22.3022 1.39549 22.5106C1.70146 22.8437 1.91963 23.1361 2.1817 23.4285C2.53157 23.178 2.79364 22.9276 3.09828 22.7204C3.62242 23.3026 4.10133 23.8861 4.66804 24.5115C3.71022 25.2615 2.79231 26.0115 1.78926 26.7615C1.22122 26.0534 0.61061 25.386 0 24.6767V27.1784C0 28.2208 0.872681 29.0534 1.96353 29.0534H3.75279C3.40425 28.6377 3.01048 28.1788 2.66194 27.7619C4.88754 26.0115 7.11315 24.303 9.38132 22.5106C11.2145 24.636 13.0037 26.7615 14.8795 28.9288C14.8369 28.9708 14.793 29.0127 14.7065 29.0534H28.3196L35.6948 22.0111V6.8408C35.6948 5.79842 34.8221 4.96582 33.7312 4.96582H16.9308C17.0625 5.13234 17.1929 5.2569 17.3232 5.42473C15.0551 7.17384 12.8734 8.92557 10.6039 10.6747C8.98888 8.79969 7.37522 6.88276 5.76022 5.00647H2.00743C0.916581 5.00647 0.0439001 5.84037 0.0439001 6.88145V9.80012C0.34987 10.1332 0.56671 10.4255 0.828781 10.7166L0.0439001 11.3421V11.6331L0.698411 12.3831L0.0439001 12.884V13.5094C0.17427 13.6759 0.34987 13.8425 0.48024 14.0509C0.30597 14.1755 0.17427 14.3001 0.0439001 14.4259V17.3433C0.0878002 17.3853 0.0878002 17.4259 0.13037 17.4259C0.48024 17.1768 0.78488 16.9263 1.09085 16.6759C1.61499 17.3013 2.1378 17.8848 2.66061 18.5102C2.35597 18.7187 2.09523 18.9692 1.70279 19.2602C2.00743 19.5933 2.2695 19.8857 2.48767 20.2187C2.1817 20.4678 1.83316 20.7183 1.52719 20.9687H1.57109L2.3134 21.8026ZM4.05743 5.04842C4.31817 5.34082 4.53634 5.6319 4.79841 5.92429C4.53634 6.13276 4.2317 6.3832 3.88183 6.63232C3.66366 6.34124 3.40292 6.09081 3.14085 5.75777C3.44682 5.50734 3.75146 5.29755 4.05743 5.04842ZM2.1378 6.54972C2.35597 6.8408 2.61804 7.09123 2.88011 7.42427C2.57414 7.67339 2.26817 7.92383 1.96353 8.1323C1.70146 7.84122 1.48462 7.54883 1.22122 7.25775C1.52719 7.04928 1.83316 6.8408 2.13913 6.54972H2.1378ZM8.72681 19.8844C8.94498 20.1767 9.20705 20.4691 9.46912 20.8022C9.16315 21.0513 8.85718 21.2611 8.55254 21.5102C8.33437 21.2191 8.07363 20.9687 7.81156 20.6357C8.11753 20.3433 8.42217 20.1335 8.72681 19.8844C8.72681 19.8424 8.72681 19.8424 8.72681 19.8844C8.46607 19.592 8.2479 19.3022 7.94193 18.9678C7.28742 19.4687 6.67681 19.9683 6.02229 20.4691C5.77119 20.1546 5.50941 19.8485 5.23741 19.5513C5.54205 19.3022 5.80412 19.0924 6.15267 18.8433C5.36778 17.8848 4.5829 17.009 3.79669 16.0924C4.4512 15.5929 5.06181 15.092 5.71632 14.5505C5.97839 14.8429 6.24047 15.134 6.45864 15.4264C6.80718 15.134 7.11315 14.9255 7.41779 14.6764C7.15705 14.342 6.89498 14.0929 6.67681 13.8005C6.98278 13.5514 7.28742 13.301 7.59339 13.0925C7.28742 12.7581 7.06925 12.467 6.80851 12.1747C6.45864 12.4251 6.19657 12.6755 5.89059 12.8827C5.36778 12.3005 4.88754 11.6764 4.32083 11.0497C4.97401 10.5501 5.58462 10.0492 6.24047 9.54968C5.97839 9.21665 5.71632 8.96621 5.45558 8.63186C5.80412 8.38274 6.06487 8.13362 6.4134 7.88318C7.72376 9.38316 8.98888 10.8831 10.3418 12.467C10.0358 12.6755 9.77509 12.926 9.42522 13.1751C9.68729 13.5094 9.94936 13.7586 10.254 14.1335C10.8659 13.634 11.5204 13.1344 12.1297 12.6755H12.175H12.1311C11.869 12.3831 11.6521 12.092 11.3887 11.7997C12.0433 11.3001 12.6552 10.8425 13.2645 10.2997C13.484 10.5921 13.7461 10.8412 14.0068 11.1755C13.3729 11.665 12.7476 12.1651 12.1311 12.6755C12.3931 12.9666 12.61 13.259 12.9159 13.5933C13.5705 13.0925 14.1824 12.5916 14.8795 12.0501C15.1854 12.3831 15.4036 12.6755 15.6644 12.9679C15.9703 12.7175 16.2763 12.509 16.6262 12.2166C16.3641 11.9255 16.1459 11.6331 15.8413 11.3001C16.1898 11.051 16.4506 10.8005 16.7991 10.5501C16.5384 10.2171 16.2763 9.96664 16.0142 9.63229C15.7083 9.84208 15.4475 10.0912 15.099 10.3403C14.8369 10.0086 14.5748 9.75816 14.3128 9.42512C15.2293 8.71709 16.1885 7.96579 17.1929 7.17384C17.4549 7.46623 17.6718 7.75731 17.9352 8.0497V8.09166C17.6292 8.34078 17.3232 8.59122 17.0173 8.79969C17.3232 9.13273 17.5414 9.42512 17.8035 9.71751C18.1534 9.46577 18.4154 9.21665 18.7201 9.00817C18.9821 9.29925 19.199 9.59164 19.5049 9.92599C19.8548 9.67424 20.1169 9.42512 20.4654 9.17469C21.0335 9.80012 21.5124 10.3836 22.0352 11.009C21.7305 11.2581 21.4259 11.4679 21.1199 11.7171C20.8579 11.4247 20.641 11.1336 20.379 10.8412C19.7231 11.384 19.1125 11.8416 18.458 12.3425C18.7201 12.6336 18.9382 12.884 19.2429 13.259C17.2807 14.8009 15.3597 16.3009 13.4401 17.8009C13.178 17.5098 12.9159 17.2594 12.6113 16.9263C12.3053 17.1348 12.0433 17.3853 11.6934 17.6763C10.8659 16.7179 10.1236 15.8433 9.33875 14.9255C8.68424 15.467 8.0723 15.9259 7.41779 16.4255C7.67986 16.7179 7.89803 16.9683 8.1601 17.3013C8.46607 17.0929 8.77204 16.8424 9.07668 16.5933C9.90546 17.5505 10.6464 18.4263 11.4326 19.3442C11.1267 19.5933 10.8659 19.8031 10.5161 20.0522C10.2979 19.7598 10.0372 19.5107 9.73119 19.1344C9.38132 19.3848 9.03278 19.592 8.72681 19.8844ZM10.3418 21.7606C10.6478 21.5115 10.9537 21.3017 11.2584 21.0526C11.4766 21.3437 11.7373 21.5941 12.0007 21.8852C11.6947 22.1356 11.3887 22.3861 11.0828 22.5932C10.822 22.3022 10.6039 22.0517 10.3418 21.7606ZM16.8004 27.3869C16.5384 27.0945 16.2763 26.8034 16.0581 26.511C16.3641 26.2619 16.6701 26.0128 16.9747 25.803C16.6687 25.47 16.4506 25.1776 16.1898 24.8852C15.84 25.1369 15.5779 25.386 15.2719 25.5945C15.0112 25.3034 14.7491 24.9691 14.487 24.6767C15.1415 24.1784 15.7522 23.6776 16.408 23.178C15.8839 22.5526 15.3597 21.9691 14.8369 21.3437C14.5292 21.6088 14.2087 21.8591 13.8764 22.0937C13.3523 21.5102 12.8734 20.9267 12.3067 20.2607C12.6552 20.0102 12.9598 19.7598 13.2645 19.5107C13.5279 19.8018 13.7886 20.0941 14.0507 20.4272C14.4006 20.1348 14.7052 19.8857 15.0112 19.6772C15.2732 19.9683 15.4901 20.2607 15.7961 20.5937C16.1459 20.3446 16.408 20.0941 16.7565 19.8437C17.0186 20.1767 17.2807 20.4272 17.5414 20.7615C17.2354 20.9687 16.9747 21.2191 16.5823 21.5102C16.8882 21.8446 17.149 22.1356 17.3671 22.4687C17.6731 22.2196 17.9791 22.0098 18.2851 21.7606C19.0699 22.6785 19.8109 23.553 20.6397 24.5115C19.3759 25.386 18.1095 26.3865 16.8004 27.3869ZM21.8622 21.9272C20.5532 20.4272 19.2868 18.9272 17.9352 17.3433C19.5049 16.1344 21.076 14.8835 22.7349 13.5933C24.0439 15.134 25.353 16.6353 26.662 18.1759C25.047 19.4268 23.4759 20.6776 21.8622 21.9272Z" fill="white"/>
<path d="M18.8952 24.2191C18.3711 23.5937 17.8483 23.0102 17.368 22.4267C17.0621 22.6758 16.7135 22.9276 16.4076 23.1767C16.9317 23.7602 17.4545 24.3856 17.9348 24.9691C18.2846 24.6767 18.5893 24.4695 18.8952 24.2191ZM16.4501 13.8018C16.1881 13.4675 15.9273 13.2183 15.7092 12.926C15.0972 13.4255 14.4427 13.9264 13.8334 14.4259C14.0942 14.7603 14.3562 15.0514 14.5744 15.3018C15.185 14.7603 15.7956 14.3014 16.4501 13.8018ZM4.4082 27.9284C4.71417 28.3034 5.06271 28.6784 5.36735 29.0534H6.98368C6.72161 28.7204 6.41697 28.428 6.15489 28.0962C7.11405 27.3449 8.03063 26.6369 8.99111 25.8869C9.77599 26.8034 10.5183 27.678 11.3032 28.5958C11.085 28.7623 10.9107 28.9288 10.6926 29.0953H12.7013C12.8259 29.0091 12.9421 28.9116 13.0485 28.8043C11.6969 27.2623 10.4305 25.7204 9.12148 24.2191C7.55172 25.47 5.98063 26.6789 4.40953 27.9297L4.4082 27.9284ZM15.5336 5.2569C15.4487 5.185 15.3751 5.10104 15.3154 5.00778H13.7004L13.7882 5.09038C12.8277 5.84037 11.9125 6.54972 10.952 7.29971C10.2871 6.53027 9.63255 5.75224 8.98845 4.96582H7.37346C8.5097 6.30986 9.65869 7.64338 10.8203 8.96621C12.3475 7.75731 13.9625 6.50776 15.5336 5.2569ZM12.7412 15.1353C12.4792 14.8429 12.261 14.5518 11.9989 14.2594C11.693 14.5085 11.387 14.7183 11.0823 14.9675C11.3444 15.3018 11.6065 15.5509 11.8247 15.8433C12.1306 15.5942 12.4366 15.3844 12.7412 15.1353Z" fill="white"/>
<path d="M28.2773 23.8847V29.0534L35.6526 22.0098H30.2409C29.15 22.0098 28.2773 22.8437 28.2773 23.8847Z" fill="#00786E"/>
<path d="M50.1068 23.5176C51.2722 23.5176 52.1941 23.0364 52.8712 22.0727C53.5497 21.1103 53.8889 19.7559 53.8889 18.012C53.8889 16.3848 53.5497 15.1143 52.8712 14.2004C52.1928 13.2865 51.2722 12.8302 50.1068 12.8302C48.9415 12.8302 48.0196 13.2865 47.3425 14.2004C46.664 15.1143 46.3248 16.3848 46.3248 18.012C46.3248 19.7559 46.664 21.1103 47.3411 22.0727C48.0196 23.0364 48.9415 23.5176 50.1068 23.5176ZM55.7154 30.7422C54.8108 30.7422 53.9754 30.6268 53.2104 30.3934C52.4728 30.1894 51.7698 29.8788 51.1245 29.4717C50.5165 29.0904 49.971 28.6199 49.5069 28.0766C49.0418 27.5522 48.6552 26.965 48.3588 26.3327C47.4833 26.1611 46.6447 25.8408 45.8805 25.386C45.1474 24.9181 44.5106 24.318 44.0034 23.6173C43.4647 22.8685 43.0589 22.035 42.8035 21.1523C42.5241 20.2043 42.3857 19.1593 42.3857 18.012C42.3857 16.6838 42.568 15.505 42.9338 14.4745C43.3156 13.4281 43.8464 12.5562 44.5249 11.8587C45.1999 11.1466 46.0287 10.5931 46.95 10.2394C47.9078 9.85781 48.9588 9.66638 50.1068 9.66638C51.2549 9.66638 52.2979 9.85781 53.2371 10.2394C54.1935 10.6052 55.0103 11.1441 55.6888 11.8587C56.3673 12.5733 56.8887 13.4531 57.2532 14.4994C57.6364 15.53 57.8279 16.7008 57.8279 18.0133C57.8279 20.2043 57.341 22.0058 56.3673 23.418C55.3935 24.8301 54.0791 25.7597 52.4282 26.2081C52.8273 26.7903 53.3674 27.1968 54.0459 27.4289C54.7243 27.678 55.4281 27.8025 56.1584 27.8025C56.5229 27.8025 56.8635 27.7776 57.1761 27.7278C57.506 27.678 57.7933 27.6124 58.0368 27.5285L58.7153 30.1941C58.4013 30.3436 57.9836 30.4695 57.4621 30.5678C56.9579 30.6845 56.3752 30.7422 55.7154 30.7422ZM60.5045 26.2081V9.96533H66.6346C67.5392 9.96533 68.3813 10.0479 69.1635 10.2145C69.9096 10.3581 70.6195 10.6459 71.2521 11.0615C71.8478 11.4489 72.3324 11.9808 72.6595 12.606C73.0067 13.2538 73.181 14.0588 73.181 15.0225C73.181 16.2183 72.9016 17.2069 72.3469 17.9871C71.8002 18.757 71.0386 19.3541 70.1546 19.706L74.0164 26.2095H69.7116L66.4523 20.3538H64.3385V26.2081H60.5045ZM64.3385 17.439H66.3206C67.329 17.439 68.0952 17.2397 68.6167 16.8411C69.1555 16.4255 69.4255 15.8197 69.4255 15.0225C69.4255 14.2253 69.1555 13.6694 68.6167 13.3534C68.0952 13.0387 67.329 12.8814 66.3206 12.8814H64.3385V17.439ZM75.9786 26.2081V9.96533H86.6211V13.0545H79.8139V16.3193H85.6047V19.3822H79.8139V23.119H86.8832V26.2081H75.98H75.9786ZM89.7473 26.2081V9.96533H95.5913C96.5305 9.96533 97.4085 10.0571 98.2253 10.2407C99.0435 10.4059 99.7552 10.6957 100.364 11.1113C100.98 11.5167 101.475 12.0754 101.8 12.7306C102.164 13.3954 102.347 14.2175 102.347 15.1969C102.347 16.1436 102.164 16.967 101.8 17.6632C101.468 18.3414 100.976 18.9309 100.364 19.3822C99.7304 19.8427 99.0136 20.1808 98.252 20.3787C97.4182 20.599 96.5583 20.7079 95.6951 20.7025H93.5826V26.2095H89.7486L89.7473 26.2081ZM93.5826 17.7878H95.461C97.5482 17.7878 98.5912 16.9237 98.5912 15.1969C98.5912 14.3499 98.3118 13.752 97.7558 13.4032C97.1997 13.0545 96.3988 12.8801 95.3572 12.8801H93.5826V17.7878ZM111.469 26.5071C109.26 26.5071 107.573 25.8843 106.409 24.6387C105.244 23.3931 104.661 21.4093 104.661 18.6859V9.96664H108.522V19.0583C108.522 20.6527 108.775 21.7659 109.278 22.3966C109.783 23.0286 110.512 23.3432 111.469 23.3432C112.426 23.3432 113.165 23.0286 113.686 22.3966C114.208 21.7659 114.468 20.6527 114.468 19.0583V9.96533H118.173V18.6846C118.173 21.4093 117.599 23.3931 116.452 24.6387C115.321 25.8843 113.66 26.5071 111.469 26.5071ZM121.591 26.2081V9.96533H127.408C128.294 9.96533 129.111 10.0309 129.86 10.1646C130.625 10.2813 131.286 10.4964 131.842 10.8123C132.416 11.127 132.86 11.5427 133.173 12.058C133.502 12.5733 133.669 13.221 133.669 14.0011C133.669 14.3669 133.615 14.7314 133.512 15.0973C133.407 15.4631 133.259 15.8027 133.069 16.12C132.877 16.4346 132.64 16.7196 132.364 16.9657C132.103 17.2148 131.798 17.3984 131.451 17.5138V17.6134C131.886 17.7131 132.285 17.8717 132.651 18.0867C133.409 18.4995 133.985 19.1738 134.269 19.9801C134.424 20.3957 134.503 20.8769 134.503 21.425C134.503 22.2563 134.329 22.9695 133.981 23.5674C133.644 24.1723 133.16 24.6857 132.573 25.0622C131.931 25.4654 131.225 25.7601 130.485 25.9341C129.638 26.1222 128.773 26.2146 127.904 26.2095H121.59L121.591 26.2081ZM125.425 16.4674H127.225C128.164 16.4674 128.842 16.2931 129.26 15.9443C129.695 15.5955 129.912 15.1314 129.912 14.5492C129.912 13.9185 129.695 13.4701 129.26 13.2039C128.825 12.9378 128.156 12.8053 127.251 12.8053H125.425V16.4674ZM125.425 23.3681H127.591C129.695 23.3681 130.746 22.6378 130.746 21.1759C130.746 20.4626 130.485 19.9565 129.964 19.6562C129.442 19.3415 128.651 19.1842 127.591 19.1842H125.425V23.3681ZM136.863 26.2081V9.96533H140.697V23.119H147.427V26.2081H136.863ZM149.843 26.2081V9.96533H153.676V26.2081H149.843ZM157.166 26.2081V9.96533H161.001V16.6169H161.105L166.165 9.96533H170.392L165.253 16.4425L171.33 26.2081H167.131L162.983 19.3573L161.001 21.8485V26.2081H157.166Z" fill="white"/>
</g>
<defs>
<clipPath id="clip0_1117_1073">
<rect width="171.609" height="32.7793" fill="white" transform="translate(0 0.469849)"/>
</clipPath>
</defs>
</svg>
