<svg width="244" height="35" viewBox="0 0 244 35" fill="none" xmlns="http://www.w3.org/2000/svg">
<path d="M15.9091 34.6746C7.1225 34.6746 0 26.9127 0 17.3373C0 7.76191 7.1225 4.88615e-06 15.9091 4.88615e-06C18.3792 -0.00201744 20.8158 0.623753 23.0251 1.8276C25.2345 3.03145 27.1558 4.7802 28.6364 6.93493H24.325C22.4879 5.16957 20.2223 4.01941 17.8002 3.62246C15.3781 3.22551 12.9024 3.59863 10.67 4.69705C8.43772 5.79547 6.54364 7.57252 5.21511 9.81497C3.88658 12.0574 3.18002 14.67 3.18022 17.3392C3.18043 20.0084 3.88738 22.6209 5.21626 24.8631C6.54514 27.1053 8.43948 28.882 10.672 29.98C12.9045 31.0781 15.3803 31.4507 17.8023 31.0533C20.2244 30.6559 22.4897 29.5054 24.3266 27.7397H28.638C27.1572 29.8946 25.2356 31.6435 23.026 32.8474C20.8163 34.0513 18.3795 34.6769 15.9091 34.6746ZM27.0455 24.2722V19.071H14.3182V15.6036H27.0455V10.4024L35 17.3373L27.0455 24.2722Z" fill="#2176FF"/>
<path d="M53.22 7C56.22 7 58.51 7.55 60.09 8.65C61.69 9.75 62.49 11.43 62.49 13.69C62.49 16.51 61.1 18.42 58.32 19.42C58.7 19.88 59.13 20.44 59.61 21.1C60.09 21.76 60.58 22.48 61.08 23.26C61.58 24.02 62.06 24.81 62.52 25.63C62.98 26.43 63.39 27.22 63.75 28H59.52C59.14 27.28 58.73 26.56 58.29 25.84C57.85 25.1 57.4 24.39 56.94 23.71C56.5 23.01 56.06 22.36 55.62 21.76C55.18 21.14 54.77 20.59 54.39 20.11C54.11 20.13 53.87 20.14 53.67 20.14C53.47 20.14 53.28 20.14 53.1 20.14H51.27V28H47.49V7.51C48.41 7.31 49.39 7.18 50.43 7.12C51.47 7.04 52.4 7 53.22 7ZM53.49 10.27C52.69 10.27 51.95 10.3 51.27 10.36V17.08H52.92C53.84 17.08 54.65 17.03 55.35 16.93C56.05 16.83 56.63 16.65 57.09 16.39C57.57 16.13 57.93 15.78 58.17 15.34C58.41 14.9 58.53 14.34 58.53 13.66C58.53 13.02 58.41 12.48 58.17 12.04C57.93 11.6 57.58 11.25 57.12 10.99C56.68 10.73 56.15 10.55 55.53 10.45C54.91 10.33 54.23 10.27 53.49 10.27ZM65.6295 20.23C65.6295 18.85 65.8295 17.64 66.2295 16.6C66.6495 15.56 67.1995 14.7 67.8795 14.02C68.5595 13.32 69.3395 12.8 70.2195 12.46C71.0995 12.1 71.9995 11.92 72.9195 11.92C75.0795 11.92 76.7595 12.59 77.9595 13.93C79.1795 15.27 79.7895 17.27 79.7895 19.93C79.7895 20.13 79.7795 20.36 79.7595 20.62C79.7595 20.86 79.7495 21.08 79.7295 21.28H69.3795C69.4795 22.54 69.9195 23.52 70.6995 24.22C71.4995 24.9 72.6495 25.24 74.1495 25.24C75.0295 25.24 75.8295 25.16 76.5495 25C77.2895 24.84 77.8695 24.67 78.2895 24.49L78.7695 27.46C78.5695 27.56 78.2895 27.67 77.9295 27.79C77.5895 27.89 77.1895 27.98 76.7295 28.06C76.2895 28.16 75.8095 28.24 75.2895 28.3C74.7695 28.36 74.2395 28.39 73.6995 28.39C72.3195 28.39 71.1195 28.19 70.0995 27.79C69.0795 27.37 68.2395 26.8 67.5795 26.08C66.9195 25.34 66.4295 24.48 66.1095 23.5C65.7895 22.5 65.6295 21.41 65.6295 20.23ZM76.1595 18.61C76.1595 18.11 76.0895 17.64 75.9495 17.2C75.8095 16.74 75.5995 16.35 75.3195 16.03C75.0595 15.69 74.7295 15.43 74.3295 15.25C73.9495 15.05 73.4895 14.95 72.9495 14.95C72.3895 14.95 71.8995 15.06 71.4795 15.28C71.0595 15.48 70.6995 15.75 70.3995 16.09C70.1195 16.43 69.8995 16.82 69.7395 17.26C69.5795 17.7 69.4695 18.15 69.4095 18.61H76.1595ZM82.7681 20.23C82.7681 18.85 82.9681 17.64 83.3681 16.6C83.7881 15.56 84.3381 14.7 85.0181 14.02C85.6981 13.32 86.4781 12.8 87.3581 12.46C88.2381 12.1 89.1381 11.92 90.0581 11.92C92.2181 11.92 93.8981 12.59 95.0981 13.93C96.3181 15.27 96.9281 17.27 96.9281 19.93C96.9281 20.13 96.9181 20.36 96.8981 20.62C96.8981 20.86 96.8881 21.08 96.8681 21.28H86.5181C86.6181 22.54 87.0581 23.52 87.8381 24.22C88.6381 24.9 89.7881 25.24 91.2881 25.24C92.1681 25.24 92.9681 25.16 93.6881 25C94.4281 24.84 95.0081 24.67 95.4281 24.49L95.9081 27.46C95.7081 27.56 95.4281 27.67 95.0681 27.79C94.7281 27.89 94.3281 27.98 93.8681 28.06C93.4281 28.16 92.9481 28.24 92.4281 28.3C91.9081 28.36 91.3781 28.39 90.8381 28.39C89.4581 28.39 88.2581 28.19 87.2381 27.79C86.2181 27.37 85.3781 26.8 84.7181 26.08C84.0581 25.34 83.5681 24.48 83.2481 23.5C82.9281 22.5 82.7681 21.41 82.7681 20.23ZM93.2981 18.61C93.2981 18.11 93.2281 17.64 93.0881 17.2C92.9481 16.74 92.7381 16.35 92.4581 16.03C92.1981 15.69 91.8681 15.43 91.4681 15.25C91.0881 15.05 90.6281 14.95 90.0881 14.95C89.5281 14.95 89.0381 15.06 88.6181 15.28C88.1981 15.48 87.8381 15.75 87.5381 16.09C87.2581 16.43 87.0381 16.82 86.8781 17.26C86.7181 17.7 86.6081 18.15 86.5481 18.61H93.2981ZM104.707 25.39C105.667 25.39 106.367 25.28 106.807 25.06C107.247 24.82 107.467 24.42 107.467 23.86C107.467 23.34 107.227 22.91 106.747 22.57C106.287 22.23 105.517 21.86 104.437 21.46C103.777 21.22 103.167 20.97 102.607 20.71C102.067 20.43 101.597 20.11 101.197 19.75C100.797 19.39 100.477 18.96 100.237 18.46C100.017 17.94 99.9068 17.31 99.9068 16.57C99.9068 15.13 100.437 14 101.497 13.18C102.557 12.34 103.997 11.92 105.817 11.92C106.737 11.92 107.617 12.01 108.457 12.19C109.297 12.35 109.927 12.51 110.347 12.67L109.687 15.61C109.287 15.43 108.777 15.27 108.157 15.13C107.537 14.97 106.817 14.89 105.997 14.89C105.257 14.89 104.657 15.02 104.197 15.28C103.737 15.52 103.507 15.9 103.507 16.42C103.507 16.68 103.547 16.91 103.627 17.11C103.727 17.31 103.887 17.5 104.107 17.68C104.327 17.84 104.617 18.01 104.977 18.19C105.337 18.35 105.777 18.52 106.297 18.7C107.157 19.02 107.887 19.34 108.487 19.66C109.087 19.96 109.577 20.31 109.957 20.71C110.357 21.09 110.647 21.53 110.827 22.03C111.007 22.53 111.097 23.13 111.097 23.83C111.097 25.33 110.537 26.47 109.417 27.25C108.317 28.01 106.737 28.39 104.677 28.39C103.297 28.39 102.187 28.27 101.347 28.03C100.507 27.81 99.9168 27.63 99.5768 27.49L100.207 24.46C100.747 24.68 101.387 24.89 102.127 25.09C102.887 25.29 103.747 25.39 104.707 25.39ZM114.308 8.17L117.938 7.57V12.31H123.518V15.34H117.938V21.73C117.938 22.99 118.138 23.89 118.538 24.43C118.938 24.97 119.618 25.24 120.578 25.24C121.238 25.24 121.818 25.17 122.318 25.03C122.838 24.89 123.248 24.76 123.548 24.64L124.148 27.52C123.728 27.7 123.178 27.88 122.498 28.06C121.818 28.26 121.018 28.36 120.098 28.36C118.978 28.36 118.038 28.21 117.278 27.91C116.538 27.61 115.948 27.18 115.508 26.62C115.068 26.04 114.758 25.35 114.578 24.55C114.398 23.73 114.308 22.8 114.308 21.76V8.17ZM135.967 15.58C135.667 15.48 135.247 15.38 134.707 15.28C134.187 15.16 133.577 15.1 132.877 15.1C132.477 15.1 132.047 15.14 131.587 15.22C131.147 15.3 130.837 15.37 130.657 15.43V28H127.027V13.06C127.727 12.8 128.597 12.56 129.637 12.34C130.697 12.1 131.867 11.98 133.147 11.98C133.387 11.98 133.667 12 133.987 12.04C134.307 12.06 134.627 12.1 134.947 12.16C135.267 12.2 135.577 12.26 135.877 12.34C136.177 12.4 136.417 12.46 136.597 12.52L135.967 15.58Z" fill="#2176FF"/>
<path d="M148.73 28.45C147.17 28.45 145.77 28.21 144.53 27.73C143.29 27.25 142.24 26.55 141.38 25.63C140.52 24.69 139.86 23.55 139.4 22.21C138.94 20.87 138.71 19.33 138.71 17.59C138.71 15.85 138.97 14.31 139.49 12.97C140.03 11.63 140.76 10.5 141.68 9.58C142.6 8.64 143.68 7.93 144.92 7.45C146.16 6.97 147.49 6.73 148.91 6.73C149.77 6.73 150.55 6.8 151.25 6.94C151.95 7.06 152.56 7.2 153.08 7.36C153.6 7.52 154.03 7.69 154.37 7.87C154.71 8.05 154.95 8.18 155.09 8.26L153.98 11.35C153.5 11.05 152.81 10.77 151.91 10.51C151.03 10.23 150.07 10.09 149.03 10.09C148.13 10.09 147.29 10.25 146.51 10.57C145.73 10.87 145.05 11.33 144.47 11.95C143.91 12.57 143.47 13.35 143.15 14.29C142.83 15.23 142.67 16.32 142.67 17.56C142.67 18.66 142.79 19.67 143.03 20.59C143.29 21.51 143.68 22.31 144.2 22.99C144.72 23.65 145.38 24.17 146.18 24.55C146.98 24.91 147.94 25.09 149.06 25.09C150.4 25.09 151.49 24.96 152.33 24.7C153.17 24.42 153.82 24.16 154.28 23.92L155.3 27.01C155.06 27.17 154.73 27.33 154.31 27.49C153.91 27.65 153.43 27.81 152.87 27.97C152.31 28.11 151.68 28.22 150.98 28.3C150.28 28.4 149.53 28.45 148.73 28.45ZM172.25 20.14C172.25 21.38 172.07 22.51 171.71 23.53C171.35 24.55 170.84 25.42 170.18 26.14C169.52 26.86 168.72 27.42 167.78 27.82C166.86 28.22 165.84 28.42 164.72 28.42C163.6 28.42 162.58 28.22 161.66 27.82C160.74 27.42 159.95 26.86 159.29 26.14C158.63 25.42 158.11 24.55 157.73 23.53C157.37 22.51 157.19 21.38 157.19 20.14C157.19 18.9 157.37 17.78 157.73 16.78C158.11 15.76 158.63 14.89 159.29 14.17C159.97 13.45 160.77 12.9 161.69 12.52C162.61 12.12 163.62 11.92 164.72 11.92C165.82 11.92 166.83 12.12 167.75 12.52C168.69 12.9 169.49 13.45 170.15 14.17C170.81 14.89 171.32 15.76 171.68 16.78C172.06 17.78 172.25 18.9 172.25 20.14ZM168.53 20.14C168.53 18.58 168.19 17.35 167.51 16.45C166.85 15.53 165.92 15.07 164.72 15.07C163.52 15.07 162.58 15.53 161.9 16.45C161.24 17.35 160.91 18.58 160.91 20.14C160.91 21.72 161.24 22.97 161.9 23.89C162.58 24.81 163.52 25.27 164.72 25.27C165.92 25.27 166.85 24.81 167.51 23.89C168.19 22.97 168.53 21.72 168.53 20.14ZM175.99 12.82C176.69 12.62 177.6 12.43 178.72 12.25C179.84 12.07 181.08 11.98 182.44 11.98C183.72 11.98 184.79 12.16 185.65 12.52C186.51 12.86 187.19 13.35 187.69 13.99C188.21 14.61 188.57 15.37 188.77 16.27C188.99 17.15 189.1 18.12 189.1 19.18V28H185.47V19.75C185.47 18.91 185.41 18.2 185.29 17.62C185.19 17.02 185.01 16.54 184.75 16.18C184.51 15.8 184.17 15.53 183.73 15.37C183.31 15.19 182.79 15.1 182.17 15.1C181.71 15.1 181.23 15.13 180.73 15.19C180.23 15.25 179.86 15.3 179.62 15.34V28H175.99V12.82ZM197.469 25.39C198.429 25.39 199.129 25.28 199.569 25.06C200.009 24.82 200.229 24.42 200.229 23.86C200.229 23.34 199.989 22.91 199.509 22.57C199.049 22.23 198.279 21.86 197.199 21.46C196.539 21.22 195.929 20.97 195.369 20.71C194.829 20.43 194.359 20.11 193.959 19.75C193.559 19.39 193.239 18.96 192.999 18.46C192.779 17.94 192.669 17.31 192.669 16.57C192.669 15.13 193.199 14 194.259 13.18C195.319 12.34 196.759 11.92 198.579 11.92C199.499 11.92 200.379 12.01 201.219 12.19C202.059 12.35 202.689 12.51 203.109 12.67L202.449 15.61C202.049 15.43 201.539 15.27 200.919 15.13C200.299 14.97 199.579 14.89 198.759 14.89C198.019 14.89 197.419 15.02 196.959 15.28C196.499 15.52 196.269 15.9 196.269 16.42C196.269 16.68 196.309 16.91 196.389 17.11C196.489 17.31 196.649 17.5 196.869 17.68C197.089 17.84 197.379 18.01 197.739 18.19C198.099 18.35 198.539 18.52 199.059 18.7C199.919 19.02 200.649 19.34 201.249 19.66C201.849 19.96 202.339 20.31 202.719 20.71C203.119 21.09 203.409 21.53 203.589 22.03C203.769 22.53 203.859 23.13 203.859 23.83C203.859 25.33 203.299 26.47 202.179 27.25C201.079 28.01 199.499 28.39 197.439 28.39C196.059 28.39 194.949 28.27 194.109 28.03C193.269 27.81 192.679 27.63 192.339 27.49L192.969 24.46C193.509 24.68 194.149 24.89 194.889 25.09C195.649 25.29 196.509 25.39 197.469 25.39ZM220.119 27.52C219.419 27.7 218.509 27.88 217.389 28.06C216.269 28.26 215.039 28.36 213.699 28.36C212.439 28.36 211.379 28.18 210.519 27.82C209.679 27.46 208.999 26.96 208.479 26.32C207.979 25.68 207.619 24.92 207.399 24.04C207.179 23.14 207.069 22.16 207.069 21.1V12.31H210.699V20.53C210.699 22.21 210.939 23.41 211.419 24.13C211.919 24.85 212.779 25.21 213.999 25.21C214.439 25.21 214.899 25.19 215.379 25.15C215.879 25.11 216.249 25.06 216.489 25V12.31H220.119V27.52ZM230.2 28.3C229.12 28.28 228.22 28.16 227.5 27.94C226.8 27.72 226.24 27.41 225.82 27.01C225.4 26.59 225.1 26.08 224.92 25.48C224.76 24.86 224.68 24.16 224.68 23.38V5.32L228.31 4.72V22.69C228.31 23.13 228.34 23.5 228.4 23.8C228.48 24.1 228.61 24.36 228.79 24.58C228.97 24.78 229.21 24.94 229.51 25.06C229.83 25.16 230.23 25.24 230.71 25.3L230.2 28.3ZM233.466 8.17L237.096 7.57V12.31H242.676V15.34H237.096V21.73C237.096 22.99 237.296 23.89 237.696 24.43C238.096 24.97 238.776 25.24 239.736 25.24C240.396 25.24 240.976 25.17 241.476 25.03C241.996 24.89 242.406 24.76 242.706 24.64L243.306 27.52C242.886 27.7 242.336 27.88 241.656 28.06C240.976 28.26 240.176 28.36 239.256 28.36C238.136 28.36 237.196 28.21 236.436 27.91C235.696 27.61 235.106 27.18 234.666 26.62C234.226 26.04 233.916 25.35 233.736 24.55C233.556 23.73 233.466 22.8 233.466 21.76V8.17Z" fill="#2176FF"/>
</svg>
