<svg width="146" height="45" viewBox="0 0 146 45" fill="none" xmlns="http://www.w3.org/2000/svg">
<path d="M20.7062 5.7466L0 0L27.9552 26.4194L20.7062 5.7466Z" fill="#2F3C43"/>
<path d="M47.2117 23.5088L22.8995 7.08996L30.3344 28.5091L47.2117 23.5088Z" fill="#2F3C43"/>
<path d="M43.9406 6.00788L36.2083 14.18L47.8439 22.0536L43.9406 6.00788Z" fill="#2F3C43"/>
<path d="M53.1973 7.61284L45.3902 5.48574L47.2119 12.9493L53.1973 7.61284Z" fill="#2F3C43"/>
<path d="M29.0708 30.8601L29.3682 40.786L15.4649 40.9726L29.0708 30.8601Z" fill="#2F3C43"/>
<path d="M30.5947 29.89L30.8921 44.3311L46.8028 25.2628L30.5947 29.89Z" fill="#2F3C43"/>
<path d="M21.3396 5.7466L0.633423 0L28.5886 26.4194L21.3396 5.7466Z" fill="white"/>
<path d="M21.3396 5.7466L0.633423 0L28.5886 26.4194L21.3396 5.7466Z" fill="url(#paint0_linear_1916_695)"/>
<path d="M47.8451 23.5088L23.533 7.08996L30.9679 28.5091L47.8451 23.5088Z" fill="white"/>
<path d="M47.8451 23.5088L23.533 7.08996L30.9679 28.5091L47.8451 23.5088Z" fill="url(#paint1_linear_1916_695)"/>
<path d="M44.574 6.00788L36.8417 14.18L48.4774 22.0536L44.574 6.00788Z" fill="white"/>
<path d="M44.574 6.00788L36.8417 14.18L48.4774 22.0536L44.574 6.00788Z" fill="url(#paint2_linear_1916_695)"/>
<path d="M53.8307 7.61284L46.0237 5.48574L47.8453 12.9493L53.8307 7.61284Z" fill="white"/>
<path d="M53.8307 7.61284L46.0237 5.48574L47.8453 12.9493L53.8307 7.61284Z" fill="url(#paint3_linear_1916_695)"/>
<path d="M29.7042 30.8601L30.0016 40.786L16.0983 40.9726L29.7042 30.8601Z" fill="white"/>
<path d="M29.7042 30.8601L30.0016 40.786L16.0983 40.9726L29.7042 30.8601Z" fill="url(#paint4_linear_1916_695)"/>
<path d="M31.2281 29.89L31.5255 44.3311L47.4362 25.2628L31.2281 29.89Z" fill="white"/>
<path d="M31.2281 29.89L31.5255 44.3311L47.4362 25.2628L31.2281 29.89Z" fill="url(#paint5_linear_1916_695)"/>
<path d="M66.0727 22.167C64.9169 22.167 63.7967 21.9991 62.7123 21.6634C61.6421 21.3277 60.7931 20.8824 60.1652 20.3277L61.1284 18.1162C61.742 18.6125 62.4911 19.0213 63.3758 19.3424C64.2747 19.649 65.1737 19.8022 66.0727 19.8022C67.1857 19.8022 68.0133 19.6198 68.5555 19.2548C69.112 18.8899 69.3902 18.4082 69.3902 17.8097C69.3902 17.3718 69.2333 17.0141 68.9194 16.7368C68.6197 16.4448 68.2344 16.2186 67.7636 16.058C67.2927 15.8974 66.6506 15.715 65.8372 15.5106C64.6957 15.2333 63.7682 14.9559 63.0547 14.6786C62.3555 14.4012 61.7491 13.9706 61.2354 13.3867C60.736 12.7882 60.4863 11.9853 60.4863 10.9781C60.4863 10.1315 60.7075 9.36511 61.1498 8.67904C61.6064 7.97836 62.2842 7.42366 63.1832 7.01494C64.0964 6.60621 65.2094 6.40185 66.5221 6.40185C67.4354 6.40185 68.3343 6.51863 69.219 6.75218C70.1037 6.98574 70.8671 7.32148 71.5092 7.7594L70.6317 9.9709C69.9753 9.57677 69.2904 9.27753 68.5769 9.07317C67.8634 8.8688 67.1714 8.76662 66.5007 8.76662C65.402 8.76662 64.5815 8.95639 64.0393 9.33592C63.5113 9.71545 63.2474 10.2191 63.2474 10.8467C63.2474 11.2847 63.3972 11.6423 63.6968 11.9197C64.0108 12.197 64.4032 12.416 64.8741 12.5765C65.3449 12.7371 65.987 12.9196 66.8004 13.1239C67.9134 13.3867 68.8266 13.664 69.5401 13.956C70.2535 14.2333 70.86 14.664 71.3594 15.2479C71.8731 15.8317 72.1299 16.62 72.1299 17.6126C72.1299 18.4593 71.9016 19.2256 71.445 19.9117C71.0027 20.5978 70.3249 21.1452 69.4116 21.5539C68.4984 21.9626 67.3854 22.167 66.0727 22.167Z" fill="#2F3C43"/>
<path d="M77.5859 16.9338L75.5953 18.8607V21.948H72.9199V5.70117H75.5953V15.5106L81.1389 10.2556H84.3495L79.5764 15.1603L84.799 21.948H81.5456L77.5859 16.9338Z" fill="#2F3C43"/>
<path d="M89.471 22.1013C88.3152 22.1013 87.2735 21.8459 86.346 21.335C85.4185 20.824 84.6908 20.1161 84.1629 19.211C83.6492 18.2914 83.3923 17.255 83.3923 16.1018C83.3923 14.9486 83.6492 13.9195 84.1629 13.0145C84.6908 12.1094 85.4185 11.4014 86.346 10.8905C87.2735 10.3796 88.3152 10.1242 89.471 10.1242C90.6411 10.1242 91.6898 10.3796 92.6173 10.8905C93.5448 11.4014 94.2654 12.1094 94.7791 13.0145C95.3071 13.9195 95.5711 14.9486 95.5711 16.1018C95.5711 17.255 95.3071 18.2914 94.7791 19.211C94.2654 20.1161 93.5448 20.824 92.6173 21.335C91.6898 21.8459 90.6411 22.1013 89.471 22.1013ZM89.471 19.7584C90.4556 19.7584 91.2689 19.4227 91.911 18.7512C92.5531 18.0797 92.8742 17.1966 92.8742 16.1018C92.8742 15.007 92.5531 14.1239 91.911 13.4524C91.2689 12.7809 90.4556 12.4452 89.471 12.4452C88.4864 12.4452 87.6731 12.7809 87.031 13.4524C86.4031 14.1239 86.0892 15.007 86.0892 16.1018C86.0892 17.1966 86.4031 18.0797 87.031 18.7512C87.6731 19.4227 88.4864 19.7584 89.471 19.7584Z" fill="#2F3C43"/>
<path d="M96.4172 5.70117H99.0927V21.948H96.4172V5.70117Z" fill="#2F3C43"/>
<path d="M105.558 16.9338L103.567 18.8607V21.948H100.892V5.70117H103.567V15.5106L109.111 10.2556H112.322L107.548 15.1603L112.771 21.948H109.518L105.558 16.9338Z" fill="#2F3C43"/>
<path d="M117.443 22.1013C116.287 22.1013 115.246 21.8459 114.318 21.335C113.391 20.824 112.663 20.1161 112.135 19.211C111.621 18.2914 111.364 17.255 111.364 16.1018C111.364 14.9486 111.621 13.9195 112.135 13.0145C112.663 12.1094 113.391 11.4014 114.318 10.8905C115.246 10.3796 116.287 10.1242 117.443 10.1242C118.613 10.1242 119.662 10.3796 120.589 10.8905C121.517 11.4014 122.237 12.1094 122.751 13.0145C123.279 13.9195 123.543 14.9486 123.543 16.1018C123.543 17.255 123.279 18.2914 122.751 19.211C122.237 20.1161 121.517 20.824 120.589 21.335C119.662 21.8459 118.613 22.1013 117.443 22.1013ZM117.443 19.7584C118.428 19.7584 119.241 19.4227 119.883 18.7512C120.525 18.0797 120.846 17.1966 120.846 16.1018C120.846 15.007 120.525 14.1239 119.883 13.4524C119.241 12.7809 118.428 12.4452 117.443 12.4452C116.458 12.4452 115.645 12.7809 115.003 13.4524C114.375 14.1239 114.061 15.007 114.061 16.1018C114.061 17.1966 114.375 18.0797 115.003 18.7512C115.645 19.4227 116.458 19.7584 117.443 19.7584Z" fill="#2F3C43"/>
<path d="M134.778 10.2556L129.876 21.948H127.115L122.214 10.2556H124.996L128.549 18.9264L132.209 10.2556H134.778Z" fill="#2F3C43"/>
<path d="M139.561 22.1013C138.405 22.1013 137.363 21.8459 136.436 21.335C135.508 20.824 134.781 20.1161 134.253 19.211C133.739 18.2914 133.482 17.255 133.482 16.1018C133.482 14.9486 133.739 13.9195 134.253 13.0145C134.781 12.1094 135.508 11.4014 136.436 10.8905C137.363 10.3796 138.405 10.1242 139.561 10.1242C140.731 10.1242 141.78 10.3796 142.707 10.8905C143.635 11.4014 144.355 12.1094 144.869 13.0145C145.397 13.9195 145.661 14.9486 145.661 16.1018C145.661 17.255 145.397 18.2914 144.869 19.211C144.355 20.1161 143.635 20.824 142.707 21.335C141.78 21.8459 140.731 22.1013 139.561 22.1013ZM139.561 19.7584C140.545 19.7584 141.359 19.4227 142.001 18.7512C142.643 18.0797 142.964 17.1966 142.964 16.1018C142.964 15.007 142.643 14.1239 142.001 13.4524C141.359 12.7809 140.545 12.4452 139.561 12.4452C138.576 12.4452 137.763 12.7809 137.121 13.4524C136.493 14.1239 136.179 15.007 136.179 16.1018C136.179 17.1966 136.493 18.0797 137.121 18.7512C137.763 19.4227 138.576 19.7584 139.561 19.7584Z" fill="#2F3C43"/>
<path d="M62.0578 31.8911C62.4007 31.2548 62.9081 30.7706 63.5801 30.4386C64.2521 30.1066 65.0682 29.9406 66.0282 29.9406V31.8704C65.9184 31.8565 65.7676 31.8496 65.5756 31.8496C64.5059 31.8496 63.6624 32.1747 63.0453 32.8249C62.4418 33.4612 62.1401 34.3742 62.1401 35.5639V41.042H60.1652V30.0443H62.0578V31.8911Z" fill="#2F3C43"/>
<path d="M78.2156 35.6054C78.2156 35.7576 78.2019 35.9582 78.1745 36.2072H69.3286C69.4521 37.1755 69.8704 37.9571 70.5835 38.552C71.3104 39.133 72.2087 39.4235 73.2784 39.4235C74.5813 39.4235 75.6304 38.9808 76.4259 38.0955L77.5162 39.382C77.0225 39.963 76.4053 40.4057 75.6647 40.71C74.9379 41.0143 74.1219 41.1665 73.2167 41.1665C72.0647 41.1665 71.043 40.9313 70.1515 40.461C69.2601 39.9768 68.5675 39.3059 68.0738 38.4482C67.5938 37.5905 67.3538 36.6222 67.3538 35.5432C67.3538 34.478 67.5869 33.5165 68.0532 32.6589C68.5332 31.8012 69.1846 31.1372 70.0075 30.6668C70.8441 30.1827 71.7835 29.9406 72.8258 29.9406C73.8681 29.9406 74.7939 30.1827 75.603 30.6668C76.4259 31.1372 77.0636 31.8012 77.5162 32.6589C77.9825 33.5165 78.2156 34.4987 78.2156 35.6054ZM72.8258 31.6213C71.8795 31.6213 71.0841 31.9119 70.4395 32.4929C69.8086 33.0739 69.4384 33.8347 69.3286 34.7754H76.323C76.2133 33.8486 75.8362 33.0946 75.1916 32.5136C74.5607 31.9188 73.7721 31.6213 72.8258 31.6213Z" fill="#2F3C43"/>
<path d="M84.0848 41.1665C83.1934 41.1665 82.3362 41.0489 81.5134 40.8138C80.6905 40.5648 80.0459 40.2535 79.5796 39.88L80.4025 38.303C80.8825 38.6488 81.4654 38.9255 82.1511 39.133C82.8368 39.3405 83.5294 39.4442 84.2288 39.4442C85.9569 39.4442 86.8209 38.9462 86.8209 37.9502C86.8209 37.6182 86.7043 37.3554 86.4712 37.1617C86.238 36.968 85.9431 36.8297 85.5866 36.7467C85.2437 36.6499 84.75 36.5461 84.1054 36.4354C83.2277 36.2971 82.5077 36.138 81.9454 35.9582C81.3968 35.7783 80.9236 35.474 80.5259 35.0452C80.1282 34.6163 79.9293 34.0146 79.9293 33.2399C79.9293 32.2439 80.3408 31.4484 81.1637 30.8536C81.9865 30.2449 83.0905 29.9406 84.4757 29.9406C85.2026 29.9406 85.9294 30.0305 86.6563 30.2103C87.3832 30.3902 87.9798 30.6322 88.446 30.9366L87.6026 32.5136C86.7112 31.9326 85.662 31.6421 84.4551 31.6421C83.6185 31.6421 82.9808 31.7804 82.542 32.0571C82.1031 32.3338 81.8837 32.7004 81.8837 33.1569C81.8837 33.5165 82.0071 33.8001 82.254 34.0076C82.5008 34.2151 82.8025 34.3673 83.1591 34.4641C83.5294 34.561 84.0437 34.6717 84.702 34.7962C85.5797 34.9483 86.286 35.1143 86.8209 35.2942C87.3695 35.4602 87.8357 35.7507 88.2198 36.1657C88.6038 36.5807 88.7958 37.1617 88.7958 37.9087C88.7958 38.9047 88.3706 39.7002 87.5203 40.295C86.6837 40.876 85.5386 41.1665 84.0848 41.1665Z" fill="#2F3C43"/>
<path d="M91.2639 30.0443H93.2388V41.042H91.2639V30.0443ZM92.2513 27.9278C91.8673 27.9278 91.545 27.8033 91.2845 27.5543C91.0376 27.3053 90.9142 27.0009 90.9142 26.6413C90.9142 26.2816 91.0376 25.9772 91.2845 25.7282C91.545 25.4654 91.8673 25.334 92.2513 25.334C92.6353 25.334 92.9508 25.4585 93.1976 25.7075C93.4582 25.9427 93.5885 26.2401 93.5885 26.5998C93.5885 26.9733 93.4582 27.2914 93.1976 27.5543C92.9508 27.8033 92.6353 27.9278 92.2513 27.9278Z" fill="#2F3C43"/>
<path d="M107.295 25.6452V41.042H105.403V39.299C104.964 39.9077 104.408 40.3711 103.736 40.6893C103.064 41.0074 102.324 41.1665 101.515 41.1665C100.459 41.1665 99.5124 40.9313 98.6758 40.461C97.8392 39.9907 97.1809 39.3336 96.7009 38.4897C96.2346 37.632 96.0015 36.6499 96.0015 35.5432C96.0015 34.4365 96.2346 33.4612 96.7009 32.6174C97.1809 31.7735 97.8392 31.1164 98.6758 30.6461C99.5124 30.1757 100.459 29.9406 101.515 29.9406C102.296 29.9406 103.016 30.0927 103.675 30.3971C104.333 30.6876 104.882 31.1233 105.32 31.7043V25.6452H107.295ZM101.679 39.4235C102.365 39.4235 102.989 39.2644 103.551 38.9462C104.114 38.6142 104.552 38.1577 104.868 37.5767C105.183 36.9819 105.341 36.304 105.341 35.5432C105.341 34.7823 105.183 34.1114 104.868 33.5304C104.552 32.9355 104.114 32.479 103.551 32.1609C102.989 31.8427 102.365 31.6836 101.679 31.6836C100.98 31.6836 100.349 31.8427 99.7867 32.1609C99.2381 32.479 98.7992 32.9355 98.4701 33.5304C98.1547 34.1114 97.997 34.7823 97.997 35.5432C97.997 36.304 98.1547 36.9819 98.4701 37.5767C98.7992 38.1577 99.2381 38.6142 99.7867 38.9462C100.349 39.2644 100.98 39.4235 101.679 39.4235Z" fill="#2F3C43"/>
<path d="M120.886 35.6054C120.886 35.7576 120.872 35.9582 120.845 36.2072H111.999C112.122 37.1755 112.541 37.9571 113.254 38.552C113.981 39.133 114.879 39.4235 115.949 39.4235C117.252 39.4235 118.301 38.9808 119.096 38.0955L120.186 39.382C119.693 39.963 119.076 40.4057 118.335 40.71C117.608 41.0143 116.792 41.1665 115.887 41.1665C114.735 41.1665 113.713 40.9313 112.822 40.461C111.93 39.9768 111.238 39.3059 110.744 38.4482C110.264 37.5905 110.024 36.6222 110.024 35.5432C110.024 34.478 110.257 33.5165 110.723 32.6589C111.203 31.8012 111.855 31.1372 112.678 30.6668C113.514 30.1827 114.454 29.9406 115.496 29.9406C116.538 29.9406 117.464 30.1827 118.273 30.6668C119.096 31.1372 119.734 31.8012 120.186 32.6589C120.653 33.5165 120.886 34.4987 120.886 35.6054ZM115.496 31.6213C114.55 31.6213 113.754 31.9119 113.11 32.4929C112.479 33.0739 112.109 33.8347 111.999 34.7754H118.993C118.884 33.8486 118.506 33.0946 117.862 32.5136C117.231 31.9188 116.442 31.6213 115.496 31.6213Z" fill="#2F3C43"/>
<path d="M129.45 29.9406C130.835 29.9406 131.932 30.3487 132.741 31.1648C133.564 31.9672 133.976 33.15 133.976 34.7132V41.042H132.001V34.9414C132.001 33.8762 131.747 33.0739 131.24 32.5344C130.732 31.9949 130.005 31.7251 129.059 31.7251C127.989 31.7251 127.146 32.0433 126.529 32.6796C125.912 33.3021 125.603 34.2013 125.603 35.3772V41.042H123.628V30.0443H125.521V31.7043C125.919 31.1372 126.453 30.7014 127.125 30.3971C127.811 30.0927 128.586 29.9406 129.45 29.9406Z" fill="#2F3C43"/>
<path d="M143.761 40.3988C143.473 40.6478 143.116 40.8414 142.691 40.9798C142.266 41.1043 141.827 41.1665 141.375 41.1665C140.278 41.1665 139.427 40.8691 138.824 40.2743C138.22 39.6794 137.919 38.8286 137.919 37.722V31.6836H136.067V30.0443H137.919V27.6373H139.894V30.0443H143.02V31.6836H139.894V37.639C139.894 38.2338 140.038 38.6903 140.326 39.0085C140.627 39.3267 141.052 39.4857 141.601 39.4857C142.204 39.4857 142.719 39.3128 143.144 38.967L143.761 40.3988Z" fill="#2F3C43"/>
<defs>
<linearGradient id="paint0_linear_1916_695" x1="16.45" y1="41.4235" x2="55.3254" y2="6.82909" gradientUnits="userSpaceOnUse">
<stop stop-color="#DDF45F"/>
<stop offset="1" stop-color="#BDDF06"/>
</linearGradient>
<linearGradient id="paint1_linear_1916_695" x1="16.45" y1="41.4235" x2="55.3254" y2="6.82909" gradientUnits="userSpaceOnUse">
<stop stop-color="#DDF45F"/>
<stop offset="1" stop-color="#BDDF06"/>
</linearGradient>
<linearGradient id="paint2_linear_1916_695" x1="16.45" y1="41.4235" x2="55.3254" y2="6.82909" gradientUnits="userSpaceOnUse">
<stop stop-color="#DDF45F"/>
<stop offset="1" stop-color="#BDDF06"/>
</linearGradient>
<linearGradient id="paint3_linear_1916_695" x1="16.45" y1="41.4235" x2="55.3254" y2="6.82909" gradientUnits="userSpaceOnUse">
<stop stop-color="#DDF45F"/>
<stop offset="1" stop-color="#BDDF06"/>
</linearGradient>
<linearGradient id="paint4_linear_1916_695" x1="16.45" y1="41.4235" x2="55.3254" y2="6.82909" gradientUnits="userSpaceOnUse">
<stop stop-color="#DDF45F"/>
<stop offset="1" stop-color="#BDDF06"/>
</linearGradient>
<linearGradient id="paint5_linear_1916_695" x1="16.45" y1="41.4235" x2="55.3254" y2="6.82909" gradientUnits="userSpaceOnUse">
<stop stop-color="#DDF45F"/>
<stop offset="1" stop-color="#BDDF06"/>
</linearGradient>
</defs>
</svg>
